<svg id="圖層_1" data-name="圖層 1" xmlns="http://www.w3.org/2000/svg" viewBox="0 0 121.8 34.98"><defs><style>.cls-1{fill:#fff;}</style></defs><title>工作區域 1</title><g id="圖層_3" data-name="圖層 3"><g id="_群組_" data-name="&lt;群組&gt;"><path id="_路徑_" data-name="&lt;路徑&gt;" class="cls-1" d="M20.3,22.68a5.66,5.66,0,0,1-1.8-.3c-.2-.1-.4.1-.4.3v.9c0,.1.1.2.2.3a6.45,6.45,0,0,0,2,.3,6.58,6.58,0,0,0,.9-13.1,9.25,9.25,0,0,0-2.9.2c-.1,0-.2.2-.2.3v.9c0,.2.2.3.4.3a4.84,4.84,0,0,1,2.4-.3A5.1,5.1,0,0,1,25.3,17,4.92,4.92,0,0,1,20.3,22.68Z"/><path id="_路徑_2" data-name="&lt;路徑&gt;" class="cls-1" d="M34.4,7.38,20.6,1.58a.64.64,0,0,0-.6,0l-8.3,3.6-1.3.5c-.1,0-.2.2-.2.3v.9c0,.2.2.3.4.3h.1l.9-.4L20,3.18a.45.45,0,0,1,.5,0l12.4,5.3a.66.66,0,0,1,.4.5v17.3a.51.51,0,0,1-.4.5L20.5,32a.45.45,0,0,1-.5,0l-1.5-.6c-.2-.1-.4.1-.4.3v.9c0,.1.1.2.2.3l1.7.7c.1,0,.2.1.3.1a.37.37,0,0,0,.3-.1l13.8-5.8a.67.67,0,0,0,.4-.7v-19C34.9,7.78,34.7,7.58,34.4,7.38Z"/><path id="_複合路徑_" data-name="&lt;複合路徑&gt;" class="cls-1" d="M16.3,11.08,2.8,5.28c-.1,0-.1-.2,0-.3l7.4-3.2v1.9c0,.2.2.3.4.3l.9-.4c.1,0,.2-.2.2-.3V.48a.73.73,0,0,0-1-.4L.3,4.48a.71.71,0,0,0-.3.6v22.6a1,1,0,0,0,.4.7l15.4,6.5c.1,0,.2.1.3.1a.86.86,0,0,0,.6-.3.76.76,0,0,0,.2-.5V11.58A2.65,2.65,0,0,0,16.3,11.08ZM15.3,33c0,.1-.1.2-.2.1L1.7,27.38a.66.66,0,0,1-.4-.5V6.48c0-.1.1-.2.2-.1l13.4,5.7a.66.66,0,0,1,.4.5Z"/><path id="_路徑_3" data-name="&lt;路徑&gt;" class="cls-1" d="M46.2,9.78l-.9.6,1.1,1.1-3.8.1a22,22,0,0,0,2-2.3l-1.1-.5a9.71,9.71,0,0,1-2,2.5c-.3.3-.5.5-.8.5.1.3.3.8.4,1.1.5-.2,1.1-.2,6-.4.2.3.4.5.5.7l.9-.7A13.79,13.79,0,0,0,46.2,9.78Z"/><path id="_複合路徑_2" data-name="&lt;複合路徑&gt;" class="cls-1" d="M47.6,17.58v-4H41.4v4h1.1v-.5h3.9v.5Zm-5-1.6v-1.5h3.9V16Z"/><path id="_路徑_4" data-name="&lt;路徑&gt;" class="cls-1" d="M51.9,12.58h0l1.2-.1v-1H51.9v-1.3l1.2-.3L52.5,9a18.43,18.43,0,0,1-3,.8,2.61,2.61,0,0,1,.3.8c.3,0,.7-.1,1-.1v1H49.4v1h1.2A6.77,6.77,0,0,1,49.2,15a4.67,4.67,0,0,1,.5,1,7.68,7.68,0,0,0,1-1.8v3.3h1.1v-3.7a4.37,4.37,0,0,0,.6,1l.6-.9A9.48,9.48,0,0,0,51.9,12.58Z"/><polygon id="_路徑_5" data-name="&lt;路徑&gt;" class="cls-1" points="53.2 15.88 55.9 15.38 55.9 17.58 57 17.58 57 15.18 58.1 15.08 57.9 13.98 57 14.18 57 8.98 55.9 8.98 55.9 14.38 53 14.88 53.2 15.88"/><path id="_路徑_6" data-name="&lt;路徑&gt;" class="cls-1" d="M55,11.48l.8-.7a8.94,8.94,0,0,0-1.4-1.3l-.7.6A16.6,16.6,0,0,1,55,11.48Z"/><path id="_路徑_7" data-name="&lt;路徑&gt;" class="cls-1" d="M54.7,14l.7-.7A6.39,6.39,0,0,0,53.9,12l-.7.6A6.85,6.85,0,0,1,54.7,14Z"/><path id="_路徑_8" data-name="&lt;路徑&gt;" class="cls-1" d="M63.8,12.58H67v-1.1H63.4A21.75,21.75,0,0,0,63.5,9H62.3a21.75,21.75,0,0,1-.1,2.5H58.8v1.1H62a5.71,5.71,0,0,1-3.3,4.1,3.45,3.45,0,0,1,.8.9,6.11,6.11,0,0,0,3.4-3.9,6.75,6.75,0,0,0,3.5,3.9,3.92,3.92,0,0,1,.8-1A6.46,6.46,0,0,1,63.8,12.58Z"/><path id="_複合路徑_3" data-name="&lt;複合路徑&gt;" class="cls-1" d="M73.6,15.88h2v-.8h-2v-.5h2.3v-.9H73.6v-.5H72.5v.6H71.4c.1-.1.1-.2.1-.4l-.9-.3a4.52,4.52,0,0,1-1.1,1.7V13h6.7v-.8H74.8l.5-.4a15.46,15.46,0,0,0-1.5-.4,3.7,3.7,0,0,0,1.1-.5l-.4-.3h1.3v-.9H72.6a5.55,5.55,0,0,0-.6-.8l-.7.4c.1.1.2.3.4.5H68.5v.9h1.6l-.5.4a13.63,13.63,0,0,1,1.7.4,15.52,15.52,0,0,1-2.1.4,2.18,2.18,0,0,0,.5.4H68.5v1.6a5.46,5.46,0,0,1-.8,3.2,2.7,2.7,0,0,1,.8.7,5.26,5.26,0,0,0,1-2.8,2.26,2.26,0,0,1,.4.9,2.65,2.65,0,0,0,.5-.6V16h2v.5H69.6v.9h6.8v-.9H73.5v-.6Zm-2.5-5.3h3c-.3.1-.8.3-1.2.4A11.63,11.63,0,0,0,71.1,10.58Zm1.7,1.1c.6.2,1.1.3,1.6.5H70.8C71.5,12,72.1,11.88,72.8,11.68Zm-.3,3.4H70.7c.1-.2.2-.3.3-.5h1.5Z"/><path id="_路徑_9" data-name="&lt;路徑&gt;" class="cls-1" d="M80.2,10.18c.2.1.4.4.6.5a3,3,0,0,0,.7-.5,2.18,2.18,0,0,1,.5.4l.5-.5c-.1-.1-.3-.2-.5-.4l.5-.5L81.8,9a1.38,1.38,0,0,0-.3.4l-.6-.3-.5.4c.2.1.3.2.5.3A4.35,4.35,0,0,0,80.2,10.18Z"/><path id="_複合路徑_4" data-name="&lt;複合路徑&gt;" class="cls-1" d="M78.4,13.08h5.9v1.1h1.1v-1.9h-.7c.1-.9.1-2,.2-3H82.6V10h1.2v.3H82.6V11h1.1v.3H82.5V12h1.1v.3h-3a3,3,0,0,0,.7-.5c.2.2.4.3.5.5l.5-.5a1.54,1.54,0,0,0-.6-.4,2.65,2.65,0,0,0,.5-.6l-.7-.2c-.1.1-.2.3-.4.4l-.6-.3-.5.4c.2.1.3.2.5.3a2.09,2.09,0,0,0-.6.4v-.5H78.8V11h1.1v-.7H78.7V10a6.47,6.47,0,0,0,1.3-.4L79.6,9a10.55,10.55,0,0,1-1.9.5l.2,2.7h-.7v2h1v-1.1Zm1.8-1.2v-.1l.4.4H79.1v-.3Z"/><path id="_路徑_10" data-name="&lt;路徑&gt;" class="cls-1" d="M82,16.58v-.7h3.5V15H82.1a10.81,10.81,0,0,0,1.8-1.1l-.6-.6-.2.1h-4v.8h3a4.67,4.67,0,0,1-1,.5V15H77.4v.9h3.7v.6c0,.1,0,.1-.2.1H79.8a3.18,3.18,0,0,1,.3.9,7.12,7.12,0,0,0,1.6-.1C81.9,17.28,82,17,82,16.58Z"/><path id="_路徑_11" data-name="&lt;路徑&gt;" class="cls-1" d="M91.1,12a4.33,4.33,0,0,1,.1.5l-.8.1a11.26,11.26,0,0,0,1.5-2.1l-.7-.4a2.18,2.18,0,0,1-.5.8h-.4a11.16,11.16,0,0,0,1-1.6L90.5,9a6.28,6.28,0,0,1-.8,1.5c-.1.2-.2.3-.4.3a4.4,4.4,0,0,1,.2,1c.1-.1.2-.1.6-.1-.2.2-.3.4-.4.5s-.4.4-.5.4a3.71,3.71,0,0,1,.2.9c.1-.1.4-.1,1.9-.3,0,.2.1.3.1.4l.7-.2c-.1-.4-.3-1-.4-1.5Z"/><polygon id="_路徑_12" data-name="&lt;路徑&gt;" class="cls-1" points="93.2 15.78 93.7 15.78 93.7 16.08 94.6 16.08 94.6 13.58 93.7 13.58 93.7 14.88 93.2 14.88 93.2 13.58 92.3 13.58 92.3 17.58 93.2 17.58 93.2 15.78"/><path id="_路徑_13" data-name="&lt;路徑&gt;" class="cls-1" d="M93.1,11.58a5.92,5.92,0,0,1-.4.6c-.2.2-.3.4-.5.4a3.71,3.71,0,0,1,.2.9,5.6,5.6,0,0,1,1.9-.4.9.9,0,0,1,.1.5l.6-.3a5.85,5.85,0,0,0-.6-1.5l-.6.2c.1.1.1.3.2.5l-.8.1a10.71,10.71,0,0,0,1.3-2.1l-.7-.4a3,3,0,0,1-.4.8h-.5c.3-.4.6-.9.9-1.4l-.7-.4a5.14,5.14,0,0,1-.8,1.4c-.1.2-.2.3-.4.3a2.92,2.92,0,0,1,.2.9A7.72,7.72,0,0,1,93.1,11.58Z"/><path id="_路徑_14" data-name="&lt;路徑&gt;" class="cls-1" d="M91,14.88h-.4v-1.3h-.9v2.2h1.2a2.18,2.18,0,0,1-1.2,1.1,2,2,0,0,1,.6.7,2.67,2.67,0,0,0,1.7-2.7v-1.4h-.9v1.4Z"/><path id="_複合路徑_5" data-name="&lt;複合路徑&gt;" class="cls-1" d="M86.3,15.38l.2.9c.6-.1,1.2-.2,1.9-.3v1.6h.9v-7.3h.3v-1H86.5v1h.3v5Zm1.3-5.1h.7v1h-.7Zm0,1.9h.7v1h-.7Zm0,1.8h.7v1l-.7.1Z"/><path id="_複合路徑_6" data-name="&lt;複合路徑&gt;" class="cls-1" d="M104.1,16.38h-1v-2.1H96.6v2.1H95.5v.9h8.6Zm-5.7,0h-.8v-1.2h.8Zm1.8,0h-.8v-1.2h.8Zm1.8,0h-.8v-1.2h.8Z"/><path id="_複合路徑_7" data-name="&lt;複合路徑&gt;" class="cls-1" d="M99.7,14.28a3.36,3.36,0,0,0,1-1.6h1.8v.4c0,.1,0,.1-.2.1h-.9a7.93,7.93,0,0,1,.4.9,2.36,2.36,0,0,0,1.3-.2c.3-.1.4-.4.4-.9V9.18H99.9v1.9a2.92,2.92,0,0,1-1,2.5A5,5,0,0,1,99.7,14.28Zm1.2-4.2h1.6v.5h-1.6Zm0,1.3h1.6V12h-1.7A1.76,1.76,0,0,0,100.9,11.38Z"/><path id="_複合路徑_8" data-name="&lt;複合路徑&gt;" class="cls-1" d="M97,13.18h2.1V9.38H96v4.3h1Zm0-3h1.1v.7H97Zm0,1.5h1.1v.7H97Z"/><polygon id="_路徑_15" data-name="&lt;路徑&gt;" class="cls-1" points="43.5 24.68 41.7 21.98 40.7 21.98 40.7 26.28 41.7 26.28 41.7 23.68 43.5 26.28 44.5 26.28 44.5 21.98 43.5 21.98 43.5 24.68"/><polygon id="_路徑_16" data-name="&lt;路徑&gt;" class="cls-1" points="45 22.78 46.1 22.78 46.1 26.28 47.2 26.28 47.2 22.78 48.4 22.78 48.4 21.98 45 21.98 45 22.78"/><path id="_路徑_17" data-name="&lt;路徑&gt;" class="cls-1" d="M51.3,24.48a1.45,1.45,0,0,1-.2.7c-.1.2-.3.2-.6.2a1.07,1.07,0,0,1-.6-.2,1.45,1.45,0,0,1-.2-.7V22h-1v2.5a2.51,2.51,0,0,0,.2,1,1.7,1.7,0,0,0,.6.6,2.92,2.92,0,0,0,.9.2,2.39,2.39,0,0,0,.9-.2c.3-.1.5-.4.7-.6a1.64,1.64,0,0,0,.2-1V22H51.1v2.5Z"/><path id="_路徑_18" data-name="&lt;路徑&gt;" class="cls-1" d="M55.6,24a4.88,4.88,0,0,0-.7-.3c-.2-.1-.3-.1-.4-.2s-.2-.1-.3-.2a.4.4,0,0,1,.3-.7c.1,0,.3,0,.3.1s.1.2.2.3h1.1a1.05,1.05,0,0,0-.5-.9,2.13,2.13,0,0,0-1.2-.3,1.88,1.88,0,0,0-.8.2,1,1,0,0,0-.5.4,1.33,1.33,0,0,0,0,1.4c.1.2.3.3.4.4a4.88,4.88,0,0,0,.7.3c.2.1.3.1.4.2s.2.1.3.2a.4.4,0,0,1-.3.7c-.2,0-.3,0-.4-.1a.52.52,0,0,1-.2-.4H52.9a1.23,1.23,0,0,0,.5,1,2.14,2.14,0,0,0,1.2.4,1.88,1.88,0,0,0,.8-.2,1.21,1.21,0,0,0,.5-.5,1.42,1.42,0,0,0,.2-.6,1.45,1.45,0,0,0-.2-.7A.85.85,0,0,0,55.6,24Z"/><polygon id="_路徑_19" data-name="&lt;路徑&gt;" class="cls-1" points="56.5 22.78 57.7 22.78 57.7 26.28 58.7 26.28 58.7 22.78 59.9 22.78 59.9 21.98 56.5 21.98 56.5 22.78"/><rect id="_路徑_20" data-name="&lt;路徑&gt;" class="cls-1" x="61.6" y="21.98" width="1.1" height="4.3"/><polygon id="_路徑_21" data-name="&lt;路徑&gt;" class="cls-1" points="66.2 24.68 64.4 21.98 63.3 21.98 63.3 26.28 64.4 26.28 64.4 23.68 66.2 26.28 67.2 26.28 67.2 21.98 66.2 21.98 66.2 24.68"/><path id="_複合路徑_9" data-name="&lt;複合路徑&gt;" class="cls-1" d="M70.8,22.28a2.13,2.13,0,0,0-1.2-.3H68v4.3h1.6a2.13,2.13,0,0,0,1.2-.3,2,2,0,0,0,.8-.8,2.17,2.17,0,0,0,0-2.2A1.78,1.78,0,0,0,70.8,22.28Zm-.4,2.8a1.33,1.33,0,0,1-1,.3h-.5v-2.5h.5a1.69,1.69,0,0,1,1,.3,1.22,1.22,0,0,1,.3.9C70.7,24.48,70.7,24.88,70.4,25.08Z"/><path id="_路徑_22" data-name="&lt;路徑&gt;" class="cls-1" d="M75,24.48a1.45,1.45,0,0,1-.2.7c-.1.2-.3.2-.6.2a1.42,1.42,0,0,1-.6-.2,1.45,1.45,0,0,1-.2-.7V22h-1v2.5a2.51,2.51,0,0,0,.2,1,1.7,1.7,0,0,0,.6.6,2.92,2.92,0,0,0,.9.2,2.39,2.39,0,0,0,.9-.2c.3-.1.5-.4.7-.6a1.64,1.64,0,0,0,.2-1V22H74.8v2.5Z"/><path id="_路徑_23" data-name="&lt;路徑&gt;" class="cls-1" d="M79.2,24a4.88,4.88,0,0,0-.7-.3c-.2-.1-.3-.1-.4-.2s-.2-.1-.3-.2a.4.4,0,0,1,.3-.7c.1,0,.3,0,.3.1s.1.2.2.3h1.1a1.05,1.05,0,0,0-.5-.9,2.13,2.13,0,0,0-1.2-.3,1.88,1.88,0,0,0-.8.2,1,1,0,0,0-.5.4,1.33,1.33,0,0,0,0,1.4c.1.2.3.3.4.4a4.88,4.88,0,0,0,.7.3c.2.1.3.1.4.2s.2.1.3.2a.4.4,0,0,1-.3.7c-.2,0-.3,0-.4-.1a.52.52,0,0,1-.2-.4H76.5a1.23,1.23,0,0,0,.5,1,2.14,2.14,0,0,0,1.2.4,1.88,1.88,0,0,0,.8-.2,1.21,1.21,0,0,0,.5-.5,1.42,1.42,0,0,0,.2-.6,1.45,1.45,0,0,0-.2-.7C79.4,24.28,79.4,24.08,79.2,24Z"/><polygon id="_路徑_24" data-name="&lt;路徑&gt;" class="cls-1" points="80.1 22.78 81.3 22.78 81.3 26.28 82.4 26.28 82.4 22.78 83.5 22.78 83.5 21.98 80.1 21.98 80.1 22.78"/><path id="_複合路徑_10" data-name="&lt;複合路徑&gt;" class="cls-1" d="M87.1,24.18a1.14,1.14,0,0,0,.3-.8,1.45,1.45,0,0,0-.2-.7,1.21,1.21,0,0,0-.5-.5,2,2,0,0,0-.9-.2H84v4.3h1.1v-1.6h.2l.9,1.6h1.2l-1-1.7A1,1,0,0,0,87.1,24.18Zm-1-.4a.75.75,0,0,1-.5.1h-.7v-1.1h.7a.75.75,0,0,1,.5.1.52.52,0,0,1,.2.4C86.3,23.58,86.2,23.78,86.1,23.78Z"/><polygon id="_路徑_25" data-name="&lt;路徑&gt;" class="cls-1" points="89.6 23.78 88.8 21.98 87.6 21.98 89.1 24.88 89.1 26.28 90.1 26.28 90.1 24.88 91.6 21.98 90.4 21.98 89.6 23.78"/><path id="_複合路徑_11" data-name="&lt;複合路徑&gt;" class="cls-1" d="M94.6,22,93,26.28h1.1l.3-.8H96l.3.8h1.1L95.8,22Zm0,2.8.5-1.6.5,1.6Z"/><polygon id="_路徑_26" data-name="&lt;路徑&gt;" class="cls-1" points="98.8 21.98 97.8 21.98 97.8 26.28 100.2 26.28 100.2 25.48 98.8 25.48 98.8 21.98"/><polygon id="_路徑_27" data-name="&lt;路徑&gt;" class="cls-1" points="101.7 21.98 100.7 21.98 100.7 26.28 103.1 26.28 103.1 25.48 101.7 25.48 101.7 21.98"/><rect id="_路徑_28" data-name="&lt;路徑&gt;" class="cls-1" x="103.6" y="21.98" width="1.1" height="4.3"/><path id="_複合路徑_12" data-name="&lt;複合路徑&gt;" class="cls-1" d="M106.7,22l-1.6,4.3h1.1l.3-.8h1.6l.3.8h1.1L107.9,22Zm0,2.8.5-1.6.5,1.6Z"/><polygon id="_路徑_29" data-name="&lt;路徑&gt;" class="cls-1" points="112.7 24.68 110.9 21.98 109.9 21.98 109.9 26.28 110.9 26.28 110.9 23.68 112.7 26.28 113.7 26.28 113.7 21.98 112.7 21.98 112.7 24.68"/><path id="_路徑_30" data-name="&lt;路徑&gt;" class="cls-1" d="M116.4,22.88a1.42,1.42,0,0,1,.6.2,1,1,0,0,1,.4.5h1.1a1.85,1.85,0,0,0-.7-1.2,2.12,2.12,0,0,0-1.4-.4,2,2,0,0,0-1.1.3,1.39,1.39,0,0,0-.7.8,2.17,2.17,0,0,0,0,2.2,2.7,2.7,0,0,0,.7.8,2,2,0,0,0,1.1.3,2.12,2.12,0,0,0,1.4-.4,1.85,1.85,0,0,0,.7-1.2h-1.1a1,1,0,0,1-.4.5,1.42,1.42,0,0,1-.6.2.78.78,0,0,1-.7-.3,1.5,1.5,0,0,1,0-1.8C115.9,23,116.1,22.88,116.4,22.88Z"/><polygon id="_路徑_31" data-name="&lt;路徑&gt;" class="cls-1" points="121.8 22.78 121.8 21.98 119.1 21.98 119.1 26.28 121.8 26.28 121.8 25.48 120.2 25.48 120.2 24.48 121.6 24.48 121.6 23.68 120.2 23.68 120.2 22.78 121.8 22.78"/></g></g></svg>