<?xml version="1.0" standalone="no"?>
<!DOCTYPE svg PUBLIC "-//W3C//DTD SVG 20010904//EN"
 "http://www.w3.org/TR/2001/REC-SVG-20010904/DTD/svg10.dtd">
<svg version="1.0" xmlns="http://www.w3.org/2000/svg"
 width="4334.000000pt" height="4334.000000pt" viewBox="0 0 4334.000000 4334.000000"
 preserveAspectRatio="xMidYMid meet">

<g transform="translate(0.000000,4334.000000) scale(0.100000,-0.100000)"
fill="#000000" stroke="none">
<path d="M0 21670 l0 -21670 21670 0 21670 0 0 21670 0 21670 -21670 0 -21670
0 0 -21670z m23386 11897 c41 -36 41 -99 0 -397 -48 -345 -83 -535 -172 -930
-275 -1222 -510 -1955 -839 -2625 -311 -632 -700 -1179 -1220 -1714 -282 -290
-572 -488 -1440 -986 -303 -173 -675 -394 -675 -400 0 -4 5 -3 155 34 299 74
721 149 955 171 179 16 463 12 700 -10 118 -10 298 -24 400 -30 1246 -73 2400
-327 3410 -753 1631 -687 2951 -1660 3965 -2922 343 -427 593 -802 874 -1307
120 -215 130 -276 54 -314 -37 -18 -105 -19 -1905 -22 -2086 -3 -1963 -6
-2068 65 -80 56 -119 119 -206 341 -372 947 -847 1715 -1465 2368 -713 754
-1512 1268 -2470 1588 -960 321 -1949 411 -2986 271 -686 -93 -1337 -274
-2283 -633 -217 -83 -404 -154 -415 -158 -11 -4 33 32 97 79 1253 921 2526
2040 3153 2772 310 361 437 560 598 932 384 887 566 1830 567 2939 0 204 2
240 20 297 25 82 93 160 177 205 32 17 207 89 388 160 182 72 674 267 1095
435 996 396 1399 554 1430 560 56 10 80 6 106 -16z m1127 -3902 c118 -21 236
-59 342 -112 281 -140 510 -401 608 -693 47 -141 61 -234 61 -395 0 -162 -13
-251 -60 -392 -120 -358 -422 -654 -782 -767 -309 -97 -640 -70 -924 76 -646
330 -862 1149 -462 1755 71 109 223 262 328 333 148 99 342 176 501 199 98 14
296 12 388 -4z m-5083 -4405 c606 -33 1208 -140 1779 -315 907 -278 1623 -719
2132 -1315 132 -154 329 -430 329 -461 0 -10 -12 -31 -26 -48 -40 -47 -67 -42
-217 45 -333 191 -693 336 -1127 454 -691 187 -1395 248 -2025 175 -841 -98
-1625 -419 -2355 -964 -382 -285 -641 -547 -1009 -1018 -111 -142 -158 -195
-195 -218 l-49 -30 -2016 0 c-2214 0 -2070 -4 -2097 60 -25 61 3 124 164 360
978 1439 2283 2402 3952 2916 918 283 1877 407 2760 359z m-3456 -5661 c4 -3
-3 -35 -14 -70 -11 -35 -20 -67 -20 -71 0 -5 149 -8 330 -8 l330 0 0 -155 0
-155 -167 -2 -168 -3 -3 -67 -3 -68 206 0 205 0 0 -160 0 -160 -182 -2 -183
-3 55 -29 c62 -32 323 -177 329 -182 7 -6 -21 -34 -155 -150 l-134 -116 -53
44 c-28 25 -100 82 -160 126 l-107 82 -93 -92 c-50 -51 -118 -111 -151 -133
l-58 -40 936 -3 936 -2 0 -615 0 -615 -215 0 -215 0 0 45 0 45 -550 0 -550 0
0 -45 0 -45 -205 0 -205 0 0 595 0 595 -69 -34 -68 -35 -50 62 c-27 34 -86 96
-129 137 l-80 75 125 62 c139 70 229 136 292 216 l42 52 -212 3 -211 2 0 160
0 159 91 3 91 3 -110 60 -109 60 52 60 c98 114 172 245 220 391 14 44 28 84
30 90 2 8 57 1 178 -25 97 -20 178 -39 181 -42z m6174 -16 c61 -162 145 -403
141 -406 -2 -2 -83 -32 -179 -67 -96 -34 -181 -65 -187 -67 -7 -3 -13 2 -13
10 0 8 -36 122 -79 253 -44 132 -78 240 -76 242 5 5 338 110 352 111 6 1 24
-34 41 -76z m-2996 11 c112 -31 205 -58 207 -60 6 -6 -124 -194 -218 -314 -50
-63 -91 -117 -91 -121 0 -4 285 17 302 24 3 1 -14 44 -38 96 -24 52 -44 97
-44 100 0 3 71 30 158 60 86 30 163 56 170 59 16 6 322 -623 322 -662 0 -10
-329 -147 -351 -146 -4 0 -20 37 -38 83 l-31 83 -213 -23 c-412 -44 -562 -66
-686 -104 -9 -3 -26 32 -56 121 -23 69 -52 149 -64 178 -11 29 -21 55 -21 57
0 3 17 13 38 24 92 47 295 308 398 512 24 49 46 89 48 89 3 0 96 -25 208 -56z
m1188 -104 l0 -150 335 0 335 0 0 -175 0 -175 -332 -2 -333 -3 0 -102 c0 -94
2 -103 25 -128 l25 -27 315 5 c173 3 327 8 342 12 24 7 27 4 32 -26 7 -50 33
-314 31 -317 -1 -1 -28 -7 -61 -14 -39 -8 -180 -12 -414 -12 -307 -1 -364 2
-425 17 -169 43 -247 137 -274 331 -7 45 -11 252 -11 497 l0 419 205 0 205 0
0 -150z m5713 3 c73 -128 82 -149 67 -155 -24 -9 -245 -45 -367 -59 l-103 -12
0 -49 0 -48 255 0 255 0 0 -150 0 -150 -255 0 -255 0 0 -35 0 -35 235 0 235 0
0 -450 0 -450 -235 0 -235 0 0 -40 0 -40 245 0 244 0 3 -142 3 -143 52 105
c114 230 165 465 198 918 l5 82 -115 0 -115 0 0 190 0 189 118 3 117 3 3 288
2 287 195 0 195 0 0 -290 0 -290 282 0 281 0 -7 -387 c-16 -904 -46 -1326
-106 -1461 -30 -66 -85 -128 -143 -162 -81 -46 -169 -61 -336 -58 l-145 3 -12
72 c-14 83 -47 188 -80 255 -13 26 -24 49 -24 51 0 2 67 1 150 -1 173 -5 189
0 221 74 39 87 63 383 75 932 l7 302 -86 0 -85 0 -7 -77 c-37 -460 -75 -688
-151 -921 -90 -274 -269 -554 -443 -691 l-38 -30 -40 57 c-23 31 -63 82 -91
112 l-50 56 -280 -27 c-508 -49 -921 -83 -928 -77 -7 7 -43 258 -44 304 l0 31
203 12 c111 6 235 14 275 18 l72 6 0 58 0 59 -237 2 -238 3 -3 143 -3 142 241
0 240 0 0 40 0 40 -230 0 -230 0 0 450 0 450 230 0 230 0 0 35 0 35 -265 0
-265 0 0 150 0 150 265 0 265 0 0 31 0 31 -224 -7 -225 -8 -6 29 c-3 16 -23
81 -43 145 l-38 117 110 6 c354 22 766 66 971 105 164 30 141 42 238 -126z
m-1833 -223 l0 -300 -160 0 -160 0 0 -60 0 -60 -196 0 -195 0 3 -32 3 -33 288
-3 287 -2 0 -425 0 -425 -290 0 -290 0 0 -30 0 -30 350 0 350 0 0 -150 0 -150
-350 0 -350 0 0 -80 0 -80 -200 0 -200 0 0 80 0 80 -350 0 -350 0 0 150 0 150
350 0 350 0 0 30 0 30 -290 0 -290 0 0 425 0 425 288 2 287 3 3 33 3 32 -245
0 -246 0 0 60 0 59 -122 3 -123 3 -3 298 -2 297 925 0 925 0 0 -300z m-6330
-380 l0 -570 -570 0 -570 0 0 570 0 570 570 0 570 0 0 -570z m4430 101 c0 -5
-38 -143 -85 -306 -47 -164 -85 -300 -85 -302 0 -3 8 -2 17 2 11 4 63 -15 141
-51 l124 -58 -7 -45 c-13 -87 -85 -356 -131 -486 -25 -71 -47 -139 -47 -150
-2 -14 22 -34 93 -77 153 -94 272 -129 504 -148 310 -25 939 0 1366 55 63 8
117 15 121 15 3 0 -9 -40 -27 -89 -37 -98 -84 -270 -84 -307 0 -16 -6 -24 -17
-24 -10 0 -85 -5 -168 -10 -340 -21 -912 -32 -1097 -21 -354 21 -484 58 -703
202 -148 96 -176 107 -210 85 -38 -25 -81 -89 -146 -218 -33 -65 -61 -118 -63
-118 -9 0 -266 383 -266 395 0 20 134 139 227 201 81 55 82 55 113 136 31 83
100 312 100 335 0 10 -40 13 -176 13 -164 0 -176 1 -169 18 31 75 109 322 181
575 5 15 -5 17 -110 17 l-116 0 0 185 0 185 360 0 c209 0 360 -4 360 -9z
m-2572 -1098 l-3 -728 -23 -48 c-53 -106 -149 -147 -367 -154 l-140 -5 -24 76
c-12 42 -40 112 -62 156 l-38 80 130 0 c98 0 131 3 135 13 2 7 3 59 2 116 l-3
102 -167 -125 c-92 -69 -169 -122 -171 -118 -2 4 -17 49 -32 100 -16 50 -30
90 -33 87 -3 -3 -17 -53 -32 -112 -33 -131 -78 -245 -130 -334 l-40 -67 -112
113 c-62 61 -129 124 -147 138 l-35 26 26 48 c55 101 92 227 114 392 10 77 14
224 14 539 l0 432 570 0 571 0 -3 -727z m592 282 l0 -125 340 0 340 0 0 -180
0 -180 -341 0 -341 0 4 -165 c3 -141 5 -167 21 -182 15 -16 41 -18 188 -21
145 -3 174 -1 195 13 35 23 53 70 63 170 5 47 10 88 12 90 3 2 44 -16 92 -41
49 -24 128 -56 175 -70 48 -15 88 -27 89 -28 0 0 -5 -39 -13 -86 -37 -234
-108 -343 -253 -388 -84 -26 -635 -25 -731 1 -93 25 -149 63 -187 126 -55 91
-56 103 -60 669 l-4 522 205 0 206 0 0 -125z m-3389 -2047 l39 -78 485 0 485
0 0 -170 0 -170 -255 0 -256 0 29 -42 c16 -24 39 -61 50 -84 l21 -41 -32 -16
c-30 -15 -21 -16 176 -16 l207 -1 0 -115 0 -115 -197 -2 -198 -3 0 -30 0 -30
163 -3 162 -2 0 -95 0 -95 -162 -2 -163 -3 0 -35 0 -35 163 -3 162 -2 0 -95 0
-95 -165 0 -165 0 0 -40 0 -40 215 0 215 0 0 -120 0 -120 -462 -2 -463 -3 84
-50 c47 -27 121 -76 164 -108 92 -68 100 -45 -65 -199 l-107 -99 -73 61 c-78
66 -213 160 -230 160 -6 0 -8 -56 -6 -151 3 -135 5 -152 22 -165 15 -11 57
-14 173 -14 172 0 187 5 197 74 3 20 8 52 11 71 3 19 7 35 9 35 2 0 41 -18 87
-39 46 -22 117 -49 157 -61 l73 -22 -6 -42 c-21 -135 -71 -240 -135 -284 -72
-49 -116 -54 -432 -50 -329 5 -362 10 -435 73 -73 63 -86 112 -91 368 l-4 217
183 0 184 0 -52 31 c-29 17 -53 34 -53 37 0 4 16 20 35 35 19 15 35 32 35 37
0 6 -41 10 -95 10 l-95 0 0 304 0 304 -62 56 c-34 31 -65 56 -70 56 -4 0 -8
-162 -8 -360 l0 -360 -170 0 -170 0 0 316 0 316 -40 -36 -41 -37 -51 61 c-28
33 -54 60 -58 60 -4 0 -10 -78 -13 -172 -19 -512 -119 -1025 -254 -1291 l-24
-49 -52 49 c-45 43 -167 138 -235 183 l-23 15 41 99 c48 117 92 277 119 436
50 287 61 506 61 1188 l0 562 530 0 c292 0 530 2 530 5 0 3 -13 32 -30 64
l-29 58 177 47 c97 26 182 48 187 50 12 4 43 -43 96 -146z m-5521 -689 l0
-801 31 6 c83 16 221 38 224 35 4 -5 65 -383 62 -385 -1 -2 -73 -15 -160 -30
l-157 -27 0 -354 0 -353 -205 0 -205 0 0 315 0 316 -32 -6 c-18 -3 -202 -37
-408 -75 -206 -37 -377 -67 -379 -64 -4 4 -70 387 -67 391 0 0 199 37 441 80
l440 79 3 837 2 837 205 0 205 0 0 -801z m1480 531 l0 -260 130 0 130 0 0
-190 0 -190 -130 0 -130 0 0 -176 c0 -137 3 -175 13 -171 43 16 210 48 216 41
8 -9 54 -364 49 -370 -2 -1 -64 -18 -138 -36 l-135 -34 -6 -380 c-4 -250 -11
-393 -19 -419 -50 -165 -192 -234 -485 -235 l-100 0 -23 98 c-12 53 -38 136
-56 185 l-33 87 138 0 c112 0 141 3 153 16 14 13 16 53 16 281 l0 265 -22 -6
c-74 -19 -218 -49 -222 -45 -5 5 -104 389 -100 389 8 0 311 61 327 66 15 5 17
25 17 225 l0 219 -155 0 -155 0 0 190 0 190 155 0 155 0 0 260 0 260 205 0
205 0 0 -260z m1280 70 l0 -190 310 0 310 0 0 -190 0 -190 -310 0 -310 0 0
-146 0 -146 188 3 187 3 123 -48 c75 -30 122 -54 122 -62 0 -38 -106 -329
-163 -446 -72 -149 -196 -341 -283 -436 -46 -51 -54 -66 -43 -73 8 -6 71 -38
140 -73 112 -55 292 -123 416 -156 l43 -11 -61 -72 c-34 -40 -93 -120 -132
-179 l-70 -106 -116 39 c-178 61 -404 176 -551 280 -13 9 -30 2 -83 -30 -87
-53 -247 -133 -345 -172 -107 -43 -273 -99 -291 -98 -10 0 -33 36 -60 92 -24
50 -72 133 -107 184 l-63 93 27 6 c145 31 360 107 492 175 113 58 109 49 58
115 -86 112 -170 250 -244 398 -41 82 -74 153 -74 156 0 4 24 14 53 23 l52 15
-77 1 -78 1 0 190 0 190 265 0 265 0 0 145 0 145 -290 0 -290 0 0 190 0 190
290 0 290 0 0 190 0 190 205 0 205 0 0 -190z m8120 -70 l0 -260 130 0 130 0 0
-190 0 -190 -130 0 -130 0 0 -176 c0 -137 3 -175 13 -171 25 9 218 49 222 45
7 -7 52 -369 46 -372 -5 -3 -115 -33 -238 -66 l-43 -11 0 -353 c0 -361 -6
-440 -40 -506 -57 -110 -213 -169 -452 -170 l-108 0 -6 28 c-18 84 -57 215
-79 271 -14 36 -25 66 -25 68 0 2 62 3 138 3 94 0 142 4 150 12 9 9 12 85 12
280 l0 268 -22 -5 c-146 -35 -218 -52 -218 -50 0 0 -22 88 -50 195 -27 106
-48 195 -46 197 2 3 70 17 151 33 81 16 155 32 166 35 18 6 19 18 19 226 l0
219 -150 0 -150 0 0 190 0 190 150 0 150 0 0 260 0 260 205 0 205 0 0 -260z
m1290 70 l0 -190 305 0 305 0 0 -190 0 -190 -305 0 -305 0 0 -146 0 -146 183
3 182 4 127 -49 c149 -57 140 -28 71 -236 -82 -250 -201 -471 -360 -667 -46
-57 -83 -105 -83 -107 0 -11 171 -97 275 -139 101 -41 179 -67 293 -97 l43
-11 -56 -60 c-30 -34 -91 -114 -134 -179 l-78 -118 -109 37 c-198 68 -333 133
-491 237 l-82 54 -121 -69 c-67 -38 -175 -92 -242 -120 -122 -52 -317 -121
-341 -121 -8 0 -24 23 -38 52 -36 77 -126 227 -165 274 l-33 42 67 16 c140 35
301 93 430 156 l132 65 -70 93 c-38 51 -95 135 -125 187 -61 103 -165 313
-165 332 0 7 21 18 48 25 l47 13 -75 5 -75 5 0 185 0 185 268 3 267 2 0 145 0
145 -290 0 -290 0 0 190 0 190 290 0 290 0 0 190 0 190 205 0 205 0 0 -190z
m1752 129 c95 -34 176 -64 180 -68 8 -7 -78 -143 -160 -253 -118 -159 -328
-388 -410 -447 l-29 -21 -38 63 c-52 84 -141 211 -159 226 -13 11 0 28 93 119
119 119 226 252 292 366 24 42 47 76 51 76 4 0 85 -28 180 -61z m868 -264 l0
-325 200 0 199 0 3 -127 3 -128 393 -3 392 -2 0 -180 0 -180 -100 0 -100 0 0
-522 c0 -294 -5 -553 -10 -592 -30 -206 -143 -276 -465 -289 l-101 -4 -17 93
c-14 75 -52 206 -84 290 -4 12 15 14 120 14 69 0 132 3 141 6 14 5 16 59 16
505 l0 499 -100 0 -100 0 0 120 0 120 -195 0 -195 0 0 -830 0 -830 -180 0
-180 0 -2 828 -3 827 -172 3 -172 2 -3 78 -3 77 -63 -120 -62 -119 2 -456 3
-455 29 42 c74 109 104 265 113 591 l6 222 140 0 140 0 -6 -237 c-8 -344 -37
-525 -111 -678 -31 -66 -112 -185 -125 -185 -3 0 -22 25 -41 56 -19 31 -61 84
-92 118 l-57 61 -1 -332 0 -333 -190 0 -190 0 0 519 0 520 -51 -55 c-29 -30
-55 -54 -58 -54 -3 0 -30 47 -58 103 -29 57 -78 143 -108 191 l-55 88 82 87
c154 162 293 369 393 583 l49 105 145 -48 c80 -27 151 -49 158 -49 8 0 13 12
13 30 l0 30 175 0 175 0 0 325 0 325 180 0 180 0 0 -325z m3076 269 c71 -30
133 -59 138 -64 16 -15 -127 -259 -255 -434 -27 -38 -36 -57 -25 -53 10 4 30
7 45 7 25 0 35 13 102 129 l74 128 115 -60 c63 -33 123 -66 132 -72 15 -10 10
-22 -53 -120 -88 -136 -218 -311 -304 -409 -36 -42 -65 -78 -65 -82 0 -6 171
4 178 11 2 2 -4 28 -14 59 -10 31 -15 58 -12 62 4 3 56 18 116 34 l110 27 33
-111 c44 -148 97 -360 93 -367 -1 -3 -49 -18 -106 -35 l-103 -29 63 -3 64 -3
-4 -307 c-5 -351 -12 -395 -92 -557 -75 -152 -175 -254 -345 -355 -103 -60
-110 -60 -149 5 -19 31 -65 93 -102 140 l-69 84 66 30 c86 41 180 109 233 168
l42 48 -159 5 -158 5 0 365 0 365 163 3 162 2 0 -195 0 -195 35 0 35 0 0 195
0 195 93 0 94 0 -11 56 -10 57 -70 -7 c-134 -12 -400 -57 -450 -76 -27 -11
-50 -19 -51 -17 -1 1 -16 70 -34 152 -18 83 -37 157 -42 165 -5 8 -9 -334 -9
-787 l0 -803 -170 0 -170 0 0 235 0 235 -22 -5 c-74 -18 -512 -94 -516 -90 -5
5 -81 348 -78 352 1 1 31 6 66 10 l65 8 0 745 0 745 -37 3 -38 3 0 180 0 179
485 0 485 0 0 -179 0 -180 -32 -3 c-30 -3 -33 -6 -36 -40 -4 -44 -1 -45 44
-17 65 40 173 201 270 403 31 64 57 116 58 116 1 0 60 -25 132 -56z m-19098
-299 c-5 -6 -281 -83 -320 -91 l-38 -6 0 -174 0 -174 175 0 175 0 0 -190 0
-190 -177 0 -178 0 101 -102 c143 -146 254 -268 254 -279 0 -11 -218 -313
-228 -316 -4 -1 -32 48 -62 109 l-55 112 -3 -522 -2 -522 -200 0 -200 0 -2
433 -3 432 -38 -80 c-49 -102 -136 -257 -177 -314 l-32 -43 -32 78 c-18 44
-61 134 -95 201 l-62 123 34 42 c107 132 258 410 344 634 4 12 -23 14 -171 14
l-176 0 0 190 0 190 203 2 202 3 3 119 c1 66 1 125 -2 131 -3 8 -40 6 -137 -7
-72 -10 -133 -17 -135 -15 -2 2 -15 41 -28 88 -14 46 -38 115 -54 154 -17 38
-29 71 -28 72 1 2 67 14 147 29 194 35 496 112 649 166 l125 44 113 -169 c62
-93 112 -170 110 -172z m20026 194 c14 -12 -124 -244 -224 -376 l-32 -43 54 0
54 0 59 120 58 120 128 -67 128 -68 -54 -102 c-74 -138 -152 -266 -241 -395
-41 -60 -69 -108 -62 -108 19 0 142 21 146 24 1 2 -6 28 -18 57 -11 30 -20 55
-20 56 0 4 222 75 224 72 18 -21 164 -465 155 -472 -16 -14 -220 -88 -227 -83
-6 3 -13 22 -17 42 -3 20 -10 46 -15 59 l-9 22 -123 -23 c-185 -35 -347 -74
-392 -94 l-41 -19 148 0 147 -1 0 -195 0 -195 40 0 40 0 0 185 0 185 165 0
165 0 0 -405 0 -405 -165 0 -165 0 0 45 0 45 -40 0 -40 0 0 -260 0 -260 -175
0 -175 0 0 630 0 630 25 0 c14 0 25 6 25 13 0 15 -65 283 -75 308 -4 12 6 23
38 42 54 32 209 219 194 234 -8 7 -134 -15 -172 -32 l-32 -13 -38 147 c-20 80
-39 155 -42 166 -3 15 5 25 32 39 67 36 216 252 295 428 l34 76 116 -61 c63
-33 119 -64 124 -68z m3266 -562 c0 -709 0 -712 -61 -782 -64 -73 -193 -112
-388 -117 l-114 -3 -24 70 c-13 38 -43 111 -68 162 -25 51 -45 94 -45 95 0 2
56 2 123 0 155 -5 167 0 167 68 l0 50 -223 0 -223 0 -18 -57 c-42 -136 -158
-322 -244 -392 l-37 -30 513 -1 512 0 0 -305 0 -305 155 0 155 0 0 -180 0
-180 -1345 0 -1345 0 0 180 0 180 165 0 165 0 0 305 0 305 500 0 c292 0 500 4
500 9 0 11 -122 126 -208 194 l-62 51 27 28 27 28 -292 0 -292 0 0 -65 0 -65
-185 0 -185 0 0 680 0 680 505 0 505 0 2 -585 3 -585 35 52 c19 29 49 89 67
133 57 141 64 208 70 638 l5 387 579 0 579 0 0 -643z m-6948 513 c31 -47 74
-117 95 -157 l38 -72 5 117 5 117 338 3 337 2 0 -185 0 -185 -337 2 -338 3 -3
47 -3 46 -126 -71 c-94 -52 -128 -66 -131 -56 -9 28 -122 240 -158 296 -20 31
-33 59 -28 60 5 2 59 30 119 62 61 33 115 58 120 57 6 -1 35 -40 67 -86z
m-15808 -89 c98 -87 224 -220 247 -262 7 -13 -16 -38 -109 -120 -64 -56 -129
-113 -143 -126 l-26 -24 -58 78 c-32 43 -124 144 -205 225 l-147 148 135 114
136 115 30 -26 c17 -14 80 -69 140 -122z m10214 -998 c-3 -1269 3 -1173 -88
-1264 -83 -83 -219 -118 -472 -122 l-160 -2 -23 90 c-25 97 -61 197 -93 262
l-21 40 199 -5 c174 -4 203 -3 225 12 l25 16 0 190 0 190 -252 -2 -253 -3 -3
-382 -2 -383 -210 0 -210 0 0 385 0 385 -254 0 -253 0 -18 -87 c-53 -272 -174
-543 -318 -718 l-25 -30 -74 71 c-40 39 -111 99 -158 133 -47 35 -87 65 -89
67 -2 1 20 34 48 71 107 140 198 368 235 583 33 195 37 291 43 948 l5 672
1099 0 1099 0 -2 -1117z m-10371 298 c122 -102 323 -302 323 -320 0 -6 -35
-44 -77 -84 -43 -39 -105 -98 -139 -129 l-61 -58 -69 86 c-38 48 -134 149
-213 226 l-144 139 29 29 c30 31 227 209 231 209 2 1 56 -43 120 -98z m15995
-548 l3 -378 30 0 c17 1 48 4 71 8 l40 7 11 -138 c9 -104 9 -138 0 -144 -22
-14 -241 -9 -293 7 -59 17 -106 62 -131 125 -15 40 -18 93 -21 468 l-3 422
145 0 146 0 2 -377z m-8848 -489 c120 -154 212 -297 260 -406 l26 -58 -62 -31
c-33 -17 -107 -52 -163 -79 l-102 -47 -31 76 c-38 91 -138 262 -227 386 -36
50 -64 93 -62 98 3 10 268 136 287 136 8 0 42 -34 74 -75z m-1568 1 c175 -62
184 -66 184 -80 0 -28 -75 -235 -112 -309 -43 -87 -111 -188 -149 -222 l-24
-22 -157 100 -158 100 58 63 c77 84 165 255 208 403 5 17 8 17 150 -33z
m-3100 -1486 c37 -23 54 -57 54 -110 0 -58 -24 -97 -73 -120 -81 -36 -189 -12
-221 50 -9 16 -16 51 -16 76 0 37 6 52 33 81 18 20 48 39 67 44 47 12 118 2
156 -21z m-826 -564 l0 -505 -130 0 -130 0 0 505 0 505 130 0 130 0 0 -505z
m430 0 l0 -505 -130 0 -130 0 0 505 0 505 130 0 130 0 0 -505z m12290 341 l0
-165 62 32 c56 29 69 32 157 32 112 0 165 -19 224 -80 70 -73 80 -116 85 -407
l4 -258 -130 0 -130 0 -4 218 c-3 197 -5 220 -24 252 -36 61 -109 78 -172 40
-67 -41 -72 -60 -72 -297 l0 -213 -130 0 -130 0 0 505 0 505 130 0 130 0 0
-164z m2820 -341 l0 -505 -130 0 -130 0 0 505 0 505 130 0 130 0 0 -505z
m5900 0 l0 -505 -120 0 -120 0 0 30 c0 33 -11 38 -31 14 -37 -45 -153 -70
-250 -55 -119 20 -209 84 -259 184 -111 225 -14 493 202 558 95 29 195 23 263
-14 26 -15 49 -27 51 -27 2 0 4 72 4 160 l0 160 130 0 130 0 0 -505z m-15985
431 c120 -40 115 -30 68 -143 -25 -60 -46 -97 -55 -96 -7 1 -42 13 -77 28 -68
29 -181 43 -246 31 -45 -9 -85 -46 -85 -80 0 -40 41 -62 180 -95 184 -44 235
-65 291 -121 56 -56 73 -106 67 -195 -7 -106 -66 -189 -169 -238 -82 -38 -163
-51 -297 -44 -129 6 -205 23 -299 67 l-62 29 40 93 c23 51 44 96 48 100 3 4
33 -6 66 -22 85 -42 191 -63 280 -58 93 6 125 25 125 73 0 49 -34 67 -193 105
-220 51 -311 112 -337 222 -34 140 35 276 170 336 76 33 134 42 270 38 115 -3
147 -7 215 -30z m-8315 -461 l0 -475 -135 0 -135 0 0 475 0 475 135 0 135 0 0
-475z m13600 370 l0 -105 -145 0 -145 0 0 -370 0 -370 -135 0 -135 0 -2 368
-3 367 -147 3 -148 3 0 104 0 105 430 0 430 0 0 -105z m-12180 -40 l0 -95 85
0 85 0 0 -95 0 -94 -82 -3 -83 -3 -3 -136 c-2 -125 -1 -138 18 -162 17 -21 30
-27 61 -27 22 0 48 4 58 10 16 8 22 -1 51 -81 18 -50 30 -92 29 -93 -37 -32
-160 -49 -245 -36 -81 13 -131 38 -172 84 -49 56 -62 117 -62 293 l0 153 -55
0 -55 0 0 95 0 95 55 0 55 0 0 95 0 95 130 0 130 0 0 -95z m5550 0 l0 -95 85
0 85 0 0 -95 0 -95 -85 0 -85 0 0 -142 c0 -132 2 -143 22 -165 23 -25 83 -32
118 -13 16 9 21 0 49 -82 24 -70 28 -94 18 -100 -29 -19 -98 -31 -178 -31
-130 1 -212 44 -262 138 -19 35 -22 61 -27 215 l-5 175 -52 3 -53 3 0 95 0 94
55 0 55 0 0 95 0 95 130 0 130 0 0 -95z m4382 3 l3 -93 83 -3 82 -3 0 -94 0
-94 -82 -3 -83 -3 0 -141 c0 -127 2 -144 20 -164 16 -18 28 -21 65 -18 25 3
51 6 58 9 9 3 23 -22 43 -76 15 -44 29 -86 29 -93 0 -17 -41 -32 -118 -43 -81
-12 -183 4 -239 37 -95 55 -123 135 -123 351 l0 143 -55 0 -55 0 0 95 0 95 55
0 55 0 0 95 0 95 130 0 129 0 3 -92z m-10535 -94 c62 -32 111 -91 134 -162 8
-23 14 -136 16 -294 l5 -258 -131 0 -131 0 0 198 c-1 218 -7 264 -43 300 -37
37 -110 42 -157 10 -64 -43 -70 -67 -70 -300 l0 -208 -130 0 -130 0 0 370 0
370 125 0 125 0 0 -36 0 -35 32 23 c94 67 249 76 355 22z m1457 -8 c81 -39
131 -89 167 -164 25 -51 45 -175 35 -215 l-6 -27 -265 0 c-189 0 -265 -3 -265
-11 0 -6 17 -28 38 -49 45 -45 106 -65 171 -55 48 7 115 37 127 56 7 12 144
-117 144 -137 0 -6 -16 -24 -35 -38 -125 -95 -344 -109 -502 -31 -138 68 -206
178 -206 335 0 106 26 179 88 247 84 94 189 134 337 129 89 -3 105 -6 172 -40z
m2034 29 c29 -9 68 -30 87 -46 l35 -31 0 41 0 41 126 0 125 0 -3 -367 c-3
-357 -4 -370 -26 -425 -45 -112 -142 -190 -270 -217 -74 -15 -206 -14 -298 4
-70 13 -204 66 -204 80 0 3 20 46 45 95 l45 89 45 -26 c88 -49 219 -67 296
-42 67 23 117 96 107 157 l-3 23 -35 -26 c-45 -33 -98 -47 -182 -47 -124 0
-236 55 -300 147 -81 116 -78 303 7 425 78 112 258 168 403 125z m1017 1 c154
-41 249 -146 276 -303 5 -32 7 -75 3 -95 l-6 -38 -264 0 c-294 0 -294 0 -230
-63 71 -71 216 -71 297 -1 14 12 24 6 82 -55 37 -38 67 -73 67 -79 0 -18 -105
-81 -165 -98 -80 -23 -221 -23 -300 0 -117 35 -203 107 -252 211 -24 52 -28
72 -28 155 0 88 3 101 33 162 50 102 137 173 252 204 60 17 173 17 235 0z
m1039 -20 c63 -31 98 -71 129 -148 18 -48 21 -78 25 -310 l4 -258 -131 0 -131
0 0 190 c0 280 -17 328 -117 337 -39 4 -55 0 -83 -19 -64 -43 -70 -67 -70
-300 l0 -208 -130 0 -130 0 0 370 0 370 120 0 120 0 0 -35 c0 -19 3 -35 6 -35
3 0 20 10 37 22 92 65 245 76 351 24z m2839 -4 c76 -38 129 -93 165 -171 34
-73 43 -219 18 -302 -22 -79 -81 -158 -146 -197 -71 -42 -119 -55 -206 -55
-67 0 -90 7 -196 61 -5 2 -8 -69 -8 -157 l0 -161 -130 0 -130 0 0 505 0 505
125 0 125 0 0 -36 0 -35 35 26 c53 41 109 55 202 52 67 -3 92 -9 146 -35z
m867 9 c158 -61 243 -186 243 -356 -1 -114 -29 -182 -107 -261 -45 -45 -77
-67 -121 -83 -232 -88 -483 -6 -573 187 -24 51 -27 69 -27 162 0 96 3 110 29
163 50 97 147 174 261 204 74 19 227 11 295 -16z m860 -85 l0 -114 -65 -4
c-72 -4 -105 -22 -142 -78 -22 -32 -23 -42 -23 -236 l0 -204 -130 0 -130 0 0
370 0 370 120 0 120 0 0 -40 c0 -22 3 -40 6 -40 3 0 23 14 44 31 41 33 111 57
168 58 l32 1 0 -114z m1272 85 c37 -12 70 -26 74 -32 3 -6 -10 -48 -31 -94
l-37 -83 -45 19 c-130 56 -309 38 -286 -29 7 -19 39 -29 145 -47 129 -22 184
-42 229 -82 93 -84 73 -250 -39 -321 -125 -80 -356 -89 -539 -20 -29 11 -53
24 -53 29 0 6 16 48 36 93 l35 83 59 -24 c135 -54 295 -57 315 -5 12 32 -26
50 -150 71 -66 11 -136 26 -155 35 -119 49 -162 168 -104 284 37 74 100 114
229 146 50 12 252 -2 317 -23z m1940 -1 c77 -29 159 -104 194 -178 21 -45 28
-77 32 -149 l5 -93 -272 -2 -272 -3 23 -34 c36 -53 80 -75 157 -75 54 -1 77 4
124 28 l58 30 63 -70 64 -69 -25 -27 c-62 -66 -229 -107 -361 -88 -142 20
-240 76 -302 171 -48 75 -64 140 -57 239 11 164 114 289 277 335 77 21 217 14
292 -15z m853 15 c79 -21 159 -75 195 -132 17 -26 30 -50 30 -53 0 -3 -45 -28
-99 -54 l-99 -49 -31 35 c-41 46 -79 62 -142 56 -114 -11 -175 -144 -116 -258
28 -55 63 -81 119 -87 54 -6 119 23 145 65 9 15 18 28 19 30 4 6 204 -98 204
-107 0 -15 -56 -86 -91 -115 -140 -119 -421 -104 -568 29 -22 21 -55 67 -73
103 -31 62 -33 73 -33 172 0 94 3 111 28 161 30 63 103 136 166 168 98 50 235
64 346 36z m1862 0 c79 -24 126 -64 165 -142 l33 -68 3 -262 4 -263 -131 0
-131 0 0 203 c0 219 -6 261 -46 298 -34 32 -119 34 -161 3 -57 -42 -63 -68
-63 -296 l0 -208 -130 0 -130 0 0 370 0 370 125 0 125 0 0 -36 0 -35 32 23
c78 55 205 73 305 43z m908 -10 c160 -56 255 -188 255 -355 0 -229 -170 -384
-419 -383 -247 2 -413 155 -412 382 0 83 6 111 38 175 45 90 135 158 251 192
63 18 221 12 287 -11z m1287 14 c122 -26 224 -102 275 -207 25 -51 28 -67 28
-162 0 -99 -2 -110 -33 -172 -18 -36 -51 -82 -73 -103 -144 -130 -402 -146
-563 -36 -122 84 -179 222 -155 373 37 227 264 361 521 307z m853 -3 c26 -8
65 -29 86 -46 l39 -31 0 41 0 40 126 0 125 0 -3 -367 c-3 -356 -4 -370 -26
-425 -46 -114 -146 -192 -280 -218 -80 -16 -266 -7 -342 16 -56 17 -150 60
-150 69 0 3 20 46 45 95 l45 89 45 -26 c101 -56 238 -70 315 -30 56 28 78 60
87 122 l6 50 -24 -18 c-67 -49 -160 -69 -259 -56 -117 16 -218 87 -267 187
-26 52 -28 67 -28 167 0 117 10 151 72 231 75 99 255 149 388 110z m2244 -1
c106 -25 166 -73 210 -165 26 -54 26 -59 29 -312 l4 -258 -121 0 -121 0 0 41
0 41 -39 -35 c-49 -44 -99 -61 -181 -61 -98 0 -156 20 -211 73 -114 111 -84
279 61 345 36 16 74 21 195 25 l150 6 -3 25 c-3 33 -37 67 -80 81 -51 17 -150
6 -216 -24 l-56 -26 -45 88 -44 89 60 27 c120 53 282 69 408 40z m998 0 c66
-20 134 -80 164 -147 23 -51 24 -63 27 -320 l3 -268 -130 0 -131 0 0 215 c0
240 -6 272 -59 299 -66 35 -150 8 -185 -60 -19 -35 -21 -60 -24 -246 l-3 -208
-130 0 -129 0 0 370 0 370 125 0 125 0 0 -35 c0 -41 2 -42 40 -14 73 54 207
74 307 44z m-19437 -365 l0 -370 -130 0 -130 0 0 370 0 370 130 0 130 0 0
-370z m16996 146 c49 -124 90 -223 92 -221 2 1 43 101 92 221 l89 219 125 3
126 3 -9 -23 c-83 -213 -340 -815 -363 -850 -34 -55 -72 -89 -132 -121 -34
-18 -58 -22 -146 -22 -93 0 -111 3 -162 27 -32 15 -58 29 -58 33 0 3 21 46 46
96 41 84 47 90 62 76 24 -21 91 -38 121 -30 30 7 71 41 71 59 0 7 -70 178
-155 379 -85 202 -155 369 -155 371 0 2 60 4 133 4 l133 0 90 -224z m-17923
-950 c61 -25 87 -81 67 -142 -29 -86 -162 -110 -230 -42 -25 25 -30 38 -30 78
0 41 5 53 30 79 42 41 105 52 163 27z m2296 8 c113 -23 123 -179 14 -220 -69
-27 -139 -7 -173 49 -25 41 -25 74 0 115 31 51 87 70 159 56z m13050 0 c113
-23 123 -179 14 -220 -69 -27 -139 -7 -173 49 -25 41 -25 74 0 115 31 51 87
70 159 56z m3120 -21 c86 -64 50 -191 -60 -208 -114 -17 -191 73 -147 171 27
60 147 81 207 37z m-18779 -478 l0 -435 -110 0 -110 0 0 435 0 435 110 0 110
0 0 -435z m6628 -2 l2 -433 -105 0 -105 0 0 32 c0 29 -1 30 -17 16 -44 -38
-88 -52 -168 -53 -66 0 -90 5 -135 26 -70 33 -116 79 -149 149 -22 47 -26 69
-26 150 0 84 3 102 28 152 34 69 101 131 164 152 73 25 180 21 239 -9 27 -14
50 -25 52 -25 1 0 2 63 2 140 l0 141 108 -3 107 -3 3 -432z m6772 2 l0 -435
-105 0 -105 0 0 31 0 31 -29 -25 c-94 -79 -296 -50 -386 55 -56 67 -78 136
-73 243 6 135 56 221 161 277 61 33 213 33 275 1 l42 -23 0 140 0 140 110 0
110 0 0 -435z m4678 -2 l2 -433 -115 0 -115 0 0 428 c0 236 3 432 7 436 4 3
54 5 112 4 l106 -3 3 -432z m362 2 l0 -435 -110 0 -110 0 0 435 0 435 110 0
110 0 0 -435z m-20514 -25 l182 -410 -122 0 -121 0 -30 78 -31 77 -174 0 -174
0 -31 -77 -30 -78 -117 0 c-65 0 -118 2 -118 5 0 4 349 795 357 808 2 4 55 7
116 7 l112 0 181 -410z m7054 0 l0 -410 -115 0 -115 0 0 403 c0 222 3 407 7
410 3 4 55 7 115 7 l108 0 0 -410z m6081 5 c98 -220 178 -403 178 -407 1 -5
-52 -8 -118 -8 l-119 0 -32 80 -32 80 -172 0 -171 0 -32 -78 -31 -77 -116 -3
c-64 -1 -116 1 -116 5 0 4 80 189 178 411 l177 402 114 -2 115 -3 177 -400z
m6544 28 c93 -208 174 -393 182 -411 l14 -33 -122 3 -122 3 -30 78 -30 77
-172 0 -173 0 -32 -80 -32 -80 -119 0 -118 0 18 43 c26 59 316 716 332 750
l12 27 113 0 112 0 167 -377z m-15425 247 l0 -80 75 0 75 0 0 -85 0 -85 -76 0
-76 0 4 -121 c3 -114 4 -122 28 -141 23 -19 48 -20 91 -3 13 5 22 -9 44 -70
32 -88 33 -88 -55 -106 -129 -27 -254 18 -300 107 -22 43 -25 62 -29 191 l-3
143 -44 0 -44 0 0 85 0 85 45 0 45 0 0 80 0 80 110 0 110 0 0 -80z m6280 0 l0
-80 70 0 70 0 0 -85 0 -85 -70 0 -70 0 0 -118 c0 -155 10 -167 114 -150 16 2
24 -10 45 -70 30 -84 30 -84 -59 -103 -93 -19 -204 4 -259 54 -49 46 -61 90
-61 244 l0 142 -47 3 -48 3 -3 83 -3 82 51 0 50 0 0 80 0 80 110 0 110 0 0
-80z m-9808 -60 c144 -40 236 -203 209 -371 -27 -164 -139 -262 -301 -263 -63
-1 -84 3 -128 26 l-52 27 0 -134 0 -135 -110 0 -110 0 0 425 0 425 105 0 105
0 0 -26 0 -25 30 21 c17 12 43 26 58 30 39 12 151 12 194 0z m855 -18 c57 -30
105 -79 134 -138 21 -43 24 -63 24 -159 0 -95 -3 -116 -23 -152 -35 -66 -79
-110 -140 -140 -48 -23 -70 -28 -137 -28 -68 0 -87 4 -127 27 l-48 27 0 -135
0 -134 -110 0 -110 0 0 425 0 425 105 0 105 0 0 -26 0 -25 29 20 c50 36 73 41
166 38 69 -3 100 -8 132 -25z m1488 -7 c56 -29 125 -100 125 -129 0 -6 -37
-30 -82 -52 l-83 -41 -35 38 c-63 67 -155 59 -207 -20 -43 -65 -23 -173 39
-211 61 -37 136 -22 185 39 l19 23 82 -41 c45 -23 82 -44 82 -47 0 -15 -32
-63 -62 -91 -116 -112 -356 -106 -496 12 -17 14 -45 53 -61 87 -27 52 -31 72
-31 138 0 93 19 154 67 210 75 88 161 121 304 117 84 -2 103 -6 154 -32z m622
20 c63 -19 135 -81 159 -137 15 -36 19 -79 22 -265 l4 -223 -106 0 -106 0 0
37 0 37 -20 -22 c-68 -72 -226 -80 -323 -16 -109 72 -99 244 18 304 44 22 64
25 177 29 126 3 128 3 128 26 0 14 -13 34 -32 50 -29 25 -37 27 -107 23 -54
-2 -88 -10 -118 -25 l-43 -23 -35 70 c-19 38 -35 73 -35 78 0 11 61 39 125 57
69 18 229 19 292 0z m1695 -19 c70 -33 140 -109 162 -173 23 -66 21 -170 -5
-237 -96 -259 -531 -274 -653 -23 -88 180 -4 381 187 449 81 29 233 21 309
-16z m787 24 c47 -13 93 -47 121 -87 38 -55 50 -139 50 -350 l0 -193 -109 0
-109 0 -4 188 c-3 153 -7 193 -21 219 -35 66 -138 63 -184 -6 -22 -32 -23 -43
-23 -217 l0 -184 -110 0 -110 0 0 315 0 315 105 0 105 0 0 -25 c0 -30 4 -31
38 -6 15 10 41 23 57 29 38 13 150 15 194 2z m1597 -25 c37 -24 56 -45 79 -90
l30 -58 3 -229 3 -228 -110 0 -111 0 -1 178 c0 208 -7 239 -62 265 -33 17 -42
17 -79 5 -77 -24 -83 -42 -86 -259 l-3 -189 -110 0 -109 0 0 315 0 315 105 0
105 0 0 -32 c0 -29 1 -30 18 -15 45 41 104 58 193 55 75 -3 92 -7 135 -33z
m2339 10 c28 -9 52 -19 54 -21 2 -2 -11 -38 -29 -79 -26 -60 -37 -74 -49 -69
-99 42 -215 52 -250 20 -39 -35 -7 -57 114 -76 135 -21 203 -56 226 -117 26
-70 2 -167 -54 -214 -37 -31 -127 -60 -206 -65 -120 -9 -311 34 -311 70 0 7
14 43 30 80 l30 66 38 -19 c85 -43 235 -52 271 -16 15 15 14 18 -7 35 -12 10
-41 21 -65 24 -173 26 -224 46 -264 105 -17 25 -23 48 -23 88 0 98 47 157 153
195 68 24 265 20 342 -7z m1115 -72 l0 -98 -55 -1 c-65 -1 -101 -22 -127 -75
-15 -28 -18 -62 -18 -201 l0 -168 -110 0 -110 0 0 315 0 315 104 0 105 0 3
-31 3 -31 29 23 c36 29 91 48 139 49 l37 0 0 -97z m2623 68 c53 -26 100 -69
123 -112 l14 -29 -85 -42 -86 -43 -25 32 c-57 73 -178 63 -220 -18 -22 -44
-18 -130 9 -170 31 -46 62 -61 121 -56 42 4 55 10 84 41 l33 37 85 -43 c46
-24 84 -46 84 -49 0 -17 -64 -92 -97 -113 -58 -38 -155 -60 -235 -52 -140 13
-243 77 -295 184 -23 48 -28 70 -28 137 0 120 44 207 135 265 77 49 122 60
235 57 81 -2 109 -7 148 -26z m668 -3 c60 -28 103 -74 125 -135 9 -27 13 -100
14 -255 l0 -218 -100 0 -100 0 0 36 0 36 -34 -30 c-85 -74 -265 -64 -343 20
-31 33 -43 71 -43 132 0 66 28 111 90 146 41 22 58 25 178 28 120 4 132 6 132
22 0 11 -11 32 -24 47 -23 27 -28 28 -113 28 -74 0 -94 -4 -127 -23 -21 -13
-40 -22 -41 -20 -2 2 -19 36 -39 75 l-36 73 40 20 c74 38 139 50 255 47 94 -2
118 -6 166 -29z m1575 -1 c106 -54 161 -142 171 -272 l6 -75 -232 0 c-127 0
-231 -3 -231 -8 0 -20 37 -56 74 -73 58 -26 112 -24 175 7 l53 27 54 -54 c30
-29 54 -58 54 -65 0 -16 -71 -63 -120 -80 -64 -22 -150 -28 -225 -15 -177 31
-285 147 -287 307 0 86 13 137 52 196 35 53 91 94 163 120 79 28 224 21 293
-15z m789 13 c23 -11 52 -31 64 -44 l23 -24 44 33 c54 42 99 55 185 55 128 0
215 -72 239 -199 5 -29 10 -141 10 -247 l0 -194 -110 0 -110 0 0 168 c0 182
-8 235 -38 265 -27 26 -94 27 -124 1 -41 -37 -48 -73 -48 -259 l0 -175 -110 0
-110 0 0 183 c0 202 -9 240 -63 265 -37 18 -90 0 -121 -41 -19 -26 -21 -44
-24 -218 l-4 -189 -109 0 -109 0 0 315 0 315 105 0 105 0 0 -25 c0 -30 4 -31
38 -6 43 29 82 39 156 40 51 1 81 -5 111 -19z m1518 -13 c118 -58 137 -113
137 -399 l0 -208 -100 0 -100 0 0 35 0 36 -37 -30 c-49 -38 -113 -55 -186 -47
-126 13 -200 84 -200 192 0 62 24 109 72 141 51 34 95 43 219 43 63 0 112 4
112 9 0 27 -23 62 -49 76 -47 24 -146 20 -207 -9 l-51 -24 -36 73 c-39 79 -38
83 18 106 72 29 134 38 240 36 98 -2 116 -5 168 -30z m3034 18 c63 -19 135
-81 159 -137 15 -36 19 -79 22 -265 l4 -223 -106 0 -106 0 0 37 0 37 -20 -22
c-68 -72 -226 -80 -323 -16 -109 72 -99 244 18 304 44 22 64 25 177 29 126 3
128 3 128 26 0 14 -13 34 -32 50 -29 25 -37 27 -107 23 -54 -2 -88 -10 -118
-25 l-43 -23 -35 70 c-19 38 -35 74 -35 79 0 10 84 48 137 60 63 15 224 13
280 -4z m879 -20 c37 -24 56 -45 79 -90 l30 -59 3 -228 4 -228 -111 0 -111 0
-1 178 c0 208 -7 239 -62 265 -33 17 -42 17 -79 5 -77 -24 -83 -42 -86 -259
l-3 -189 -110 0 -109 0 0 315 0 315 105 0 105 0 0 -31 0 -30 33 24 c50 38 85
47 178 44 76 -2 91 -5 135 -32z m749 0 c56 -29 125 -100 125 -129 0 -6 -37
-30 -82 -52 l-83 -41 -35 38 c-45 48 -94 59 -146 33 -51 -26 -76 -63 -82 -122
-8 -92 48 -162 131 -162 47 0 74 13 108 52 l25 30 82 -41 c45 -23 82 -46 82
-53 0 -12 -46 -76 -70 -96 -65 -56 -202 -83 -305 -62 -170 35 -264 137 -273
296 -5 100 13 163 65 223 75 89 160 122 304 118 84 -2 103 -6 154 -32z m666 8
c112 -50 170 -139 177 -270 l5 -83 -227 0 c-250 0 -256 -2 -191 -58 57 -50
147 -55 225 -11 l37 21 56 -59 57 -58 -36 -32 c-56 -49 -122 -68 -239 -67 -78
1 -112 6 -156 23 -118 45 -196 150 -206 274 -12 151 71 278 217 331 64 23 218
17 281 -11z m-21291 -298 l0 -315 -110 0 -110 0 0 315 0 315 110 0 110 0 0
-315z m2320 0 l0 -315 -110 0 -110 0 0 315 0 315 110 0 110 0 0 -315z m4310
130 c0 -206 6 -233 59 -255 60 -25 125 7 150 73 6 16 11 102 11 198 l0 169
110 0 110 0 0 -315 0 -315 -105 0 -105 0 0 31 0 30 -31 -22 c-127 -90 -321
-49 -392 85 -21 38 -22 57 -25 274 l-3 232 110 0 111 0 0 -185z m2492 0 c40
-102 75 -185 78 -185 3 0 39 83 80 185 l74 185 103 0 c57 0 103 -3 103 -7 0
-26 -297 -716 -324 -754 -50 -68 -118 -99 -216 -99 -78 0 -160 20 -180 45 -8
10 -2 31 26 87 l37 74 36 -18 c45 -24 108 -18 133 12 15 19 15 24 1 58 -8 20
-65 154 -125 297 -61 143 -114 270 -119 283 l-9 22 114 0 114 0 74 -185z
m6248 -130 l0 -315 -110 0 -110 0 0 315 0 315 110 0 110 0 0 -315z m3070 0 l0
-315 -110 0 -110 0 0 315 0 315 110 0 110 0 0 -315z m-8510 20 l0 -85 -170 0
-170 0 0 85 0 85 170 0 170 0 0 -85z"/>
<path d="M15737 19070 l-47 -70 90 0 91 0 -3 68 -3 67 -40 2 c-39 3 -41 1 -88
-67z"/>
<path d="M16127 17853 c-4 -3 -7 -26 -7 -50 l0 -43 551 0 550 0 -3 48 -3 47
-541 3 c-297 1 -544 -1 -547 -5z"/>
<path d="M16124 17456 c-3 -8 -4 -31 -2 -52 l3 -39 545 0 545 0 0 50 0 50
-543 3 c-458 2 -543 0 -548 -12z"/>
<path d="M25130 18510 l0 -40 70 0 70 0 0 40 0 40 -70 0 -70 0 0 -40z"/>
<path d="M25650 18510 l0 -40 70 0 70 0 0 40 0 40 -70 0 -70 0 0 -40z"/>
<path d="M25130 18190 l0 -40 70 0 70 0 0 40 0 40 -70 0 -70 0 0 -40z"/>
<path d="M25650 18190 l0 -40 70 0 70 0 0 40 0 40 -70 0 -70 0 0 -40z"/>
<path d="M25650 17485 c0 -54 -22 -51 235 -30 99 8 188 15 197 15 9 0 26 14
38 30 l21 30 -245 0 -246 0 0 -45z"/>
<path d="M22750 19200 l0 -70 180 0 180 0 0 45 0 45 200 0 200 0 0 -45 0 -45
160 0 160 0 0 70 0 70 -540 0 -540 0 0 -70z"/>
<path d="M22884 18526 c-3 -8 -4 -23 -2 -33 3 -16 16 -18 116 -21 l112 -3 0
36 0 35 -110 0 c-87 0 -112 -3 -116 -14z"/>
<path d="M23510 18505 l0 -35 105 0 105 0 0 35 0 35 -105 0 -105 0 0 -35z"/>
<path d="M22882 18208 l3 -33 110 0 110 0 3 33 3 32 -116 0 -116 0 3 -32z"/>
<path d="M23512 18208 l3 -33 100 0 100 0 3 33 3 32 -106 0 -106 0 3 -32z"/>
<path d="M17140 18890 l0 -210 170 0 170 0 0 210 0 210 -170 0 -170 0 0 -210z"/>
<path d="M18997 18273 c-10 -9 -9 -143 1 -143 5 0 39 27 78 59 l69 60 45 -42
c25 -23 73 -69 108 -102 l62 -59 0 117 0 117 -178 0 c-98 0 -182 -3 -185 -7z"/>
<path d="M18987 17825 c-4 -98 -5 -181 -2 -183 2 -2 86 38 187 91 l183 95 3
38 3 38 -73 -66 -73 -67 -111 117 -111 117 -6 -180z"/>
<path d="M15870 15503 l1 -208 88 92 c78 81 231 288 231 314 0 5 -66 9 -160 9
l-160 0 0 -207z"/>
<path d="M16474 15684 c38 -13 71 -26 73 -28 6 -6 -42 -98 -98 -189 -37 -59
-49 -88 -49 -118 0 -21 3 -39 8 -39 23 0 165 205 226 328 l36 72 -132 -1 -133
0 69 -25z"/>
<path d="M16979 15694 c24 -7 46 -15 48 -17 2 -2 -13 -39 -32 -81 -19 -42 -35
-79 -35 -82 0 -2 52 -4 115 -4 81 0 115 3 115 12 0 6 -15 39 -34 74 l-35 62
67 26 67 25 -160 -1 c-151 0 -158 -1 -116 -14z"/>
<path d="M16880 15245 l0 -35 140 0 140 0 0 35 0 35 -140 0 -140 0 0 -35z"/>
<path d="M16882 14983 l3 -38 138 -3 137 -3 0 41 0 40 -141 0 -140 0 3 -37z"/>
<path d="M16880 14710 l0 -40 140 0 140 0 0 40 0 40 -140 0 -140 0 0 -40z"/>
<path d="M13710 14793 c0 -5 19 -42 41 -83 46 -85 107 -173 181 -262 l50 -60
50 49 c68 66 149 173 203 268 25 44 45 83 45 87 0 5 -128 8 -285 8 -157 0
-285 -3 -285 -7z"/>
<path d="M23150 14722 c44 -83 140 -220 203 -293 l39 -44 65 70 c68 73 167
215 209 297 l24 48 -291 0 -290 0 41 -78z"/>
<path d="M28300 15645 l0 -125 75 0 75 0 0 125 0 125 -75 0 -75 0 0 -125z"/>
<path d="M28791 15423 c-1 -293 -3 -284 65 -234 48 35 168 160 161 167 -3 3
-33 -2 -66 -12 -34 -9 -63 -15 -64 -13 -2 2 -18 67 -36 144 -59 245 -59 245
-60 -52z"/>
<path d="M28300 15070 l0 -120 75 0 75 0 0 120 0 120 -75 0 -75 0 0 -120z"/>
<path d="M28300 14469 l0 -142 61 7 c95 11 89 1 89 147 l0 129 -75 0 -75 0 0
-141z"/>
<path d="M32700 15775 l0 -55 190 0 190 0 0 55 0 55 -190 0 -190 0 0 -55z"/>
<path d="M31512 15718 l3 -73 128 -3 127 -3 0 76 0 75 -130 0 -131 0 3 -72z"/>
<path d="M32696 15428 c-3 -13 -6 -40 -6 -60 l0 -38 195 0 195 0 0 60 0 60
-189 0 c-187 0 -189 0 -195 -22z"/>
<path d="M31510 15270 l0 -70 130 0 130 0 0 70 0 70 -130 0 -130 0 0 -70z"/>
<path d="M31700 14105 l0 -145 80 0 80 0 0 145 0 145 -80 0 -80 0 0 -145z"/>
<path d="M32240 14105 l0 -145 85 0 85 0 0 145 0 145 -85 0 -85 0 0 -145z"/>
<path d="M32790 14105 l0 -145 80 0 80 0 0 145 0 145 -80 0 -80 0 0 -145z"/>
<path d="M19160 15530 l0 -130 225 0 225 0 0 130 0 130 -225 0 -225 0 0 -130z"/>
<path d="M20037 15653 c-4 -3 -7 -62 -7 -130 l0 -123 255 0 255 0 0 130 0 130
-248 0 c-137 0 -252 -3 -255 -7z"/>
<path d="M19156 14933 c-3 -42 -6 -105 -6 -140 l0 -63 230 0 230 0 0 140 0
140 -224 0 -223 0 -7 -77z"/>
<path d="M20030 14870 l0 -140 255 0 255 0 0 140 0 140 -255 0 -255 0 0 -140z"/>
<path d="M33182 12160 c-48 -30 -75 -97 -70 -172 7 -96 64 -153 153 -153 95 0
150 64 150 175 0 74 -23 123 -73 153 -41 24 -118 22 -160 -3z"/>
<path d="M11412 12200 c-40 -9 -87 -52 -101 -91 l-10 -29 150 0 c163 0 164 0
129 57 -31 52 -103 79 -168 63z"/>
<path d="M13551 12162 c-48 -24 -73 -62 -78 -119 -11 -116 116 -195 230 -145
65 29 89 70 84 144 -4 62 -25 96 -79 124 -37 19 -116 18 -157 -4z"/>
<path d="M14542 12200 c-37 -9 -77 -42 -98 -82 -8 -15 -14 -29 -14 -33 0 -3
68 -5 151 -5 l150 0 -7 23 c-24 75 -99 115 -182 97z"/>
<path d="M18273 12159 c-69 -44 -93 -156 -50 -239 32 -62 67 -85 132 -85 89 0
146 57 153 153 5 75 -22 142 -70 172 -44 27 -122 27 -165 -1z"/>
<path d="M19204 12170 c-35 -14 -82 -76 -89 -119 -33 -193 166 -299 279 -148
29 39 34 149 9 197 -35 67 -126 100 -199 70z"/>
<path d="M23297 12196 c-20 -8 -44 -20 -53 -27 -17 -14 -44 -62 -44 -79 0 -6
52 -10 150 -10 83 0 150 4 150 9 0 15 -45 74 -70 92 -35 24 -89 30 -133 15z"/>
<path d="M26893 12160 c-50 -30 -76 -90 -71 -167 6 -101 61 -158 153 -158 65
0 100 22 133 86 43 81 15 199 -56 242 -41 23 -118 22 -159 -3z"/>
<path d="M28233 12160 c-50 -30 -76 -90 -71 -167 6 -101 61 -158 153 -158 65
0 100 22 133 86 43 81 15 199 -56 242 -41 23 -118 22 -159 -3z"/>
<path d="M29150 12162 c-46 -23 -80 -75 -80 -124 0 -112 115 -185 225 -143
115 43 128 201 23 265 -42 25 -120 26 -168 2z"/>
<path d="M31323 11930 c-30 -12 -56 -55 -48 -79 10 -32 54 -61 92 -61 76 0
133 51 133 120 l0 30 -77 -1 c-43 0 -88 -4 -100 -9z"/>
<path d="M18063 10736 c-54 -24 -75 -69 -71 -150 4 -64 6 -70 41 -102 42 -39
96 -45 148 -18 36 18 68 82 69 134 0 101 -101 175 -187 136z"/>
<path d="M24841 10732 c-72 -36 -98 -115 -66 -198 21 -56 62 -84 123 -84 34 0
49 6 79 34 35 32 37 38 41 102 4 82 -18 127 -73 150 -45 18 -63 18 -104 -4z"/>
<path d="M9423 10752 c-23 -59 -45 -115 -49 -124 -6 -16 3 -18 95 -18 56 0
101 3 101 6 0 9 -91 229 -98 236 -4 4 -26 -41 -49 -100z"/>
<path d="M22555 10740 c-27 -66 -46 -122 -43 -125 3 -3 48 -4 101 -3 l95 3
-47 117 c-25 64 -49 119 -52 122 -3 3 -27 -48 -54 -114z"/>
<path d="M29153 10843 c-4 -10 -26 -65 -49 -123 l-42 -105 95 -3 c53 -1 98 0
101 3 6 5 -86 245 -94 245 -3 0 -8 -8 -11 -17z"/>
<path d="M10291 10732 c-95 -51 -95 -218 -2 -267 61 -31 136 -11 171 48 26 41
26 121 2 166 -20 38 -73 71 -112 71 -14 0 -41 -8 -59 -18z"/>
<path d="M11103 10736 c-97 -44 -99 -225 -3 -273 62 -32 149 -1 176 62 54 130
-56 263 -173 211z"/>
<path d="M13261 10528 c-55 -29 -42 -96 22 -112 65 -17 143 39 135 96 -3 21
-9 23 -68 26 -38 1 -75 -3 -89 -10z"/>
<path d="M14923 10736 c-58 -27 -88 -101 -71 -180 26 -124 187 -146 239 -33
23 53 24 102 1 146 -33 66 -106 95 -169 67z"/>
<path d="M24033 10516 c-24 -21 -26 -27 -18 -52 31 -88 185 -54 185 41 l0 35
-69 0 c-59 0 -74 -4 -98 -24z"/>
<path d="M25644 10756 c-33 -15 -74 -60 -74 -82 0 -11 26 -14 125 -14 69 0
125 3 125 8 0 15 -40 71 -57 80 -34 19 -87 22 -119 8z"/>
<path d="M27916 10519 c-34 -27 -34 -62 2 -89 57 -46 162 4 162 77 l0 33 -69
0 c-54 0 -74 -4 -95 -21z"/>
<path d="M31001 10528 c-55 -29 -42 -96 22 -112 65 -17 143 39 135 96 -3 21
-9 23 -68 26 -38 1 -75 -3 -89 -10z"/>
<path d="M33290 10757 c-30 -11 -80 -65 -80 -88 0 -5 59 -9 131 -9 l131 0 -19
31 c-37 64 -99 89 -163 66z"/>
</g>
</svg>
