<?xml version="1.0" standalone="no"?>
<!DOCTYPE svg PUBLIC "-//W3C//DTD SVG 20010904//EN"
 "http://www.w3.org/TR/2001/REC-SVG-20010904/DTD/svg10.dtd">
<svg version="1.0" xmlns="http://www.w3.org/2000/svg"
 width="4334.000000pt" height="4334.000000pt" viewBox="0 0 4334.000000 4334.000000"
 preserveAspectRatio="xMidYMid meet">

<g transform="translate(0.000000,4334.000000) scale(0.100000,-0.100000)"
fill="#000000" stroke="none">
<path d="M23200 33556 c-99 -35 -572 -222 -1770 -699 -393 -156 -787 -312
-875 -347 -88 -34 -179 -73 -202 -87 -62 -36 -119 -97 -150 -161 l-28 -57 -7
-372 c-11 -622 -50 -1021 -144 -1493 -131 -653 -392 -1385 -632 -1774 -447
-724 -1941 -2109 -3543 -3285 -63 -46 -105 -81 -94 -77 11 4 162 61 335 127
572 218 875 322 1236 425 1117 316 2156 385 3165 209 1485 -260 2723 -976
3690 -2135 330 -395 615 -832 864 -1325 139 -275 182 -370 312 -695 51 -129
109 -259 128 -287 42 -64 111 -115 185 -140 52 -17 148 -18 1935 -18 1034 0
1896 3 1916 8 83 17 103 90 53 190 -92 180 -348 612 -480 808 -739 1097 -1697
2019 -2839 2733 -681 425 -1486 811 -2185 1048 -889 300 -1768 463 -2870 533
-135 8 -312 22 -395 30 -175 17 -502 19 -660 5 -250 -24 -546 -75 -890 -156
-104 -24 -193 -44 -199 -44 -21 0 240 156 719 430 821 469 1107 668 1399 971
673 698 1127 1413 1477 2326 190 496 381 1176 573 2038 87 392 113 533 161
882 44 320 45 355 6 394 -39 38 -72 37 -191 -5z"/>
<path d="M24095 29664 c-250 -44 -480 -168 -660 -356 -167 -173 -276 -382
-321 -615 -21 -107 -23 -327 -5 -433 53 -303 226 -584 474 -771 96 -73 271
-159 388 -193 292 -84 597 -56 874 78 603 292 854 1020 561 1622 -175 357
-507 607 -891 669 -112 18 -314 18 -420 -1z"/>
<path d="M18620 25259 c-1115 -66 -2276 -381 -3236 -879 -334 -173 -715 -412
-999 -625 -639 -482 -1193 -1070 -1667 -1770 -138 -203 -171 -265 -172 -323
-1 -51 21 -75 84 -92 25 -7 701 -9 2037 -8 l2000 3 49 30 c37 23 84 76 194
217 373 478 625 731 1010 1019 722 539 1476 851 2316 959 663 85 1415 17 2153
-195 404 -116 705 -239 1009 -414 181 -102 205 -109 246 -60 14 17 26 38 26
48 0 19 -101 171 -200 301 -228 299 -535 592 -854 815 -783 546 -1951 905
-3170 975 -202 11 -624 11 -826 -1z"/>
<path d="M15616 19671 c-2 -3 -16 -44 -31 -91 -50 -155 -139 -309 -238 -414
-21 -22 -36 -40 -35 -41 2 -1 52 -28 111 -61 l108 -59 -91 -3 -90 -3 0 -159 0
-160 205 0 c169 0 205 -2 205 -14 0 -24 -122 -141 -201 -193 -41 -27 -114 -66
-161 -88 l-86 -38 88 -83 c48 -46 106 -108 130 -139 l42 -54 69 34 69 35 0
-595 0 -595 205 0 205 0 0 45 0 45 550 0 550 0 0 -45 0 -45 215 0 215 0 0 615
0 615 -936 2 -936 3 58 40 c33 22 101 82 151 133 l93 92 107 -81 c60 -45 132
-102 160 -126 l53 -44 150 130 150 130 -108 61 c-59 33 -144 79 -189 103 -46
23 -83 45 -83 50 0 4 79 7 175 7 l175 0 0 160 0 160 -205 0 -206 0 3 68 3 67
168 3 167 2 0 155 0 155 -330 0 c-181 0 -330 3 -330 6 0 3 10 37 21 75 12 39
20 71 18 73 -10 8 -360 72 -363 67z m252 -603 l3 -68 -92 0 c-72 0 -89 3 -82
13 6 6 29 38 52 70 40 55 45 58 79 55 l37 -3 3 -67z m1350 -1260 l3 -48 -550
0 -551 0 0 43 c0 24 3 47 7 50 3 4 250 6 547 5 l541 -3 3 -47z m-3 -393 l0
-50 -545 0 -545 0 -3 39 c-6 72 -50 66 550 64 l543 -3 0 -50z"/>
<path d="M21927 19606 c-93 -30 -170 -56 -172 -58 -3 -2 150 -485 160 -505 1
-2 85 28 188 65 183 65 187 68 181 92 -18 77 -163 455 -175 457 -8 1 -90 -22
-182 -51z"/>
<path d="M18899 19568 c-107 -214 -304 -469 -402 -519 -29 -15 -37 -25 -32
-37 25 -65 95 -265 106 -299 7 -24 15 -43 19 -43 4 0 41 9 82 19 79 20 363 59
655 89 l173 18 17 -45 c9 -25 22 -61 30 -80 7 -18 13 -37 13 -42 0 -5 -209 -9
-475 -9 l-475 0 0 -429 c0 -470 -9 -584 -56 -747 -14 -49 -41 -122 -61 -163
l-35 -74 33 -25 c19 -14 85 -76 147 -137 l112 -113 40 67 c60 101 97 203 151
411 l12 45 29 -90 c15 -49 30 -96 33 -103 3 -8 65 33 172 113 l168 126 3 -102
c1 -57 0 -109 -2 -116 -4 -10 -37 -13 -135 -13 l-130 0 39 -82 c21 -46 48
-116 61 -155 l23 -73 110 0 c251 1 385 69 415 211 7 33 11 289 11 749 l0 699
-92 3 -93 3 178 70 c100 39 177 75 177 82 0 25 -302 663 -314 663 -17 0 -336
-114 -336 -120 0 -4 20 -49 44 -101 l44 -94 -52 -7 c-28 -4 -98 -10 -156 -14
-89 -6 -103 -5 -94 7 6 8 37 48 70 89 110 138 241 327 232 335 -4 4 -401 115
-411 115 -4 0 -25 -37 -48 -82z m461 -1405 l0 -117 -67 64 c-38 36 -86 82
-108 102 l-40 37 -70 -59 c-39 -33 -73 -60 -77 -60 -10 0 -11 134 -1 143 3 4
87 7 185 7 l178 0 0 -117z m-249 -282 l103 -109 70 64 71 64 3 -31 c2 -18 0
-35 -5 -39 -15 -14 -365 -191 -369 -187 -7 7 9 347 17 347 4 0 54 -49 110
-109z"/>
<path d="M25835 19624 c-220 -42 -601 -84 -1000 -109 l-101 -7 37 -116 c21
-65 41 -129 44 -144 l5 -28 98 1 c53 1 154 4 225 7 l127 7 0 -32 0 -33 -265 0
-265 0 0 -150 0 -150 265 0 265 0 0 -35 0 -35 -230 0 -230 0 0 -450 0 -450
230 0 230 0 0 -40 0 -40 -240 0 -240 0 0 -145 0 -145 240 0 240 0 0 -59 0 -58
-82 -6 c-46 -4 -171 -12 -278 -18 -107 -6 -196 -12 -196 -13 -4 -4 44 -327 50
-333 6 -6 429 29 980 81 l228 22 50 -56 c27 -30 68 -81 91 -112 l40 -57 38 30
c67 52 178 180 244 279 187 280 291 637 334 1145 6 72 14 160 17 198 l6 67 84
0 84 0 0 -127 c0 -349 -29 -883 -55 -1020 -29 -154 -52 -168 -252 -160 -79 3
-143 3 -143 1 0 -3 11 -27 25 -54 29 -56 73 -202 83 -275 l7 -50 135 -3 c162
-3 244 9 327 49 136 65 187 169 218 435 25 226 55 974 55 1407 l0 177 -280 0
-280 0 0 290 0 290 -195 0 -195 0 -2 -287 -3 -288 -117 -3 -118 -3 0 -189 0
-190 116 0 116 0 -6 -57 c-3 -32 -8 -98 -11 -148 -8 -118 -41 -348 -65 -449
-36 -153 -116 -359 -164 -421 -14 -18 -15 -9 -16 118 l0 137 -245 0 -245 0 0
40 0 40 235 0 235 0 0 450 0 450 -235 0 -235 0 0 35 0 35 255 0 255 0 0 150 0
150 -255 0 -255 0 0 48 0 47 198 28 c108 15 218 32 245 38 l47 11 -35 61 c-19
34 -59 104 -88 154 -28 51 -54 92 -57 92 -3 -1 -59 -12 -125 -25z m-565 -1114
l0 -40 -70 0 -70 0 0 40 0 40 70 0 70 0 0 -40z m520 0 l0 -40 -70 0 -70 0 0
40 0 40 70 0 70 0 0 -40z m-520 -320 l0 -40 -70 0 -70 0 0 40 0 40 70 0 70 0
0 -40z m520 0 l0 -40 -70 0 -70 0 0 40 0 40 70 0 70 0 0 -40z m340 -667 c0 -5
-8 -18 -18 -30 -16 -20 -33 -23 -225 -37 -114 -9 -214 -16 -222 -16 -11 0 -15
12 -15 45 l0 45 240 0 c132 0 240 -3 240 -7z"/>
<path d="M19933 19173 c4 -496 7 -526 55 -619 22 -44 83 -104 131 -128 16 -9
58 -23 93 -31 109 -25 886 -19 903 8 2 3 -25 271 -31 316 -5 31 -7 33 -37 26
-18 -3 -170 -9 -338 -12 l-305 -5 -29 25 c-28 24 -30 28 -33 131 l-4 106 336
0 336 0 0 175 0 175 -335 0 -335 0 0 150 0 150 -206 0 -205 0 4 -467z"/>
<path d="M22370 19270 l0 -300 125 0 125 0 0 -60 0 -60 245 0 245 0 0 -30 0
-30 -290 0 -290 0 0 -430 0 -430 290 0 290 0 0 -30 0 -30 -350 0 -350 0 0
-150 0 -150 350 0 350 0 0 -80 0 -80 200 0 200 0 0 80 0 80 350 0 350 0 0 150
0 150 -350 0 -350 0 0 30 0 30 290 0 290 0 0 430 0 430 -290 0 -290 0 0 30 0
30 195 0 195 0 0 60 0 60 160 0 160 0 0 300 0 300 -925 0 -925 0 0 -300z
m1458 -67 l-3 -68 -157 -3 -158 -3 0 46 0 45 -200 0 -200 0 0 -45 0 -45 -180
0 -180 0 0 70 0 70 540 0 541 0 -3 -67z m-718 -698 l0 -36 -112 3 -113 3 -3
33 -3 32 115 0 116 0 0 -35z m610 0 l0 -35 -105 0 -105 0 0 35 0 35 105 0 105
0 0 -35z m-610 -295 l0 -30 -115 0 -115 0 0 30 0 30 115 0 115 0 0 -30z m610
0 l0 -30 -105 0 -105 0 0 30 0 30 105 0 105 0 0 -30z"/>
<path d="M16750 18890 l0 -570 570 0 570 0 0 570 0 570 -570 0 -570 0 0 -570z
m730 0 l0 -210 -170 0 -170 0 0 210 0 210 170 0 170 0 0 -210z"/>
<path d="M21600 18815 l0 -185 116 0 c105 0 115 -2 110 -17 -54 -195 -144
-478 -181 -575 -7 -17 5 -18 169 -18 97 0 176 -3 176 -6 0 -29 -82 -295 -125
-405 -3 -9 -43 -41 -88 -72 -94 -64 -227 -182 -227 -202 0 -13 257 -395 266
-395 2 0 30 53 63 118 93 184 141 240 196 226 15 -4 74 -38 131 -75 244 -161
377 -200 737 -219 186 -10 756 1 1082 20 88 6 168 10 178 10 10 0 17 8 17 19
0 34 57 243 89 325 l30 79 -47 -7 c-421 -58 -1122 -91 -1421 -67 -254 20 -372
53 -525 146 -75 46 -101 67 -99 81 0 10 20 71 43 134 48 133 129 441 133 506
l2 44 -119 56 c-66 30 -127 53 -138 51 -10 -3 -18 -4 -18 -3 0 1 38 136 85
300 47 163 85 301 85 306 0 6 -135 10 -360 10 l-360 0 0 -185z"/>
<path d="M19933 17778 c3 -365 8 -537 16 -569 21 -79 70 -150 129 -185 85 -51
151 -59 482 -59 251 0 303 3 351 17 140 44 215 153 249 366 6 37 13 77 15 88
4 19 -6 25 -94 53 -55 17 -134 49 -177 70 -43 22 -80 38 -82 36 -2 -2 -8 -43
-14 -92 -10 -100 -32 -152 -68 -170 -33 -17 -302 -16 -350 0 -45 16 -48 29
-49 210 l-1 147 340 0 340 0 0 180 0 180 -340 0 -340 0 0 125 0 125 -206 0
-205 0 4 -522z"/>
<path d="M16700 16236 c-85 -24 -167 -46 -183 -50 l-27 -6 30 -60 c16 -33 30
-62 30 -65 0 -3 -238 -5 -530 -5 l-530 0 0 -562 c0 -310 -5 -637 -10 -728 -25
-399 -77 -667 -177 -910 l-35 -85 23 -15 c65 -42 190 -139 236 -183 l53 -50
39 84 c94 206 164 491 205 839 20 168 36 385 36 498 0 50 4 92 8 92 5 0 32
-27 60 -60 l51 -61 41 37 40 36 0 -316 0 -316 170 0 170 0 0 360 c0 198 4 360
8 360 5 0 36 -25 70 -56 l62 -56 0 -304 0 -304 103 0 102 -1 -48 -42 -47 -42
57 -30 58 -30 -183 -3 -182 -2 0 -178 c0 -265 18 -343 94 -410 69 -60 115 -67
461 -67 303 0 311 1 361 23 62 28 94 60 128 127 25 51 63 211 52 222 -3 3 -50
20 -104 38 -55 18 -124 46 -155 62 l-56 31 -6 -47 c-11 -80 -25 -120 -45 -131
-30 -16 -312 -13 -336 4 -17 13 -19 30 -22 165 -2 95 0 151 6 151 17 0 152
-94 230 -160 l73 -61 126 118 125 117 -33 29 c-44 38 -158 114 -234 158 l-60
34 463 3 462 2 0 120 0 120 -215 0 -215 0 0 40 0 40 165 0 165 0 0 95 0 95
-162 2 -163 3 -3 38 -3 37 165 0 166 0 0 95 0 95 -162 2 -163 3 0 30 0 30 198
3 197 2 0 115 0 115 -202 2 c-188 3 -201 4 -176 18 l28 16 -45 78 c-25 44 -45
81 -45 83 0 2 113 3 250 3 l250 0 0 170 0 170 -485 0 -485 0 -36 73 c-41 81
-86 157 -94 156 -3 0 -75 -20 -160 -43z m-510 -534 c0 -26 -150 -230 -228
-312 l-91 -95 -1 208 0 207 160 0 c88 0 160 -4 160 -8z m454 -44 c-60 -121
-214 -348 -236 -348 -4 0 -8 17 -8 38 0 27 14 60 51 122 72 119 102 181 92
190 -4 5 -37 17 -73 28 l-65 20 133 1 132 1 -26 -52z m556 31 c-30 -10 -61
-21 -67 -24 -9 -3 -2 -23 22 -68 19 -35 35 -69 35 -75 0 -9 -34 -12 -115 -12
-63 0 -115 3 -115 6 0 3 16 39 35 81 19 42 35 77 35 79 0 2 -21 10 -47 18 -47
14 -43 15 112 15 l160 0 -55 -20z m-40 -444 l0 -35 -140 0 -140 0 0 35 0 35
140 0 140 0 0 -35z m0 -265 l0 -41 -137 3 -138 3 -3 38 -3 37 140 0 141 0 0
-40z m0 -270 l0 -40 -140 0 -140 0 0 40 0 40 140 0 140 0 0 -40z"/>
<path d="M11020 15406 c0 -786 -1 -835 -17 -840 -10 -3 -209 -39 -443 -81
-233 -42 -425 -77 -426 -78 -3 -3 63 -387 67 -391 2 -2 173 27 379 64 206 38
390 72 408 75 l32 6 0 -316 0 -315 205 0 205 0 0 353 0 353 161 29 c151 27
160 30 156 49 -3 12 -17 99 -32 194 -23 143 -30 172 -44 172 -10 0 -66 -9
-126 -20 -60 -11 -110 -20 -112 -20 -2 0 -3 360 -3 800 l0 800 -205 0 -205 0
0 -834z"/>
<path d="M12500 15970 l0 -260 -155 0 -155 0 0 -190 0 -190 155 0 155 0 0
-219 0 -219 -67 -15 c-38 -9 -106 -23 -153 -32 -47 -8 -95 -18 -106 -20 -22
-5 -21 -7 28 -197 28 -106 52 -195 54 -197 4 -4 148 26 222 45 l22 6 0 -265
c0 -228 -2 -268 -16 -281 -12 -13 -41 -16 -153 -16 l-138 0 32 -87 c18 -48 44
-131 57 -185 l23 -98 101 0 c109 0 253 21 312 46 91 37 144 96 172 189 8 26
15 169 19 419 l6 380 135 34 c74 18 136 35 138 36 9 9 -44 369 -55 373 -7 3
-60 -6 -118 -20 l-105 -25 0 174 0 174 130 0 130 0 0 190 0 190 -130 0 -130 0
0 260 0 260 -205 0 -205 0 0 -260z"/>
<path d="M13780 16040 l0 -190 -290 0 -290 0 0 -190 0 -190 290 0 290 0 0
-145 0 -145 -265 0 -265 0 0 -190 0 -190 73 -1 72 -1 -47 -15 c-27 -8 -48 -18
-48 -22 0 -4 33 -75 74 -157 73 -148 158 -286 243 -397 25 -32 44 -60 42 -62
-2 -1 -33 -19 -69 -38 -119 -65 -315 -137 -507 -187 l-42 -10 63 -93 c35 -51
83 -134 107 -184 27 -56 50 -92 60 -92 21 -1 194 58 302 103 111 46 247 114
334 167 53 32 70 39 83 30 147 -104 373 -219 551 -280 l116 -39 70 106 c39 59
98 140 132 180 38 45 57 74 49 77 -7 2 -55 16 -107 30 -149 41 -382 141 -480
204 -10 7 3 27 57 90 157 182 294 432 381 696 28 85 51 161 51 169 0 8 -46 33
-117 62 l-118 47 -192 -2 -193 -3 0 146 0 146 310 0 310 0 0 190 0 190 -310 0
-310 0 0 190 0 190 -205 0 -205 0 0 -190z m500 -1248 c0 -16 -101 -177 -155
-247 -29 -38 -74 -89 -98 -113 l-44 -43 -45 53 c-25 29 -63 78 -86 109 -42 59
-142 227 -142 241 0 4 128 8 285 8 157 0 285 -4 285 -8z"/>
<path d="M21900 15970 l0 -260 -150 0 -150 0 0 -190 0 -190 150 0 150 0 0
-219 c0 -200 -2 -220 -17 -225 -10 -3 -85 -19 -166 -35 -82 -16 -151 -31 -153
-34 -3 -3 14 -76 36 -163 23 -88 46 -175 51 -195 l9 -36 98 23 c53 13 107 26
120 29 l22 5 0 -268 c0 -195 -3 -271 -12 -280 -8 -8 -56 -12 -151 -12 -129 0
-139 -1 -132 -17 33 -80 75 -220 100 -327 l6 -29 142 6 c290 12 409 80 446
255 7 34 11 185 11 412 l0 359 43 11 c125 33 233 63 238 66 6 3 -39 365 -47
373 -4 4 -193 -35 -221 -46 -10 -4 -13 32 -13 171 l0 176 130 0 130 0 0 190 0
190 -130 0 -130 0 0 260 0 260 -205 0 -205 0 0 -260z"/>
<path d="M23190 16040 l0 -190 -290 0 -290 0 0 -190 0 -190 290 0 290 0 0
-145 0 -145 -270 0 -270 0 0 -190 0 -190 78 -1 77 0 -52 -17 -52 -17 58 -122
c76 -157 156 -292 236 -399 36 -47 65 -90 65 -95 0 -13 -178 -100 -290 -142
-85 -32 -229 -75 -303 -91 l-28 -7 35 -42 c39 -48 129 -198 165 -275 14 -29
30 -52 38 -52 25 0 229 73 350 125 68 29 175 83 238 119 l116 66 57 -38 c151
-103 326 -188 516 -253 l109 -37 78 118 c43 65 104 145 134 179 l56 60 -43 11
c-120 31 -322 106 -422 155 -168 84 -162 66 -64 187 160 197 278 417 361 668
68 208 77 179 -66 236 l-122 48 -187 -3 -188 -3 0 146 0 146 305 0 305 0 0
190 0 190 -305 0 -305 0 0 190 0 190 -205 0 -205 0 0 -190z m465 -1307 c-20
-38 -61 -102 -91 -143 -60 -83 -169 -208 -176 -200 -100 113 -200 255 -252
358 l-26 52 291 0 291 0 -37 -67z"/>
<path d="M25117 16150 c-76 -128 -164 -237 -284 -357 -96 -95 -110 -113 -97
-124 18 -15 107 -142 159 -226 l38 -63 29 22 c57 40 233 224 330 343 114 142
252 345 241 356 -10 9 -343 129 -358 129 -5 -1 -31 -36 -58 -80z"/>
<path d="M25860 15905 l0 -325 -175 0 -175 0 0 -30 c0 -16 -4 -30 -9 -30 -6 0
-77 22 -159 48 l-149 49 -48 -105 c-100 -214 -239 -421 -396 -586 l-79 -84 55
-88 c30 -48 79 -134 108 -191 28 -56 55 -103 58 -103 3 0 29 24 58 54 l51 55
0 -520 0 -519 190 0 190 0 0 333 1 332 57 -61 c31 -34 73 -87 92 -118 19 -31
38 -56 41 -56 13 0 94 119 125 185 74 153 103 334 111 678 l6 237 -140 0 -140
0 -6 -222 c-4 -123 -12 -254 -17 -293 -21 -142 -61 -259 -108 -315 l-21 -25
-1 456 0 455 63 120 62 119 3 -77 3 -78 172 -2 172 -3 3 -827 2 -828 180 0
180 0 0 830 0 830 195 0 195 0 0 -120 0 -120 100 0 100 0 0 -499 c0 -446 -2
-500 -16 -505 -9 -3 -72 -6 -140 -6 -68 0 -124 -2 -124 -4 0 -2 18 -57 39
-122 22 -66 45 -152 52 -191 l12 -73 108 0 c254 0 398 68 445 212 16 48 18
111 22 621 l3 567 100 0 99 0 0 185 0 185 -395 0 -395 0 0 125 0 125 -200 0
-200 0 0 325 0 325 -180 0 -180 0 0 -325z"/>
<path d="M29100 16103 c-103 -215 -248 -413 -302 -413 -5 0 -8 17 -6 38 3 34
6 37 36 40 l32 3 0 180 0 179 -485 0 -485 0 0 -179 0 -180 38 -3 37 -3 3 -742
2 -743 -22 -4 c-13 -3 -45 -8 -71 -11 -39 -5 -47 -10 -43 -23 3 -9 19 -87 37
-172 18 -85 35 -158 39 -163 5 -6 422 65 518 88 l22 5 0 -235 0 -235 170 0
170 0 1 803 c0 877 -2 855 55 601 l28 -131 54 18 c54 19 321 63 448 75 l70 7
10 -57 11 -56 -94 0 -93 0 0 -195 0 -195 -35 0 -35 0 0 195 0 195 -165 0 -165
0 0 -370 0 -370 161 -2 162 -3 -47 -52 c-52 -58 -154 -129 -240 -169 l-55 -25
69 -84 c37 -46 83 -109 102 -139 18 -31 37 -56 41 -56 20 0 167 84 231 132
132 99 240 265 288 443 19 72 22 112 26 387 l4 307 -64 3 -63 3 103 29 c57 17
105 32 107 36 4 7 -57 246 -97 378 -25 81 -35 101 -47 98 -9 -3 -56 -15 -106
-27 -49 -12 -94 -26 -99 -30 -6 -5 -3 -30 8 -65 10 -31 16 -57 14 -59 -2 -1
-45 -6 -97 -10 l-95 -7 58 63 c124 136 406 535 389 549 -5 4 -64 36 -133 72
l-125 66 -75 -129 -75 -129 -39 0 c-36 0 -38 1 -25 19 138 192 288 446 273
461 -8 8 -259 120 -268 120 -2 0 -32 -57 -66 -127z m-650 -458 l0 -125 -75 0
-75 0 0 125 0 125 75 0 75 0 0 -125z m397 -155 c20 -85 38 -157 40 -159 1 -2
30 4 64 13 33 10 63 15 66 12 7 -7 -113 -132 -161 -167 -68 -50 -66 -58 -66
229 0 163 4 252 10 242 5 -8 26 -84 47 -170z m-397 -420 l0 -120 -75 0 -75 0
0 120 0 120 75 0 75 0 0 -120z m0 -589 c0 -147 7 -135 -92 -147 l-58 -6 0 141
0 141 75 0 75 0 0 -129z"/>
<path d="M9925 16199 c-156 -62 -565 -168 -770 -200 -44 -6 -85 -15 -91 -18
-8 -4 -1 -33 23 -91 18 -46 41 -114 50 -150 9 -36 20 -68 23 -73 4 -4 66 1
139 11 97 13 134 15 137 7 3 -6 3 -65 2 -131 l-3 -119 -202 -3 -203 -2 0 -190
0 -190 175 0 c96 0 175 -2 175 -5 0 -2 -25 -62 -56 -132 -86 -198 -199 -396
-291 -511 l-34 -42 62 -123 c34 -67 77 -158 94 -201 l32 -79 32 44 c44 60 123
199 174 306 l42 88 3 -432 2 -433 200 0 200 0 2 523 3 522 55 -112 c30 -62 58
-111 62 -110 3 1 57 71 119 156 106 147 111 155 97 178 -8 13 -87 100 -177
193 l-163 170 176 0 c171 0 175 0 178 21 2 18 27 -1 148 -118 80 -77 176 -179
214 -227 l70 -86 70 67 c39 37 102 96 139 131 48 46 66 69 62 82 -11 36 -357
361 -425 399 -11 7 -48 -21 -145 -107 l-130 -116 -3 167 -2 167 -175 0 -175 0
0 174 0 174 38 6 c42 8 315 85 321 92 3 3 -219 345 -223 344 -1 -1 -23 -10
-51 -21z"/>
<path d="M29941 16104 c-72 -156 -252 -413 -290 -414 -3 0 -12 -4 -19 -9 -11
-7 -6 -40 28 -174 l42 -165 32 13 c40 17 165 39 173 32 8 -8 -75 -122 -130
-179 -25 -26 -60 -54 -77 -63 -23 -12 -30 -21 -25 -33 10 -25 75 -294 75 -309
0 -7 -11 -13 -25 -13 l-25 0 0 -630 0 -630 175 0 175 0 0 260 0 260 40 0 40 0
0 -45 0 -45 165 0 165 0 0 405 0 405 -165 0 -165 0 0 -185 0 -185 -40 0 -40 0
0 195 0 194 -147 3 -148 3 85 28 c85 28 460 108 471 101 4 -2 12 -31 20 -64 7
-33 18 -60 24 -60 22 0 217 84 221 95 7 16 -133 443 -152 464 -3 3 -224 -69
-224 -73 0 -2 9 -28 19 -58 l19 -55 -68 -12 c-38 -6 -74 -11 -80 -11 -6 0 23
48 64 108 89 129 167 257 241 396 l55 102 -129 67 -128 67 -56 -115 c-31 -64
-63 -118 -71 -121 -7 -3 -32 -4 -54 -2 l-39 3 68 95 c88 122 195 308 183 319
-5 5 -61 36 -124 69 l-116 61 -43 -95z"/>
<path d="M32327 15763 c-5 -346 -7 -399 -26 -486 -27 -121 -59 -204 -111 -282
l-40 -60 0 588 0 587 -505 0 -505 0 0 -680 0 -680 185 0 185 0 0 65 0 65 293
0 292 -1 -29 -25 c-16 -14 -25 -29 -20 -33 5 -5 41 -34 79 -66 83 -69 185
-166 185 -177 0 -4 -225 -8 -500 -8 l-500 0 0 -305 0 -305 -165 0 -165 0 0
-180 0 -180 1345 0 1345 0 0 180 0 180 -155 0 -155 0 0 305 0 305 -511 0 -510
0 48 48 c99 96 189 243 229 375 l18 57 224 0 223 0 -3 -52 c-3 -48 -5 -52 -33
-60 -16 -5 -82 -7 -146 -4 l-116 6 47 -94 c26 -51 58 -128 71 -170 l24 -76
110 6 c254 13 370 59 428 167 l22 42 3 668 3 667 -579 0 -580 0 -5 -387z m753
17 l0 -60 -190 0 -190 0 0 60 0 60 190 0 190 0 0 -60z m-1310 -65 l0 -76 -127
3 -128 3 -3 73 -3 72 131 0 130 0 0 -75z m1310 -325 l0 -60 -195 0 -195 0 0
38 c0 87 -12 82 201 82 l189 0 0 -60z m-1310 -115 l0 -75 -130 0 -130 0 0 68
c0 38 3 72 7 75 3 4 62 7 130 7 l123 0 0 -75z m90 -1170 l0 -145 -80 0 -80 0
0 145 0 145 80 0 80 0 0 -145z m550 0 l0 -145 -85 0 -85 0 0 145 0 145 85 0
85 0 0 -145z m540 0 l0 -145 -80 0 -80 0 0 145 0 145 80 0 80 0 0 -145z"/>
<path d="M26355 16050 c-60 -33 -114 -61 -119 -63 -5 -1 8 -29 28 -60 36 -56
149 -268 158 -296 3 -10 37 4 131 57 l127 71 0 -50 0 -49 340 0 340 0 0 185 0
185 -340 0 -340 0 0 -122 0 -123 -40 74 c-59 106 -153 251 -165 251 -5 -1 -59
-27 -120 -60z"/>
<path d="M10428 15965 l-135 -115 147 -147 c81 -82 173 -183 205 -225 l57 -78
37 32 c190 166 251 222 251 227 0 28 -271 297 -401 400 l-26 20 -135 -114z"/>
<path d="M18750 15528 c0 -564 -10 -855 -35 -1025 -41 -279 -125 -497 -254
-663 l-49 -64 31 -19 c59 -36 151 -111 225 -181 l73 -70 32 39 c138 166 253
421 308 688 l22 107 254 0 253 0 0 -385 0 -385 210 0 210 0 2 383 3 382 253 3
252 2 0 -190 0 -190 -25 -16 c-23 -15 -50 -16 -221 -12 -178 5 -195 4 -191
-11 3 -9 19 -49 36 -90 37 -87 81 -235 81 -270 l0 -24 158 7 c313 14 445 56
517 165 56 84 55 54 55 1244 l0 1097 -1100 0 -1100 0 0 -522z m860 2 l0 -130
-225 0 -225 0 0 130 0 130 225 0 225 0 0 -130z m930 0 l0 -130 -255 0 -255 0
0 123 c0 68 3 127 7 130 3 4 118 7 255 7 l248 0 0 -130z m-930 -660 l0 -140
-230 0 -230 0 0 63 c0 35 3 98 6 140 l7 77 223 0 224 0 0 -140z m930 0 l0
-140 -255 0 -255 0 0 140 0 140 255 0 255 0 0 -140z"/>
<path d="M26282 14638 c3 -375 6 -428 21 -468 25 -63 72 -108 131 -125 53 -16
271 -21 293 -7 10 6 10 37 1 143 l-12 136 -73 -5 -73 -5 0 377 0 376 -146 0
-145 0 3 -422z"/>
<path d="M17503 14207 l-152 -71 31 -40 c108 -144 238 -363 278 -468 l22 -56
157 74 c86 42 159 79 164 83 10 10 -70 171 -140 276 -47 72 -169 233 -202 267
-3 3 -74 -26 -158 -65z"/>
<path d="M15984 14166 c-48 -144 -116 -266 -201 -357 l-43 -46 157 -101 158
-100 24 22 c38 34 106 135 149 222 44 88 115 288 110 312 -2 9 -64 36 -165 72
l-162 57 -27 -81z"/>
<path d="M12895 12730 c-61 -20 -95 -66 -95 -128 0 -61 23 -100 73 -123 81
-36 189 -12 221 50 34 65 12 157 -45 186 -38 20 -115 27 -154 15z"/>
<path d="M11970 12145 l0 -505 130 0 130 0 0 505 0 505 -130 0 -130 0 0 -505z"/>
<path d="M12400 12145 l0 -505 130 0 130 0 0 505 0 505 -130 0 -130 0 0 -505z"/>
<path d="M24690 12145 l0 -505 130 0 130 0 0 205 c0 222 5 249 53 294 31 29
109 39 146 19 14 -7 34 -29 45 -48 19 -32 21 -55 24 -252 l4 -218 130 0 130 0
-5 258 c-3 148 -10 273 -16 294 -20 65 -72 129 -131 162 -52 29 -61 31 -160
31 -99 0 -108 -2 -162 -32 l-58 -31 0 164 0 164 -130 0 -130 0 0 -505z"/>
<path d="M27510 12145 l0 -505 130 0 130 0 0 505 0 505 -130 0 -130 0 0 -505z"/>
<path d="M33410 12490 c0 -88 -4 -160 -9 -160 -5 0 -14 7 -21 15 -23 28 -117
48 -201 43 -270 -16 -419 -311 -289 -574 36 -74 82 -116 167 -156 54 -26 73
-29 152 -29 94 0 160 19 190 54 20 25 31 21 31 -13 l0 -30 120 0 120 0 0 505
0 505 -130 0 -130 0 0 -160z m-70 -328 c48 -26 75 -83 74 -157 0 -107 -55
-169 -150 -170 -88 0 -145 57 -152 153 -5 75 22 142 70 172 42 25 112 26 158
2z"/>
<path d="M17272 12594 c-153 -41 -240 -136 -250 -273 -3 -54 0 -77 18 -119 42
-98 120 -144 330 -193 150 -36 190 -56 190 -98 0 -60 -62 -86 -184 -78 -82 6
-200 40 -250 72 -16 11 -31 14 -35 9 -5 -5 -27 -51 -50 -102 l-40 -93 62 -29
c112 -53 177 -65 342 -65 129 0 158 3 208 22 140 53 217 153 217 282 0 81 -23
134 -75 180 -54 47 -108 69 -263 107 -147 36 -195 59 -200 93 -5 33 22 68 64
81 61 20 186 7 277 -28 l78 -30 9 21 c4 12 22 55 39 96 17 41 31 77 31 81 0
12 -120 57 -185 69 -82 15 -269 13 -333 -5z"/>
<path d="M9100 12115 l0 -475 135 0 135 0 0 475 0 475 -135 0 -135 0 0 -475z"/>
<path d="M22110 12485 l0 -105 150 0 150 0 0 -370 0 -370 135 0 135 0 0 370 0
370 145 0 145 0 0 105 0 105 -430 0 -430 0 0 -105z"/>
<path d="M10530 12445 l0 -95 -55 0 -55 0 0 -95 0 -95 54 0 54 0 4 -177 c3
-149 7 -184 22 -213 44 -83 109 -126 211 -139 99 -11 245 12 245 40 0 4 -14
46 -31 93 -30 82 -31 85 -55 75 -48 -18 -91 -11 -114 18 -19 24 -20 37 -18
162 l3 136 83 3 82 3 0 94 0 95 -85 0 -85 0 0 95 0 95 -130 0 -130 0 0 -95z"/>
<path d="M16080 12445 l0 -95 -55 0 -55 0 0 -94 0 -95 53 -3 52 -3 5 -175 c4
-144 9 -181 24 -210 37 -71 99 -118 174 -135 49 -10 174 -8 218 4 70 20 70 19
34 119 -31 88 -33 90 -57 81 -47 -18 -90 -11 -112 17 -19 24 -21 40 -21 165
l0 139 85 0 85 0 0 95 0 95 -85 0 -85 0 0 95 0 95 -130 0 -130 0 0 -95z"/>
<path d="M20460 12445 l0 -95 -55 0 -55 0 0 -95 0 -95 54 0 54 0 4 -172 c4
-161 6 -177 29 -223 30 -58 92 -110 152 -126 105 -28 298 -3 296 40 0 9 -13
50 -29 91 -19 50 -33 74 -42 71 -7 -3 -33 -6 -58 -9 -37 -3 -49 0 -65 18 -18
20 -20 37 -20 164 l0 141 83 3 82 3 0 94 0 94 -82 3 -83 3 -3 93 -3 92 -129 0
-130 0 0 -95z"/>
<path d="M9915 12373 c-28 -10 -65 -29 -83 -41 l-32 -23 0 35 0 36 -125 0
-125 0 0 -370 0 -370 130 0 130 0 0 208 c0 233 6 257 70 300 45 30 118 27 154
-7 37 -35 46 -94 46 -305 l0 -196 131 0 131 0 -4 263 -3 262 -28 60 c-35 74
-58 100 -122 133 -67 34 -195 41 -270 15z"/>
<path d="M11336 12379 c-111 -26 -228 -124 -264 -222 -94 -253 58 -497 330
-526 94 -10 214 2 272 28 54 23 116 69 116 84 0 7 -30 42 -67 79 l-66 67 -25
-20 c-61 -47 -175 -58 -243 -23 -28 14 -79 69 -79 85 0 5 116 10 268 11 l267
3 -2 80 c-3 178 -102 306 -268 350 -64 16 -177 18 -239 4z m197 -195 c28 -15
67 -68 67 -91 0 -10 -37 -13 -149 -13 l-150 0 10 29 c13 36 58 79 95 91 35 11
88 4 127 -16z"/>
<path d="M13453 12376 c-95 -31 -163 -90 -214 -186 -21 -40 -24 -58 -24 -155
0 -102 2 -114 29 -168 34 -67 83 -115 158 -154 49 -26 62 -28 168 -28 119 0
130 3 199 52 l24 18 -6 -50 c-12 -89 -66 -134 -170 -142 -73 -6 -169 15 -234
52 l-43 24 -45 -89 c-25 -49 -45 -92 -45 -95 0 -3 29 -19 63 -36 151 -70 392
-79 532 -19 59 25 131 93 160 150 40 80 45 133 45 490 l0 340 -125 0 -125 0 0
-42 0 -42 -27 26 c-51 48 -92 62 -188 65 -57 2 -105 -2 -132 -11z m255 -210
c74 -38 103 -125 67 -199 -43 -92 -179 -112 -258 -39 -73 69 -53 198 37 238
41 17 120 18 154 0z"/>
<path d="M14452 12375 c-74 -21 -108 -41 -168 -97 -33 -31 -62 -71 -80 -111
-25 -54 -29 -74 -29 -157 0 -83 4 -103 28 -155 69 -149 205 -226 398 -227 61
0 119 6 156 17 60 17 163 79 163 98 0 7 -30 42 -66 78 l-67 67 -36 -23 c-72
-48 -165 -53 -242 -14 -34 17 -69 57 -69 79 0 7 89 10 264 10 l264 0 6 34 c10
55 -12 164 -46 228 -38 72 -82 112 -166 151 -55 26 -79 31 -161 34 -64 2 -114
-2 -149 -12z m209 -190 c28 -15 52 -46 63 -82 l7 -23 -151 0 -151 0 7 23 c27
89 135 128 225 82z"/>
<path d="M15485 12381 c-38 -10 -112 -47 -120 -61 -13 -21 -25 -9 -25 25 l0
35 -120 0 -120 0 0 -370 0 -370 130 0 130 0 0 208 c0 233 6 257 70 300 28 19
44 23 83 19 100 -9 117 -57 117 -337 l0 -190 131 0 131 0 -5 258 c-2 155 -9
272 -16 294 -21 65 -72 129 -130 162 -47 26 -66 30 -140 33 -47 1 -99 -1 -116
-6z"/>
<path d="M18309 12381 c-38 -12 -71 -31 -96 -54 l-23 -20 0 36 0 37 -125 0
-125 0 0 -505 0 -505 130 0 130 0 0 160 c0 88 2 160 4 160 2 0 24 -12 50 -26
87 -49 229 -48 326 1 67 34 121 89 156 161 27 56 29 66 29 184 0 121 -1 127
-32 185 -37 71 -105 138 -171 167 -51 23 -205 34 -253 19z m129 -221 c49 -30
76 -97 69 -173 -9 -98 -63 -152 -153 -151 -66 0 -99 22 -132 85 -44 83 -13
206 61 243 45 22 115 20 155 -4z"/>
<path d="M19140 12377 c-116 -33 -209 -108 -258 -207 -24 -49 -27 -66 -27
-160 0 -93 3 -112 27 -162 73 -157 248 -240 456 -217 146 16 274 110 322 237
28 73 31 195 7 267 -36 103 -117 184 -226 226 -70 27 -233 36 -301 16z m211
-220 c52 -34 71 -79 67 -159 -4 -71 -20 -103 -69 -141 -63 -46 -172 -19 -214
53 -27 48 -27 141 1 194 38 74 145 100 215 53z"/>
<path d="M20175 12372 c-28 -9 -67 -30 -88 -46 l-37 -28 0 41 0 41 -120 0
-120 0 0 -370 0 -370 130 0 130 0 0 197 c0 178 2 201 21 239 26 54 82 84 157
84 l52 0 0 115 0 115 -37 0 c-21 -1 -61 -8 -88 -18z"/>
<path d="M21230 12379 c-106 -21 -199 -92 -220 -169 -23 -83 0 -175 56 -219
46 -36 90 -51 219 -72 124 -21 162 -39 150 -71 -9 -22 -57 -38 -115 -38 -53 0
-184 31 -228 54 l-29 15 -37 -82 c-20 -45 -36 -87 -36 -93 0 -13 90 -48 165
-65 86 -18 261 -13 335 10 117 36 190 121 190 220 0 85 -35 142 -110 181 -34
17 -169 50 -207 50 -32 0 -92 20 -108 36 -24 24 -2 50 53 63 57 14 156 2 225
-28 l45 -19 36 80 c20 44 36 84 36 89 0 16 -60 40 -137 55 -81 15 -212 17
-283 3z"/>
<path d="M23207 12371 c-169 -56 -267 -189 -267 -361 0 -209 140 -355 365
-379 141 -16 296 22 358 87 l25 27 -66 73 -67 73 -34 -25 c-47 -35 -124 -50
-189 -36 -58 13 -96 39 -117 81 l-16 29 272 0 271 0 -4 93 c-3 76 -9 103 -31
149 -36 74 -94 130 -174 170 -57 28 -76 32 -166 35 -81 2 -114 -1 -160 -16z
m184 -171 c40 -11 83 -51 98 -92 l11 -28 -150 0 c-98 0 -150 4 -150 10 0 17
27 65 44 79 16 13 82 40 101 41 6 0 26 -5 46 -10z"/>
<path d="M24110 12376 c-121 -35 -208 -104 -257 -204 -25 -52 -28 -67 -28
-167 0 -106 1 -112 34 -173 19 -34 52 -79 74 -98 144 -131 428 -145 566 -28
35 29 91 100 91 115 0 5 -46 32 -102 60 -93 47 -102 49 -111 33 -30 -53 -104
-91 -160 -80 -112 21 -171 152 -117 260 27 54 62 78 121 84 61 6 100 -10 140
-56 l31 -35 99 49 c54 26 99 51 99 55 0 4 -15 29 -32 55 -35 53 -107 107 -166
125 -56 17 -229 21 -282 5z"/>
<path d="M26005 12373 c-28 -10 -65 -29 -83 -41 l-32 -23 0 35 0 36 -125 0
-125 0 0 -370 0 -370 129 0 130 0 3 219 c3 204 5 222 24 248 68 92 205 77 234
-26 5 -20 10 -127 10 -238 l0 -203 130 0 130 0 0 229 c0 125 -5 252 -10 282
-29 153 -120 229 -280 236 -63 3 -98 -1 -135 -14z"/>
<path d="M26840 12375 c-195 -55 -304 -219 -279 -424 12 -103 66 -190 155
-252 159 -109 421 -92 563 36 124 112 148 340 51 487 -37 56 -110 112 -183
140 -70 28 -230 34 -307 13z m212 -212 c50 -30 73 -79 73 -153 0 -111 -53
-174 -149 -174 -90 -1 -147 55 -154 152 -5 75 22 142 70 172 42 25 119 27 160
3z"/>
<path d="M28180 12375 c-116 -33 -195 -97 -246 -200 -34 -68 -36 -80 -36 -162
0 -142 49 -239 158 -314 159 -109 420 -93 563 36 62 56 103 149 109 245 3 44
-1 100 -8 130 -26 108 -126 214 -240 256 -64 23 -230 28 -300 9z m206 -211
c53 -25 79 -76 79 -154 -1 -112 -54 -174 -151 -175 -90 0 -146 57 -152 158 -7
112 52 187 146 187 24 0 59 -7 78 -16z"/>
<path d="M29043 12372 c-152 -54 -232 -171 -233 -339 0 -111 26 -180 94 -248
72 -72 131 -97 239 -103 99 -5 159 8 209 45 29 21 33 22 36 7 7 -32 -21 -105
-50 -129 -74 -62 -235 -58 -356 10 l-42 24 -45 -89 c-25 -49 -45 -92 -45 -95
0 -14 134 -67 204 -80 278 -53 493 27 568 214 22 54 23 68 26 424 l3 367 -125
0 -126 0 0 -42 0 -42 -27 26 c-51 47 -92 62 -188 65 -69 3 -102 -1 -142 -15z
m275 -212 c43 -26 72 -76 72 -123 0 -167 -229 -213 -307 -63 -19 37 -12 109
14 145 44 60 155 81 221 41z"/>
<path d="M31224 12376 c-34 -8 -87 -26 -118 -41 l-56 -26 45 -89 45 -89 57 27
c66 30 162 40 216 23 38 -13 71 -45 82 -78 6 -22 4 -23 -62 -23 -272 -1 -393
-59 -409 -196 -18 -152 91 -255 270 -255 95 -1 144 16 194 63 l32 32 0 -42 0
-42 121 0 120 0 -3 258 -3 258 -33 66 c-36 73 -76 110 -156 141 -66 26 -253
33 -342 13z m276 -471 c0 -54 -52 -105 -113 -112 -80 -9 -138 49 -103 102 23
36 48 44 139 44 l77 1 0 -35z"/>
<path d="M32290 12374 c-25 -9 -59 -27 -77 -40 -17 -13 -34 -24 -37 -24 -3 0
-6 16 -6 35 l0 35 -125 0 -125 0 0 -370 0 -370 129 0 130 0 3 208 c3 186 5
211 24 246 35 68 119 95 185 60 53 -27 59 -59 59 -299 l0 -215 131 0 130 0 -3
273 c-3 262 -4 274 -26 319 -33 66 -99 123 -163 142 -66 20 -170 20 -229 0z"/>
<path d="M12820 12010 l0 -370 130 0 130 0 0 370 0 370 -130 0 -130 0 0 -370z"/>
<path d="M29720 12376 c0 -2 70 -169 155 -372 86 -202 155 -374 153 -382 -10
-51 -111 -70 -174 -33 l-34 20 -45 -89 c-25 -49 -45 -92 -45 -95 0 -4 25 -18
56 -32 105 -48 246 -44 335 10 101 61 92 43 466 945 l14 33 -127 -3 -126 -3
-85 -210 c-47 -115 -88 -213 -92 -218 -4 -4 -47 92 -96 213 l-89 220 -133 0
c-73 0 -133 -2 -133 -4z"/>
<path d="M12024 11206 c-43 -19 -64 -53 -64 -104 0 -55 21 -86 73 -107 145
-58 267 108 145 198 -34 25 -113 32 -154 13z"/>
<path d="M14345 11206 c-103 -46 -95 -180 13 -215 58 -18 108 -7 149 34 58 58
42 150 -33 181 -41 17 -90 17 -129 0z"/>
<path d="M27395 11206 c-103 -46 -95 -180 13 -215 58 -18 108 -7 149 34 58 58
42 150 -33 181 -41 17 -90 17 -129 0z"/>
<path d="M30462 11203 c-88 -43 -82 -171 10 -208 105 -42 213 29 194 128 -15
79 -121 121 -204 80z"/>
<path d="M11620 10715 l0 -435 110 0 110 0 0 435 0 435 -110 0 -110 0 0 -435z"/>
<path d="M18250 11010 c0 -77 -1 -140 -2 -140 -2 0 -25 11 -52 25 -59 30 -166
34 -239 9 -63 -21 -130 -83 -164 -152 -25 -50 -28 -68 -28 -152 0 -81 4 -103
26 -150 54 -115 150 -174 284 -175 69 0 87 4 129 28 27 15 50 27 52 27 2 0 4
-11 4 -25 l0 -25 105 0 105 0 0 435 0 435 -110 0 -110 0 0 -140z m-60 -288
c108 -79 57 -272 -72 -272 -77 0 -128 60 -128 149 0 67 26 115 73 137 39 17
92 11 127 -14z"/>
<path d="M25020 11010 l0 -139 -46 24 c-39 21 -61 25 -129 25 -71 0 -90 -4
-144 -31 -71 -36 -121 -94 -147 -171 -23 -71 -16 -217 14 -275 50 -96 134
-155 238 -169 67 -8 157 11 194 43 l30 25 0 -31 0 -31 105 0 105 0 0 435 0
435 -110 0 -110 0 0 -140z m-75 -274 c99 -42 102 -224 5 -273 -67 -34 -148 0
-176 72 -31 82 -4 161 67 197 41 22 59 22 104 4z"/>
<path d="M29690 10715 l0 -435 115 0 115 0 0 435 0 435 -115 0 -115 0 0 -435z"/>
<path d="M30060 10715 l0 -435 110 0 110 0 0 435 0 435 -110 0 -110 0 0 -435z"/>
<path d="M9351 11083 c-14 -28 -351 -793 -351 -798 0 -3 53 -4 117 -3 l117 3
32 75 31 75 173 0 172 0 32 -77 31 -78 118 0 c99 0 118 2 115 15 -2 8 -82 192
-178 410 l-175 395 -112 0 c-97 0 -114 -2 -122 -17z m173 -351 c25 -62 46
-115 46 -117 0 -3 -45 -5 -101 -5 -92 0 -101 2 -95 18 43 116 92 230 98 224 3
-4 27 -58 52 -120z"/>
<path d="M16590 10690 l0 -410 115 0 115 0 0 410 0 410 -115 0 -115 0 0 -410z"/>
<path d="M22317 10698 c-97 -222 -177 -407 -177 -411 0 -4 52 -6 116 -5 l117
3 31 77 31 78 171 0 172 0 32 -80 32 -80 119 0 c66 0 119 3 119 8 0 4 -81 187
-178 407 l-178 400 -115 3 -114 3 -178 -403z m344 34 l47 -117 -95 -3 c-53 -1
-98 -1 -100 2 -3 3 16 59 43 125 26 67 50 118 53 115 3 -3 27 -58 52 -122z"/>
<path d="M28892 10738 c-88 -200 -170 -384 -181 -410 l-20 -48 118 0 119 0 32
80 32 80 172 0 171 0 32 -78 31 -77 121 -3 c67 -1 121 -1 121 0 0 2 -81 185
-179 408 l-180 405 -114 3 -115 3 -160 -363z m323 2 c27 -66 46 -122 43 -125
-3 -3 -48 -4 -101 -3 l-95 3 42 105 c23 58 45 113 49 123 3 9 8 17 10 17 2 0
25 -54 52 -120z"/>
<path d="M13800 10970 l0 -80 -45 0 -45 0 0 -80 0 -80 45 0 45 0 0 -128 c0
-189 25 -254 119 -301 51 -26 145 -36 212 -22 85 18 85 18 57 102 -20 60 -29
73 -44 71 -111 -15 -119 -5 -119 151 l0 122 73 3 72 3 0 79 0 79 -72 3 -73 3
-3 78 -3 77 -109 0 -110 0 0 -80z"/>
<path d="M20078 10973 l-3 -78 -47 -3 -48 -3 0 -79 0 -79 48 -3 47 -3 5 -155
c5 -164 12 -191 62 -237 53 -50 165 -73 258 -54 88 18 88 19 62 100 -13 39
-27 73 -31 76 -5 2 -22 0 -39 -6 -31 -11 -68 0 -84 25 -4 6 -8 66 -8 134 l0
122 70 0 70 0 0 80 0 80 -70 0 -70 0 0 80 0 80 -110 0 -109 0 -3 -77z"/>
<path d="M10291 10909 c-13 -5 -36 -18 -52 -30 l-29 -20 0 25 0 26 -105 0
-105 0 0 -425 0 -425 110 0 110 0 0 135 0 136 48 -28 c41 -24 57 -28 127 -27
103 0 168 27 230 96 57 63 79 129 78 234 0 134 -55 229 -165 283 -54 27 -71
31 -142 30 -45 0 -92 -5 -105 -10z m118 -177 c90 -49 96 -209 9 -262 -94 -57
-198 12 -198 132 0 79 61 148 130 148 14 0 41 -8 59 -18z"/>
<path d="M11090 10904 c-19 -8 -42 -22 -52 -31 -17 -15 -18 -14 -18 10 l0 27
-105 0 -105 0 0 -425 0 -425 110 0 110 0 0 134 0 135 48 -27 c40 -23 59 -27
127 -27 67 0 89 5 137 28 109 53 160 137 166 273 7 156 -43 255 -159 313 -55
27 -72 31 -143 31 -49 -1 -95 -7 -116 -16z m149 -187 c123 -114 5 -327 -140
-252 -65 34 -90 138 -51 215 34 69 135 89 191 37z"/>
<path d="M12533 10906 c-87 -28 -167 -99 -204 -180 -26 -58 -26 -195 1 -255
49 -107 138 -171 269 -192 119 -20 228 7 299 75 30 27 62 75 62 90 0 3 -37 24
-81 47 l-82 41 -37 -37 c-98 -96 -238 -26 -227 113 4 63 28 100 81 126 52 26
101 15 147 -34 l36 -38 79 42 c43 24 80 48 81 53 7 21 -64 99 -117 128 -50 27
-65 30 -160 32 -68 2 -120 -2 -147 -11z"/>
<path d="M13177 10909 c-53 -12 -137 -50 -137 -60 0 -5 16 -40 35 -78 l34 -69
38 19 c52 26 125 38 173 29 46 -8 90 -44 90 -72 0 -15 -9 -18 -62 -18 -179 -1
-280 -36 -318 -110 -40 -79 -14 -187 57 -234 49 -33 132 -50 196 -42 58 8 81
19 120 54 l27 26 0 -37 0 -37 106 0 106 0 -4 223 c-3 198 -6 227 -24 267 -28
61 -91 115 -155 134 -58 18 -218 20 -282 5z m240 -406 c-11 -70 -93 -111 -155
-79 -33 17 -43 41 -31 74 12 31 42 41 123 41 l69 1 -6 -37z"/>
<path d="M14855 10910 c-55 -17 -139 -75 -172 -118 -97 -127 -77 -325 44 -431
68 -61 139 -84 253 -85 86 0 101 2 161 30 74 36 129 85 161 147 30 58 37 186
13 256 -22 67 -91 143 -163 178 -50 24 -70 28 -162 30 -58 1 -118 -2 -135 -7z
m195 -188 c58 -42 75 -124 41 -199 -25 -53 -68 -77 -128 -70 -72 8 -115 64
-115 148 0 118 113 186 202 121z"/>
<path d="M15724 10901 c-23 -10 -45 -24 -48 -30 -12 -19 -26 -12 -26 14 l0 25
-105 0 -105 0 0 -315 0 -315 110 0 110 0 0 183 c0 165 2 185 20 215 44 72 150
77 187 9 15 -26 18 -65 21 -219 l4 -188 110 0 110 0 -4 228 -3 228 -30 59
c-23 45 -42 66 -79 90 -44 27 -59 30 -140 33 -73 2 -99 -1 -132 -17z"/>
<path d="M17285 10908 c-16 -6 -45 -21 -62 -35 l-33 -24 0 30 0 31 -105 0
-105 0 0 -315 0 -315 109 0 110 0 3 189 c3 217 9 235 86 259 37 12 46 12 79
-5 55 -26 62 -57 62 -265 l1 -178 111 0 111 0 -4 233 c-3 228 -4 233 -29 282
-32 60 -50 78 -109 104 -50 23 -172 28 -225 9z"/>
<path d="M19545 10907 c-115 -38 -158 -87 -163 -186 -3 -56 0 -71 20 -101 32
-47 89 -77 173 -90 162 -25 197 -43 160 -79 -27 -27 -165 -20 -243 12 l-64 25
-29 -65 c-16 -36 -29 -71 -29 -79 0 -36 191 -79 313 -69 129 9 216 55 256 132
19 37 14 131 -10 169 -26 43 -103 79 -199 94 -137 21 -169 40 -128 77 28 25
144 23 214 -5 l52 -21 31 71 c17 39 31 74 31 78 0 36 -300 65 -385 37z"/>
<path d="M20872 10905 c-18 -8 -47 -24 -63 -35 l-29 -21 0 30 0 31 -105 0
-105 0 0 -315 0 -315 109 0 109 0 4 178 c2 149 6 182 21 205 26 40 59 58 121
64 l56 6 0 93 0 94 -42 0 c-24 -1 -58 -7 -76 -15z"/>
<path d="M23313 10901 c-150 -52 -237 -186 -219 -340 14 -118 92 -218 205
-262 44 -18 77 -22 151 -22 100 0 156 14 212 54 27 20 88 94 88 108 0 3 -38
26 -84 51 l-85 45 -21 -28 c-62 -79 -181 -73 -225 12 -21 42 -19 129 4 167 20
32 74 64 110 64 36 0 86 -26 109 -56 l21 -29 86 43 86 42 -23 42 c-28 50 -70
83 -138 109 -67 25 -204 26 -277 0z"/>
<path d="M23985 10915 c-5 -2 -35 -11 -65 -20 -30 -9 -65 -23 -78 -31 l-22
-14 36 -73 c20 -39 37 -73 39 -75 1 -2 18 6 36 17 80 47 210 43 249 -6 34 -44
27 -53 -42 -53 -236 -1 -338 -59 -338 -192 0 -63 14 -100 52 -134 85 -78 252
-84 334 -12 l34 30 0 -36 0 -36 101 0 100 0 -3 233 c-3 217 -4 235 -25 274
-51 94 -138 133 -297 132 -55 0 -105 -2 -111 -4z m215 -409 c0 -94 -154 -130
-185 -42 -8 25 -6 31 18 52 24 20 39 24 98 24 l69 0 0 -34z"/>
<path d="M25568 10906 c-145 -52 -221 -158 -221 -308 0 -131 59 -225 179 -286
86 -44 237 -52 335 -18 48 17 119 64 119 80 0 6 -25 36 -56 67 l-56 57 -35
-24 c-72 -49 -180 -40 -235 18 -15 17 -28 34 -28 39 0 5 102 9 231 9 l232 0
-5 75 c-9 142 -80 241 -206 287 -57 21 -200 23 -254 4z m195 -158 c17 -9 57
-65 57 -80 0 -5 -56 -8 -125 -8 -137 0 -144 3 -103 55 40 51 112 65 171 33z"/>
<path d="M26414 10901 c-23 -10 -45 -24 -48 -30 -12 -19 -26 -12 -26 14 l0 25
-105 0 -105 0 0 -315 0 -315 110 0 110 0 0 168 c0 183 8 227 44 262 29 27 94
32 121 10 38 -31 45 -72 45 -260 l0 -180 110 0 110 0 0 175 c0 187 7 222 49
260 29 25 92 26 119 2 32 -29 42 -95 42 -271 l0 -166 111 0 111 0 -4 228 c-3
220 -4 229 -29 283 -43 92 -110 129 -233 129 -77 0 -154 -28 -190 -69 l-20
-21 -30 29 c-17 17 -48 37 -68 45 -53 23 -172 21 -224 -3z"/>
<path d="M27825 10905 c-27 -8 -52 -14 -55 -15 -3 0 -20 -9 -37 -20 l-33 -20
37 -74 36 -73 53 24 c98 45 221 28 244 -33 6 -14 10 -27 10 -28 0 -2 -49 -6
-110 -9 -140 -8 -190 -21 -239 -63 -31 -27 -42 -45 -50 -84 -6 -27 -9 -55 -7
-62 3 -7 7 -25 10 -40 28 -129 258 -182 379 -87 l37 30 0 -36 0 -35 100 0 100
0 0 208 c0 228 -8 276 -55 338 -14 19 -50 46 -78 61 -47 25 -64 28 -172 30
-82 2 -136 -2 -170 -12z m255 -398 c0 -24 -8 -41 -30 -62 -54 -51 -160 -32
-160 29 0 47 35 65 123 66 l67 0 0 -33z"/>
<path d="M30917 10909 c-53 -12 -137 -50 -137 -60 0 -5 16 -40 35 -78 l34 -69
38 19 c52 26 125 38 173 29 46 -8 90 -44 90 -72 0 -15 -9 -18 -62 -18 -104 -1
-207 -18 -251 -42 -80 -44 -109 -145 -68 -235 35 -75 145 -123 254 -109 58 8
81 19 120 54 l27 26 0 -37 0 -37 106 0 106 0 -4 223 c-3 198 -6 227 -24 267
-28 61 -91 115 -155 134 -58 18 -218 20 -282 5z m240 -406 c-11 -70 -93 -111
-155 -79 -33 17 -43 41 -31 74 12 31 42 41 123 41 l69 1 -6 -37z"/>
<path d="M31817 10906 c-21 -8 -46 -21 -56 -30 -24 -22 -31 -20 -31 9 l0 25
-105 0 -105 0 0 -315 0 -315 110 0 110 0 0 178 c0 205 8 234 73 266 33 16 45
17 78 7 68 -21 74 -38 77 -258 l4 -193 110 0 110 0 -4 228 -3 228 -30 59 c-23
45 -42 66 -79 90 -44 26 -59 30 -135 33 -55 1 -100 -3 -124 -12z"/>
<path d="M32513 10901 c-97 -36 -170 -107 -199 -194 -23 -68 -16 -196 14 -254
80 -155 309 -226 485 -151 48 21 137 108 137 134 0 8 -37 32 -82 55 l-81 41
-30 -32 c-72 -77 -179 -63 -219 28 -37 84 -10 168 66 206 52 26 101 15 147
-34 l36 -38 73 39 c93 49 95 51 77 85 -21 39 -63 77 -117 105 -64 33 -231 38
-307 10z"/>
<path d="M33203 10902 c-280 -100 -283 -496 -4 -603 43 -17 79 -22 156 -23
115 -1 179 16 238 65 l37 31 -57 63 -58 63 -26 -19 c-74 -53 -188 -47 -241 11
-16 17 -28 35 -28 40 0 6 84 10 225 10 l225 0 0 68 c0 126 -53 218 -161 277
-48 26 -65 30 -154 32 -78 3 -112 -1 -152 -15z m207 -161 c14 -10 33 -32 43
-50 l19 -31 -131 0 c-72 0 -131 4 -131 9 0 4 10 23 23 42 39 58 120 72 177 30z"/>
<path d="M11980 10595 l0 -315 110 0 110 0 0 315 0 315 -110 0 -110 0 0 -315z"/>
<path d="M14300 10595 l0 -315 110 0 110 0 0 315 0 315 -110 0 -110 0 0 -315z"/>
<path d="M18612 10678 c3 -216 5 -236 25 -273 42 -79 105 -119 205 -131 63 -7
128 8 181 42 l37 24 0 -30 0 -30 105 0 105 0 0 315 0 315 -110 0 -110 0 0
-169 c0 -96 -5 -182 -11 -198 -25 -67 -90 -98 -150 -72 -51 21 -59 55 -59 259
l0 180 -111 0 -110 0 3 -232z"/>
<path d="M21035 10873 c8 -21 69 -164 134 -318 127 -300 127 -302 69 -326 -29
-12 -80 -4 -113 17 -20 13 -23 9 -58 -62 -44 -88 -42 -94 35 -120 37 -12 73
-15 133 -12 100 5 158 35 206 105 27 39 319 721 319 745 0 4 -47 8 -104 8
l-103 0 -76 -187 -75 -188 -20 45 c-10 25 -45 109 -77 188 l-58 142 -113 0
-114 0 15 -37z"/>
<path d="M27350 10595 l0 -315 110 0 110 0 0 315 0 315 -110 0 -110 0 0 -315z"/>
<path d="M30420 10595 l0 -315 110 0 110 0 0 315 0 315 -110 0 -110 0 0 -315z"/>
<path d="M21790 10615 l0 -85 170 0 170 0 0 85 0 85 -170 0 -170 0 0 -85z"/>
</g>
</svg>
