<?xml version="1.0" standalone="no"?>
<!DOCTYPE svg PUBLIC "-//W3C//DTD SVG 20010904//EN"
 "http://www.w3.org/TR/2001/REC-SVG-20010904/DTD/svg10.dtd">
<svg version="1.0" xmlns="http://www.w3.org/2000/svg"
 width="6738.000000pt" height="4334.000000pt" viewBox="0 0 6738.000000 4334.000000"
 preserveAspectRatio="xMidYMid meet">

<g transform="translate(0.000000,4334.000000) scale(0.100000,-0.100000)"
fill="#000000" stroke="none">
<path d="M27217 27518 c-65 -204 -172 -394 -296 -530 l-62 -67 43 -24 c24 -13
85 -48 135 -76 51 -29 95 -56 98 -62 4 -5 -42 -9 -114 -9 l-121 0 0 -205 0
-205 275 0 c151 0 275 -3 275 -7 0 -15 -87 -117 -139 -162 -105 -91 -270 -189
-410 -245 l-44 -17 54 -46 c75 -64 191 -187 241 -255 l42 -57 93 49 93 48 0
-774 0 -774 265 0 265 0 0 55 0 55 710 0 710 0 0 -55 0 -55 275 0 275 0 0 795
0 795 -1211 2 -1211 3 88 67 c97 72 199 166 260 240 l39 47 138 -104 c76 -58
171 -132 212 -165 l74 -60 191 166 c172 149 190 167 173 178 -24 17 -241 138
-378 212 l-110 59 238 3 237 2 0 205 0 205 -265 0 -265 0 0 90 0 90 220 0 220
0 0 205 0 205 -431 0 -431 0 5 23 c3 12 16 55 28 95 12 39 20 74 18 77 -6 5
-434 95 -454 95 -7 0 -27 -48 -48 -112z m363 -678 l0 -90 -121 0 -121 0 32 43
c18 23 46 63 64 89 31 48 31 48 89 48 l57 0 0 -90z m1750 -1630 l0 -60 -710 0
-710 0 0 60 0 60 710 0 710 0 0 -60z m0 -510 l0 -70 -710 0 -710 0 0 70 0 70
710 0 710 0 0 -70z"/>
<path d="M35436 27540 c-120 -38 -221 -71 -223 -74 -2 -2 32 -112 76 -244 44
-132 92 -279 106 -326 l26 -85 97 35 c418 151 384 136 378 165 -4 23 -34 107
-179 512 -21 59 -37 87 -47 86 -8 0 -113 -31 -234 -69z"/>
<path d="M31512 27496 c-148 -293 -399 -616 -527 -681 -22 -11 -42 -21 -44
-22 -1 -1 15 -48 37 -105 22 -57 60 -161 83 -233 23 -71 43 -131 43 -132 1 -1
22 5 46 13 69 24 221 51 437 79 292 36 684 77 697 72 7 -3 27 -47 44 -98 18
-52 36 -99 40 -105 5 -8 80 17 237 79 127 49 231 91 233 92 6 5 -125 290 -265
577 l-145 296 -216 -74 c-119 -41 -218 -77 -220 -79 -2 -2 22 -60 54 -129 31
-69 55 -128 53 -130 -4 -3 -357 -36 -392 -36 -13 0 0 22 51 83 94 113 181 230
274 366 67 100 75 117 60 123 -14 6 -518 148 -525 148 -1 0 -26 -47 -55 -104z"/>
<path d="M32852 26978 c4 -666 3 -655 63 -785 48 -105 146 -180 285 -220 59
-16 110 -18 555 -18 463 0 582 5 614 24 11 7 10 33 -3 157 -8 82 -18 183 -22
225 l-6 76 -38 -8 c-119 -27 -762 -41 -843 -18 -61 17 -71 43 -75 196 l-4 133
431 0 431 0 0 225 0 225 -430 0 -430 0 0 200 0 200 -266 0 -265 0 3 -612z"/>
<path d="M40570 27574 c-273 -56 -934 -129 -1362 -150 l-137 -7 21 -51 c32
-76 87 -267 88 -300 l0 -29 193 7 c105 3 238 9 295 13 l102 6 0 -47 0 -46
-345 0 -345 0 0 -190 0 -190 345 0 345 0 0 -45 0 -45 -300 0 -300 0 0 -590 0
-590 300 0 300 0 0 -45 0 -45 -310 0 -310 0 0 -185 0 -185 310 0 310 0 0 -80
c0 -75 -1 -80 -22 -84 -13 -3 -151 -12 -308 -21 -350 -19 -390 -23 -390 -38 2
-38 57 -417 62 -422 6 -6 539 39 1176 100 200 19 371 35 381 35 19 0 142 -137
208 -232 l42 -61 129 129 c71 71 154 163 184 204 288 394 433 892 493 1685 8
110 15 203 15 208 0 4 50 7 112 7 l111 0 -6 -358 c-8 -419 -22 -725 -42 -945
-24 -254 -49 -334 -117 -378 -31 -20 -43 -20 -225 -15 -106 2 -193 3 -193 0 0
-2 13 -30 29 -62 39 -77 88 -233 106 -338 8 -48 15 -91 15 -95 0 -12 211 -11
342 1 188 18 290 60 379 158 66 71 103 152 128 278 51 253 83 851 96 1789 3
220 8 412 10 427 l4 28 -366 2 -367 3 3 373 3 372 -261 0 -261 0 0 -375 0
-375 -150 0 -150 0 0 -245 0 -245 146 0 147 0 -7 -127 c-27 -508 -111 -897
-254 -1178 -73 -144 -71 -145 -72 63 l0 182 -320 0 -320 0 0 45 0 45 310 0
310 0 0 590 0 590 -310 0 -310 0 0 45 0 45 335 0 335 0 0 190 0 190 -335 0
-335 0 0 65 c0 75 -19 66 180 90 180 22 433 65 443 75 5 4 -40 93 -100 198
-85 151 -112 191 -128 190 -11 0 -49 -6 -85 -14z m-800 -1459 l0 -55 -90 0
-90 0 0 55 0 55 90 0 90 0 0 -55z m670 0 l0 -55 -90 0 -90 0 0 55 0 55 90 0
90 0 0 -55z m-670 -410 l0 -55 -90 0 -90 0 0 55 0 55 90 0 90 0 0 -55z m670 0
l0 -55 -90 0 -90 0 0 55 0 55 90 0 90 0 0 -55z m450 -858 c0 -7 -12 -27 -27
-44 l-28 -31 -230 -16 c-126 -9 -256 -19 -287 -23 l-58 -6 0 67 0 66 315 0
c250 0 315 -3 315 -13z"/>
<path d="M36010 27110 l0 -390 165 0 165 0 0 -80 0 -80 315 0 315 0 0 -40 0
-40 -375 0 -375 0 0 -555 0 -555 375 0 375 0 0 -40 0 -40 -455 0 -455 0 0
-190 0 -190 455 0 455 0 0 -110 0 -110 260 0 260 0 0 110 0 110 450 0 450 0 0
190 0 190 -450 0 -450 0 0 40 0 40 375 0 375 0 0 555 0 555 -375 0 -375 0 0
40 0 40 250 0 250 0 0 80 0 80 210 0 210 0 0 390 0 390 -1200 0 -1200 0 0
-390z m1890 -95 l0 -95 -205 0 -205 0 0 60 0 60 -260 0 -260 0 0 -60 0 -60
-235 0 -235 0 0 95 0 95 700 0 700 0 0 -95z m-930 -900 l0 -45 -145 0 -145 0
0 45 0 45 145 0 145 0 0 -45z m790 0 l0 -45 -135 0 -135 0 0 45 0 45 135 0
135 0 0 -45z m-790 -380 l0 -45 -145 0 -145 0 0 45 0 45 145 0 145 0 0 -45z
m790 0 l0 -45 -135 0 -135 0 0 45 0 45 135 0 135 0 0 -45z"/>
<path d="M28720 26610 l0 -740 740 0 740 0 0 740 0 740 -740 0 -740 0 0 -740z
m950 0 l0 -270 -225 0 -225 0 0 270 0 270 225 0 225 0 0 -270z"/>
<path d="M35020 26515 l0 -235 145 0 c80 0 145 -3 145 -6 0 -20 -102 -360
-166 -553 -41 -123 -74 -225 -74 -227 0 -2 101 -4 225 -4 124 0 225 -3 225 -7
0 -19 -72 -276 -99 -353 -70 -203 -63 -193 -172 -265 -54 -36 -147 -112 -205
-168 l-107 -103 113 -165 c62 -90 142 -206 177 -257 l65 -93 78 158 c83 167
150 262 201 288 43 23 75 10 232 -95 155 -103 245 -150 365 -190 181 -60 366
-85 710 -96 264 -8 1106 16 1450 42 l82 6 0 33 c0 63 82 344 144 496 6 14 -6
14 -118 -2 -411 -57 -1089 -95 -1531 -86 -301 6 -403 15 -560 48 -139 29 -233
68 -380 156 -109 65 -126 79 -122 97 3 12 26 80 52 151 63 177 118 366 160
554 19 87 35 162 35 168 0 16 -304 153 -338 153 -30 0 -30 1 -21 33 10 31 177
616 203 710 l14 47 -464 0 -464 0 0 -235z"/>
<path d="M31137 25683 c-5 -620 -10 -699 -62 -904 -27 -109 -50 -169 -101
-271 l-36 -72 28 -24 c106 -87 228 -202 279 -262 33 -38 62 -70 66 -70 3 0 26
35 52 78 68 112 132 276 176 453 l39 154 43 -139 44 -139 220 166 220 165 3
-134 c1 -81 -2 -142 -8 -154 -10 -19 -21 -20 -175 -20 l-165 0 40 -81 c42 -82
110 -272 110 -304 0 -16 12 -17 173 -12 188 6 252 18 354 68 71 34 123 89 150
158 17 43 18 108 21 984 l2 937 -734 0 -734 0 -5 -577z m973 -14 l0 -151 -100
93 c-56 52 -120 111 -143 131 l-43 36 -91 -79 c-51 -43 -94 -79 -97 -79 -3 0
-6 45 -6 100 l0 100 240 0 240 0 0 -151z m-258 -436 l61 -72 92 85 c51 46 95
84 99 84 4 0 6 -21 4 -46 l-3 -47 -243 -125 c-134 -68 -245 -122 -248 -119 -3
3 -1 71 5 150 6 80 11 185 11 234 l0 88 80 -80 c45 -44 108 -112 142 -152z"/>
<path d="M32850 25211 c0 -705 4 -758 60 -877 52 -108 148 -173 298 -200 114
-20 793 -19 880 1 164 39 257 134 315 320 23 74 57 245 57 286 0 13 -12 21
-42 29 -130 33 -318 111 -390 162 l-27 19 -5 -23 c-3 -13 -7 -57 -10 -99 -8
-115 -25 -177 -56 -213 l-28 -31 -236 0 c-308 0 -280 -25 -284 255 l-3 210
440 0 441 0 0 235 0 235 -440 0 -440 0 0 165 0 165 -265 0 -265 0 0 -639z"/>
<path d="M16585 23160 c-638 -137 -1206 -259 -1261 -271 l-102 -21 -68 -102
c-81 -119 -222 -298 -371 -469 -148 -170 -709 -728 -943 -938 -654 -586 -1360
-1164 -1928 -1576 -73 -53 -131 -98 -129 -99 2 -2 127 44 278 102 1027 396
1673 570 2414 653 1647 185 3263 -277 4455 -1273 826 -690 1459 -1587 1895
-2686 43 -107 88 -217 102 -243 53 -106 138 -167 263 -187 44 -7 628 -9 1810
-8 1617 3 1748 4 1782 20 51 23 65 55 49 110 -25 86 -302 564 -479 828 -798
1188 -1895 2173 -3217 2889 -1296 703 -2575 1066 -4100 1166 -132 9 -342 24
-467 35 -429 38 -720 20 -1181 -71 -138 -27 -467 -101 -508 -114 -11 -4 -19
-4 -19 -1 0 10 218 141 609 366 897 516 1063 630 1377 944 326 328 550 601
789 965 148 226 151 231 128 230 -10 0 -540 -113 -1178 -249z"/>
<path d="M36765 23158 c-121 -33 -221 -61 -223 -63 -2 -2 15 -39 37 -84 l41
-81 -690 0 -690 0 0 -662 c0 -684 -9 -1000 -35 -1268 -37 -380 -111 -701 -216
-943 -21 -50 -38 -91 -36 -92 1 -1 37 -25 80 -54 83 -56 260 -195 291 -230 11
-11 23 -21 27 -21 5 0 24 35 44 77 182 393 293 984 323 1718 l7 169 69 -79
c38 -44 72 -81 76 -83 4 -1 30 18 59 44 l51 46 0 -416 0 -416 220 0 220 0 2
477 3 477 88 -78 87 -77 0 -400 0 -399 127 0 127 0 -52 -53 -52 -53 72 -39 73
-40 -238 -3 -239 -2 4 -278 c5 -306 11 -339 71 -428 40 -61 100 -98 202 -125
75 -21 103 -22 430 -23 373 -1 413 3 505 49 99 51 162 158 196 333 22 114 30
104 -113 150 -71 23 -163 59 -206 81 -50 25 -80 35 -82 28 -2 -7 -6 -40 -9
-74 -8 -84 -28 -131 -63 -144 -17 -6 -102 -9 -221 -7 -252 4 -232 -17 -232
245 0 153 3 193 13 187 99 -59 267 -182 332 -245 l50 -48 164 152 164 151 -48
44 c-53 48 -202 148 -310 208 l-70 39 603 3 602 2 0 155 0 155 -275 0 -275 0
0 55 0 55 210 0 211 0 -3 123 -3 122 -207 3 -208 2 0 50 0 50 210 0 210 0 0
120 0 120 -210 0 -210 0 0 45 0 45 255 0 255 0 0 150 0 150 -272 1 c-268 1
-272 1 -236 18 21 10 41 20 44 23 7 7 -36 93 -82 165 l-34 53 333 2 332 3 0
215 0 215 -633 3 -633 2 -20 48 c-11 26 -46 91 -77 145 -43 75 -61 97 -76 96
-12 0 -120 -28 -241 -61z m-645 -725 c-80 -141 -214 -315 -334 -433 l-56 -54
0 272 0 272 211 0 211 0 -32 -57z m640 45 c0 -39 -171 -318 -274 -446 l-61
-76 -3 59 c-3 59 -1 62 75 191 79 131 120 211 112 218 -2 2 -47 17 -99 34
l-95 30 173 1 c125 1 172 -2 172 -11z m688 -20 c-49 -17 -88 -35 -88 -40 0 -5
20 -44 45 -87 25 -43 45 -83 45 -89 0 -9 -45 -12 -155 -12 -99 0 -155 4 -155
10 0 6 17 45 39 88 62 124 62 118 -11 141 l-63 19 215 0 215 1 -87 -31z m-38
-573 l0 -45 -185 0 -185 0 0 45 0 45 185 0 185 0 0 -45z m0 -335 l0 -50 -185
0 -185 0 0 50 0 50 185 0 185 0 0 -50z m0 -355 l0 -55 -185 0 -185 0 0 55 0
55 185 0 185 0 0 -55z"/>
<path d="M29438 22088 l-3 -1082 -568 -102 c-312 -56 -570 -103 -572 -106 -4
-4 75 -499 81 -507 2 -2 238 40 526 93 288 53 527 96 531 96 4 0 8 -183 9
-407 l3 -408 263 -3 262 -2 0 460 c0 253 2 460 3 460 2 0 91 16 198 35 107 19
197 35 202 35 4 0 7 8 7 18 0 15 -72 483 -75 489 -1 2 -249 -40 -307 -53 l-28
-6 0 1036 0 1036 -265 0 -265 0 -2 -1082z"/>
<path d="M31360 22830 l0 -340 -200 0 -200 0 0 -250 0 -250 200 0 200 0 0
-279 c0 -154 -4 -282 -9 -285 -4 -3 -105 -24 -222 -48 -118 -23 -215 -42 -216
-43 -3 -1 127 -499 132 -504 5 -5 69 8 213 42 l102 25 0 -342 c0 -293 -2 -345
-16 -364 -15 -21 -20 -22 -200 -22 -175 0 -184 -1 -175 -18 22 -42 94 -265
116 -361 13 -57 25 -104 27 -105 11 -8 347 15 404 28 243 52 339 155 364 389
5 51 10 279 10 508 l0 416 183 48 183 47 -31 241 c-17 132 -35 242 -41 244 -6
2 -68 -10 -138 -27 -70 -16 -134 -30 -142 -30 -12 0 -14 35 -14 220 l0 220
168 2 167 3 3 248 2 247 -170 0 -170 0 0 340 0 340 -265 0 -265 0 0 -340z"/>
<path d="M33020 22920 l0 -250 -375 0 -375 0 0 -245 0 -245 375 0 375 0 0
-190 0 -190 -345 0 -345 0 0 -245 0 -245 103 -1 102 -1 -68 -21 c-60 -18 -67
-22 -61 -41 3 -12 45 -102 94 -201 87 -176 222 -396 311 -505 25 -30 48 -60
52 -67 5 -7 -22 -27 -75 -56 -176 -95 -422 -188 -628 -238 -52 -12 -96 -23
-98 -25 -2 -1 20 -32 47 -68 62 -82 149 -227 198 -333 20 -43 37 -79 39 -81 5
-7 337 110 449 158 132 56 314 150 412 212 l63 40 102 -68 c113 -75 342 -196
463 -245 96 -38 303 -109 319 -109 6 0 27 26 45 58 52 88 168 249 237 328 l62
71 -112 31 c-187 51 -344 112 -510 196 -88 45 -161 86 -163 92 -2 6 22 40 54
75 196 220 364 505 481 819 45 121 96 283 104 334 2 15 -26 29 -170 86 -153
60 -176 67 -210 59 -20 -5 -121 -9 -224 -9 l-188 0 0 190 0 190 395 0 395 0 0
245 0 245 -395 0 -395 0 0 250 0 250 -270 0 -270 0 0 -250z m650 -1615 c0 -15
-64 -130 -117 -210 -90 -136 -242 -316 -268 -315 -29 1 -235 286 -320 443
l-47 87 376 0 c207 0 376 -2 376 -5z"/>
<path d="M43550 22830 l0 -340 -200 0 -200 0 2 -247 3 -248 198 -3 197 -2 0
-284 0 -284 -217 -42 c-120 -23 -220 -44 -222 -46 -2 -2 102 -416 125 -495 4
-14 23 -12 159 21 l155 37 0 -353 c0 -339 -1 -354 -19 -364 -12 -6 -94 -10
-196 -10 -165 0 -177 -1 -170 -17 31 -70 106 -307 121 -381 l18 -90 50 4 c28
2 105 6 171 8 296 12 469 102 527 274 22 65 23 80 26 563 l3 496 181 46 c99
26 183 48 185 51 5 5 -55 477 -61 484 -3 2 -66 -10 -142 -27 -75 -17 -143 -31
-150 -31 -11 0 -14 40 -14 220 l0 220 170 0 170 0 0 250 0 250 -170 0 -170 0
0 340 0 340 -265 0 -265 0 0 -340z"/>
<path d="M45220 22920 l0 -250 -375 0 -375 0 0 -245 0 -245 375 0 375 0 0
-190 0 -190 -345 0 -345 0 0 -245 0 -245 103 -1 102 -1 -71 -20 -72 -20 21
-52 c81 -194 239 -470 366 -638 79 -106 83 -112 65 -126 -11 -8 -82 -45 -159
-83 -151 -73 -335 -140 -510 -184 -60 -16 -112 -30 -114 -31 -2 -2 19 -34 47
-71 68 -93 126 -190 184 -307 26 -55 50 -101 52 -103 5 -6 273 85 387 132 133
54 325 150 446 221 l91 55 107 -70 c196 -130 409 -233 648 -313 65 -22 125
-37 132 -35 7 3 27 30 44 60 51 89 177 262 241 330 l59 64 -121 32 c-197 52
-404 135 -583 234 -49 27 -92 51 -94 53 -2 2 22 31 54 66 140 154 297 394 395
601 95 204 214 557 194 577 -5 5 -83 38 -173 73 -143 56 -169 63 -200 56 -20
-5 -123 -9 -228 -9 l-193 0 0 190 0 190 400 0 400 0 0 245 0 245 -400 0 -400
0 0 250 0 250 -265 0 -265 0 0 -250z m605 -1697 c-82 -157 -309 -448 -343
-441 -21 4 -139 150 -216 268 -61 92 -146 240 -146 253 0 4 169 7 376 7 l375
0 -46 -87z"/>
<path d="M47766 23133 c-26 -57 -156 -247 -229 -338 -76 -94 -200 -223 -274
-286 l-52 -44 70 -95 c39 -52 100 -143 136 -202 l66 -108 48 41 c139 116 339
333 487 528 87 113 256 361 250 366 -2 2 -106 40 -233 85 -126 46 -235 84
-241 87 -5 2 -18 -13 -28 -34z"/>
<path d="M48680 22745 l0 -425 -225 0 -225 0 0 -40 c0 -26 -5 -40 -13 -40 -7
0 -99 29 -205 64 l-193 65 -16 -42 c-38 -99 -171 -343 -257 -472 -111 -167
-199 -278 -318 -401 l-87 -90 23 -35 c53 -78 142 -231 199 -342 l61 -118 73
73 73 72 0 -677 0 -677 245 0 245 0 2 433 3 432 60 -62 c34 -34 88 -103 120
-152 67 -102 60 -101 131 -9 88 114 166 312 199 508 29 167 36 259 42 548 l6
292 -185 0 -186 0 -5 -302 c-5 -317 -17 -438 -58 -573 -24 -79 -81 -195 -110
-221 -19 -17 -19 -8 -19 574 l0 590 83 159 82 158 3 -107 3 -108 224 0 225 0
0 -1070 0 -1070 235 0 235 0 0 1070 0 1070 255 0 255 0 0 -155 0 -155 130 0
130 0 0 -638 c0 -483 -3 -641 -12 -650 -8 -8 -64 -12 -186 -12 -162 0 -174 -1
-167 -17 52 -125 125 -393 125 -462 l0 -34 173 6 c343 10 493 89 555 289 14
46 16 146 19 786 l4 732 129 0 130 0 0 240 0 240 -510 0 -510 0 0 165 0 165
-260 0 -260 0 0 425 0 425 -235 0 -235 0 0 -425z"/>
<path d="M52948 23128 c-28 -80 -154 -315 -236 -439 -89 -134 -134 -184 -192
-214 l-30 -16 0 51 0 50 45 0 45 0 0 240 0 240 -635 0 -635 0 0 -240 0 -240
55 0 55 0 0 -964 0 -964 -47 -6 c-27 -4 -67 -9 -91 -13 -33 -4 -42 -9 -38 -22
5 -16 96 -440 96 -445 0 -4 132 19 452 80 131 24 240 44 243 44 3 0 5 -137 5
-305 l0 -305 225 0 225 0 1 1043 1 1042 24 -90 c13 -49 35 -146 50 -215 l27
-126 68 23 c89 30 443 88 638 105 l35 3 12 -60 c7 -33 13 -66 14 -72 0 -10
-30 -13 -120 -13 l-120 0 0 -255 0 -255 -45 0 -45 0 0 250 0 250 -215 0 -215
0 2 -472 3 -473 210 -5 210 -5 -74 -78 c-82 -86 -166 -146 -286 -203 -44 -22
-82 -40 -83 -41 -2 -1 34 -48 80 -105 46 -57 106 -138 133 -180 26 -43 53 -78
58 -78 21 0 207 104 269 150 98 74 226 214 284 313 29 48 67 133 87 194 57
172 67 271 67 657 l0 336 -82 1 -83 0 135 41 c74 22 137 42 139 44 8 8 -150
597 -166 613 -7 9 -285 -64 -290 -75 -2 -7 5 -42 16 -80 12 -37 19 -69 17 -71
-7 -8 -246 -29 -246 -23 0 4 10 15 21 26 31 28 184 214 271 330 75 99 288 415
288 427 0 3 -44 29 -97 58 -54 28 -130 69 -169 90 l-71 39 -84 -145 c-115
-198 -113 -197 -171 -193 l-48 3 71 95 c110 148 330 513 316 526 -8 8 -347
154 -358 154 -5 0 -15 -15 -21 -32z m-908 -723 l0 -155 -100 0 -100 0 0 155 0
155 100 0 100 0 0 -155z m515 -185 c24 -96 46 -187 49 -201 l6 -27 57 18 c32
9 73 20 92 24 39 7 41 11 -54 -97 -65 -74 -144 -139 -188 -156 l-27 -11 1 338
c0 236 3 330 10 312 6 -14 30 -104 54 -200z m-515 -565 l0 -155 -100 0 -100 0
0 155 0 155 100 0 100 0 0 -155z m0 -759 l0 -174 -75 -11 c-42 -6 -87 -11
-100 -11 l-25 0 0 178 c0 98 3 182 7 185 3 4 48 7 100 7 l93 0 0 -174z"/>
<path d="M27995 23113 c-216 -83 -641 -193 -953 -247 -79 -13 -145 -26 -147
-28 -2 -2 16 -53 40 -113 24 -61 55 -150 68 -200 17 -62 29 -91 40 -93 9 -2
83 6 164 17 82 12 156 21 166 21 15 0 17 -16 17 -170 l0 -170 -265 0 -265 0 2
-247 3 -248 227 -3 227 -2 -31 -73 c-134 -317 -286 -591 -425 -768 l-44 -56
31 -54 c52 -87 135 -258 175 -359 21 -52 39 -96 40 -98 9 -11 154 231 233 387
l92 185 0 -567 0 -567 260 0 260 0 2 682 3 683 76 -152 76 -152 153 210 152
209 -78 87 c-44 48 -148 158 -233 245 l-153 158 226 0 226 0 0 250 0 250 -225
0 -225 0 0 223 0 223 98 23 c96 23 291 80 345 100 l27 11 -141 212 c-78 117
-144 216 -148 219 -3 4 -46 -9 -96 -28z"/>
<path d="M54013 23078 c-30 -77 -123 -251 -190 -353 -98 -150 -164 -227 -217
-255 -37 -20 -46 -29 -43 -45 10 -42 101 -400 104 -404 1 -2 20 4 43 13 43 17
220 49 228 41 9 -9 -93 -148 -165 -225 -40 -43 -89 -85 -109 -95 -28 -13 -35
-21 -31 -38 3 -12 23 -94 45 -182 23 -88 44 -179 48 -202 l7 -43 -37 0 -36 0
0 -815 0 -815 228 2 227 3 3 338 2 337 50 0 49 0 3 -57 3 -58 213 -3 212 -2 0
525 0 525 -215 0 -215 0 0 -235 0 -235 -50 0 -50 0 0 245 0 245 -191 0 c-169
0 -190 2 -179 15 23 28 205 75 535 139 117 23 172 29 176 22 4 -6 14 -44 24
-83 9 -40 21 -73 26 -73 5 0 72 25 149 56 115 46 140 60 140 76 0 22 -104 344
-157 483 -18 50 -35 95 -38 102 -3 8 -46 -2 -142 -34 -76 -25 -140 -48 -142
-50 -3 -2 5 -35 18 -74 12 -39 21 -72 19 -74 -4 -4 -184 -35 -201 -35 -5 0 6
19 23 43 154 205 464 727 444 747 -8 8 -313 170 -319 170 -2 0 -35 -67 -75
-149 -79 -163 -77 -161 -168 -161 l-54 0 36 48 c94 123 306 465 306 492 0 3
-72 42 -160 88 l-160 83 -17 -43z"/>
<path d="M57067 22563 c-3 -404 -7 -515 -20 -590 -32 -174 -91 -326 -171 -438
l-36 -50 -2 760 -3 760 -652 3 -653 2 0 -885 0 -885 240 0 240 0 0 90 0 90
383 0 382 -1 -41 -38 -41 -39 61 -43 c33 -24 116 -99 185 -166 l126 -122 -652
-1 -653 0 0 -395 0 -395 -220 0 -220 0 0 -230 0 -230 1750 0 1750 0 -2 228 -3
227 -202 3 -203 2 0 395 0 395 -664 0 -664 0 82 83 c126 128 225 292 282 472
l22 70 292 3 291 2 -3 -67 c-4 -94 -8 -95 -218 -90 l-165 5 61 -125 c34 -68
75 -165 90 -214 l29 -91 165 5 c186 6 271 22 372 68 81 38 142 100 173 175 19
47 20 75 23 902 l3 852 -755 0 -754 0 -5 -497z m983 17 l0 -70 -250 0 -250 0
0 70 0 70 250 0 250 0 0 -70z m-1700 -80 l0 -100 -170 0 -170 0 0 100 0 100
170 0 170 0 0 -100z m1700 -425 l0 -75 -255 0 -255 0 0 29 c0 15 3 49 6 75 l7
46 248 0 249 0 0 -75z m-1700 -155 l0 -100 -170 0 -170 0 0 100 0 100 170 0
170 0 0 -100z m120 -1510 l0 -190 -105 0 -105 0 0 190 0 190 105 0 105 0 0
-190z m710 0 l0 -190 -110 0 -110 0 0 190 0 190 110 0 110 0 0 -190z m700 0
l0 -190 -110 0 -110 0 0 190 0 190 110 0 110 0 0 -190z"/>
<path d="M49328 22931 c-81 -42 -150 -80 -154 -83 -3 -4 21 -53 55 -110 34
-57 92 -162 128 -234 l66 -131 158 88 c88 49 161 89 164 89 3 0 5 -27 5 -60
l0 -60 440 0 440 0 0 235 0 235 -440 0 -440 0 0 -157 0 -158 -70 123 c-78 137
-187 303 -198 301 -4 -1 -73 -36 -154 -78z"/>
<path d="M28668 22815 l-166 -144 187 -188 c161 -162 257 -273 322 -372 l15
-24 185 162 c101 90 185 167 187 171 13 34 -505 542 -551 539 -6 0 -87 -65
-179 -144z"/>
<path d="M39460 22168 c0 -943 -13 -1172 -81 -1467 -59 -258 -175 -507 -312
-669 -21 -24 -37 -45 -37 -46 0 -2 31 -24 69 -49 76 -50 227 -174 305 -249
l51 -49 37 43 c143 164 274 425 353 703 27 94 75 299 75 321 0 2 151 4 335 4
l335 0 0 -500 0 -500 270 0 270 0 0 500 0 500 330 0 330 0 0 -230 c0 -151 -4
-238 -11 -254 -21 -45 -59 -49 -326 -42 l-243 7 26 -58 c57 -127 101 -264 138
-425 l6 -28 128 0 c438 0 669 77 757 251 56 109 55 81 55 1600 l0 1399 -1430
0 -1430 0 0 -762z m1128 85 l-3 -168 -297 -3 -298 -2 0 170 0 170 300 0 300 0
-2 -167z m1200 0 l-3 -168 -327 -3 -328 -2 0 170 0 170 330 0 330 0 -2 -167z
m-1198 -853 l0 -180 -306 0 -307 0 7 77 c3 42 6 123 6 180 l0 103 300 0 300 0
0 -180z m1200 0 l0 -180 -330 0 -330 0 0 180 0 180 330 0 330 0 0 -180z"/>
<path d="M28537 21839 l-168 -151 63 -55 c117 -103 373 -369 428 -446 30 -41
58 -76 63 -76 6 -1 186 163 346 315 l24 23 -39 48 c-97 118 -509 493 -542 493
-4 0 -83 -68 -175 -151z"/>
<path d="M49230 21148 c0 -304 4 -529 11 -568 25 -155 90 -229 229 -260 70
-15 324 -10 341 7 9 9 9 43 0 150 -7 76 -14 154 -17 174 -5 37 -6 37 -40 28
-19 -6 -60 -9 -92 -7 l-57 3 -3 488 -2 487 -185 0 -185 0 0 -502z"/>
<path d="M37844 20538 l-192 -91 70 -94 c136 -183 275 -418 329 -556 18 -48
33 -71 42 -69 8 1 103 45 211 98 181 87 196 97 190 117 -15 52 -122 247 -191
350 -74 112 -251 338 -262 336 -3 0 -92 -41 -197 -91z"/>
<path d="M35882 20493 c-57 -180 -169 -378 -266 -473 -25 -24 -46 -47 -46 -51
0 -10 380 -252 398 -253 24 -2 136 139 191 239 83 149 196 465 175 484 -5 5
-94 37 -199 74 -104 36 -197 68 -206 72 -13 5 -22 -13 -47 -92z"/>
<path d="M13370 19573 c-269 -61 -344 -80 -490 -120 -1477 -404 -2662 -1160
-3581 -2283 -190 -233 -475 -632 -534 -750 -51 -100 -35 -158 50 -179 58 -14
3753 -16 3805 -1 55 15 100 59 226 222 328 424 567 670 904 929 217 167 514
360 688 448 61 31 63 33 49 54 -7 12 -238 399 -511 860 -419 704 -502 837
-520 836 -11 0 -50 -7 -86 -16z"/>
<path d="M31895 18615 c-127 -45 -163 -201 -66 -288 104 -94 288 -66 337 50
17 39 18 116 3 146 -46 88 -168 129 -274 92z"/>
<path d="M30700 17860 l0 -660 168 2 167 3 3 658 2 657 -170 0 -170 0 0 -660z"/>
<path d="M31252 17863 l3 -658 168 -3 167 -2 0 660 0 660 -170 0 -170 0 2
-657z"/>
<path d="M47172 17863 l3 -658 168 -3 167 -2 0 257 c0 155 4 274 11 298 15 54
54 104 95 121 49 21 133 18 171 -6 65 -39 68 -53 71 -378 l3 -292 167 2 167 3
3 270 c3 316 -6 413 -46 499 -68 143 -214 219 -390 203 -89 -8 -127 -20 -195
-61 l-57 -35 0 220 0 219 -170 0 -170 0 2 -657z"/>
<path d="M50840 17860 l0 -660 165 0 165 0 0 660 0 660 -165 0 -165 0 0 -660z"/>
<path d="M58480 18304 l0 -216 -22 16 c-123 90 -304 100 -463 25 -59 -28 -148
-109 -180 -164 -88 -149 -96 -356 -21 -521 53 -116 184 -218 313 -244 129 -27
296 4 354 66 32 34 39 30 39 -21 l0 -46 158 3 157 3 3 658 2 657 -170 0 -170
0 0 -216z m-104 -414 c143 -70 146 -337 4 -410 -86 -44 -205 -17 -255 58 -54
82 -54 212 -1 293 49 74 165 101 252 59z"/>
<path d="M37625 18455 c-116 -22 -231 -81 -289 -147 -63 -73 -89 -142 -89
-243 0 -102 26 -167 93 -229 76 -71 149 -100 384 -156 185 -44 243 -83 220
-147 -38 -110 -316 -108 -535 3 -39 19 -72 34 -74 32 -2 -3 -45 -99 -96 -215
l-18 -43 74 -35 c169 -82 431 -116 615 -81 167 31 293 115 352 234 26 54 37
192 19 251 -29 97 -111 174 -234 220 -32 12 -130 39 -218 60 -216 53 -261 85
-229 161 38 91 249 100 453 18 l85 -34 52 129 c60 144 62 133 -30 168 -162 61
-378 83 -535 54z"/>
<path d="M26980 17820 l0 -620 175 0 175 0 0 620 0 620 -175 0 -175 0 0 -620z"/>
<path d="M43840 18305 l0 -135 190 0 190 0 0 -485 0 -485 175 0 175 0 2 483 3
482 188 3 187 2 0 135 0 135 -555 0 -555 0 0 -135z"/>
<path d="M28840 18255 l0 -125 -70 0 -70 0 0 -125 0 -124 68 -3 67 -3 5 -220
5 -221 33 -66 c38 -77 83 -119 162 -150 75 -30 278 -33 357 -5 29 10 55 22 58
26 2 5 -14 61 -37 124 l-41 116 -28 -14 c-47 -25 -112 -19 -142 11 -33 33 -39
73 -35 254 l3 145 108 3 107 3 0 124 0 125 -110 0 -110 0 0 125 0 125 -165 0
-165 0 0 -125z"/>
<path d="M36020 18255 l0 -125 -70 0 -70 0 0 -125 0 -125 70 0 70 0 0 -162 c0
-90 5 -194 10 -233 27 -189 140 -283 351 -293 97 -4 170 6 234 32 l35 15 -42
119 -42 119 -33 -13 c-38 -17 -97 -18 -124 -4 -42 23 -49 59 -49 245 l0 175
110 0 110 0 0 125 0 125 -110 0 -110 0 0 125 0 125 -170 0 -170 0 0 -125z"/>
<path d="M41700 18255 l0 -125 -70 0 -70 0 0 -125 0 -125 69 0 69 0 4 -212 c4
-192 7 -219 28 -272 57 -148 187 -215 397 -204 105 6 201 35 195 60 -2 7 -19
59 -39 116 -33 93 -38 103 -57 97 -87 -26 -139 -17 -166 28 -18 29 -20 51 -20
210 l0 177 110 0 110 0 0 125 0 125 -110 0 -110 0 0 125 0 125 -170 0 -170 0
0 -125z"/>
<path d="M28072 18164 c-61 -16 -104 -36 -149 -71 l-33 -24 0 45 0 46 -165 0
-165 0 2 -477 3 -478 167 -3 167 -2 3 277 c3 265 4 280 25 320 34 62 75 87
153 91 76 4 118 -16 147 -70 16 -29 18 -66 21 -326 l3 -292 167 2 167 3 3 285
c1 166 -2 314 -8 355 -13 87 -56 180 -104 228 -92 92 -260 130 -404 91z"/>
<path d="M29894 18165 c-142 -31 -277 -133 -338 -256 -124 -247 -25 -542 219
-659 166 -79 415 -81 568 -4 56 29 127 81 127 94 0 4 -39 48 -86 99 l-86 91
-32 -25 c-55 -42 -105 -58 -186 -58 -84 0 -139 19 -183 61 -26 24 -57 72 -57
87 0 3 158 5 350 5 l350 0 0 88 c0 145 -44 257 -136 349 -118 119 -320 169
-510 128z m195 -231 c41 -9 107 -69 126 -116 l15 -38 -196 0 -196 0 7 28 c23
93 130 149 244 126z"/>
<path d="M32650 18165 c-71 -20 -129 -48 -177 -86 -203 -161 -226 -488 -46
-680 90 -96 197 -141 343 -142 112 -1 178 17 246 69 l44 34 0 -38 c0 -170
-142 -251 -361 -208 -46 10 -115 33 -153 51 -38 19 -71 34 -72 32 -1 -1 -27
-53 -59 -116 -61 -123 -62 -115 5 -150 104 -54 250 -84 410 -84 304 0 468 103
546 343 16 49 18 107 22 513 l3 457 -160 0 -161 0 0 -50 c0 -27 -3 -50 -6 -50
-3 0 -26 18 -51 39 -24 22 -65 47 -91 56 -67 24 -213 29 -282 10z m307 -276
c66 -32 96 -78 101 -155 5 -78 -8 -112 -58 -158 -57 -51 -133 -68 -209 -46
-174 50 -199 280 -39 359 58 28 146 28 205 0z"/>
<path d="M33980 18173 c-99 -16 -207 -70 -278 -136 -101 -96 -144 -201 -144
-347 -1 -235 125 -401 360 -476 26 -9 101 -18 167 -21 102 -5 133 -2 205 16
86 22 172 66 215 111 l25 26 -90 89 c-79 79 -92 88 -108 77 -9 -7 -41 -24 -71
-39 -73 -35 -187 -37 -255 -3 -47 22 -100 77 -109 111 -5 18 8 19 343 19 l347
0 6 43 c8 58 -8 173 -33 237 -58 147 -185 251 -349 286 -62 13 -175 16 -231 7z
m198 -254 c42 -21 83 -69 97 -116 l6 -23 -195 0 c-129 0 -196 4 -196 10 0 6 9
28 20 50 46 91 168 127 268 79z"/>
<path d="M35265 18167 c-58 -16 -146 -59 -164 -81 -22 -27 -31 -18 -31 29 l0
45 -160 0 -160 0 0 -480 0 -480 170 0 170 0 0 263 c0 149 5 278 10 299 13 44
52 93 91 113 15 8 54 15 86 15 71 0 112 -23 139 -76 17 -35 19 -67 22 -326 l3
-288 165 0 165 0 -3 348 c-3 339 -4 348 -27 406 -33 83 -116 166 -196 196 -74
27 -208 35 -280 17z"/>
<path d="M38922 18164 c-64 -17 -101 -35 -126 -63 -28 -30 -36 -26 -36 19 l0
40 -160 0 -160 0 0 -650 0 -650 170 0 170 0 0 212 c0 202 1 210 18 195 44 -40
136 -71 222 -75 194 -10 349 76 435 239 105 200 71 464 -79 615 -114 114 -295
161 -454 118z m162 -284 c19 -14 48 -47 62 -74 23 -41 27 -63 27 -121 0 -96
-28 -156 -92 -197 -42 -27 -52 -29 -117 -26 -59 3 -77 8 -108 31 -123 94 -108
328 26 396 59 30 150 26 202 -9z"/>
<path d="M40013 18165 c-267 -58 -434 -293 -395 -554 39 -253 252 -421 537
-421 317 0 535 199 538 490 2 153 -47 268 -155 365 -126 113 -336 161 -525
120z m235 -276 c143 -70 145 -336 2 -409 -49 -25 -138 -27 -187 -3 -79 37
-127 156 -105 261 6 30 23 72 36 92 50 75 165 102 254 59z"/>
<path d="M41383 18170 c-63 -13 -138 -48 -169 -81 -15 -16 -31 -29 -36 -29 -4
0 -8 23 -8 50 l0 50 -160 0 -160 0 2 -477 3 -478 168 -3 167 -2 0 247 c0 137
5 264 10 284 28 99 92 142 218 148 l82 3 0 149 0 149 -37 -1 c-21 -1 -57 -5
-80 -9z"/>
<path d="M42705 18164 c-154 -34 -260 -115 -291 -220 -31 -107 -3 -219 68
-279 60 -51 132 -73 362 -110 105 -16 137 -38 118 -79 -17 -37 -70 -50 -181
-43 -98 6 -210 34 -267 67 l-32 18 -51 -116 c-57 -129 -59 -119 29 -153 95
-36 227 -59 346 -59 281 0 457 110 472 296 9 120 -43 206 -158 258 -34 16
-114 36 -205 51 -162 28 -195 42 -195 80 0 37 40 57 123 63 85 5 165 -8 246
-41 l59 -24 50 114 50 113 -36 16 c-132 56 -371 79 -507 48z"/>
<path d="M45303 18165 c-330 -75 -489 -420 -332 -716 88 -165 272 -259 509
-259 151 0 278 41 370 119 l34 29 -87 95 -87 95 -49 -33 c-81 -54 -224 -65
-303 -24 -45 23 -108 95 -108 124 0 3 158 5 350 5 l350 0 0 81 c0 227 -111
391 -316 466 -87 31 -237 40 -331 18z m215 -240 c43 -19 79 -50 98 -87 30 -58
32 -58 -176 -58 -208 0 -206 0 -176 58 45 86 161 125 254 87z"/>
<path d="M46451 18165 c-141 -31 -283 -131 -344 -243 -76 -140 -76 -334 1
-476 54 -100 172 -192 299 -232 69 -22 238 -29 315 -14 135 26 256 108 307
208 l21 41 -124 65 c-68 37 -127 66 -132 65 -5 0 -22 -19 -39 -41 -45 -62 -86
-80 -172 -76 -62 3 -76 7 -109 34 -59 48 -79 95 -79 189 0 62 5 89 21 120 66
127 262 141 343 24 14 -21 29 -38 34 -39 7 0 247 118 256 126 7 7 -53 98 -90
135 -107 107 -320 154 -508 114z"/>
<path d="M48912 18165 c-61 -17 -104 -38 -149 -73 l-33 -24 0 46 0 46 -160 0
-160 0 0 -480 0 -480 164 0 164 0 4 273 c3 261 4 274 26 319 34 69 72 92 158
96 64 4 73 2 102 -23 57 -47 57 -48 62 -365 l5 -295 168 -3 167 -2 0 312 c0
342 -7 398 -57 491 -36 64 -101 121 -172 148 -73 28 -215 35 -289 14z"/>
<path d="M50035 18174 c-168 -36 -284 -106 -358 -217 -129 -195 -98 -477 70
-628 98 -89 204 -129 358 -136 133 -6 215 10 316 63 151 79 241 217 255 387
21 255 -143 467 -402 522 -64 14 -193 18 -239 9z m195 -286 c134 -68 148 -300
24 -395 -30 -22 -49 -28 -105 -31 -60 -4 -74 -1 -113 22 -112 65 -133 269 -38
370 57 60 152 74 232 34z"/>
<path d="M51731 18165 c-237 -52 -401 -248 -401 -480 0 -230 162 -426 397
-481 92 -22 264 -14 347 15 219 77 336 240 336 466 0 152 -50 269 -153 360
-130 114 -335 161 -526 120z m253 -285 c85 -58 114 -210 60 -318 -38 -76 -91
-106 -183 -100 -56 3 -75 9 -105 31 -92 71 -113 233 -43 338 52 79 190 104
271 49z"/>
<path d="M52858 18165 c-252 -64 -394 -305 -333 -564 32 -134 117 -239 239
-297 158 -74 346 -65 461 22 l48 37 -7 -57 c-8 -75 -37 -130 -84 -161 -98 -65
-299 -53 -441 27 -43 24 -56 27 -62 16 -5 -7 -33 -59 -62 -116 -50 -99 -51
-104 -33 -117 35 -26 160 -73 241 -90 107 -23 316 -24 408 -2 143 35 258 120
311 229 54 112 56 136 56 620 l0 448 -160 0 -160 0 0 -52 0 -52 -32 31 c-18
18 -60 44 -92 59 -73 33 -208 42 -298 19z m308 -280 c65 -33 97 -80 102 -153
7 -113 -69 -199 -185 -209 -187 -17 -302 180 -185 319 59 70 177 89 268 43z"/>
<path d="M55684 18166 c-91 -17 -135 -32 -206 -67 l-58 -29 57 -114 57 -115
40 24 c70 40 150 58 243 53 63 -3 90 -9 110 -24 35 -26 60 -62 69 -96 l6 -28
-138 0 c-165 0 -250 -12 -324 -46 -99 -45 -148 -112 -157 -214 -12 -125 51
-232 169 -286 58 -27 72 -29 183 -29 138 0 185 15 248 80 l37 38 0 -57 0 -57
158 3 157 3 3 255 c1 140 -2 294 -7 342 -21 185 -109 298 -272 349 -83 27
-274 34 -375 15z m316 -612 c0 -61 -29 -107 -84 -133 -49 -24 -103 -27 -151
-7 -39 17 -55 42 -55 89 0 68 56 93 213 96 l77 1 0 -46z"/>
<path d="M57050 18165 c-50 -15 -100 -40 -157 -81 -23 -16 -23 -16 -23 30 l0
46 -160 0 -160 0 0 -480 0 -480 168 2 167 3 5 280 c6 322 9 334 90 384 44 26
138 29 180 5 62 -37 65 -50 70 -374 l5 -295 168 -3 167 -2 0 308 c0 170 -5
334 -10 363 -24 131 -108 238 -219 280 -74 28 -215 35 -291 14z"/>
<path d="M31810 17680 l0 -480 168 2 167 3 3 478 2 477 -170 0 -170 0 0 -480z"/>
<path d="M53700 18154 c0 -4 90 -221 201 -482 220 -522 214 -500 147 -543 -42
-26 -131 -21 -184 10 -19 12 -39 19 -42 17 -4 -2 -32 -54 -62 -115 -62 -127
-63 -122 38 -161 127 -48 277 -47 389 5 64 29 138 101 180 175 23 41 390 913
454 1078 l9 22 -161 -2 -161 -3 -113 -280 c-63 -154 -117 -280 -121 -280 -4 0
-58 126 -120 280 l-112 280 -171 3 c-94 1 -171 -1 -171 -4z"/>
<path d="M30770 16638 c-55 -29 -83 -74 -82 -136 1 -84 59 -135 160 -140 80
-4 125 15 160 68 20 29 23 45 20 92 -5 66 -23 91 -83 119 -55 25 -121 24 -175
-3z"/>
<path d="M33770 16638 c-55 -29 -83 -74 -82 -136 1 -84 59 -135 160 -140 80
-4 125 15 160 68 20 29 23 45 20 92 -5 66 -23 91 -83 119 -55 25 -121 24 -175
-3z"/>
<path d="M50670 16637 c-104 -55 -107 -197 -5 -254 56 -32 149 -32 195 0 74
50 95 115 62 189 -15 35 -29 50 -64 67 -60 28 -132 28 -188 -2z"/>
<path d="M54674 16649 c-41 -12 -91 -69 -99 -113 -14 -73 45 -158 120 -172
130 -24 225 41 225 153 0 104 -120 169 -246 132z"/>
<path d="M30247 16563 c-4 -3 -7 -255 -7 -560 l0 -553 145 0 145 0 0 560 0
560 -138 0 c-76 0 -142 -3 -145 -7z"/>
<path d="M38830 16384 l0 -185 -27 21 c-65 51 -183 72 -282 51 -172 -37 -285
-160 -312 -343 -29 -196 62 -379 226 -455 117 -53 297 -42 375 24 l30 25 0
-36 0 -36 140 0 140 0 0 560 0 560 -145 0 -145 0 0 -186z m-92 -348 c65 -34
95 -89 95 -176 0 -121 -64 -194 -168 -194 -117 0 -191 106 -166 238 16 89 81
146 163 146 27 0 61 -6 76 -14z"/>
<path d="M47610 16385 l0 -184 -37 25 c-58 39 -136 57 -218 51 -238 -18 -393
-210 -372 -462 20 -227 175 -375 395 -375 92 0 159 18 207 55 l35 26 0 -35 0
-36 135 0 135 0 0 560 0 560 -140 0 -140 0 0 -185z m-72 -361 c43 -32 72 -99
72 -166 0 -73 -17 -114 -62 -154 -65 -57 -162 -52 -224 10 -86 86 -65 267 38
320 44 22 138 17 176 -10z"/>
<path d="M53660 16010 l0 -560 145 0 145 0 -2 558 -3 557 -142 3 -143 3 0
-561z"/>
<path d="M54137 16563 c-4 -3 -7 -255 -7 -560 l0 -553 145 0 145 0 0 560 0
560 -138 0 c-76 0 -142 -3 -145 -7z"/>
<path d="M27087 15982 c-125 -284 -227 -520 -227 -524 0 -5 67 -8 149 -8 l149
0 39 98 39 97 226 3 226 2 39 -97 39 -98 157 -3 156 -3 -48 108 c-26 60 -130
296 -232 525 l-184 418 -150 0 -150 0 -228 -518z m443 63 c33 -82 60 -155 60
-162 0 -10 -30 -13 -130 -13 -71 0 -130 2 -130 5 0 6 120 307 127 318 8 13 10
9 73 -148z"/>
<path d="M36690 15975 l0 -525 150 0 150 0 0 525 0 525 -150 0 -150 0 0 -525z"/>
<path d="M44125 16028 c-114 -260 -219 -497 -232 -525 l-23 -53 153 0 152 0
40 100 40 100 226 0 226 0 39 -100 39 -100 152 0 c84 0 153 3 153 8 0 4 -103
239 -228 522 l-228 515 -150 3 -150 2 -209 -472z m423 17 c34 -86 62 -160 62
-165 0 -6 -53 -10 -130 -10 -71 0 -130 3 -130 7 0 14 125 323 131 323 3 0 33
-70 67 -155z"/>
<path d="M52817 16473 c-25 -49 -447 -1009 -447 -1016 0 -4 67 -7 149 -7 l149
0 39 98 39 97 226 3 225 2 41 -97 41 -98 156 -3 c147 -2 155 -1 147 15 -5 10
-110 246 -233 525 l-224 508 -147 0 -147 0 -14 -27z m226 -435 c36 -87 62
-159 59 -162 -7 -7 -262 -8 -262 -1 0 5 84 217 115 289 9 21 18 36 20 34 2 -2
33 -74 68 -160z"/>
<path d="M33080 16345 l0 -105 -60 0 -60 0 0 -110 0 -110 60 0 60 0 0 -173 c0
-199 11 -251 64 -314 20 -23 58 -51 88 -64 46 -21 68 -24 168 -24 86 0 126 4
161 18 l46 17 -35 101 c-28 82 -38 99 -51 93 -26 -12 -79 -17 -106 -10 -45 11
-55 50 -55 211 l0 145 95 0 95 0 0 110 0 110 -95 0 -95 0 0 105 0 105 -140 0
-140 0 0 -105z"/>
<path d="M41200 16345 l0 -104 -57 -3 -58 -3 -3 -107 -3 -108 60 0 59 0 4
-182 c3 -166 6 -188 27 -236 49 -109 146 -162 300 -162 84 0 184 20 196 39 3
5 -10 51 -28 103 -24 65 -38 92 -48 89 -8 -2 -35 -6 -61 -8 -40 -5 -50 -2 -72
20 -26 26 -26 28 -26 182 l0 155 90 0 90 0 0 110 0 110 -90 0 -90 0 0 105 0
105 -145 0 -145 0 0 -105z"/>
<path d="M28567 16270 c-43 -11 -113 -45 -122 -60 -13 -21 -25 -9 -25 25 l0
35 -135 0 -135 0 0 -555 0 -555 145 0 145 0 0 175 0 175 58 -32 c55 -32 61
-33 167 -33 105 0 114 2 177 33 83 40 158 119 190 200 19 49 23 75 23 183 0
125 0 125 -37 201 -67 134 -180 207 -331 214 -45 2 -99 -1 -120 -6z m107 -234
c121 -51 135 -276 21 -346 -103 -62 -226 -9 -255 110 -40 165 91 296 234 236z"/>
<path d="M29605 16267 c-52 -18 -85 -35 -112 -60 l-23 -20 0 41 0 42 -135 0
-135 0 0 -555 0 -555 140 0 140 0 0 175 c0 96 2 175 5 175 3 0 22 -11 43 -24
60 -39 106 -49 206 -44 71 3 103 10 148 30 153 71 236 222 225 412 -10 182
-95 309 -245 367 -70 27 -199 35 -257 16z m144 -247 c44 -31 71 -91 71 -162 0
-68 -9 -95 -49 -141 -58 -65 -160 -71 -230 -11 -93 78 -75 274 30 328 48 24
135 17 178 -14z"/>
<path d="M31495 16270 c-167 -34 -294 -140 -339 -284 -27 -85 -19 -221 16
-299 55 -118 171 -207 309 -237 82 -18 240 -9 311 19 66 26 143 91 176 149
l23 41 -112 56 c-111 56 -111 56 -126 35 -78 -112 -217 -115 -297 -7 -31 42
-35 160 -7 215 32 64 73 87 153 87 73 0 105 -16 144 -72 l20 -30 112 56 112
56 -30 51 c-29 52 -78 98 -137 128 -78 39 -228 56 -328 36z"/>
<path d="M32318 16270 c-96 -17 -228 -70 -228 -90 0 -6 20 -50 44 -99 l45 -88
61 30 c70 35 183 48 243 28 43 -14 87 -63 87 -96 0 -22 -1 -23 -152 -27 -177
-6 -247 -25 -309 -87 -60 -60 -76 -166 -38 -251 26 -59 53 -86 114 -118 46
-25 60 -27 165 -27 100 0 121 3 157 22 22 12 51 34 62 49 l21 27 0 -47 0 -46
135 0 135 0 0 260 c0 145 -5 281 -11 308 -24 113 -107 202 -222 238 -61 18
-241 27 -309 14z m262 -520 c0 -76 -61 -130 -146 -130 -69 0 -104 27 -104 79
0 65 27 79 158 80 l92 1 0 -30z"/>
<path d="M34468 16265 c-133 -34 -237 -114 -291 -224 -30 -63 -32 -72 -32
-181 0 -104 3 -121 27 -173 74 -158 228 -247 428 -247 189 0 339 81 409 221
119 238 14 503 -234 590 -79 27 -229 34 -307 14z m229 -243 c86 -61 96 -231
19 -308 -64 -64 -161 -67 -227 -7 -48 43 -62 87 -57 173 6 114 69 173 179 167
37 -2 65 -10 86 -25z"/>
<path d="M35618 16267 c-26 -8 -71 -28 -99 -45 -27 -18 -52 -32 -55 -32 -2 0
-4 18 -4 40 l0 40 -135 0 -135 0 0 -410 0 -410 145 0 145 0 0 219 c0 120 3
233 6 251 4 18 23 49 43 70 65 68 175 62 221 -12 19 -31 20 -50 20 -280 l0
-248 146 0 145 0 -3 293 -3 292 -28 61 c-55 118 -141 174 -281 180 -49 2 -100
-1 -128 -9z"/>
<path d="M37627 16269 c-47 -11 -115 -45 -144 -72 l-23 -20 0 46 0 47 -135 0
-135 0 0 -410 0 -410 145 0 145 0 0 230 c0 254 4 276 59 322 68 58 174 42 213
-32 16 -31 18 -62 18 -277 l0 -243 146 0 146 0 -4 288 c-4 273 -5 290 -27 346
-35 87 -100 149 -186 175 -70 22 -152 26 -218 10z"/>
<path d="M40554 16265 c-116 -25 -205 -88 -238 -167 -22 -51 -20 -143 3 -195
37 -80 118 -118 314 -147 135 -20 174 -48 127 -91 -44 -39 -237 -26 -341 24
-23 12 -46 21 -50 21 -6 0 -25 -41 -75 -158 l-15 -33 53 -24 c116 -52 348 -72
471 -40 163 42 237 122 237 255 0 142 -74 202 -296 240 -130 22 -170 34 -178
56 -31 81 178 93 347 19 14 -6 23 6 52 69 57 124 57 120 -17 145 -127 41 -277
52 -394 26z"/>
<path d="M42271 16264 c-56 -15 -110 -43 -131 -69 -21 -26 -30 -17 -30 30 l0
45 -135 0 -135 0 0 -410 0 -410 145 0 145 0 0 218 c0 206 1 220 23 262 12 25
37 54 54 66 37 25 110 38 153 29 l30 -7 0 131 0 131 -32 -1 c-18 0 -57 -7 -87
-15z"/>
<path d="M45480 16274 c-218 -42 -355 -187 -367 -389 -14 -216 119 -387 338
-435 82 -18 240 -9 311 19 67 26 151 97 179 152 l19 39 -111 56 c-104 52 -113
54 -122 37 -20 -35 -69 -73 -108 -83 -116 -32 -219 58 -219 191 0 111 71 188
173 189 59 0 96 -18 136 -67 l31 -37 110 54 c60 30 110 57 110 61 0 4 -15 28
-32 55 -69 103 -175 154 -328 159 -52 2 -106 1 -120 -1z"/>
<path d="M46270 16265 c-71 -14 -166 -48 -194 -68 -17 -12 -15 -19 29 -108
l47 -94 58 28 c82 41 199 49 262 18 43 -20 60 -41 73 -87 5 -21 3 -22 -152
-26 -168 -6 -213 -16 -285 -63 -104 -69 -114 -249 -19 -344 56 -56 131 -81
239 -81 99 0 155 20 210 73 l32 31 0 -47 0 -47 130 0 130 0 0 269 c0 306 -9
362 -74 437 -89 104 -289 149 -486 109z m280 -521 c0 -72 -62 -124 -148 -124
-60 0 -102 32 -102 78 0 61 39 81 158 82 l92 0 0 -36z"/>
<path d="M48353 16265 c-90 -25 -146 -57 -209 -120 -86 -85 -109 -145 -109
-290 0 -104 2 -114 32 -176 76 -155 232 -239 443 -239 138 0 259 40 320 104
l24 27 -76 75 -75 76 -39 -26 c-75 -49 -200 -53 -275 -9 -30 18 -69 70 -69 92
0 8 82 11 295 11 l295 0 0 75 c0 182 -101 328 -267 387 -76 27 -218 33 -290
13z m212 -214 c32 -18 75 -75 75 -97 0 -11 -33 -14 -165 -14 -91 0 -165 3
-165 6 0 18 47 86 69 101 55 36 128 37 186 4z"/>
<path d="M49453 16262 c-28 -10 -70 -31 -92 -45 l-41 -27 0 40 0 40 -135 0
-135 0 0 -410 0 -410 139 0 140 0 3 238 c3 218 5 240 24 277 16 30 32 45 68
60 43 17 50 18 88 5 23 -8 51 -28 62 -43 20 -27 21 -43 24 -283 l3 -254 145 0
144 0 0 238 c0 261 4 283 63 326 38 28 117 28 148 0 45 -39 49 -69 49 -324 l0
-240 146 0 145 0 -3 288 c-4 329 -10 359 -85 442 -63 70 -125 94 -243 95 -83
0 -102 -4 -155 -28 -33 -16 -75 -42 -93 -60 l-32 -31 -38 37 c-80 78 -229 108
-339 69z"/>
<path d="M51335 16274 c-85 -14 -201 -53 -243 -82 -11 -7 -3 -30 34 -105 l48
-96 31 18 c119 73 307 63 349 -18 31 -58 30 -58 -136 -64 -179 -5 -239 -20
-300 -75 -52 -47 -68 -86 -68 -164 0 -78 23 -131 78 -180 51 -46 122 -68 223
-68 94 0 152 19 202 67 l37 37 0 -47 0 -47 135 0 135 0 0 243 c0 134 -5 270
-11 302 -23 125 -98 215 -212 255 -62 22 -232 35 -302 24z m235 -534 c0 -32
-7 -48 -34 -77 -30 -33 -39 -37 -94 -41 -58 -4 -63 -3 -92 26 -38 38 -38 66
-1 103 28 28 33 29 125 29 l96 0 0 -40z"/>
<path d="M55325 16274 c-11 -2 -45 -9 -75 -15 -65 -13 -180 -63 -180 -79 0 -6
20 -50 44 -99 l45 -88 61 30 c70 35 183 48 243 28 43 -15 87 -63 87 -97 l0
-24 -125 0 c-185 0 -289 -30 -348 -100 -50 -59 -61 -163 -26 -240 26 -59 53
-86 114 -118 46 -25 60 -27 165 -27 100 0 121 3 157 22 22 12 51 34 62 49 l21
27 0 -47 0 -46 135 0 135 0 0 260 c0 145 -5 281 -11 308 -23 111 -109 203
-222 238 -50 15 -241 28 -282 18z m225 -537 c0 -75 -50 -117 -138 -117 -67 0
-102 27 -102 79 0 64 28 79 153 80 l87 1 0 -43z"/>
<path d="M56448 16267 c-26 -8 -71 -28 -99 -45 -27 -18 -52 -32 -55 -32 -2 0
-4 18 -4 40 l0 40 -135 0 -135 0 0 -410 0 -410 145 0 145 0 0 228 c0 200 3
232 19 268 50 110 198 123 256 24 18 -32 20 -55 24 -277 l3 -243 140 0 139 0
-3 293 c-3 250 -7 299 -22 339 -25 67 -94 140 -158 168 -65 28 -191 36 -260
17z"/>
<path d="M57368 16264 c-139 -33 -263 -134 -309 -251 -32 -82 -32 -224 0 -306
43 -110 129 -192 250 -238 71 -27 229 -37 309 -19 108 24 207 92 248 171 20
39 22 37 -108 105 l-89 46 -42 -45 c-113 -121 -287 -60 -304 106 -13 124 63
217 178 217 52 0 113 -34 140 -77 l21 -34 106 57 c59 31 108 58 110 60 2 1 -6
19 -16 41 -74 142 -293 216 -494 167z"/>
<path d="M58258 16264 c-175 -42 -291 -165 -321 -340 -21 -125 22 -264 111
-353 90 -90 204 -131 362 -131 142 0 237 30 322 102 l27 23 -74 80 c-65 71
-76 79 -92 68 -101 -70 -232 -77 -310 -17 -28 21 -63 70 -63 89 0 3 133 5 295
5 l294 0 6 34 c10 50 -10 156 -41 225 -30 67 -105 146 -172 180 -94 48 -233
62 -344 35z m219 -215 c17 -11 41 -39 52 -62 l21 -42 -161 -3 c-89 -1 -164 0
-167 2 -2 3 1 19 7 35 38 89 159 124 248 70z"/>
<path d="M30720 15860 l0 -410 140 0 140 0 0 410 0 410 -140 0 -140 0 0 -410z"/>
<path d="M33720 15860 l0 -410 140 0 140 0 0 410 0 410 -140 0 -140 0 0 -410z"/>
<path d="M39302 15978 l3 -293 28 -60 c57 -122 139 -176 280 -183 104 -5 160
8 228 55 l49 33 0 -40 0 -40 135 0 135 0 0 410 0 411 -142 -3 -143 -3 -5 -240
c-6 -269 -11 -292 -80 -328 -44 -23 -121 -18 -151 9 -50 45 -53 64 -57 322
l-4 242 -140 0 -139 0 3 -292z"/>
<path d="M42432 16253 c3 -10 80 -197 173 -415 165 -392 167 -398 151 -423
-33 -50 -105 -59 -178 -22 l-46 23 -48 -99 c-48 -96 -48 -99 -30 -113 82 -59
260 -76 368 -35 65 25 132 84 171 152 21 37 397 930 397 944 0 3 -60 5 -134 5
l-134 0 -30 -72 c-17 -40 -60 -148 -97 -241 -37 -92 -71 -169 -75 -172 -4 -3
-52 105 -106 240 l-98 245 -144 0 c-133 0 -144 -1 -140 -17z"/>
<path d="M50620 15860 l0 -410 145 0 145 0 -2 408 -3 407 -142 3 -143 3 0
-411z"/>
<path d="M54607 16263 c-4 -3 -7 -188 -7 -410 l0 -403 145 0 145 0 0 410 0
410 -138 0 c-76 0 -142 -3 -145 -7z"/>
<path d="M43420 15880 l0 -110 220 0 220 0 0 110 0 110 -220 0 -220 0 0 -110z"/>
</g>
</svg>
