<?xml version="1.0" standalone="no"?>
<!DOCTYPE svg PUBLIC "-//W3C//DTD SVG 20010904//EN"
 "http://www.w3.org/TR/2001/REC-SVG-20010904/DTD/svg10.dtd">
<svg version="1.0" xmlns="http://www.w3.org/2000/svg"
 width="6737.000000pt" height="4334.000000pt" viewBox="0 0 6737.000000 4334.000000"
 preserveAspectRatio="xMidYMid meet">

<g transform="translate(0.000000,4334.000000) scale(0.100000,-0.100000)"
fill="#000000" stroke="none">
<path d="M0 21670 l0 -21670 33685 0 33685 0 0 21670 0 21670 -33685 0 -33685
0 0 -21670z m27495 5909 c116 -23 213 -45 217 -48 4 -3 -7 -46 -23 -96 -16
-49 -29 -91 -29 -92 0 -2 194 -3 430 -3 l430 0 0 -205 0 -205 -217 -2 -218 -3
-3 -87 -3 -88 266 0 265 0 0 -210 0 -210 -237 0 -238 0 115 -61 c167 -88 378
-208 385 -219 5 -9 -356 -330 -372 -330 -5 0 -42 28 -83 61 -41 34 -135 106
-208 161 l-133 100 -36 -43 c-62 -76 -182 -186 -270 -248 l-85 -61 1213 -2
1214 -3 3 -797 2 -798 -280 0 -280 0 0 60 0 60 -710 0 -710 0 0 -60 0 -60
-265 0 -265 0 0 776 0 775 -72 -39 c-112 -61 -105 -62 -168 19 -30 39 -106
120 -167 179 l-113 107 48 18 c72 27 199 93 277 142 68 44 265 231 265 252 0
8 -86 11 -275 11 l-275 0 2 208 3 207 120 5 120 5 -45 26 c-25 15 -88 50 -140
79 -52 29 -96 54 -98 55 -2 2 18 25 44 51 142 145 283 403 335 612 11 46 16
52 34 48 11 -3 115 -24 230 -47z m8240 -126 c103 -281 166 -466 161 -471 -7
-6 -464 -172 -476 -172 -5 0 -17 28 -26 63 -10 34 -57 180 -105 325 -64 193
-84 265 -75 268 21 8 450 143 457 143 3 1 32 -70 64 -156z m-3897 66 c141 -40
259 -73 261 -75 11 -9 -214 -326 -346 -487 -36 -43 -63 -80 -61 -82 2 -2 388
31 405 35 1 0 -25 57 -57 127 -33 70 -56 131 -52 134 6 6 418 149 428 149 8 0
308 -610 363 -740 29 -67 49 -126 44 -130 -8 -9 -439 -180 -452 -180 -4 0 -26
48 -48 107 l-40 108 -39 -3 c-21 -2 -183 -19 -359 -38 -376 -41 -612 -76 -713
-106 -40 -11 -73 -19 -75 -17 -1 2 -27 78 -58 169 -31 91 -68 195 -82 232
l-26 68 47 20 c121 54 389 401 534 694 23 47 48 86 56 86 7 0 129 -32 270 -71z
m8939 -127 l113 -197 -28 -7 c-51 -14 -317 -56 -464 -74 l-148 -17 0 -64 0
-63 335 0 335 0 0 -190 0 -190 -332 -2 -333 -3 0 -45 0 -45 308 -3 307 -2 0
-585 0 -585 -311 0 -310 0 3 -47 3 -48 318 -3 317 -2 0 -183 c1 -208 -1 -207
75 -57 117 232 191 517 230 886 18 169 34 405 28 417 -2 4 -69 7 -149 7 l-144
0 0 245 0 245 155 0 155 0 0 375 0 375 255 0 255 0 0 -375 0 -375 366 0 366 0
-6 -252 c-4 -139 -11 -431 -16 -648 -25 -986 -60 -1363 -142 -1527 -32 -65
-118 -154 -179 -187 -99 -55 -173 -68 -406 -73 l-213 -5 0 23 c-1 81 -68 315
-122 423 -16 32 -28 59 -26 61 2 1 75 -2 163 -7 87 -5 179 -7 202 -3 56 8 105
56 127 122 46 138 78 637 88 1353 l3 225 -110 0 -110 0 -17 -220 c-64 -826
-217 -1330 -523 -1720 -62 -79 -266 -285 -282 -285 -4 1 -30 32 -57 70 -26 38
-79 103 -118 144 -55 60 -74 75 -91 71 -33 -7 -1540 -145 -1544 -141 -1 1 -14
89 -28 196 -14 107 -28 206 -31 220 l-5 26 357 22 c197 12 361 25 366 30 5 5
8 40 6 78 l-3 69 -307 3 -308 2 0 185 0 185 308 2 307 3 0 45 0 45 -302 3
-303 2 0 585 0 585 303 2 302 3 0 45 0 45 -347 3 -348 2 0 190 0 190 351 0
350 0 -3 43 c-2 23 -6 41 -11 41 -4 -1 -105 -5 -225 -8 -119 -3 -247 -8 -283
-11 l-66 -5 -22 93 c-13 50 -39 134 -58 185 -19 52 -33 96 -30 98 2 2 78 9
168 14 540 33 1118 102 1419 169 3 0 56 -88 117 -197z m-21812 163 c22 -21 25
-33 25 -95 0 -86 -68 -571 -110 -778 -44 -220 -152 -692 -231 -1004 -380
-1510 -820 -2397 -1634 -3299 -362 -400 -583 -561 -1485 -1079 -344 -197 -672
-392 -667 -396 1 -1 86 17 188 41 243 58 513 108 724 136 216 29 559 31 800 6
88 -9 243 -21 345 -27 1287 -75 2380 -328 3440 -797 1128 -500 2106 -1159
2910 -1963 593 -594 1084 -1249 1481 -1979 63 -115 73 -142 74 -184 0 -43 -4
-52 -28 -71 l-28 -21 -1782 -3 c-1315 -2 -1796 0 -1837 8 -69 15 -126 47 -173
99 -47 52 -71 100 -150 301 -483 1227 -1207 2201 -2167 2915 -718 534 -1646
907 -2595 1044 -491 71 -1081 81 -1575 25 -575 -64 -1109 -188 -1757 -408
-188 -64 -895 -326 -978 -363 -15 -6 27 26 311 238 1230 920 2408 1992 2939
2674 170 219 252 355 368 620 366 831 547 1726 547 2705 0 363 13 431 102 518
55 55 118 86 353 177 110 43 493 195 850 337 828 331 1524 605 1595 629 78 25
116 24 145 -6z m14405 -170 l0 -195 430 0 430 0 0 -230 0 -230 -431 0 -431 0
4 -122 c4 -134 16 -174 58 -196 32 -16 766 -11 844 7 61 14 65 9 67 -74 0 -33
8 -127 18 -210 10 -82 15 -153 11 -157 -22 -26 -143 -33 -600 -33 -423 0 -483
2 -552 18 -154 36 -252 106 -308 221 -62 125 -63 142 -67 799 l-4 597 265 0
266 0 0 -195z m5040 -280 l0 -385 -212 -2 -213 -3 -3 -77 -3 -78 -247 -2 -247
-3 -3 -42 -3 -43 375 0 376 0 0 -555 0 -555 -375 0 -375 0 0 -40 0 -40 455 0
455 0 0 -190 0 -190 -455 0 -455 0 0 -105 0 -105 -260 0 -260 0 0 105 0 105
-450 0 -450 0 0 190 0 190 450 0 450 0 0 40 0 40 -372 2 -373 3 -3 553 -2 552
375 0 375 0 0 45 0 45 -315 0 -315 0 0 80 0 80 -160 0 -160 0 0 385 0 385
1200 0 1200 0 0 -385z m-8220 -500 l0 -735 -735 0 -735 0 0 735 0 735 735 0
735 0 0 -735z m5750 138 c0 -5 -50 -181 -110 -392 -61 -211 -110 -388 -110
-393 0 -6 10 -8 23 -4 15 4 69 -16 180 -66 130 -60 157 -76 157 -94 0 -90
-140 -596 -222 -804 -35 -87 -47 -69 115 -166 226 -137 392 -177 816 -194 429
-17 1197 22 1650 85 57 8 106 14 107 12 1 -1 -24 -81 -56 -177 -33 -96 -67
-218 -77 -271 l-17 -96 -121 -7 c-66 -3 -223 -11 -350 -18 -126 -6 -477 -12
-780 -12 -597 -1 -666 4 -885 59 -172 44 -267 88 -441 205 -197 132 -225 141
-283 90 -50 -44 -101 -126 -181 -287 l-70 -141 -176 256 -176 257 21 29 c35
48 195 184 293 248 101 67 95 58 165 258 36 104 98 327 98 352 0 17 -14 18
-226 18 -211 0 -226 1 -219 18 38 92 211 641 230 730 l7 32 -146 0 -146 0 0
240 0 240 465 0 c256 0 465 -3 465 -7z m-3330 -1365 c0 -533 -4 -910 -10 -952
-33 -225 -173 -309 -541 -323 l-145 -6 -33 104 c-18 57 -55 150 -81 205 l-48
102 165 -2 c135 -1 165 2 173 14 5 8 10 77 10 153 0 109 -3 136 -13 130 -7 -4
-104 -77 -215 -160 -112 -84 -206 -153 -210 -153 -4 0 -25 56 -46 125 -22 69
-42 125 -45 125 -3 0 -17 -46 -30 -103 -45 -196 -119 -386 -198 -508 l-37 -56
-108 112 c-60 62 -141 139 -181 171 -39 32 -76 61 -80 64 -4 4 15 54 42 111
78 161 118 323 141 564 5 61 10 347 10 638 l0 527 740 0 740 0 0 -882z m760
307 l0 -165 440 0 440 0 0 -235 0 -235 -437 -2 -438 -3 -3 -165 c-4 -199 2
-245 33 -276 24 -24 25 -24 253 -24 216 0 231 1 255 21 34 26 54 93 67 227 6
59 13 108 15 110 2 2 18 -6 34 -17 67 -48 352 -161 406 -161 19 0 19 -40 0
-153 -56 -315 -170 -453 -403 -487 -91 -13 -666 -12 -775 1 -265 32 -373 142
-407 411 -6 49 -10 335 -10 700 l0 618 265 0 265 0 0 -165z m-13338 -1810
c284 -49 549 -211 719 -439 79 -105 162 -275 196 -401 25 -93 27 -114 27 -295
0 -168 -3 -206 -22 -273 -134 -487 -520 -817 -1011 -867 -583 -60 -1125 350
-1236 932 -19 100 -19 316 0 420 82 466 456 837 930 923 96 18 295 18 397 0z
m17030 -732 c25 -43 62 -111 82 -150 l36 -73 630 0 630 0 0 -215 0 -215 -330
0 c-181 0 -330 -2 -330 -5 0 -4 22 -43 49 -88 27 -45 52 -94 56 -108 6 -23 2
-28 -32 -42 -36 -15 -24 -16 235 -16 l272 -1 0 -150 0 -150 -257 -2 -258 -3
-3 -42 -3 -43 210 0 211 0 0 -125 0 -125 -210 0 -210 0 0 -50 0 -50 210 0 210
0 0 -125 0 -125 -210 0 -210 0 0 -50 0 -50 275 0 275 0 0 -160 0 -160 -602 0
-603 0 75 -41 c103 -56 256 -158 310 -208 l45 -41 -100 -95 c-55 -53 -128
-121 -162 -151 l-62 -55 -81 70 c-77 66 -270 204 -305 218 -15 5 -17 -11 -13
-190 3 -175 5 -197 22 -216 18 -20 28 -21 228 -21 193 0 209 1 227 19 23 23
37 70 46 157 l7 61 73 -39 c40 -21 132 -58 205 -82 72 -24 133 -46 135 -48 7
-7 -34 -194 -54 -249 -41 -109 -115 -183 -215 -216 -43 -14 -107 -17 -391 -21
-358 -4 -454 3 -550 39 -65 24 -129 79 -157 133 -45 87 -50 129 -55 414 l-5
272 238 0 239 0 -73 41 -74 41 59 53 58 54 -127 1 -128 0 0 389 0 389 -86 81
c-47 45 -90 81 -95 81 -5 0 -9 -186 -9 -470 l0 -470 -220 0 -220 0 0 412 0
412 -37 -35 c-72 -67 -63 -68 -139 21 -81 94 -81 94 -83 -62 -2 -228 -42 -645
-87 -913 -31 -186 -91 -436 -139 -578 -36 -109 -122 -314 -134 -321 -3 -2 -53
36 -111 86 -57 49 -148 119 -201 155 l-97 65 38 88 c84 193 156 467 194 740
44 313 48 417 53 1288 l5 842 689 0 c379 0 689 2 689 5 0 3 -18 41 -40 85 -22
44 -39 80 -38 81 2 0 107 29 233 64 127 34 235 63 241 64 5 1 31 -34 56 -76z
m-7092 -1008 c0 -806 3 -1035 12 -1035 7 0 79 12 160 27 81 14 150 24 153 22
9 -10 84 -494 77 -500 -4 -3 -96 -21 -204 -40 l-198 -34 0 -457 0 -458 -265 0
-265 0 0 403 c0 222 -2 406 -5 408 -2 3 -242 -38 -532 -92 -291 -53 -530 -95
-532 -93 -6 6 -81 455 -81 487 0 15 4 27 8 27 20 0 1125 201 1133 206 5 3 9
482 9 1085 l0 1079 265 0 265 0 0 -1035z m1910 685 l0 -340 170 0 170 0 0
-245 0 -245 -170 0 -170 0 0 -225 c0 -124 2 -225 4 -225 2 0 70 16 152 35 81
19 149 33 150 32 7 -8 61 -483 56 -489 -4 -4 -63 -21 -132 -38 -69 -17 -149
-38 -177 -46 l-53 -15 0 -452 c-1 -477 -7 -556 -48 -650 -25 -57 -87 -119
-151 -152 -104 -52 -292 -85 -490 -85 l-87 0 -33 133 c-18 72 -52 182 -75 244
l-43 111 182 -1 c141 -2 185 1 198 12 15 12 17 49 17 363 0 328 -1 349 -17
344 -59 -16 -294 -68 -297 -65 -10 13 -126 494 -122 505 3 8 14 14 25 14 18 0
358 66 394 76 16 5 17 28 17 290 l0 284 -200 0 -200 0 0 245 0 245 200 0 200
0 0 340 0 340 265 0 265 0 0 -340z m1670 95 l0 -245 400 0 400 0 0 -250 0
-250 -400 0 -400 0 2 -187 3 -188 160 -3 c91 -2 189 2 227 8 l66 12 171 -68
c94 -37 171 -71 171 -75 0 -26 -81 -277 -127 -394 -114 -291 -267 -545 -462
-770 -71 -81 -76 -69 64 -145 166 -89 504 -217 626 -236 22 -4 39 -8 39 -10 0
-2 -35 -46 -78 -96 -90 -109 -152 -195 -212 -295 -24 -40 -45 -73 -47 -73 -15
0 -242 79 -321 111 -146 61 -337 162 -458 243 l-109 72 -90 -55 c-107 -65
-306 -165 -426 -215 -107 -44 -376 -136 -398 -136 -10 0 -28 26 -49 74 -43 96
-149 274 -207 347 l-46 58 28 6 c88 19 303 84 403 122 97 36 322 141 369 172
11 7 -5 34 -72 123 -47 63 -118 168 -158 234 -71 116 -214 400 -221 438 -2 15
8 22 61 37 35 10 66 21 69 24 3 3 -43 5 -101 5 l-107 0 0 240 0 240 348 2 347
3 3 187 2 188 -377 2 -378 3 0 245 0 245 378 3 377 2 0 245 0 245 265 0 265 0
0 -245z m10530 -95 l0 -340 170 0 170 0 0 -245 0 -245 -170 0 -170 0 0 -225 0
-225 23 5 c12 3 78 18 147 34 69 16 127 28 129 25 6 -5 60 -420 61 -459 l0
-31 -177 -45 -178 -46 -6 -479 c-6 -399 -9 -490 -23 -544 -56 -216 -218 -301
-601 -317 l-161 -6 -12 74 c-10 60 -97 335 -126 400 -7 15 9 17 178 15 140 -1
188 2 198 12 10 10 14 90 16 362 1 193 1 350 -2 350 -3 0 -73 -16 -156 -36
-83 -20 -153 -34 -156 -32 -7 8 -134 502 -129 506 2 2 91 21 197 42 106 21
205 41 221 45 l27 7 -2 282 -3 281 -197 3 -198 2 0 245 0 245 198 2 197 3 3
338 2 337 265 0 265 0 0 -340z m1670 95 l0 -245 395 0 395 0 0 -250 0 -250
-395 0 -395 0 0 -190 0 -190 172 0 c94 0 197 5 227 11 l56 11 170 -67 c94 -37
171 -68 173 -70 5 -4 -69 -244 -109 -350 -56 -152 -184 -409 -266 -535 -72
-110 -178 -247 -244 -316 l-39 -40 72 -42 c172 -98 412 -196 603 -247 55 -14
106 -28 114 -31 8 -3 -5 -24 -41 -62 -87 -94 -263 -341 -280 -394 -3 -7 -50 4
-133 32 -249 82 -449 178 -650 310 -58 39 -110 70 -115 70 -5 0 -50 -25 -101
-55 -112 -68 -250 -138 -395 -200 -112 -48 -391 -145 -417 -145 -8 0 -32 37
-56 86 -55 116 -139 256 -195 328 -25 33 -44 61 -42 63 2 2 62 19 133 38 71
19 176 50 233 71 97 33 366 156 417 190 l23 14 -51 63 c-66 81 -183 258 -249
375 -65 117 -160 316 -163 344 -2 18 9 25 68 44 l70 22 -107 1 -108 1 0 240 0
240 345 0 345 0 0 190 0 190 -375 0 -375 0 0 250 0 250 375 0 375 0 0 245 0
245 270 0 270 0 0 -245z m2269 164 c124 -44 229 -84 233 -88 13 -12 -157 -267
-288 -432 -122 -153 -256 -299 -368 -400 -60 -55 -113 -99 -117 -99 -4 0 -20
21 -35 48 -41 71 -178 272 -212 312 l-30 35 115 109 c63 60 151 152 195 205
83 99 213 288 244 354 10 20 22 37 28 37 5 0 111 -36 235 -81z m1121 -344 l0
-425 265 0 265 0 0 -160 0 -160 508 -2 507 -3 3 -237 2 -237 -132 -3 -133 -3
-5 -745 c-5 -699 -7 -748 -24 -795 -70 -185 -221 -257 -568 -272 l-147 -6 -6
39 c-20 132 -80 346 -130 468 -8 18 -2 18 151 11 105 -4 168 -3 187 4 l27 11
0 645 0 645 -130 0 -130 0 0 155 0 155 -255 0 -255 0 0 -1075 0 -1075 -230 0
-230 0 -2 1073 -3 1072 -227 3 -227 2 -3 103 -3 102 -26 -55 c-14 -30 -49 -97
-78 -149 l-51 -94 0 -596 1 -596 21 25 c36 43 87 161 112 260 32 128 45 265
53 573 l6 257 185 0 185 0 -7 -242 c-4 -134 -11 -295 -17 -358 -31 -368 -117
-630 -256 -789 l-45 -52 -35 58 c-46 77 -76 116 -143 187 l-55 58 -5 -428 -5
-429 -245 0 -245 0 -5 674 -5 675 -64 -72 c-35 -40 -67 -72 -70 -72 -3 0 -39
64 -78 143 -40 78 -103 190 -140 249 l-68 108 89 92 c217 227 411 516 542 806
23 52 45 96 47 99 4 4 295 -88 395 -125 8 -3 12 8 12 37 l0 41 228 2 227 3 3
423 2 422 230 0 230 0 0 -425z m4013 342 c92 -39 167 -76 167 -82 0 -35 -242
-428 -357 -579 l-37 -49 33 6 c18 4 44 7 57 7 20 0 38 24 113 153 50 83 94
158 99 166 6 11 43 -4 175 -73 92 -48 167 -93 167 -99 0 -24 -240 -375 -363
-531 -44 -56 -112 -137 -151 -180 l-70 -79 49 6 c28 4 85 9 128 13 42 4 77 11
77 16 0 6 -10 41 -21 79 -12 39 -20 72 -18 74 6 5 291 76 294 73 10 -10 116
-384 155 -546 l17 -72 -86 -26 c-47 -14 -111 -34 -141 -44 l-55 -18 89 -1 89
-1 -6 -352 c-6 -388 -15 -475 -68 -633 -76 -227 -212 -403 -419 -540 -87 -59
-227 -132 -234 -124 -1 2 -14 25 -29 50 -36 63 -140 202 -195 261 -25 27 -43
50 -41 52 2 2 47 25 99 51 52 26 123 67 156 91 59 42 184 168 184 185 0 5 -92
9 -205 9 l-205 0 0 475 0 475 210 0 210 0 0 -256 0 -255 48 3 47 3 3 253 2
252 115 0 c131 0 124 -7 103 94 l-11 58 -56 -7 c-292 -34 -571 -82 -639 -111
-19 -8 -38 -14 -41 -14 -4 0 -13 30 -20 67 -7 37 -29 135 -49 218 l-37 150 -3
-1047 -2 -1048 -220 0 -220 0 0 305 c0 291 -1 305 -19 305 -10 0 -112 -18
-227 -39 -309 -58 -455 -83 -459 -79 -5 5 -95 428 -95 447 0 15 13 20 83 27
l82 9 3 968 2 967 -55 0 -55 0 2 238 3 237 633 3 632 2 0 -240 0 -240 -45 0
-45 0 0 -395 c0 -269 3 -395 10 -395 38 0 184 125 263 224 l31 38 -45 -7 c-24
-4 -65 -15 -91 -25 l-47 -18 -11 57 c-6 31 -30 126 -52 211 -58 221 -58 200 1
238 86 56 218 252 343 508 37 78 68 147 68 154 0 15 -5 17 203 -73z m-24932
-145 c75 -114 140 -212 143 -219 8 -14 -145 -66 -337 -114 l-127 -31 0 -219 0
-219 230 0 230 0 2 -221 3 -222 155 139 c86 77 163 145 172 152 14 11 33 -1
138 -89 67 -55 163 -139 214 -185 98 -91 236 -242 236 -259 0 -6 -82 -86 -182
-179 l-182 -169 -15 24 c-63 95 -329 377 -481 509 -58 50 -60 51 -60 26 l0
-26 -225 0 c-124 0 -225 -3 -225 -6 0 -3 66 -75 148 -158 173 -180 302 -320
302 -331 0 -9 -293 -415 -300 -415 -3 0 -33 58 -67 128 -35 71 -70 137 -78
148 -13 17 -14 -61 -15 -663 l0 -683 -260 0 -260 0 0 566 0 567 -89 -179 c-84
-167 -214 -384 -230 -384 -4 0 -22 38 -39 84 -35 91 -131 289 -180 372 l-30
51 72 97 c87 115 171 256 257 426 78 156 168 363 162 373 -2 4 -103 7 -224 7
l-219 0 0 250 0 250 260 0 260 0 0 171 0 171 -22 -5 c-31 -8 -331 -48 -333
-45 -1 2 -14 45 -29 97 -20 72 -87 256 -114 312 -1 4 21 9 50 13 268 35 800
168 1043 260 50 19 95 35 100 35 6 0 71 -93 146 -207z m25973 96 l155 -82 -36
-65 c-69 -124 -145 -246 -225 -359 -44 -63 -78 -115 -76 -116 2 -1 33 0 69 2
l67 4 73 153 74 153 160 -84 c88 -45 161 -88 163 -93 11 -32 -299 -552 -435
-730 -18 -24 -31 -46 -28 -49 9 -10 195 22 195 33 0 7 -9 38 -20 70 -11 32
-20 62 -20 66 0 9 279 103 286 97 8 -9 133 -363 169 -482 19 -66 32 -123 28
-127 -17 -16 -287 -119 -294 -111 -3 4 -14 40 -24 80 -9 40 -21 74 -25 77 -11
7 -438 -78 -560 -111 -52 -14 -110 -34 -130 -44 l-35 -19 193 -1 192 0 0 -251
0 -250 53 3 52 3 3 238 2 237 215 0 215 0 0 -525 0 -525 -215 0 -214 0 -3 58
-3 57 -52 3 -53 3 0 -340 0 -341 -230 0 -230 0 2 813 3 812 33 3 c26 3 32 8
32 26 0 12 -22 112 -50 222 -27 109 -50 200 -50 200 0 1 11 5 24 8 48 12 170
142 276 295 l23 34 -62 -7 c-51 -6 -151 -28 -209 -47 -9 -3 -27 51 -62 186
-27 105 -52 200 -55 212 -6 17 0 24 29 38 51 24 133 117 220 248 73 110 167
281 199 365 9 23 21 42 26 42 6 0 80 -37 165 -82z m4383 -805 c-4 -910 -3
-895 -60 -980 -85 -126 -245 -182 -530 -186 l-148 -2 -30 90 c-17 50 -56 142
-87 205 -31 63 -58 118 -60 123 -2 4 77 7 176 7 207 0 203 -2 210 91 l4 59
-294 0 -295 0 -26 -80 c-57 -173 -157 -340 -278 -462 l-76 -78 658 0 659 0 2
-397 3 -398 203 -3 202 -2 0 -230 0 -230 -1747 2 -1748 3 -3 228 -2 227 220 0
220 0 0 400 0 400 653 0 652 1 -102 99 c-56 55 -137 127 -180 161 -43 34 -80
63 -82 65 -2 2 13 20 35 39 l39 34 -377 1 -378 0 0 -85 0 -85 -245 0 -245 0 0
880 0 880 655 0 655 0 0 -762 0 -763 36 50 c50 68 118 214 144 307 42 155 50
263 50 761 l0 467 760 0 761 0 -4 -837z m-9020 670 c39 -60 96 -153 127 -208
l56 -100 0 153 0 152 445 0 445 0 0 -230 0 -230 -445 0 -445 0 0 55 c0 30 -3
55 -7 55 -3 0 -75 -38 -159 -85 -84 -47 -155 -85 -157 -85 -3 0 -30 51 -60
113 -29 61 -86 166 -125 232 -43 73 -68 123 -62 129 13 13 292 155 306 156 5
0 42 -48 81 -107z m-20630 -1 c193 -163 380 -350 452 -451 l20 -27 -189 -167
-189 -166 -47 66 c-79 110 -159 200 -324 363 l-158 155 172 147 c94 81 174
147 177 147 3 1 42 -30 86 -67z m13393 -1319 c0 -821 -4 -1385 -10 -1443 -26
-243 -113 -347 -342 -410 -109 -29 -223 -40 -420 -40 l-177 0 -11 58 c-17 82
-77 263 -119 362 l-37 85 266 -4 267 -3 21 27 c21 27 22 37 22 266 l0 239
-327 -2 -328 -3 -3 -497 -2 -498 -270 0 -270 0 -2 498 -3 497 -329 0 -329 0
-32 -145 c-79 -355 -209 -647 -382 -863 l-55 -68 -81 78 c-85 82 -220 190
-297 239 -25 15 -47 29 -49 31 -2 1 17 26 42 55 215 254 338 629 377 1148 5
74 10 496 10 938 l0 802 1435 0 1435 0 0 -1347z m7270 -392 c0 -298 4 -480 10
-497 10 -26 12 -27 73 -20 34 3 74 9 88 12 l25 6 13 -154 c7 -84 15 -165 18
-179 5 -25 2 -27 -47 -39 -67 -16 -276 -8 -343 13 -121 39 -176 116 -197 281
-5 39 -10 290 -10 559 l0 487 185 0 185 0 0 -469z m-11474 -649 c96 -119 200
-268 267 -382 57 -98 107 -203 107 -225 0 -6 -93 -57 -207 -112 l-207 -100
-41 96 c-67 158 -178 345 -307 519 -38 52 -71 99 -74 106 -4 11 345 183 376
185 8 0 47 -38 86 -87z m-1994 -22 c111 -39 205 -73 209 -75 8 -5 -37 -161
-78 -270 -59 -159 -185 -370 -264 -442 l-25 -22 -199 126 c-110 70 -202 128
-204 129 -2 2 22 32 54 66 106 115 203 288 261 471 15 48 32 87 36 87 5 0 99
-32 210 -70z m-20707 -805 c804 -65 1602 -270 2240 -575 629 -300 1142 -732
1500 -1263 l79 -117 -17 -35 c-29 -61 -77 -60 -185 7 -530 324 -1365 570
-2142 629 -203 15 -689 7 -870 -16 -892 -110 -1708 -474 -2450 -1094 -249
-208 -465 -445 -799 -877 -62 -80 -108 -117 -166 -133 -52 -14 -3681 -16
-3769 -1 -75 12 -106 39 -106 92 0 51 32 112 151 289 880 1307 2059 2206 3544
2704 686 230 1403 369 2095 404 223 12 662 5 895 -14z m16660 -1104 c72 -33
111 -103 100 -177 -14 -98 -87 -154 -200 -154 -90 0 -144 24 -181 79 -23 36
-26 48 -22 104 5 76 29 116 90 146 56 27 156 28 213 2z m-1045 -746 l0 -655
-170 0 -170 0 0 655 0 655 170 0 170 0 0 -655z m550 0 l0 -655 -165 0 -165 0
0 655 0 655 165 0 165 0 0 -655z m15920 440 c0 -118 2 -215 5 -215 2 0 26 14
52 30 69 44 133 60 240 60 187 0 306 -77 365 -237 21 -54 22 -79 26 -395 l3
-338 -170 0 -171 0 0 280 c0 308 -5 341 -60 380 -62 44 -176 32 -228 -23 -52
-55 -56 -84 -60 -369 l-4 -268 -164 0 -164 0 0 655 0 655 165 0 165 0 0 -215z
m3670 -440 l0 -655 -170 0 -170 0 0 655 0 655 170 0 170 0 0 -655z m7640 0 l0
-655 -160 0 -160 0 0 40 c0 22 -3 40 -6 40 -3 0 -22 -13 -42 -30 -97 -77 -286
-90 -429 -29 -119 51 -213 157 -254 288 -29 92 -29 250 0 342 42 132 125 224
257 287 55 25 68 27 189 27 136 0 155 -5 238 -59 l27 -18 0 211 0 211 170 0
170 0 0 -655z m-20747 571 c49 -14 108 -36 132 -49 l43 -22 -50 -120 c-27 -66
-53 -123 -57 -127 -4 -4 -40 6 -80 23 -178 75 -369 79 -436 9 -29 -30 -36 -79
-16 -104 22 -26 95 -53 216 -80 248 -55 364 -110 423 -202 77 -121 63 -299
-34 -413 -131 -156 -445 -210 -757 -130 -86 21 -227 83 -227 99 0 20 109 255
117 251 63 -34 170 -76 230 -92 86 -22 240 -26 294 -8 101 34 107 119 11 169
-13 6 -102 31 -197 55 -252 63 -342 111 -400 216 -28 50 -30 61 -30 159 0 94
3 111 28 161 52 106 172 191 318 224 46 11 109 14 224 11 137 -3 173 -7 248
-30z m-10743 -606 l0 -620 -175 0 -175 0 0 620 0 620 175 0 175 0 0 -620z
m17630 480 l0 -140 -190 0 -190 0 0 -480 0 -480 -175 0 -175 0 0 480 0 480
-195 0 -195 0 0 140 0 140 560 0 560 0 0 -140z m-15780 -55 l0 -125 110 0 110
0 0 -125 0 -125 -110 0 -110 0 0 -175 c0 -205 6 -227 69 -246 32 -9 47 -9 85
4 25 9 48 12 51 7 15 -24 75 -214 72 -225 -18 -45 -276 -67 -389 -32 -68 21
-133 68 -170 124 -47 69 -58 136 -58 350 l0 193 -70 0 -70 0 0 125 0 125 70 0
70 0 0 125 0 125 170 0 170 0 0 -125z m7182 3 l3 -123 108 -3 107 -3 0 -124 0
-125 -110 0 -110 0 1 -162 c0 -187 9 -223 57 -251 30 -18 39 -19 80 -8 26 6
53 13 60 14 9 1 28 -37 53 -107 21 -60 39 -113 39 -117 0 -4 -26 -18 -57 -30
-77 -29 -249 -33 -335 -6 -107 33 -195 125 -217 227 -6 28 -11 139 -11 245 l0
195 -70 0 -70 0 0 125 0 124 68 3 67 3 3 123 3 122 164 0 164 0 3 -122z m5680
0 l3 -123 108 -3 107 -3 0 -124 0 -125 -111 0 -110 0 3 -179 c3 -164 5 -182
24 -208 30 -40 72 -49 131 -30 36 12 49 13 55 4 4 -7 23 -59 43 -116 40 -117
42 -111 -40 -136 -165 -50 -360 -17 -453 78 -79 81 -87 111 -90 365 l-3 222
-70 0 -69 0 0 125 0 124 68 3 67 3 3 123 3 122 164 0 164 0 3 -122z m-13706
-93 c116 -34 209 -138 238 -264 13 -56 16 -133 16 -380 l0 -311 -170 0 -170 0
0 283 c0 274 -1 284 -22 327 -39 76 -127 101 -213 61 -48 -22 -68 -43 -92 -96
-15 -34 -18 -80 -21 -307 l-4 -268 -164 0 -164 0 0 480 0 480 160 0 160 0 0
-51 0 -51 31 26 c38 32 81 55 134 72 56 18 220 17 281 -1z m1851 1 c163 -43
281 -152 331 -302 25 -73 36 -170 27 -224 l-7 -40 -344 0 c-283 0 -344 -2
-344 -14 0 -7 18 -34 41 -59 46 -53 107 -77 193 -77 68 0 111 13 171 51 l50
32 88 -93 c100 -106 100 -99 3 -162 -145 -94 -372 -113 -564 -47 -31 11 -87
40 -124 65 -149 101 -218 265 -196 466 19 186 166 350 359 402 70 19 249 20
316 2z m2768 -14 c28 -13 67 -39 88 -60 l37 -36 0 57 0 57 160 0 160 0 0 -437
c0 -475 -5 -526 -55 -630 -60 -121 -177 -206 -330 -238 -91 -19 -260 -19 -370
0 -91 16 -225 63 -262 93 l-22 17 59 116 60 117 63 -34 c107 -57 271 -81 368
-54 90 25 149 101 149 193 l0 48 -39 -31 c-53 -43 -145 -70 -240 -70 -196 0
-345 89 -427 255 -33 67 -38 85 -42 173 -10 208 71 357 241 443 81 42 118 48
242 46 89 -2 119 -7 160 -25z m1284 13 c223 -59 361 -243 361 -481 0 -91 32
-84 -356 -84 -189 0 -344 -4 -344 -9 0 -18 47 -77 79 -98 96 -65 266 -52 354
25 17 15 24 10 110 -77 l92 -92 -40 -36 c-93 -82 -203 -117 -370 -117 -186 0
-307 41 -417 142 -102 95 -148 204 -148 353 0 229 134 407 355 470 76 22 249
24 324 4z m1294 -5 c123 -38 214 -153 237 -300 5 -36 10 -197 10 -357 l0 -293
-170 0 -170 0 0 271 c0 301 -5 334 -57 379 -80 71 -205 42 -263 -60 -25 -44
-25 -48 -28 -317 l-3 -273 -165 0 -164 0 0 480 0 480 160 0 160 0 0 -45 c0
-25 2 -45 4 -45 2 0 27 16 56 35 29 19 73 41 98 49 72 22 217 20 295 -4z
m3668 0 c207 -64 332 -266 316 -509 -19 -287 -232 -479 -506 -457 -73 6 -178
43 -202 72 -6 8 -15 14 -20 14 -5 0 -9 -95 -9 -210 l0 -210 -167 2 -168 3 -3
653 -2 652 160 0 160 0 0 -45 0 -45 50 36 c28 20 70 42 93 49 66 21 223 19
298 -5z m1122 4 c323 -83 472 -422 315 -716 -59 -111 -188 -205 -328 -239 -79
-20 -251 -17 -325 5 -137 41 -251 127 -309 235 -79 146 -76 352 7 494 57 97
183 188 309 221 73 20 255 20 331 0z m1177 -132 l0 -148 -72 0 c-127 0 -202
-55 -227 -164 -6 -25 -11 -150 -11 -277 l0 -233 -165 0 -165 0 0 480 0 480
160 0 160 0 0 -50 0 -50 50 36 c61 44 147 73 218 73 l52 1 0 -148z m1562 134
c106 -21 191 -54 184 -73 -48 -124 -93 -213 -106 -209 -8 2 -41 14 -73 26
-150 54 -347 38 -347 -29 0 -37 50 -61 165 -76 166 -22 259 -53 320 -106 54
-48 75 -99 75 -188 0 -91 -21 -141 -86 -201 -90 -83 -202 -115 -394 -114 -147
1 -268 23 -367 69 l-52 23 51 117 c29 65 56 114 62 111 138 -62 264 -91 357
-82 72 7 108 23 115 53 12 46 -24 62 -202 87 -260 38 -360 120 -358 296 1 143
105 252 282 294 75 19 282 20 374 2z m2583 -16 c215 -82 320 -258 307 -512
l-2 -38 -345 0 c-389 0 -376 3 -304 -74 85 -94 248 -102 372 -20 l41 27 83
-89 c45 -49 83 -94 83 -101 0 -18 -105 -90 -164 -112 -130 -48 -313 -51 -457
-5 -273 86 -405 347 -319 628 45 145 177 265 343 311 82 23 285 15 362 -15z
m1165 2 c86 -34 156 -88 200 -155 22 -33 39 -65 37 -71 -2 -6 -58 -39 -125
-74 l-121 -63 -53 55 c-76 78 -154 94 -243 49 -77 -39 -109 -98 -109 -203 -1
-109 40 -179 126 -215 85 -35 187 -5 241 71 l30 43 128 -65 c71 -35 129 -67
129 -69 0 -14 -42 -85 -67 -115 -37 -45 -117 -94 -194 -121 -92 -32 -274 -33
-374 -2 -80 25 -174 79 -225 129 -52 49 -102 138 -122 213 -71 273 82 529 362
606 85 23 307 15 380 -13z m2410 -3 c73 -34 120 -76 154 -139 52 -95 56 -128
56 -477 l0 -323 -164 0 -165 0 -3 283 c-3 259 -5 285 -23 321 -31 61 -65 81
-138 81 -83 0 -131 -29 -163 -99 -23 -50 -24 -58 -24 -318 l0 -268 -170 0
-170 0 0 480 0 480 160 0 160 0 0 -50 0 -50 50 36 c80 57 146 74 275 71 94 -2
118 -6 165 -28z m1084 16 c178 -47 319 -179 361 -340 19 -76 19 -194 0 -270
-42 -162 -171 -288 -345 -339 -84 -25 -212 -30 -303 -12 -114 22 -200 67 -278
145 -97 98 -139 200 -139 341 0 138 42 241 135 336 65 66 136 108 230 135 78
23 258 25 339 4z m1718 4 c148 -31 286 -135 346 -260 139 -292 -20 -622 -338
-700 -87 -22 -252 -17 -335 8 -75 24 -172 78 -218 121 -106 101 -161 271 -138
425 30 195 172 349 371 401 66 18 238 20 312 5z m1139 -16 c26 -11 65 -38 88
-58 l41 -37 0 56 0 56 161 0 160 0 -3 -457 c-4 -395 -7 -466 -21 -517 -54
-185 -179 -295 -377 -332 -112 -22 -312 -14 -423 15 -86 23 -191 66 -207 86
-8 10 1 38 36 106 25 51 53 103 61 116 l15 22 36 -24 c77 -49 158 -70 282 -70
108 0 118 2 163 28 56 33 86 85 94 164 l6 54 -52 -36 c-70 -46 -137 -65 -236
-65 -243 0 -431 156 -466 388 -34 229 94 443 309 513 81 27 267 23 333 -8z
m2867 12 c169 -40 271 -144 301 -309 6 -35 11 -184 11 -353 l0 -293 -155 0
-155 0 0 57 0 57 -39 -40 c-46 -48 -90 -71 -168 -85 -124 -23 -272 12 -349 83
-64 59 -88 116 -88 207 1 90 21 138 82 193 74 67 209 97 445 98 98 0 104 6 67
67 -26 43 -55 61 -124 74 -73 15 -169 -1 -256 -42 -35 -16 -64 -28 -65 -27 -9
10 -105 210 -105 218 0 21 123 72 230 96 79 17 292 17 368 -1z m1344 -23 c98
-48 161 -131 188 -244 5 -24 10 -188 10 -365 l0 -323 -165 0 -165 0 0 263 c0
206 -3 274 -15 314 -25 86 -88 122 -183 108 -58 -9 -124 -70 -141 -130 -7 -25
-11 -140 -11 -297 l0 -258 -170 0 -170 0 0 480 0 480 160 0 160 0 0 -50 0 -50
50 36 c80 57 146 74 275 71 102 -2 115 -4 177 -35z m-25222 -452 l0 -480 -170
0 -170 0 0 480 0 480 170 0 170 0 0 -480z m22009 188 c64 -158 119 -284 122
-280 3 4 57 134 120 290 l113 282 162 0 161 0 -217 -522 c-119 -288 -226 -541
-238 -564 -34 -66 -96 -138 -148 -172 -115 -73 -310 -83 -449 -22 -85 38 -84
32 -20 161 32 63 59 116 60 117 2 2 16 -5 32 -17 69 -50 178 -46 225 10 l26
31 -20 47 c-97 226 -388 920 -388 925 0 3 77 5 172 4 l171 -3 116 -287z
m-23195 -1237 c50 -28 71 -66 70 -127 0 -66 -22 -99 -85 -132 -80 -43 -196
-16 -240 54 -39 63 -16 159 46 200 54 35 152 38 209 5z m2995 0 c54 -25 76
-63 75 -127 0 -66 -22 -99 -85 -132 -36 -19 -55 -23 -101 -19 -100 9 -158 63
-158 148 0 125 140 193 269 130z m16913 -4 c89 -49 91 -193 3 -247 -103 -64
-257 -14 -280 91 -31 138 137 233 277 156z m3978 4 c69 -35 95 -131 54 -202
-57 -99 -245 -103 -304 -7 -25 41 -27 119 -4 158 44 73 163 97 254 51z
m-24320 -631 l0 -560 -140 0 -140 0 0 560 0 560 140 0 140 0 0 -560z m8590 0
l0 -560 -135 0 -135 0 0 40 0 41 -37 -30 c-56 -44 -140 -65 -235 -58 -148 10
-268 92 -331 225 -31 64 -32 72 -32 192 0 107 4 133 23 182 33 81 108 160 190
200 64 32 72 33 183 33 113 0 117 -1 167 -32 l52 -32 0 179 0 180 145 0 145 0
0 -560z m8780 0 l0 -560 -135 0 -135 0 0 39 0 40 -50 -34 c-144 -97 -370 -62
-496 77 -141 156 -131 455 21 602 73 71 142 99 256 104 105 5 150 -5 212 -44
l37 -24 0 180 0 180 145 0 145 0 0 -560z m6050 0 l0 -561 -142 3 -143 3 -3
558 -2 557 145 0 145 0 0 -560z m470 0 l0 -560 -140 0 -140 0 0 560 0 560 140
0 140 0 0 -560z m-26577 -12 c124 -282 229 -521 233 -530 6 -17 -5 -18 -149
-18 l-155 0 -42 105 -42 105 -222 0 -223 0 -40 -102 -41 -103 -152 -3 c-142
-2 -152 -1 -147 15 2 10 102 239 222 508 119 270 221 500 226 513 8 21 12 22
157 22 l148 0 227 -512z m9147 -18 l0 -530 -145 0 -145 0 0 530 0 530 145 0
145 0 0 -530z m7875 9 c127 -286 232 -525 233 -530 3 -6 -58 -8 -153 -7 l-157
3 -41 103 -40 102 -223 0 -222 0 -42 -105 -42 -105 -149 0 c-100 0 -149 4
-149 11 0 9 426 983 452 1032 8 15 26 17 156 17 l147 0 230 -521z m8493 -2
c128 -287 232 -526 232 -530 0 -4 -69 -7 -153 -7 l-153 0 -43 105 -43 105
-222 0 -221 0 -41 -103 -41 -102 -152 -3 c-148 -2 -152 -2 -146 17 3 11 105
244 226 518 122 274 223 504 226 511 4 9 44 12 153 12 l147 0 231 -523z
m-19988 358 l0 -105 90 0 90 0 0 -105 0 -105 -90 0 -90 0 0 -158 c0 -125 3
-162 15 -179 21 -30 73 -38 118 -20 l36 15 29 -81 c46 -128 45 -122 18 -135
-49 -22 -148 -35 -222 -29 -94 8 -163 38 -210 89 -62 69 -68 92 -74 303 l-5
190 -57 3 -58 3 0 104 0 105 60 0 60 0 0 105 0 105 145 0 145 0 0 -105z m8120
0 l0 -105 95 0 95 0 0 -105 0 -104 -92 -3 -93 -3 0 -158 0 -159 28 -24 c32
-27 63 -30 110 -10 l33 13 34 -98 c23 -64 31 -102 25 -108 -17 -17 -127 -41
-190 -41 -123 0 -230 46 -277 118 -43 65 -50 100 -55 290 l-6 182 -53 0 -54 0
0 105 0 105 55 0 55 0 0 105 0 105 145 0 145 0 0 -105z m-12645 -99 c120 -59
194 -166 217 -310 23 -152 -24 -300 -127 -395 -123 -112 -330 -133 -458 -47
l-37 25 0 -179 0 -180 -145 0 -145 0 0 555 0 555 140 0 140 0 0 -36 0 -35 33
25 c59 45 103 56 217 53 93 -2 112 -6 165 -31z m1001 17 c145 -49 244 -172
263 -328 21 -177 -36 -332 -155 -418 -73 -53 -136 -72 -239 -72 -95 0 -137 11
-192 52 l-33 24 0 -180 0 -181 -145 0 -145 0 0 555 0 555 135 0 135 0 0 -35
c0 -38 10 -44 31 -19 14 17 61 43 99 55 48 14 194 10 246 -8z m1956 -15 c80
-37 121 -71 159 -130 l33 -50 -24 -18 c-13 -9 -63 -37 -112 -61 -87 -42 -90
-43 -101 -24 -20 36 -68 75 -108 85 -114 31 -219 -58 -219 -185 1 -184 196
-264 311 -127 l34 41 108 -57 c59 -31 107 -59 107 -63 0 -19 -70 -107 -107
-135 -77 -58 -143 -77 -273 -78 -142 -1 -221 22 -312 93 -199 153 -212 458
-27 625 98 88 187 116 354 113 105 -3 127 -6 177 -29z m848 7 c104 -43 161
-101 194 -198 13 -40 16 -96 16 -327 l0 -280 -130 0 -130 0 0 50 0 50 -39 -39
c-52 -52 -97 -66 -211 -66 -77 1 -104 5 -145 23 -122 56 -177 171 -141 294 36
125 163 178 428 178 49 0 88 2 88 5 0 21 -32 76 -52 89 -65 42 -196 38 -291
-10 -27 -13 -50 -24 -53 -24 -2 0 -24 41 -49 91 -35 68 -43 94 -35 104 16 19
104 55 174 71 89 20 316 13 376 -11z m2113 5 c178 -55 284 -189 295 -370 15
-274 -193 -466 -488 -447 -161 11 -281 73 -357 185 -56 83 -68 127 -68 242 1
120 25 187 97 265 94 103 194 144 354 144 75 1 119 -4 167 -19z m1133 -12 c59
-31 107 -82 137 -147 20 -43 22 -65 25 -348 l3 -303 -140 0 -139 0 -4 248 c-3
213 -5 251 -21 279 -24 46 -69 66 -129 61 -56 -6 -94 -30 -123 -79 -18 -31
-20 -55 -23 -272 l-3 -238 -142 3 -142 3 -3 408 -2 407 140 0 140 0 0 -41 0
-40 36 27 c63 49 127 65 239 61 84 -3 108 -7 151 -29z m1966 12 c76 -28 122
-71 160 -148 l33 -67 3 -297 3 -298 -140 0 -141 0 0 209 c0 257 -7 304 -55
349 -29 26 -43 32 -80 32 -74 0 -131 -40 -154 -109 -7 -21 -11 -117 -11 -257
l0 -224 -145 0 -145 0 0 410 0 410 140 0 140 0 0 -41 0 -40 34 26 c60 46 122
64 218 65 63 0 102 -5 140 -20z m3068 -8 c99 -33 96 -26 49 -133 -23 -52 -42
-95 -43 -96 -1 -1 -31 10 -66 24 -55 23 -81 27 -161 27 -82 1 -100 -2 -118
-18 -27 -24 -27 -52 -1 -66 12 -6 60 -18 108 -26 191 -32 262 -59 305 -116 70
-93 54 -238 -35 -313 -131 -111 -424 -126 -640 -33 -53 23 -54 12 6 141 l35
78 39 -20 c62 -32 154 -51 244 -51 90 0 128 15 128 50 0 29 -43 46 -160 63
-132 20 -199 41 -246 80 -76 63 -96 178 -49 274 36 72 101 118 207 148 81 23
313 15 398 -13z m1460 -97 l0 -125 -57 0 c-63 0 -126 -24 -156 -58 -39 -44
-46 -88 -47 -309 l0 -213 -140 0 -140 0 0 410 0 410 135 0 135 0 0 -47 0 -47
28 26 c51 49 120 76 195 77 l47 1 0 -125z m3390 89 c36 -17 82 -45 101 -62 35
-30 88 -116 79 -125 -3 -3 -51 -28 -108 -56 l-104 -52 -41 45 c-138 147 -352
10 -298 -191 22 -83 88 -133 173 -133 51 0 95 24 134 73 l28 35 108 -54 c59
-30 108 -60 108 -68 0 -16 -48 -82 -86 -118 -134 -124 -422 -129 -591 -9 -249
176 -222 559 49 697 87 45 133 53 263 51 111 -2 125 -4 185 -33z m853 7 c78
-31 147 -99 178 -176 22 -58 23 -70 24 -340 l0 -280 -132 -3 -133 -3 0 50 0
49 -38 -38 c-52 -52 -129 -74 -233 -67 -173 12 -269 101 -269 251 0 167 101
232 378 243 93 4 142 10 142 17 0 24 -41 76 -72 92 -52 27 -160 22 -239 -11
-35 -14 -69 -27 -76 -28 -7 -1 -32 39 -57 90 -49 101 -49 100 20 129 94 41
174 54 314 50 111 -2 145 -7 193 -25z m1999 9 c155 -48 253 -161 278 -325 6
-38 8 -86 5 -107 l-7 -38 -294 0 c-162 0 -294 -3 -294 -8 0 -4 11 -24 24 -43
37 -54 86 -74 182 -74 73 0 86 3 131 31 l51 32 77 -78 76 -77 -36 -31 c-50
-44 -106 -71 -184 -88 -182 -38 -379 8 -491 117 -158 154 -159 427 -1 586 45
45 139 98 197 112 73 17 217 13 286 -9z m1062 4 c28 -10 68 -35 93 -59 l44
-42 32 30 c58 55 131 81 234 85 124 5 180 -13 249 -83 42 -42 56 -65 73 -120
19 -61 21 -91 21 -346 l0 -279 -139 0 -139 0 -4 248 c-3 228 -5 250 -24 282
-52 90 -179 77 -224 -23 -18 -37 -20 -67 -20 -275 l0 -233 -142 3 -143 3 -5
255 c-4 224 -7 258 -23 281 -50 74 -171 60 -220 -26 -8 -13 -14 -106 -17 -265
l-5 -245 -142 -3 -143 -3 0 411 0 410 135 0 135 0 0 -40 0 -40 43 31 c24 16
61 36 82 44 55 20 190 19 249 -1z m1961 -14 c76 -29 154 -105 180 -175 17 -44
19 -87 23 -338 l3 -288 -133 3 -133 3 -5 43 -5 44 -22 -26 c-88 -101 -335
-100 -440 3 -55 53 -77 114 -71 195 13 154 111 212 376 223 130 6 142 8 142
25 0 10 -15 34 -32 53 -58 62 -182 66 -305 10 -31 -14 -57 -24 -58 -23 -2 2
-23 45 -49 95 l-46 93 51 26 c98 49 180 64 329 61 112 -3 145 -8 195 -27z
m3987 -2 c89 -41 125 -73 160 -146 l33 -66 3 -293 3 -293 -130 0 -131 0 0 50
0 50 -39 -39 c-52 -52 -97 -66 -211 -66 -77 1 -105 5 -148 24 -104 47 -163
151 -147 259 22 150 150 212 437 212 49 0 88 2 88 5 0 21 -32 76 -52 89 -67
43 -193 39 -291 -10 -27 -13 -50 -24 -53 -24 -5 0 -94 177 -94 188 0 14 113
62 183 77 41 10 108 14 197 12 122 -2 141 -5 192 -29z m1084 0 c59 -31 108
-83 138 -147 20 -43 21 -66 24 -348 l3 -303 -140 0 -140 0 -3 248 c-3 213 -5
251 -21 279 -24 46 -69 66 -129 61 -56 -6 -94 -30 -123 -79 -18 -31 -20 -55
-23 -271 l-4 -238 -139 0 -139 0 0 410 0 410 135 0 135 0 0 -41 0 -40 36 27
c63 49 127 65 239 61 84 -3 108 -7 151 -29z m966 3 c66 -26 143 -91 176 -149
l23 -41 -111 -56 -110 -55 -43 44 c-71 74 -163 82 -237 20 -45 -38 -62 -79
-63 -149 -1 -78 31 -140 88 -172 76 -43 181 -20 227 51 l22 34 112 -56 113
-56 -16 -30 c-79 -155 -277 -228 -496 -181 -183 38 -312 171 -336 346 -30 218
94 403 310 464 82 23 267 15 341 -14z m850 8 c177 -59 278 -205 278 -401 l0
-68 -300 0 -301 0 15 -27 c57 -110 223 -138 342 -57 l39 26 72 -78 c40 -44 71
-83 70 -88 -6 -17 -96 -74 -155 -97 -49 -20 -75 -23 -187 -23 -139 1 -197 14
-290 68 -134 79 -210 251 -184 416 25 161 128 280 287 331 83 26 233 26 314
-2z m-27534 -396 l-3 -408 -142 -3 -143 -3 0 411 0 410 145 0 145 0 -2 -407z
m3000 0 l-3 -408 -142 -3 -143 -3 0 411 0 410 145 0 145 0 -2 -407z m5582 170
c0 -207 2 -242 18 -272 25 -51 63 -74 116 -74 58 1 103 28 129 78 20 37 22 57
25 273 l4 232 139 0 139 0 0 -410 0 -410 -135 0 -135 0 0 39 0 40 -55 -34
c-74 -44 -140 -59 -228 -52 -98 8 -186 52 -232 115 -64 88 -68 116 -73 430
l-4 282 146 0 146 0 0 -237z m3222 12 c48 -121 93 -231 99 -245 10 -24 13 -21
41 50 16 41 61 153 100 248 l70 172 135 0 c124 0 135 -1 130 -17 -11 -42 -352
-853 -380 -907 -39 -74 -98 -135 -162 -166 -44 -22 -63 -25 -165 -25 -99 0
-122 4 -167 24 -80 36 -80 37 -27 143 25 51 47 94 48 95 1 1 22 -7 45 -19 78
-38 173 -21 186 35 4 15 -48 150 -165 425 -93 221 -170 405 -170 408 0 2 66 3
147 2 l147 -3 88 -220z m8098 -185 l0 -411 -142 3 -143 3 -3 408 -2 407 145 0
145 0 0 -410z m3980 0 l0 -410 -140 0 -140 0 0 410 0 410 140 0 140 0 0 -410z
m-11030 20 l0 -110 -217 2 -218 3 -3 108 -3 107 221 0 220 0 0 -110z"/>
<path d="M27414 26859 c-27 -40 -55 -80 -63 -90 -13 -18 -9 -19 103 -19 l116
0 0 90 0 90 -54 0 -53 0 -49 -71z"/>
<path d="M27900 25205 l0 -65 710 0 710 0 0 65 0 65 -710 0 -710 0 0 -65z"/>
<path d="M27900 24695 l0 -65 710 0 710 0 0 65 0 65 -710 0 -710 0 0 -65z"/>
<path d="M39580 26115 l0 -55 96 0 95 0 -3 53 -3 52 -92 3 -93 3 0 -56z"/>
<path d="M40250 26115 l0 -55 90 0 90 0 0 55 0 55 -90 0 -90 0 0 -55z"/>
<path d="M39584 25747 c-3 -8 -4 -34 -2 -58 l3 -44 90 0 90 0 0 55 0 55 -88 3
c-68 2 -89 0 -93 -11z"/>
<path d="M40254 25746 c-3 -7 -4 -33 -2 -57 l3 -44 88 -3 87 -3 0 61 0 60 -85
0 c-64 0 -87 -4 -91 -14z"/>
<path d="M40250 24790 l0 -60 48 0 c103 1 534 39 545 48 7 6 20 24 30 41 l18
31 -320 0 -321 0 0 -60z"/>
<path d="M36500 27010 l0 -90 230 0 230 0 0 55 0 55 260 0 260 0 0 -55 0 -55
205 0 205 0 0 90 0 90 -695 0 -695 0 0 -90z"/>
<path d="M36670 26110 l0 -40 145 0 145 0 0 40 0 40 -145 0 -145 0 0 -40z"/>
<path d="M37480 26110 l0 -40 135 0 135 0 0 40 0 40 -135 0 -135 0 0 -40z"/>
<path d="M36670 25725 l0 -45 145 0 145 0 0 45 0 45 -145 0 -145 0 0 -45z"/>
<path d="M37480 25725 l0 -45 135 0 135 0 0 45 0 45 -135 0 -135 0 0 -45z"/>
<path d="M29220 26605 l0 -265 220 0 220 0 0 265 0 265 -220 0 -220 0 0 -265z"/>
<path d="M31620 25709 c0 -62 4 -98 10 -94 5 3 49 39 96 80 48 41 91 75 95 75
7 0 76 -62 237 -214 l42 -40 0 147 0 147 -240 0 -240 0 0 -101z"/>
<path d="M31617 25258 c-4 -106 -10 -213 -13 -237 l-7 -44 251 128 252 128 0
50 0 49 -96 -88 -95 -87 -23 24 c-12 13 -73 79 -136 147 -62 67 -116 122 -120
122 -4 0 -10 -87 -13 -192z"/>
<path d="M35720 22213 l1 -278 81 85 c93 97 179 202 247 304 45 66 91 148 91
161 0 3 -94 5 -210 5 l-210 0 0 -277z"/>
<path d="M36410 22485 c0 -2 45 -18 100 -35 55 -17 100 -33 100 -36 0 -10
-112 -208 -156 -277 -39 -59 -44 -75 -44 -123 0 -31 4 -54 10 -52 14 5 116
135 174 223 55 84 138 231 155 278 l11 27 -175 0 c-96 0 -175 -2 -175 -5z"/>
<path d="M37153 22467 c39 -12 67 -26 67 -34 0 -7 -20 -56 -44 -108 l-45 -95
160 0 c88 0 158 3 156 8 -72 125 -97 176 -90 182 4 4 45 20 91 35 45 14 82 29
82 31 0 2 -100 3 -222 3 l-223 -1 68 -21z"/>
<path d="M37040 21885 l0 -45 180 0 180 0 0 45 0 45 -180 0 -180 0 0 -45z"/>
<path d="M37040 21540 l0 -50 180 0 180 0 0 50 0 50 -180 0 -180 0 0 -50z"/>
<path d="M37040 21190 l0 -50 180 0 180 0 0 50 0 50 -180 0 -180 0 0 -50z"/>
<path d="M32920 21297 c0 -18 136 -249 188 -319 55 -75 162 -202 172 -206 13
-5 179 190 247 290 34 49 80 126 103 169 l41 79 -375 0 c-303 0 -376 -3 -376
-13z"/>
<path d="M45114 21294 c3 -9 34 -64 67 -122 70 -123 145 -230 232 -333 l62
-72 81 86 c96 102 191 233 256 354 26 49 48 91 48 96 0 4 -169 7 -376 7 -339
0 -376 -2 -370 -16z"/>
<path d="M51840 22400 l0 -161 98 3 97 3 0 155 0 155 -97 3 -98 3 0 -161z"/>
<path d="M51840 21650 l0 -161 98 3 97 3 0 155 0 155 -97 3 -98 3 0 -161z"/>
<path d="M51840 20875 c0 -102 3 -185 8 -185 10 0 131 19 165 26 l27 6 0 169
0 169 -100 0 -100 0 0 -185z"/>
<path d="M57550 22575 l0 -75 248 2 247 3 0 70 0 70 -247 3 -248 2 0 -75z"/>
<path d="M56010 22495 l0 -95 170 0 170 0 0 95 0 95 -170 0 -170 0 0 -95z"/>
<path d="M57537 22073 c-3 -38 -2 -71 2 -76 4 -4 120 -6 257 -5 l249 3 3 73 3
72 -254 0 -254 0 -6 -67z"/>
<path d="M56010 21915 l0 -95 170 0 170 0 0 95 0 95 -170 0 -170 0 0 -95z"/>
<path d="M56250 20405 l0 -195 105 0 105 0 0 195 0 195 -105 0 -105 0 0 -195z"/>
<path d="M56957 20594 c-4 -4 -7 -92 -7 -196 l0 -188 110 0 110 0 -2 193 -3
192 -101 3 c-55 1 -103 0 -107 -4z"/>
<path d="M57660 20405 l0 -196 108 3 107 3 0 190 0 190 -107 3 -108 3 0 -196z"/>
<path d="M39980 22245 l0 -165 300 0 300 0 0 165 0 165 -300 0 -300 0 0 -165z"/>
<path d="M41120 22245 l0 -165 330 0 330 0 0 165 0 165 -330 0 -330 0 0 -165z"/>
<path d="M39986 21572 c-3 -4 -6 -87 -7 -183 l-2 -174 299 0 299 0 3 183 2
182 -294 0 c-162 0 -297 -4 -300 -8z"/>
<path d="M41124 21567 c-2 -7 -3 -89 -2 -182 l3 -170 328 -3 327 -2 0 185 0
185 -325 0 c-256 0 -327 -3 -331 -13z"/>
<path d="M58218 17896 c-63 -22 -88 -45 -114 -99 -27 -58 -32 -149 -13 -208
48 -142 216 -185 321 -82 89 87 90 249 4 338 -58 61 -124 77 -198 51z"/>
<path d="M29976 17929 c-22 -5 -55 -21 -73 -35 -31 -23 -73 -89 -73 -114 0 -6
67 -10 195 -10 128 0 195 4 195 10 0 25 -42 91 -73 114 -26 20 -105 48 -127
45 -3 -1 -23 -5 -44 -10z"/>
<path d="M32795 17901 c-104 -26 -160 -100 -153 -202 5 -66 32 -112 86 -150
50 -34 162 -40 219 -10 50 25 89 70 103 119 12 46 12 58 -1 105 -28 101 -145
164 -254 138z"/>
<path d="M34040 17930 c-75 -14 -134 -67 -155 -137 l-6 -23 195 0 c115 0 196
4 196 9 0 24 -24 69 -52 98 -43 45 -114 66 -178 53z"/>
<path d="M38906 17895 c-91 -33 -129 -90 -134 -202 -6 -115 30 -187 113 -224
110 -50 237 11 272 130 33 114 -10 241 -97 286 -42 22 -111 26 -154 10z"/>
<path d="M40086 17895 c-99 -35 -131 -90 -131 -221 0 -82 3 -94 28 -133 69
-104 203 -122 293 -39 126 116 82 354 -73 397 -49 14 -69 13 -117 -4z"/>
<path d="M45377 17925 c-26 -7 -61 -25 -77 -40 -28 -27 -60 -82 -60 -104 0 -8
60 -11 195 -11 107 0 195 2 195 5 0 15 -33 81 -48 98 -44 49 -131 71 -205 52z"/>
<path d="M50065 17896 c-53 -20 -111 -83 -125 -137 -29 -105 10 -233 84 -279
68 -42 170 -36 232 12 73 58 97 208 48 306 -44 88 -149 131 -239 98z"/>
<path d="M51810 17899 c-91 -27 -144 -107 -143 -219 0 -105 39 -175 118 -211
97 -45 205 -5 258 96 28 53 29 174 3 225 -23 44 -54 78 -86 95 -37 19 -110 26
-150 14z"/>
<path d="M52990 17898 c-102 -29 -162 -126 -139 -228 21 -94 95 -149 202 -150
127 0 207 73 207 190 0 66 -19 109 -65 147 -57 47 -131 62 -205 41z"/>
<path d="M55764 17576 c-59 -26 -81 -87 -48 -134 21 -30 58 -44 116 -43 92 0
158 60 158 142 l0 49 -97 0 c-60 -1 -110 -6 -129 -14z"/>
<path d="M38610 16039 c-76 -23 -120 -91 -120 -186 1 -116 58 -184 159 -191
46 -3 62 0 91 20 69 47 100 127 85 217 -17 104 -117 168 -215 140z"/>
<path d="M47389 16041 c-94 -30 -142 -129 -118 -243 18 -84 83 -138 164 -138
138 0 215 160 144 301 -31 63 -123 101 -190 80z"/>
<path d="M27388 16035 l-66 -165 134 0 134 0 -19 48 c-62 155 -113 282 -115
282 -1 0 -32 -74 -68 -165z"/>
<path d="M44425 16083 c-26 -65 -56 -139 -66 -165 l-19 -48 134 0 134 0 -65
163 c-36 89 -66 163 -68 165 -1 2 -24 -50 -50 -115z"/>
<path d="M52902 16042 c-34 -87 -62 -161 -62 -165 0 -4 59 -7 130 -7 72 0 130
2 130 4 0 5 -129 319 -133 322 -1 1 -30 -68 -65 -154z"/>
<path d="M28545 16038 c-40 -14 -84 -56 -101 -95 -22 -52 -18 -151 9 -197 35
-62 68 -81 142 -81 71 0 103 17 142 74 59 87 29 242 -57 286 -39 20 -100 26
-135 13z"/>
<path d="M29599 16040 c-81 -24 -124 -90 -123 -190 0 -69 16 -110 56 -147 67
-63 180 -56 240 15 28 34 51 118 43 158 -3 13 -7 35 -10 49 -8 39 -72 103
-113 115 -42 11 -57 11 -93 0z"/>
<path d="M32380 15767 c-69 -24 -79 -100 -17 -137 87 -53 214 17 205 113 l-3
32 -75 2 c-41 1 -91 -3 -110 -10z"/>
<path d="M34537 16036 c-50 -18 -76 -42 -98 -91 -34 -74 -21 -173 30 -228 41
-45 78 -60 136 -55 98 8 154 78 155 191 0 98 -44 164 -125 186 -49 13 -51 13
-98 -3z"/>
<path d="M46350 15767 c-72 -25 -76 -106 -6 -141 86 -43 196 18 196 109 l0 45
-77 -1 c-43 0 -94 -5 -113 -12z"/>
<path d="M48394 16051 c-41 -19 -84 -72 -84 -105 0 -14 19 -16 160 -16 149 0
160 1 160 19 0 29 -42 82 -80 102 -44 24 -104 24 -156 0z"/>
<path d="M51386 15770 c-96 -29 -85 -140 16 -157 84 -13 158 45 158 123 l0 44
-72 -1 c-40 0 -86 -5 -102 -9z"/>
<path d="M55360 15767 c-69 -24 -79 -100 -17 -137 41 -25 80 -25 132 0 48 23
78 71 73 115 l-3 30 -75 2 c-41 1 -91 -3 -110 -10z"/>
<path d="M58310 16059 c-45 -19 -100 -84 -100 -119 0 -6 56 -10 165 -10 132 0
165 3 165 14 0 19 -41 76 -72 99 -31 23 -120 32 -158 16z"/>
</g>
</svg>
