<svg id="圖層_1" data-name="圖層 1" xmlns="http://www.w3.org/2000/svg" viewBox="0 0 145 41.68"><defs><style>.cls-1{fill:#102e50;}</style></defs><title>工作區域 1</title><g id="圖層_2" data-name="圖層 2"><g id="_群組_" data-name="&lt;群組&gt;"><path id="_路徑_" data-name="&lt;路徑&gt;" class="cls-1" d="M55,11.68l-1,.7a15.93,15.93,0,0,0,1.3,1.3l-4.5.1a15.53,15.53,0,0,0,2.3-2.7l-1.3-.6a15,15,0,0,1-2.3,3c-.4.4-.6.6-.9.6a3.37,3.37,0,0,1,.4,1.2c.6-.2,1.4-.2,7.2-.5a5.55,5.55,0,0,0,.6.8l1.1-.8A26.78,26.78,0,0,0,55,11.68Z"/><path id="_複合路徑_" data-name="&lt;複合路徑&gt;" class="cls-1" d="M56.7,20.88v-4.8H49.4v4.8h1.3v-.6h4.6v.5h1.4Zm-6-1.8v-1.8h4.6v1.8Z"/><path id="_路徑_2" data-name="&lt;路徑&gt;" class="cls-1" d="M61.8,15.08h0l1.4-.1v-1.2H61.8v-1.5a5.73,5.73,0,0,0,1.4-.4l-.7-1.1a16.23,16.23,0,0,1-3.5.9c.1.3.3.7.4,1a5,5,0,0,0,1.2-.2v1.2H58.9v1.2h1.5a10,10,0,0,1-1.6,2.9,6.72,6.72,0,0,1,.6,1.2,10.84,10.84,0,0,0,1.2-2.2v3.9h1.3v-4.5c.3.4.5.9.7,1.2l.8-1C63.1,16.38,62.2,15.38,61.8,15.08Z"/><polygon id="_路徑_3" data-name="&lt;路徑&gt;" class="cls-1" points="63.3 18.88 66.6 18.38 66.6 20.88 67.9 20.88 67.9 18.08 69.2 17.88 69 16.68 67.9 16.88 67.9 10.68 66.6 10.68 66.6 17.08 63.1 17.68 63.3 18.88"/><path id="_路徑_4" data-name="&lt;路徑&gt;" class="cls-1" d="M65.4,13.68l.9-.8a8.83,8.83,0,0,0-1.7-1.6l-.8.8A12,12,0,0,1,65.4,13.68Z"/><path id="_路徑_5" data-name="&lt;路徑&gt;" class="cls-1" d="M65.2,16.58l.9-.8a9.34,9.34,0,0,0-1.8-1.6l-.9.7A14.88,14.88,0,0,1,65.2,16.58Z"/><path id="_路徑_6" data-name="&lt;路徑&gt;" class="cls-1" d="M76,15h3.9v-1.3H75.6c.1-1,.1-2,.1-2.9H74.3c0,.9,0,1.9-.1,2.9h-4V15H74a6.48,6.48,0,0,1-4,4.8,3.46,3.46,0,0,1,1,1.1,7.49,7.49,0,0,0,4.1-4.7,8.12,8.12,0,0,0,4.1,4.6,2.94,2.94,0,0,1,1-1.2A6.89,6.89,0,0,1,76,15Z"/><path id="_複合路徑_2" data-name="&lt;複合路徑&gt;" class="cls-1" d="M87.6,19H90V18H87.6v-.6h2.7v-1H87.6v-.7H86.3v.7H85c.1-.2.1-.3.2-.4l-1.1-.3a5.61,5.61,0,0,1-1.2,2c0-.4.1-.8.1-1.2v-.9h8v-1H89.4l.6-.5c-.5-.2-1.1-.3-1.7-.5.5-.2,1-.4,1.3-.5l-.5-.3h1.6v-1H86.9c-.2-.3-.5-.7-.7-1l-.9.4c.1.2.3.4.4.6H81.9v1h1.9l-.6.5c.6.1,1.4.3,2.1.4a22.11,22.11,0,0,1-2.5.5,1.21,1.21,0,0,1,.5.5H81.8v2a6.07,6.07,0,0,1-1,3.8,3.92,3.92,0,0,1,1,.8A7.28,7.28,0,0,0,83,18a9.74,9.74,0,0,1,.5,1.1,4.35,4.35,0,0,0,.6-.7v.8h2.3v.6H83.1v1.1h8.1v-1.1H87.7V19Zm-3-6.4h3.6a5.78,5.78,0,0,1-1.4.5A22.49,22.49,0,0,0,84.6,12.58Zm2.1,1.3c.7.2,1.3.4,1.9.6H84.4C85.1,14.28,85.9,14.08,86.7,13.88ZM86.3,18H84.1c.1-.2.3-.4.4-.6h1.8Z"/><path id="_路徑_7" data-name="&lt;路徑&gt;" class="cls-1" d="M95.4,12.08a3.74,3.74,0,0,1,.7.6,4.05,4.05,0,0,0,.9-.5c.2.2.4.3.6.5l.6-.5c-.2-.1-.4-.3-.6-.4a2.65,2.65,0,0,0,.5-.6l-.9-.3c-.1.2-.3.3-.4.4-.2-.1-.5-.3-.7-.4l-.6.5.6.3A2.15,2.15,0,0,1,95.4,12.08Z"/><path id="_複合路徑_3" data-name="&lt;複合路徑&gt;" class="cls-1" d="M93.4,15.58h7v1.3h1.3v-2.2h-.8c.1-1,.2-2.4.2-3.6H98.4v.8h1.5v.4H98.4v.8h1.3v.4H98.4v.8h1.3v.4H96.1l.9-.6a3.81,3.81,0,0,1,.6.5l.6-.6a4.23,4.23,0,0,0-.7-.5,4.35,4.35,0,0,0,.6-.7l-.9-.3c-.1.2-.3.3-.4.5-.2-.1-.5-.3-.7-.4l-.6.5a2.09,2.09,0,0,1,.6.4,2,2,0,0,1-.8.4v-.6H94v-.4h1.3v-.8H93.9v-.3c.5-.1,1.1-.3,1.5-.4l-.5-.8a18,18,0,0,1-2.2.6l.2,3.3h-.8v2.2h1.2v-1.1Zm2.1-1.4v-.1l.5.5H94.2v-.4Z"/><path id="_路徑_8" data-name="&lt;路徑&gt;" class="cls-1" d="M97.7,19.68v-.8h4.2v-1H97.8a14.8,14.8,0,0,0,2.1-1.3l-.7-.7-.3.1H94.1v.9h3.5a6.72,6.72,0,0,1-1.2.6v.3H92v1h4.4v.7a.22.22,0,0,1-.2.2H94.9a3.58,3.58,0,0,1,.4,1.1,5.26,5.26,0,0,0,1.9-.2C97.5,20.58,97.7,20.28,97.7,19.68Z"/><path id="_路徑_9" data-name="&lt;路徑&gt;" class="cls-1" d="M108.5,14.28c.1.2.1.4.2.6l-1,.1a16,16,0,0,0,1.8-2.5l-.9-.4c-.2.3-.4.7-.6,1h-.5a15.73,15.73,0,0,0,1.2-1.9l-.9-.4a4.58,4.58,0,0,1-1,1.7c-.1.2-.3.3-.4.4a5.27,5.27,0,0,1,.3,1.2c.1-.1.3-.1.8-.2a3.81,3.81,0,0,1-.5.6c-.2.3-.4.5-.6.5.1.3.2.9.3,1.1a7.4,7.4,0,0,1,2.2-.4,4.33,4.33,0,0,0,.1.5l.8-.2a16.69,16.69,0,0,0-.5-1.8Z"/><polygon id="_路徑_10" data-name="&lt;路徑&gt;" class="cls-1" points="111 18.78 111.6 18.78 111.6 19.18 112.6 19.18 112.6 16.18 111.6 16.18 111.6 17.68 111 17.68 111 16.18 109.9 16.18 109.9 20.88 111 20.88 111 18.78"/><path id="_路徑_11" data-name="&lt;路徑&gt;" class="cls-1" d="M110.8,13.78a6.82,6.82,0,0,1-.5.7c-.2.3-.4.5-.6.5.1.3.2.8.3,1.1a9.29,9.29,0,0,1,2.2-.5c.1.2.1.4.2.6l.8-.3a8.27,8.27,0,0,0-.7-1.8l-.7.2c.1.2.1.4.2.6l-.9.1a15,15,0,0,0,1.5-2.5l-.8-.4c-.1.3-.3.6-.4.9h-.6a9.91,9.91,0,0,0,1.1-1.7l-.8-.4a5.72,5.72,0,0,1-1,1.7c-.1.2-.3.3-.4.4.1.3.2.8.3,1.1C109.9,13.88,110.1,13.78,110.8,13.78Z"/><path id="_路徑_12" data-name="&lt;路徑&gt;" class="cls-1" d="M108.4,17.68h-.5v-1.6h-1v2.7h1.4a2.49,2.49,0,0,1-1.5,1.3,3.11,3.11,0,0,1,.7.9,3.15,3.15,0,0,0,2-3.2v-1.6h-1.1Z"/><path id="_複合路徑_4" data-name="&lt;複合路徑&gt;" class="cls-1" d="M102.7,18.28l.2,1.1a20.69,20.69,0,0,0,2.2-.4v1.9h1.1v-8.7h.3v-1.1h-3.7v1.2h.4v6Zm1.6-6h.8v1.2h-.8Zm0,2.2h.8v1.2h-.8Zm0,2.2h.8v1.2l-.8.1Z"/><path id="_複合路徑_5" data-name="&lt;複合路徑&gt;" class="cls-1" d="M123.9,19.48h-1.2V17H115v2.5h-1.3v1.1h10.2Zm-6.7,0h-.9v-1.4h.9Zm2.1,0h-1v-1.4h1Zm2.1,0h-1v-1.4h1Z"/><path id="_複合路徑_6" data-name="&lt;複合路徑&gt;" class="cls-1" d="M118.7,17a3.87,3.87,0,0,0,1.2-1.9H122v.5c0,.1,0,.2-.2.2h-1.1a3.7,3.7,0,0,1,.5,1.1,3.66,3.66,0,0,0,1.6-.2c.4-.2.5-.5.5-1v-4.6H119v2.2a3.2,3.2,0,0,1-1.2,2.9A3.24,3.24,0,0,1,118.7,17Zm1.4-5H122v.6h-1.9Zm0,1.5H122v.7h-1.9Z"/><path id="_複合路徑_7" data-name="&lt;複合路徑&gt;" class="cls-1" d="M115.5,15.68H118v-4.6h-3.6v5.1h1.2v-.5Zm0-3.5h1.4V13h-1.4Zm0,1.7h1.4v.8h-1.4Z"/><polygon id="_路徑_13" data-name="&lt;路徑&gt;" class="cls-1" points="51.8 29.38 49.7 26.18 48.4 26.18 48.4 31.38 49.7 31.38 49.7 28.18 51.8 31.38 53 31.38 53 26.18 51.8 26.18 51.8 29.38"/><polygon id="_路徑_14" data-name="&lt;路徑&gt;" class="cls-1" points="53.5 27.18 54.9 27.18 54.9 31.38 56.2 31.38 56.2 27.18 57.6 27.18 57.6 26.18 53.5 26.18 53.5 27.18"/><path id="_路徑_15" data-name="&lt;路徑&gt;" class="cls-1" d="M61.1,29.18a1.88,1.88,0,0,1-.2.8,1,1,0,0,1-1.4,0c-.2-.2-.2-.4-.2-.8v-3H58.1v3a2.13,2.13,0,0,0,.3,1.2,2.7,2.7,0,0,0,.7.8,2,2,0,0,0,1.1.2,2,2,0,0,0,1.1-.3,2,2,0,0,0,.8-.8,2.13,2.13,0,0,0,.3-1.2v-3H61.1v3.1Z"/><path id="_路徑_16" data-name="&lt;路徑&gt;" class="cls-1" d="M66.2,28.58a6.89,6.89,0,0,0-.8-.3,1.69,1.69,0,0,0-.5-.2c-.1-.1-.2-.1-.3-.2s-.2-.2-.2-.4,0-.3.1-.3.2-.1.4-.1.3,0,.4.1a.52.52,0,0,1,.2.4h1.4a1.15,1.15,0,0,0-.6-1.1,2,2,0,0,0-1.4-.4,2,2,0,0,0-.9.2,1,1,0,0,0-.6.5,1.08,1.08,0,0,0-.2.8,1.88,1.88,0,0,0,.2.8,1.21,1.21,0,0,0,.5.5,6.89,6.89,0,0,0,.8.3c.2.1.4.1.5.2s.2.1.3.2a.37.37,0,0,1,.1.3.6.6,0,0,1-.1.4c-.1.1-.2.1-.4.1s-.3-.1-.5-.2a.52.52,0,0,1-.2-.4H63.1a1.43,1.43,0,0,0,.6,1.2,2.3,2.3,0,0,0,1.4.4,3,3,0,0,0,1-.2,1,1,0,0,0,.6-.5,1.7,1.7,0,0,0,0-1.6C66.5,28.88,66.4,28.68,66.2,28.58Z"/><polygon id="_路徑_17" data-name="&lt;路徑&gt;" class="cls-1" points="67.3 27.18 68.7 27.18 68.7 31.38 69.9 31.38 69.9 27.18 71.3 27.18 71.3 26.18 67.3 26.18 67.3 27.18"/><rect id="_路徑_18" data-name="&lt;路徑&gt;" class="cls-1" x="73.3" y="26.18" width="1.3" height="5.2"/><polygon id="_路徑_19" data-name="&lt;路徑&gt;" class="cls-1" points="78.8 29.38 76.7 26.18 75.4 26.18 75.4 31.38 76.7 31.38 76.7 28.18 78.8 31.38 80 31.38 80 26.18 78.8 26.18 78.8 29.38"/><path id="_複合路徑_8" data-name="&lt;複合路徑&gt;" class="cls-1" d="M84.3,26.48a3.19,3.19,0,0,0-1.4-.3h-2v5.2h2a2.9,2.9,0,0,0,1.4-.3,2,2,0,0,0,.9-.9,2.77,2.77,0,0,0,.3-1.3,2.5,2.5,0,0,0-.3-1.3A1.71,1.71,0,0,0,84.3,26.48Zm-.4,3.4a1.37,1.37,0,0,1-1.1.4h-.6v-3h.6a1.25,1.25,0,0,1,1.1.4,1.37,1.37,0,0,1,.4,1.1A1.82,1.82,0,0,1,83.9,29.88Z"/><path id="_路徑_20" data-name="&lt;路徑&gt;" class="cls-1" d="M89.3,29.18a1.88,1.88,0,0,1-.2.8.78.78,0,0,1-.7.3.91.91,0,0,1-.7-.3c-.2-.2-.2-.4-.2-.8v-3H86.3v3a2.13,2.13,0,0,0,.3,1.2,2.7,2.7,0,0,0,.7.8,2,2,0,0,0,1.1.2,2,2,0,0,0,1.1-.3,2,2,0,0,0,.8-.8,2.13,2.13,0,0,0,.3-1.2v-3H89.4v3.1Z"/><path id="_路徑_21" data-name="&lt;路徑&gt;" class="cls-1" d="M94.3,28.58a6.89,6.89,0,0,0-.8-.3,1.69,1.69,0,0,0-.5-.2c-.1-.1-.2-.1-.3-.2a.37.37,0,0,1-.1-.3c0-.2,0-.3.1-.3s.2-.1.4-.1.3,0,.4.1a.52.52,0,0,1,.2.4h1.4a1.15,1.15,0,0,0-.6-1.1,2,2,0,0,0-1.4-.4,2,2,0,0,0-.9.2,1,1,0,0,0-.6.5,1.08,1.08,0,0,0-.2.8,1.88,1.88,0,0,0,.2.8,1.21,1.21,0,0,0,.5.5,6.89,6.89,0,0,0,.8.3c.2.1.4.1.5.2s.2.1.3.2a.37.37,0,0,1,.1.3.6.6,0,0,1-.1.4c-.1.1-.2.1-.4.1s-.3-.1-.5-.2a.76.76,0,0,1-.2-.5H91.3a1.43,1.43,0,0,0,.6,1.2,2.3,2.3,0,0,0,1.4.4,3,3,0,0,0,1-.2,1,1,0,0,0,.6-.5,1.7,1.7,0,0,0,0-1.6A2.65,2.65,0,0,0,94.3,28.58Z"/><polygon id="_路徑_22" data-name="&lt;路徑&gt;" class="cls-1" points="95.4 27.18 96.8 27.18 96.8 31.38 98.1 31.38 98.1 27.18 99.5 27.18 99.5 26.18 95.4 26.18 95.4 27.18"/><path id="_複合路徑_9" data-name="&lt;複合路徑&gt;" class="cls-1" d="M103.7,28.78a1.69,1.69,0,0,0,.3-1,1.88,1.88,0,0,0-.2-.8c-.1-.2-.4-.4-.6-.6a3,3,0,0,0-1-.2h-2.1v5.2h1.3v-2h.3l1.1,2h1.4l-1.2-2C103.2,29.18,103.5,29,103.7,28.78Zm-1.1-.4a.76.76,0,0,1-.5.2h-.8v-1.3h.8a.68.68,0,0,1,.7.7C102.7,28.08,102.7,28.28,102.6,28.38Z"/><polygon id="_路徑_23" data-name="&lt;路徑&gt;" class="cls-1" points="106.7 28.28 105.7 26.18 104.3 26.18 106.1 29.58 106.1 31.38 107.3 31.38 107.3 29.58 109.1 26.18 107.7 26.18 106.7 28.28"/><path id="_複合路徑_10" data-name="&lt;複合路徑&gt;" class="cls-1" d="M112.6,26.18l-1.9,5.1H112l.3-.9h1.9l.3.9h1.3l-1.9-5.1Zm0,3.3.7-1.9.6,1.9Z"/><polygon id="_路徑_24" data-name="&lt;路徑&gt;" class="cls-1" points="117.6 26.18 116.4 26.18 116.4 31.38 119.3 31.38 119.3 30.38 117.6 30.38 117.6 26.18"/><polygon id="_路徑_25" data-name="&lt;路徑&gt;" class="cls-1" points="121.1 26.18 119.9 26.18 119.9 31.38 122.8 31.38 122.8 30.38 121.1 30.38 121.1 26.18"/><rect id="_路徑_26" data-name="&lt;路徑&gt;" class="cls-1" x="123.4" y="26.18" width="1.3" height="5.2"/><path id="_複合路徑_11" data-name="&lt;複合路徑&gt;" class="cls-1" d="M127,26.18l-1.9,5.1h1.3l.3-.9h1.9l.3.9h1.3l-1.9-5.1Zm.1,3.3.7-1.9.6,1.9Z"/><polygon id="_路徑_27" data-name="&lt;路徑&gt;" class="cls-1" points="134.2 29.38 132.1 26.18 130.8 26.18 130.8 31.38 132.1 31.38 132.1 28.18 134.2 31.38 135.4 31.38 135.4 26.18 134.2 26.18 134.2 29.38"/><path id="_路徑_28" data-name="&lt;路徑&gt;" class="cls-1" d="M138.6,27.28a1.45,1.45,0,0,1,.7.2.68.68,0,0,1,.4.6H141a2.19,2.19,0,0,0-.8-1.4,2.88,2.88,0,0,0-2.9-.2,2,2,0,0,0-.9.9,3.42,3.42,0,0,0,0,2.8,2,2,0,0,0,.9.9,2.77,2.77,0,0,0,1.3.3,2.54,2.54,0,0,0,1.6-.5,2.19,2.19,0,0,0,.8-1.4h-1.3a2.09,2.09,0,0,1-.4.6,1.45,1.45,0,0,1-.7.2,1,1,0,0,1-.9-.4,1.8,1.8,0,0,1-.3-1.1,2,2,0,0,1,.3-1.1A1,1,0,0,1,138.6,27.28Z"/><polygon id="_路徑_29" data-name="&lt;路徑&gt;" class="cls-1" points="145 27.18 145 26.18 141.8 26.18 141.8 31.38 145 31.38 145 30.38 143.1 30.38 143.1 29.18 144.8 29.18 144.8 28.28 143.1 28.28 143.1 27.18 145 27.18"/><g id="_群組_2" data-name="&lt;群組&gt;"><path id="_複合路徑_12" data-name="&lt;複合路徑&gt;" class="cls-1" d="M19.5,13,3.4,6.18c-.1-.1-.1-.3,0-.3l8.9-3.8v2.2a.38.38,0,0,0,.5.3l1-.4c.1-.1.2-.2.2-.3V.58a.88.88,0,0,0-1.2-.5S.5,5.28.4,5.38a1,1,0,0,0-.4.7V33a.89.89,0,0,0,.5.8l18.3,7.8c.1,0,.2.1.3.1a1.08,1.08,0,0,0,.7-.3,1.42,1.42,0,0,0,.2-.6V14A.81.81,0,0,0,19.5,13Zm-1.2,26.1a.22.22,0,0,1-.2.2l-16-6.8a.62.62,0,0,1-.4-.6V7.58a.22.22,0,0,1,.2-.2l16,6.8a.62.62,0,0,1,.4.6Z"/><path id="_路徑_30" data-name="&lt;路徑&gt;" class="cls-1" d="M22,27.38a6.84,6.84,0,0,0,2.9.6,7.17,7.17,0,0,0,7.2-7.7,7.3,7.3,0,0,0-6.7-6.8,6.47,6.47,0,0,0-3.4.6c-.1.1-.2.2-.2.3v12.7C21.8,27.18,21.9,27.28,22,27.38Z"/><path id="_路徑_31" data-name="&lt;路徑&gt;" class="cls-1" d="M41.1,8.58,24.7,1.68a.85.85,0,0,0-.7,0L14,5.88l-1.7.7-1.1.5a.21.21,0,0,0,0,.4l10.5,4.4a.45.45,0,0,0,.5,0,19.34,19.34,0,0,1,2.7-.4,9.07,9.07,0,0,1,.9,18.1,10.18,10.18,0,0,1-3.5-.3c-.2-.1-.4.1-.4.3v8.8c0,.1.1.3.2.3l2,.9c.1,0,.2.1.3.1a.37.37,0,0,0,.3-.1l16.4-6.9a.79.79,0,0,0,.5-.8V9.28A1,1,0,0,0,41.1,8.58Z"/></g></g></g></svg>