<?xml version="1.0" standalone="no"?>
<!DOCTYPE svg PUBLIC "-//W3C//DTD SVG 20010904//EN"
 "http://www.w3.org/TR/2001/REC-SVG-20010904/DTD/svg10.dtd">
<svg version="1.0" xmlns="http://www.w3.org/2000/svg"
 width="6737.000000pt" height="4334.000000pt" viewBox="0 0 6737.000000 4334.000000"
 preserveAspectRatio="xMidYMid meet">

<g transform="translate(0.000000,4334.000000) scale(0.100000,-0.100000)"
fill="#000000" stroke="none">
<path d="M27211 27520 c-65 -207 -175 -404 -299 -532 -36 -38 -63 -70 -61 -71
2 -2 31 -19 64 -37 33 -18 96 -53 140 -79 l80 -46 -122 -3 -123 -3 0 -209 0
-210 275 0 c194 0 275 -3 275 -11 0 -6 -46 -57 -103 -113 -115 -113 -227 -188
-387 -258 l-99 -42 103 -97 c56 -54 129 -130 161 -171 33 -40 62 -77 66 -81 3
-5 48 12 98 37 l91 46 0 -775 0 -775 265 0 265 0 0 60 0 60 710 0 710 0 0 -60
0 -60 280 0 280 0 0 800 0 800 -1216 0 -1217 0 84 60 c88 62 211 175 272 249
l36 43 133 -99 c73 -55 167 -128 208 -162 41 -33 78 -61 83 -61 10 0 377 320
377 329 0 6 -301 176 -440 248 l-55 28 233 3 232 2 0 210 0 210 -265 0 -266 0
3 88 3 87 218 3 217 2 0 205 0 205 -431 0 c-407 0 -431 1 -424 18 11 26 55
175 52 177 -1 1 -99 21 -217 44 -118 23 -224 44 -235 47 -18 4 -24 -9 -54
-106z m359 -680 l0 -90 -116 0 c-112 0 -116 1 -103 19 8 10 36 50 63 90 l49
71 53 0 54 0 0 -90z m1750 -1635 l0 -65 -710 0 -710 0 0 65 0 65 710 0 710 0
0 -65z m0 -510 l0 -65 -710 0 -710 0 0 65 0 65 710 0 710 0 0 -65z"/>
<path d="M35430 27538 c-124 -39 -226 -72 -228 -73 -1 -1 40 -132 93 -290 52
-158 100 -305 105 -326 6 -22 15 -39 20 -39 12 0 469 166 476 173 11 11 -215
627 -230 626 -6 0 -112 -33 -236 -71z"/>
<path d="M31514 27508 c-115 -230 -324 -525 -447 -633 -28 -25 -71 -55 -95
-66 -33 -16 -42 -25 -36 -38 35 -85 90 -237 121 -334 33 -105 40 -118 58 -114
11 3 55 14 98 26 94 25 344 60 672 96 132 14 274 29 315 34 41 5 78 6 81 2 4
-3 23 -52 44 -108 20 -57 41 -103 45 -103 13 0 444 171 453 180 5 4 -13 59
-39 121 -64 150 -361 749 -371 749 -14 0 -418 -141 -425 -148 -4 -4 19 -65 52
-135 32 -70 56 -127 52 -127 -4 -1 -95 -9 -202 -19 -107 -10 -196 -17 -198
-16 -1 1 47 65 108 141 107 134 307 420 299 428 -2 2 -112 34 -244 70 -132 37
-252 71 -268 76 -27 9 -28 7 -73 -82z"/>
<path d="M32842 26983 c4 -584 5 -611 25 -685 28 -99 55 -150 110 -209 55 -59
137 -102 241 -126 69 -16 128 -18 547 -18 449 0 583 7 605 32 4 4 2 55 -6 113
-7 58 -16 153 -20 212 -4 58 -10 111 -13 117 -5 7 -23 7 -61 0 -87 -17 -794
-24 -831 -9 -51 21 -62 59 -63 200 l-1 125 428 3 427 2 0 225 0 225 -430 0
-430 0 0 200 0 200 -266 0 -265 0 3 -607z"/>
<path d="M40585 27575 c-242 -53 -799 -118 -1284 -150 -123 -8 -226 -16 -228
-19 -3 -3 9 -40 26 -84 26 -68 53 -163 75 -265 5 -22 11 -26 29 -23 12 3 135
8 272 11 138 3 259 7 270 8 17 2 20 -5 23 -40 l3 -43 -350 0 -351 0 0 -190 0
-190 348 -2 347 -3 3 -42 3 -43 -305 0 -306 0 0 -590 0 -590 303 -2 302 -3 0
-45 0 -45 -307 -3 -308 -2 0 -185 0 -185 310 0 310 0 0 -74 c0 -41 -4 -77 -8
-80 -5 -3 -168 -15 -363 -27 -195 -12 -355 -23 -356 -23 -2 -2 57 -440 60
-442 3 -2 749 65 1162 105 l400 39 71 -74 c38 -40 92 -105 120 -143 27 -39 53
-70 57 -71 16 0 220 206 282 285 229 292 379 673 460 1165 28 173 60 471 71
658 l7 122 114 0 114 0 -6 -212 c-30 -1111 -53 -1360 -133 -1446 -44 -47 -86
-53 -278 -43 -93 5 -170 8 -172 6 -2 -2 10 -29 26 -61 50 -99 122 -351 122
-425 l0 -21 213 5 c147 4 232 10 276 21 181 46 307 177 354 366 21 84 43 257
56 435 22 291 30 517 57 1603 l6 262 -366 0 -366 0 0 375 0 375 -255 0 -255 0
0 -375 0 -375 -155 0 -155 0 0 -245 0 -244 147 -3 147 -3 -3 -70 c-9 -333 -71
-733 -151 -976 -40 -125 -154 -369 -171 -369 -5 0 -9 74 -9 175 l0 175 -317 2
-318 3 -3 48 -3 47 310 0 311 0 0 590 0 590 -311 0 -310 0 3 43 3 42 333 3
332 2 0 190 0 190 -335 0 -335 0 0 63 0 64 143 17 c148 18 422 61 469 74 l27
7 -111 198 c-62 108 -117 197 -122 196 -6 -1 -38 -7 -71 -14z m-817 -1462 l3
-53 -95 0 -96 0 0 55 0 56 93 -3 92 -3 3 -52z m662 2 l0 -55 -90 0 -90 0 0 55
0 55 90 0 90 0 0 -55z m-662 -412 l3 -53 -95 0 -96 0 0 48 c0 27 3 52 7 56 4
4 46 5 93 4 l85 -3 3 -52z m662 2 l0 -55 -90 0 -90 0 0 48 c0 27 3 52 7 55 3
4 44 7 90 7 l83 0 0 -55z m451 -872 c-38 -65 -25 -62 -301 -83 -140 -11 -272
-20 -292 -20 l-38 0 0 60 0 60 320 0 c303 0 320 -1 311 -17z"/>
<path d="M18800 27556 c-90 -32 -1098 -431 -1710 -676 -278 -111 -595 -237
-706 -280 -289 -112 -337 -139 -397 -220 -58 -80 -59 -90 -68 -530 -11 -584
-49 -950 -150 -1425 -91 -431 -252 -917 -438 -1323 -129 -281 -297 -516 -630
-884 -164 -181 -620 -633 -846 -839 -588 -536 -1290 -1110 -1960 -1604 -88
-65 -151 -115 -140 -111 11 4 179 68 373 142 1241 471 2014 645 2939 661 612
10 1114 -48 1663 -193 865 -229 1580 -598 2250 -1163 151 -127 521 -494 651
-646 507 -593 895 -1247 1196 -2015 36 -91 79 -191 96 -223 43 -83 113 -142
196 -167 65 -20 88 -20 1858 -18 l1792 3 28 21 c43 32 43 85 0 171 -47 92
-223 400 -304 531 -321 520 -755 1064 -1223 1532 -833 833 -1834 1500 -3010
2007 -1008 435 -2092 680 -3325 753 -99 6 -254 18 -345 27 -246 26 -607 23
-820 -5 -253 -34 -575 -97 -830 -162 -41 -10 -76 -18 -77 -16 -4 4 404 246
702 416 739 422 997 600 1275 879 719 721 1206 1533 1557 2591 146 442 363
1288 479 1870 45 227 114 709 114 800 0 62 -3 74 -25 95 -31 32 -79 32 -165 1z"/>
<path d="M36010 27105 l0 -385 160 0 160 0 0 -80 0 -80 315 0 315 0 0 -45 0
-45 -375 0 -375 0 0 -555 0 -555 375 0 375 0 0 -40 0 -40 -450 0 -450 0 0
-190 0 -190 450 0 450 0 0 -105 0 -105 260 0 260 0 0 105 0 105 455 0 455 0 0
190 0 190 -452 2 -453 3 -3 38 -3 37 375 0 376 0 0 555 0 555 -372 2 -373 3
-3 43 -3 42 250 0 250 0 3 78 3 77 213 3 212 2 0 385 0 385 -1200 0 -1200 0 0
-385z m1880 -95 l0 -90 -205 0 -205 0 0 55 0 55 -260 0 -260 0 0 -55 0 -55
-230 0 -230 0 0 90 0 90 695 0 695 0 0 -90z m-930 -895 l0 -45 -145 0 -145 0
0 45 0 45 145 0 145 0 0 -45z m790 0 l0 -45 -135 0 -135 0 0 38 c0 21 3 42 7
45 3 4 64 7 135 7 l128 0 0 -45z m-790 -390 l0 -45 -145 0 -145 0 0 45 0 45
145 0 145 0 0 -45z m790 0 l0 -45 -135 0 -135 0 0 45 0 45 135 0 135 0 0 -45z"/>
<path d="M28720 26610 l0 -740 735 0 735 0 0 740 0 740 -735 0 -735 0 0 -740z
m940 0 l0 -270 -220 0 -220 0 0 270 0 270 220 0 220 0 0 -270z"/>
<path d="M35010 26510 l0 -240 146 0 146 0 -6 -27 c-26 -108 -189 -627 -231
-735 -7 -17 8 -18 219 -18 217 0 226 -1 226 -19 0 -46 -136 -478 -169 -537 -3
-7 -47 -39 -98 -73 -96 -64 -268 -211 -295 -252 -15 -24 -11 -30 161 -280
l176 -257 70 142 c107 216 184 316 241 316 34 0 86 -28 223 -120 185 -124 292
-171 483 -214 211 -47 286 -51 853 -50 292 0 634 6 760 12 127 7 287 15 356
19 l127 6 6 47 c10 74 53 230 101 367 25 70 43 128 41 130 -2 2 -53 -3 -112
-11 -365 -50 -766 -77 -1265 -83 -563 -7 -745 8 -969 83 -70 23 -143 58 -220
104 -171 103 -157 83 -122 170 43 110 106 307 146 460 48 181 85 359 77 364
-3 2 -76 36 -161 76 -107 49 -161 69 -177 65 -13 -3 -23 -1 -23 5 0 5 25 94
55 197 56 189 165 578 165 588 0 3 -209 5 -465 5 l-465 0 0 -240z"/>
<path d="M31130 25728 c0 -394 -4 -568 -15 -669 -24 -232 -70 -404 -147 -552
-23 -43 -37 -82 -32 -86 5 -4 42 -33 81 -65 40 -32 122 -109 182 -172 l110
-114 36 60 c85 139 166 351 202 525 10 47 20 85 24 85 3 0 23 -56 44 -125 21
-69 42 -125 47 -125 4 0 103 72 220 160 l213 159 3 -137 c4 -184 12 -177 -195
-168 l-152 7 48 -103 c27 -57 64 -150 82 -207 l33 -104 146 6 c368 15 507 98
540 323 6 42 10 419 10 952 l0 882 -740 0 -740 0 0 -532z m970 -60 l0 -152
-52 50 c-139 132 -219 204 -226 204 -5 0 -48 -34 -97 -75 -49 -41 -93 -75 -97
-75 -10 0 -11 184 -1 193 3 4 111 7 240 7 l233 0 0 -152z m-344 -345 c64 -71
125 -137 135 -147 17 -19 20 -17 113 69 l96 87 0 -49 0 -49 -252 -128 -251
-129 7 44 c3 24 9 131 13 237 3 105 9 192 14 192 4 0 60 -57 125 -127z"/>
<path d="M32843 25178 c3 -432 8 -689 15 -718 46 -195 139 -288 332 -332 25
-5 204 -12 399 -15 478 -7 565 7 674 107 65 59 108 137 142 256 33 116 56 274
41 279 -6 2 -50 15 -98 30 -105 31 -235 85 -302 126 -26 17 -50 29 -52 27 -1
-2 -8 -51 -14 -110 -13 -134 -33 -201 -67 -227 -24 -20 -39 -21 -253 -21 -257
0 -263 2 -280 75 -5 22 -10 120 -10 218 l0 177 440 0 440 0 0 235 0 235 -440
0 -440 0 0 165 0 165 -266 0 -265 0 4 -672z"/>
<path d="M19608 23871 c-120 -26 -179 -46 -282 -97 -300 -148 -514 -412 -608
-751 -19 -68 -22 -103 -22 -278 0 -185 2 -207 26 -297 147 -541 661 -899 1218
-847 287 26 536 149 735 361 132 141 222 306 277 505 18 66 22 106 22 268 1
238 -20 336 -111 520 -147 296 -419 518 -739 601 -137 36 -386 43 -516 15z"/>
<path d="M36775 23159 c-121 -33 -226 -61 -233 -64 -9 -3 -1 -28 28 -85 22
-44 40 -82 40 -85 0 -3 -310 -5 -690 -5 l-690 0 0 -722 c0 -874 -11 -1105 -66
-1465 -41 -266 -114 -532 -197 -714 l-26 -56 97 -66 c53 -36 145 -106 204
-156 l107 -91 21 40 c71 140 153 383 204 605 71 311 134 848 137 1173 2 157 2
158 83 63 76 -90 67 -89 139 -22 l37 35 0 -412 0 -412 220 0 220 0 0 470 c0
314 3 470 10 470 6 0 49 -37 95 -81 l85 -82 0 -388 0 -389 128 0 127 -1 -59
-53 -59 -54 74 -41 74 -41 -239 0 -238 0 5 -272 c5 -285 10 -327 55 -414 28
-54 92 -109 158 -133 93 -35 202 -43 555 -39 367 5 395 9 477 68 80 58 130
152 158 300 27 139 21 132 60 70 56 -88 140 -249 169 -326 l28 -72 176 85 c97
47 191 92 209 101 17 9 32 23 32 31 0 31 -111 236 -194 360 -47 69 -123 174
-171 233 l-85 107 -136 -65 c-75 -35 -163 -76 -195 -90 -33 -15 -59 -30 -59
-34 0 -4 22 -36 48 -71 87 -116 135 -189 129 -196 -11 -10 -231 65 -322 110
-47 24 -85 40 -85 36 0 -4 -5 -43 -11 -85 -12 -84 -29 -128 -54 -138 -9 -3
-106 -6 -215 -6 -266 0 -244 -20 -249 236 -3 178 -2 196 13 191 46 -18 261
-174 338 -246 l48 -44 72 66 c40 36 114 104 163 151 l90 86 -45 41 c-52 49
-228 167 -315 213 l-60 31 598 3 597 2 0 160 0 160 -275 0 -275 0 0 50 0 50
210 0 210 0 0 125 0 125 -210 0 -210 0 0 50 0 50 210 0 210 0 0 125 0 125
-211 0 -210 0 3 43 3 42 258 3 257 2 0 150 0 150 -267 2 c-236 3 -264 5 -235
16 18 8 32 21 32 30 0 10 -25 59 -55 111 -30 51 -55 95 -55 97 0 2 149 4 330
4 l330 0 0 215 0 215 -630 0 -630 0 -41 83 c-55 110 -121 217 -134 216 -5 0
-109 -27 -230 -60z m-635 -677 c0 -12 -78 -141 -128 -211 -77 -109 -265 -321
-284 -321 -4 0 -8 122 -8 270 l0 270 210 0 c116 0 210 -3 210 -8z m605 -29
c-54 -130 -297 -493 -330 -493 -3 0 -5 24 -5 53 0 46 7 63 56 142 30 50 75
129 100 177 l44 87 -98 31 c-53 17 -99 33 -101 36 -2 2 75 4 172 4 l177 0 -15
-37z m775 33 c0 -2 -35 -16 -77 -31 -43 -15 -82 -31 -86 -35 -5 -4 12 -44 37
-89 25 -44 46 -85 46 -91 0 -6 -55 -10 -154 -10 l-155 0 43 93 c62 133 62 122
3 137 -101 25 -81 29 131 30 116 0 212 -2 212 -4z m-120 -601 l0 -45 -180 0
-180 0 0 45 0 45 180 0 180 0 0 -45z m0 -345 l0 -50 -180 0 -180 0 0 50 0 50
180 0 180 0 0 -50z m0 -350 l0 -50 -180 0 -180 0 0 50 0 50 180 0 180 0 0 -50z"/>
<path d="M29440 22091 c0 -594 -3 -1082 -7 -1084 -5 -3 -264 -51 -578 -107
-313 -56 -571 -103 -571 -104 -3 -2 83 -506 87 -510 2 -2 240 40 529 94 289
53 528 95 533 93 4 -2 7 -186 7 -409 l0 -404 265 0 265 0 0 458 0 458 194 33
c107 19 199 37 205 40 9 6 -61 487 -74 499 -4 4 -156 -19 -297 -45 l-28 -5 0
1036 0 1036 -265 0 -265 0 0 -1079z"/>
<path d="M31350 22830 l0 -340 -200 0 -200 0 0 -250 0 -250 200 0 200 0 0
-284 0 -284 -52 -12 c-29 -6 -129 -26 -221 -45 -92 -18 -169 -34 -171 -36 -2
-4 125 -501 130 -508 2 -2 167 34 288 65 l26 6 0 -344 c0 -282 -3 -348 -14
-364 -14 -18 -26 -19 -200 -16 l-186 3 19 -44 c30 -70 98 -285 116 -369 l17
-78 88 0 c125 0 283 17 368 40 197 54 284 148 312 338 5 37 10 268 10 514 l0
447 53 15 c28 8 108 29 177 46 69 17 128 34 132 38 6 6 -49 481 -56 489 -2 3
-251 -52 -288 -63 -17 -5 -18 10 -18 220 l0 226 170 0 170 0 0 250 0 250 -170
0 -170 0 0 340 0 340 -265 0 -265 0 0 -340z"/>
<path d="M33020 22920 l0 -250 -380 0 -380 0 0 -250 0 -250 380 0 380 0 -2
-187 -3 -188 -347 -3 -348 -2 0 -240 0 -240 108 -1 107 -1 -70 -22 c-58 -19
-69 -26 -67 -42 6 -35 159 -337 227 -449 36 -60 104 -160 151 -221 46 -62 84
-114 84 -117 0 -2 -64 -36 -142 -75 -193 -95 -346 -150 -625 -222 l-43 -11 56
-74 c63 -83 171 -269 205 -351 15 -35 29 -54 40 -54 22 0 283 89 394 135 122
51 331 156 436 220 l86 52 47 -34 c184 -133 474 -276 728 -358 105 -34 114
-35 123 -19 73 126 250 369 304 418 12 11 21 22 21 26 0 4 -26 13 -57 19 -174
39 -473 156 -646 253 l-88 50 31 36 c240 285 363 484 484 782 49 122 136 387
136 417 0 6 -77 42 -171 79 l-172 67 -66 -12 c-40 -8 -130 -11 -226 -9 l-160
3 -3 188 -2 187 400 0 400 0 0 250 0 250 -400 0 -400 0 0 250 0 250 -265 0
-265 0 0 -250z m624 -1662 c-68 -135 -181 -293 -307 -432 l-54 -60 -39 44
c-54 59 -118 142 -174 225 -56 83 -150 248 -150 264 0 8 106 11 375 11 l375 0
-26 -52z"/>
<path d="M43550 22830 l0 -340 -200 0 -200 0 0 -250 0 -250 198 -2 197 -3 3
-278 2 -277 -22 -10 c-26 -11 -371 -80 -399 -80 -10 0 -20 -4 -23 -8 -5 -8
118 -500 128 -509 2 -3 73 11 156 31 83 20 153 36 155 36 3 0 5 -153 5 -339 0
-319 -1 -340 -19 -362 -19 -24 -21 -24 -201 -21 -172 3 -182 2 -175 -15 30
-67 115 -337 126 -400 l14 -76 160 7 c392 16 557 108 607 338 7 33 13 233 17
527 l6 474 175 45 c96 25 177 46 180 49 5 5 -51 468 -59 482 -6 8 -199 -29
-283 -55 -17 -5 -18 10 -18 220 l0 226 170 0 170 0 0 250 0 250 -170 0 -170 0
0 340 0 340 -265 0 -265 0 0 -340z"/>
<path d="M45210 22920 l0 -250 -375 0 -375 0 0 -250 0 -250 375 0 375 0 0
-190 0 -190 -345 0 -345 0 0 -240 0 -240 103 0 c107 -1 111 -8 19 -31 -65 -16
-65 -11 17 -183 100 -212 231 -426 350 -573 l50 -62 -42 -25 c-151 -89 -390
-185 -612 -245 -82 -23 -150 -42 -151 -44 -2 -2 18 -32 45 -68 62 -83 139
-212 192 -321 23 -49 48 -88 55 -88 27 0 283 89 404 140 153 64 271 123 401
200 56 33 105 60 110 60 6 0 49 -27 98 -59 122 -82 267 -161 413 -225 155 -68
381 -143 385 -129 18 53 195 302 282 395 29 32 52 60 50 61 -2 2 -38 11 -79
22 -108 26 -313 97 -428 148 -110 48 -268 132 -277 147 -3 5 23 42 57 82 191
219 335 458 455 756 49 122 138 401 130 408 -1 2 -79 33 -172 70 l-170 66 -61
-11 c-34 -6 -136 -11 -228 -11 l-166 0 0 190 0 190 395 0 395 0 0 250 0 250
-395 0 -395 0 0 250 0 250 -270 0 -270 0 0 -250z m650 -1617 c0 -14 -80 -156
-128 -228 -52 -77 -170 -221 -224 -273 l-36 -34 -72 89 c-89 107 -199 271
-251 376 l-39 77 375 0 c206 0 375 -3 375 -7z"/>
<path d="M48678 22743 l-3 -428 -227 -3 -228 -2 0 -39 0 -39 -201 65 c-111 36
-205 61 -209 56 -4 -4 -27 -52 -50 -106 -114 -263 -335 -588 -545 -803 l-81
-82 62 -99 c66 -106 182 -317 204 -371 l13 -33 74 73 73 72 0 -677 0 -677 250
0 250 0 0 432 0 432 46 -44 c56 -56 112 -127 157 -203 l35 -58 45 52 c140 160
224 420 256 789 6 63 13 224 17 358 l7 242 -187 0 -186 0 0 -142 c-1 -337 -27
-604 -75 -755 -21 -68 -78 -179 -106 -207 -5 -6 -9 217 -9 587 l0 596 53 98
c30 54 65 121 78 148 l24 50 3 -102 3 -103 227 -2 227 -3 3 -1072 2 -1073 230
0 230 0 0 1075 0 1075 255 0 255 0 0 -155 0 -155 130 0 130 0 0 -644 c0 -505
-3 -646 -12 -653 -7 -4 -91 -6 -187 -4 -165 2 -173 1 -166 -16 50 -120 110
-335 130 -467 l6 -39 147 6 c229 10 339 37 443 106 55 37 106 108 131 181 9
25 14 242 18 780 l5 745 133 3 132 3 0 239 0 240 -510 0 -510 0 0 160 0 160
-265 0 -265 0 0 430 0 430 -230 0 -230 0 -2 -427z"/>
<path d="M47750 23113 c-85 -161 -262 -386 -433 -549 l-115 -109 30 -35 c35
-42 174 -246 213 -313 15 -26 31 -47 36 -45 5 2 51 40 103 86 101 90 261 263
376 407 122 153 311 429 299 438 -9 7 -461 167 -472 167 -7 0 -23 -21 -37 -47z"/>
<path d="M52935 23113 c-59 -157 -255 -489 -342 -577 -37 -38 -90 -76 -105
-76 -5 0 -8 23 -8 50 l0 50 45 0 45 0 0 240 0 240 -635 0 -635 0 0 -240 0
-240 55 0 55 0 -2 -967 -3 -968 -82 -9 c-70 -7 -83 -12 -83 -27 0 -20 90 -442
95 -448 2 -2 145 23 317 55 172 32 330 60 351 62 l37 4 0 -306 0 -306 220 0
220 0 2 1048 3 1047 37 -150 c20 -82 42 -180 49 -217 7 -38 15 -68 18 -68 3 0
30 9 58 20 29 11 103 29 165 40 107 19 474 70 501 70 12 0 37 -96 37 -139 0
-7 -36 -11 -115 -11 l-115 0 -2 -252 -3 -253 -47 -3 -48 -3 0 255 0 256 -210
0 -210 0 0 -475 0 -475 205 0 c113 0 205 -4 205 -9 0 -4 -27 -37 -59 -73 -71
-77 -178 -153 -295 -209 -47 -23 -86 -45 -86 -48 0 -4 14 -20 31 -37 42 -39
174 -216 207 -275 32 -57 30 -57 147 6 287 155 465 369 549 657 40 139 47 215
53 585 l6 352 -89 3 -89 3 130 39 c72 21 135 41 142 45 8 4 0 52 -32 176 -45
176 -120 433 -128 441 -5 5 -285 -61 -294 -70 -3 -3 4 -38 16 -78 11 -40 21
-76 21 -79 0 -3 -39 -9 -87 -13 -49 -4 -106 -10 -128 -13 l-40 -6 71 79 c39
43 107 124 150 179 132 167 364 507 364 533 0 6 -75 50 -167 98 -134 70 -168
85 -175 73 -5 -8 -49 -83 -99 -166 l-89 -153 -51 0 c-57 0 -59 -7 18 96 108
148 313 487 313 520 0 8 -344 164 -363 164 -2 0 -12 -21 -22 -47z m-900 -713
l0 -155 -97 -3 -98 -3 0 161 0 161 98 -3 97 -3 0 -155z m505 -155 c21 -82 44
-175 50 -206 l11 -57 47 18 c26 10 67 21 91 25 l45 7 -41 -48 c-88 -104 -216
-214 -250 -214 -10 0 -13 72 -12 343 0 230 4 332 10 312 5 -16 27 -97 49 -180z
m-505 -595 l0 -155 -97 -3 -98 -3 0 161 0 161 98 -3 97 -3 0 -155z m5 -759 l0
-169 -27 -6 c-16 -3 -48 -8 -73 -11 -25 -3 -57 -8 -72 -11 l-28 -6 0 186 0
186 100 0 100 0 0 -169z"/>
<path d="M27955 23098 c-237 -86 -642 -189 -935 -238 -74 -12 -136 -23 -137
-24 -2 -1 13 -39 32 -84 32 -77 87 -243 100 -305 5 -25 8 -27 43 -22 198 26
271 36 295 41 l27 6 0 -171 0 -171 -260 0 -260 0 0 -250 0 -250 225 0 c124 0
225 -2 225 -4 0 -13 -107 -251 -165 -366 -86 -172 -180 -329 -266 -443 l-67
-90 30 -51 c49 -83 145 -281 180 -372 17 -46 35 -84 39 -84 16 0 140 206 226
378 l93 183 0 -565 0 -566 260 0 260 0 0 675 c0 371 4 675 9 675 4 0 39 -63
77 -140 38 -76 71 -139 74 -139 7 -1 300 405 300 414 0 12 -119 142 -292 321
-87 89 -158 164 -158 168 0 3 101 6 225 6 l225 0 0 26 c0 25 2 24 62 -28 151
-130 415 -410 479 -507 l15 -24 180 167 c98 92 179 174 179 181 0 24 -114 151
-235 262 -103 95 -297 259 -326 276 -7 4 -84 -57 -180 -144 l-169 -150 -3 220
-2 221 -230 0 -230 0 0 219 0 219 127 31 c162 41 345 100 341 111 -10 27 -285
429 -293 429 -5 0 -59 -19 -120 -41z"/>
<path d="M53990 23039 c-37 -90 -153 -294 -226 -396 -67 -94 -131 -161 -177
-185 -32 -16 -38 -23 -33 -41 4 -12 29 -107 55 -210 27 -103 51 -188 55 -188
3 0 28 7 55 15 63 18 200 40 207 33 19 -19 -232 -317 -268 -317 -40 -1 -39
-13 6 -191 24 -96 47 -195 51 -221 l7 -48 -36 0 -36 0 0 -815 0 -815 230 0
230 0 0 341 0 340 53 -3 52 -3 3 -57 3 -58 214 0 215 0 0 525 0 525 -215 0
-215 0 -2 -237 -3 -238 -52 -3 -53 -3 0 250 0 251 -192 0 -193 1 35 19 c20 10
78 30 130 44 120 32 549 118 559 112 4 -3 16 -40 26 -83 11 -43 20 -80 22 -82
3 -5 285 108 297 120 17 15 -186 609 -208 609 -17 0 -260 -81 -270 -90 -4 -5
2 -38 14 -74 12 -36 19 -69 16 -74 -6 -10 -184 -37 -192 -30 -2 3 11 25 29 49
99 130 248 370 370 593 l77 140 -167 87 -167 87 -74 -153 -75 -153 -68 -4
c-38 -2 -69 -2 -69 0 0 1 36 53 79 115 79 112 155 234 224 358 l36 65 -57 31
c-31 17 -105 56 -163 87 l-105 56 -34 -81z"/>
<path d="M57057 22543 c-4 -566 -6 -585 -71 -781 -27 -81 -102 -222 -136 -257
-20 -19 -20 -15 -20 738 l0 757 -655 0 -655 0 0 -880 0 -880 245 0 245 0 0 85
0 85 378 0 377 -1 -40 -35 -40 -36 30 -21 c63 -46 203 -168 270 -236 l69 -71
-652 0 -652 0 0 -400 0 -400 -220 0 -220 0 0 -230 0 -230 1750 0 1750 0 0 230
0 230 -202 2 -203 3 -3 398 -2 397 -661 0 -661 0 56 51 c119 109 250 322 308
500 l22 69 294 0 294 0 -4 -61 c-6 -89 -7 -89 -216 -89 -95 0 -172 -3 -170 -7
2 -5 29 -60 60 -123 31 -63 70 -155 87 -205 l30 -90 147 2 c381 5 551 106 583
346 7 49 11 373 11 868 l0 789 -759 0 -759 0 -5 -517z m988 32 l0 -70 -247 -3
-248 -2 0 75 0 75 248 -2 247 -3 0 -70z m-1697 -77 l-3 -93 -167 -3 -168 -2 0
95 0 95 170 0 171 0 -3 -92z m1697 -428 l0 -75 -255 0 -255 0 4 70 c2 39 5 73
8 78 2 4 115 6 251 5 l247 -3 0 -75z m-1695 -155 l0 -95 -170 0 -170 0 0 95 0
95 170 0 170 0 0 -95z m110 -1510 l0 -195 -105 0 -105 0 0 195 0 195 105 0
105 0 0 -195z m708 -2 l2 -193 -110 0 -110 0 0 188 c0 104 3 192 7 196 4 4 52
5 107 4 l101 -3 3 -192z m707 2 l0 -190 -107 -3 -108 -3 0 196 0 196 108 -3
107 -3 0 -190z"/>
<path d="M49325 22929 c-82 -43 -154 -80 -160 -82 -5 -2 26 -63 69 -135 42
-73 100 -179 127 -237 28 -58 53 -105 55 -105 3 0 74 38 158 85 84 47 156 85
159 85 4 0 7 -25 7 -55 l0 -55 445 0 445 0 0 235 0 235 -445 0 -445 0 0 -157
0 -158 -59 107 c-52 93 -198 320 -204 317 -1 -1 -69 -37 -152 -80z"/>
<path d="M28662 22812 l-173 -147 112 -105 c132 -123 269 -274 352 -385 32
-44 63 -81 68 -83 4 -2 91 70 193 160 l184 162 -31 45 c-65 92 -495 502 -525
501 -4 -1 -85 -67 -180 -148z"/>
<path d="M39447 22028 c-3 -758 -7 -912 -21 -1017 -58 -439 -170 -741 -359
-973 l-47 -57 59 -40 c93 -64 210 -159 292 -238 l77 -74 55 68 c182 227 313
527 391 899 l22 109 332 3 332 2 0 -500 0 -500 270 0 270 0 2 498 3 497 328 3
327 2 0 -240 0 -241 -26 -26 -25 -25 -263 4 -263 3 29 -65 c38 -83 113 -308
128 -382 l11 -58 177 0 c414 1 630 75 712 245 57 117 54 40 57 1578 l4 1417
-1435 0 -1435 0 -4 -892z m1133 217 l0 -165 -300 0 -300 0 0 165 0 165 300 0
300 0 0 -165z m1200 0 l0 -165 -330 0 -330 0 0 165 0 165 330 0 330 0 0 -165z
m-1202 -847 l-3 -183 -299 0 -299 0 2 174 c1 96 4 179 7 183 3 4 138 8 300 8
l294 0 -2 -182z m1202 -3 l0 -185 -327 2 -328 3 -3 170 c-1 93 0 175 2 182 4
10 75 13 331 13 l325 0 0 -185z"/>
<path d="M49220 21158 c0 -271 5 -523 10 -560 24 -162 77 -237 197 -275 66
-21 263 -29 337 -13 55 11 58 13 53 38 -3 15 -11 96 -18 180 l-13 154 -30 -6
c-17 -4 -57 -9 -88 -13 -56 -6 -58 -5 -68 21 -6 17 -10 199 -10 497 l0 469
-185 0 -185 0 0 -492z"/>
<path d="M35872 20483 c-57 -179 -151 -346 -260 -464 -30 -33 -53 -61 -51 -63
2 -1 94 -59 204 -129 l199 -126 25 22 c74 68 191 259 256 417 39 97 94 289 85
295 -16 10 -404 145 -416 145 -6 0 -25 -44 -42 -97z"/>
<path d="M14510 19720 c-1154 -65 -2314 -392 -3274 -924 -953 -528 -1739
-1261 -2375 -2213 -102 -153 -131 -210 -131 -260 0 -58 31 -82 117 -94 105
-13 3704 -12 3758 2 63 16 116 66 248 238 400 516 710 808 1207 1136 615 406
1250 642 1970 732 182 22 794 26 985 5 751 -82 1453 -294 1984 -600 132 -76
168 -85 201 -52 49 49 41 67 -135 305 -352 477 -815 849 -1410 1136 -547 263
-1263 463 -1969 549 -316 38 -867 57 -1176 40z"/>
<path d="M31862 18599 c-64 -32 -92 -79 -92 -155 0 -113 72 -174 206 -174 105
0 171 45 195 132 22 83 -13 158 -92 198 -54 28 -159 27 -217 -1z"/>
<path d="M30690 17855 l0 -655 170 0 170 0 0 655 0 655 -170 0 -170 0 0 -655z"/>
<path d="M31250 17855 l0 -655 165 0 165 0 0 655 0 655 -165 0 -165 0 0 -655z"/>
<path d="M47170 17855 l0 -655 164 0 164 0 4 268 c3 228 6 273 21 307 24 53
44 74 92 96 81 37 170 15 210 -52 19 -32 20 -55 23 -326 l3 -293 170 0 169 0
0 303 c0 323 -6 389 -46 474 -68 144 -231 219 -418 192 -70 -10 -176 -50 -197
-75 -6 -8 -15 -14 -20 -14 -5 0 -9 97 -9 215 l0 215 -165 0 -165 0 0 -655z"/>
<path d="M50830 17855 l0 -655 170 0 170 0 0 655 0 655 -170 0 -170 0 0 -655z"/>
<path d="M58470 18299 l0 -211 -22 16 c-112 82 -302 93 -446 26 -87 -40 -133
-80 -181 -151 -60 -90 -83 -172 -83 -299 0 -127 23 -209 83 -300 92 -137 259
-212 432 -195 86 8 142 28 189 65 20 17 39 30 42 30 3 0 6 -18 6 -40 l0 -40
160 0 160 0 0 655 0 655 -170 0 -170 0 0 -211z m-97 -417 c81 -47 121 -153 99
-259 -41 -195 -286 -235 -368 -60 -47 102 -21 252 53 305 62 44 155 50 216 14z"/>
<path d="M37591 18445 c-144 -32 -266 -117 -318 -224 -25 -50 -28 -67 -28
-161 0 -98 2 -109 30 -159 58 -105 148 -153 400 -216 95 -24 184 -49 197 -55
70 -37 88 -91 44 -135 -79 -78 -367 -51 -544 51 l-42 25 -19 -43 c-10 -24 -35
-80 -55 -125 -20 -45 -36 -86 -36 -92 0 -17 138 -78 227 -100 253 -65 515 -42
669 57 71 46 109 88 143 162 22 46 26 69 26 145 0 79 -4 97 -28 147 -54 110
-158 168 -398 224 -230 53 -269 74 -269 142 0 114 239 136 461 43 40 -17 76
-27 80 -23 4 4 30 61 57 127 l51 120 -69 33 c-99 48 -228 72 -385 71 -71 0
-159 -7 -194 -14z"/>
<path d="M26970 17820 l0 -620 175 0 175 0 0 620 0 620 -175 0 -175 0 0 -620z"/>
<path d="M43830 18300 l0 -140 195 0 195 0 0 -480 0 -480 175 0 175 0 0 480 0
480 190 0 190 0 0 140 0 140 -560 0 -560 0 0 -140z"/>
<path d="M28830 18245 l0 -125 -70 0 -70 0 0 -125 0 -125 69 0 69 0 4 -217 c3
-216 3 -219 32 -281 32 -70 86 -124 152 -153 69 -31 191 -44 283 -31 80 11
151 38 151 56 0 9 -70 216 -76 224 -1 2 -25 -4 -52 -13 -42 -14 -57 -15 -87
-5 -58 19 -65 44 -65 245 l0 175 110 0 110 0 0 125 0 125 -110 0 -110 0 0 125
0 125 -170 0 -170 0 0 -125z"/>
<path d="M36018 18248 l-3 -123 -67 -3 -68 -3 0 -124 0 -125 69 0 70 0 3 -222
c3 -209 4 -226 27 -275 27 -61 94 -126 155 -153 61 -28 178 -43 260 -35 71 7
176 40 176 55 0 12 -72 214 -79 222 -4 4 -26 0 -51 -8 -36 -13 -52 -13 -83 -4
-65 19 -72 40 -75 242 l-4 178 111 0 111 0 0 125 0 124 -107 3 -108 3 -3 123
-3 122 -164 0 -164 0 -3 -122z"/>
<path d="M41698 18248 l-3 -123 -67 -3 -68 -3 0 -124 0 -125 69 0 70 0 3 -222
c3 -208 5 -226 26 -273 30 -65 93 -129 153 -155 75 -32 196 -46 284 -32 74 12
155 38 155 51 0 4 -18 57 -39 117 -25 70 -44 108 -53 107 -7 -1 -32 -7 -55
-14 -36 -10 -47 -9 -80 7 -54 27 -62 58 -62 252 l-1 162 110 0 110 0 0 125 0
124 -107 3 -108 3 -3 123 -3 122 -164 0 -164 0 -3 -122z"/>
<path d="M28111 18170 c-73 -11 -134 -36 -187 -76 l-44 -34 0 50 0 50 -160 0
-160 0 0 -480 0 -480 164 0 164 0 4 268 c3 227 6 273 21 307 24 53 44 74 92
96 86 40 174 15 213 -61 21 -43 22 -53 22 -327 l0 -283 171 0 170 0 -3 338
c-4 373 -8 396 -71 488 -76 110 -234 168 -396 144z"/>
<path d="M29945 18170 c-238 -28 -420 -200 -444 -419 -31 -296 142 -513 449
-561 182 -28 373 16 485 113 l39 34 -90 93 -90 93 -41 -27 c-104 -69 -243 -74
-334 -13 -32 21 -79 80 -79 98 0 5 155 9 344 9 l344 0 7 40 c15 90 -20 244
-75 330 -99 154 -299 236 -515 210z m161 -251 c38 -12 78 -53 98 -101 9 -21
16 -40 16 -43 0 -3 -88 -5 -196 -5 l-195 0 7 23 c36 118 139 166 270 126z"/>
<path d="M32697 18170 c-145 -19 -269 -99 -341 -222 -44 -76 -59 -150 -54
-264 4 -91 8 -110 40 -176 79 -166 232 -258 428 -258 109 0 194 28 258 84 l22
19 0 -49 c0 -93 -58 -169 -149 -194 -53 -15 -168 -12 -236 5 -33 8 -90 30
-127 49 l-68 34 -60 -115 c-32 -64 -57 -119 -55 -123 10 -16 139 -72 212 -92
109 -30 387 -33 478 -5 185 57 291 171 330 352 12 56 15 160 15 508 l0 437
-160 0 -160 0 0 -56 0 -56 -31 32 c-47 46 -121 79 -202 90 -39 5 -74 9 -77 8
-3 0 -31 -4 -63 -8z m219 -275 c135 -40 186 -200 97 -306 -95 -112 -312 -80
-362 54 -23 60 -6 153 37 200 30 34 101 63 158 66 11 1 43 -6 70 -14z"/>
<path d="M33988 18169 c-189 -25 -345 -142 -409 -307 -31 -79 -38 -236 -14
-318 48 -168 181 -291 368 -341 88 -24 282 -23 362 1 79 24 141 56 190 99 l40
36 -91 91 -91 92 -41 -27 c-103 -68 -242 -73 -333 -12 -32 21 -79 80 -79 98 0
5 155 9 344 9 389 0 356 -8 356 88 -1 236 -142 424 -358 476 -80 20 -166 25
-244 15z m168 -250 c49 -15 114 -94 114 -140 0 -5 -81 -9 -196 -9 l-195 0 6
23 c36 116 142 166 271 126z"/>
<path d="M35299 18170 c-54 -7 -158 -50 -206 -86 -23 -16 -23 -16 -23 30 l0
46 -160 0 -160 0 0 -480 0 -480 164 0 165 0 3 273 c3 256 4 274 24 312 27 49
49 70 97 90 49 20 93 19 143 -5 75 -37 79 -52 82 -382 l3 -288 169 0 170 0 0
303 c0 327 -8 394 -53 484 -30 59 -102 128 -161 154 -37 16 -162 41 -191 37
-5 0 -35 -4 -66 -8z"/>
<path d="M38964 18170 c-73 -11 -117 -27 -163 -61 -23 -16 -43 -29 -46 -29 -3
0 -5 18 -5 40 l0 40 -160 0 -160 0 0 -655 0 -655 170 0 170 0 0 210 c0 194 5
232 26 199 15 -26 128 -68 197 -74 307 -28 538 213 514 539 -22 296 -255 488
-543 446z m58 -270 c143 -40 196 -257 92 -378 -86 -101 -238 -91 -311 19 -32
48 -42 154 -23 226 29 103 137 162 242 133z"/>
<path d="M40060 18170 c-185 -23 -330 -121 -408 -279 l-37 -75 0 -136 0 -136
38 -78 c64 -129 174 -218 322 -262 74 -22 247 -25 325 -5 234 57 390 249 390
478 0 320 -275 535 -630 493z m143 -271 c58 -16 114 -72 132 -132 41 -139 -17
-273 -133 -308 -86 -25 -189 19 -227 97 -24 50 -31 152 -14 211 28 103 136
162 242 132z"/>
<path d="M41403 18169 c-73 -9 -139 -36 -194 -80 l-39 -31 0 51 0 51 -160 0
-160 0 0 -480 0 -480 165 0 165 0 0 233 c0 127 5 252 11 277 25 111 98 164
227 165 l72 0 0 153 c0 116 -3 152 -12 151 -7 -1 -41 -5 -75 -10z"/>
<path d="M42763 18170 c-170 -18 -302 -96 -351 -209 -24 -54 -21 -175 5 -226
53 -101 133 -139 364 -175 64 -10 129 -24 145 -31 38 -19 39 -55 2 -82 -57
-43 -289 -18 -410 44 -22 11 -42 19 -44 17 -1 -2 -26 -55 -53 -117 l-51 -112
54 -24 c156 -69 385 -91 561 -53 118 25 224 98 265 182 27 56 28 173 1 232
-23 51 -90 108 -155 133 -28 10 -110 29 -181 41 -143 23 -198 44 -203 76 -11
73 183 92 345 33 32 -11 65 -23 73 -25 13 -4 58 85 105 209 13 31 -165 81
-325 90 -41 3 -107 1 -147 -3z"/>
<path d="M45350 18170 c-282 -34 -473 -266 -445 -540 22 -208 150 -356 365
-421 61 -19 98 -23 195 -23 174 0 279 33 378 117 l38 32 -89 95 -89 95 -41
-28 c-118 -83 -286 -75 -371 18 -72 78 -86 75 303 75 l343 0 6 45 c11 77 -10
192 -48 273 -90 191 -300 291 -545 262z m130 -241 c73 -17 122 -63 144 -136
l7 -23 -195 0 c-136 0 -196 3 -196 11 0 22 32 77 60 104 16 15 51 34 77 41 59
16 50 15 103 3z"/>
<path d="M46540 18173 c-144 -14 -262 -61 -347 -140 -203 -186 -202 -526 2
-711 231 -210 679 -176 816 62 16 28 29 54 29 58 0 5 -58 37 -129 72 l-129 65
-24 -34 c-104 -147 -311 -116 -362 55 -20 67 -20 93 0 161 22 73 74 123 146
139 81 18 130 1 196 -66 l53 -55 117 62 c64 33 121 65 125 69 10 9 -14 60 -52
109 -36 48 -133 108 -211 131 -67 19 -168 29 -230 23z"/>
<path d="M48951 18170 c-73 -11 -134 -36 -187 -76 l-44 -34 0 50 0 50 -160 0
-160 0 0 -480 0 -480 170 0 170 0 0 268 c0 260 1 268 24 318 32 70 80 99 163
99 73 0 107 -20 138 -81 18 -36 20 -63 23 -321 l4 -283 164 0 165 0 -3 348 -3
347 -28 60 c-37 80 -71 122 -125 156 -83 53 -201 75 -311 59z"/>
<path d="M50042 18170 c-222 -30 -397 -177 -441 -371 -6 -24 -11 -78 -11 -119
0 -145 40 -241 139 -341 101 -101 247 -158 401 -158 194 0 379 93 471 237 92
146 93 379 1 522 -112 173 -327 261 -560 230z m194 -295 c31 -18 50 -39 70
-80 24 -49 26 -64 22 -130 -4 -60 -11 -84 -34 -121 -81 -131 -269 -119 -341
20 -21 41 -28 141 -13 195 14 54 72 117 125 137 52 19 117 11 171 -21z"/>
<path d="M51785 18170 c-263 -32 -437 -201 -460 -447 -23 -237 127 -448 370
-519 75 -22 247 -25 325 -5 263 66 422 297 382 559 -43 276 -303 450 -617 412z
m140 -271 c56 -16 109 -73 129 -139 20 -67 20 -93 1 -158 -44 -148 -207 -199
-320 -101 -94 83 -91 288 6 362 57 42 117 54 184 36z"/>
<path d="M52900 18169 c-115 -17 -200 -60 -273 -138 -166 -177 -163 -476 6
-645 90 -91 206 -136 347 -136 94 0 162 19 231 65 l52 36 -6 -55 c-13 -132
-97 -196 -256 -196 -88 0 -181 23 -258 64 -45 24 -65 30 -72 22 -5 -6 -32 -58
-60 -114 -39 -77 -49 -107 -41 -117 16 -20 121 -63 207 -86 110 -29 311 -37
420 -16 164 31 280 112 342 238 54 111 60 174 61 647 l0 422 -160 0 -160 0 0
-50 c0 -27 -3 -50 -6 -50 -3 0 -24 16 -47 35 -74 63 -203 93 -327 74z m215
-270 c56 -14 120 -69 135 -115 18 -55 8 -136 -23 -182 -70 -106 -264 -111
-342 -8 -80 104 -30 262 96 301 55 17 79 18 134 4z"/>
<path d="M55743 18170 c-40 -4 -96 -13 -125 -20 -66 -16 -198 -75 -198 -90 0
-8 96 -207 105 -218 1 -1 31 11 66 28 169 78 342 58 385 -46 8 -19 14 -37 14
-42 0 -5 -71 -12 -157 -15 -174 -6 -245 -18 -313 -52 -101 -51 -144 -121 -144
-235 -1 -91 24 -149 88 -208 66 -61 140 -85 266 -86 94 -1 111 2 163 26 31 15
73 44 92 65 l35 38 0 -57 0 -58 155 0 155 0 0 298 c0 336 -9 400 -62 490 -69
113 -192 173 -378 185 -41 2 -108 1 -147 -3z m247 -629 c0 -85 -67 -141 -167
-141 -66 0 -110 28 -119 75 -4 25 -1 42 11 61 26 40 69 53 178 54 l97 0 0 -49z"/>
<path d="M57087 18169 c-70 -10 -135 -38 -188 -80 l-39 -31 0 51 0 51 -160 0
-160 0 0 -480 0 -480 169 0 170 0 3 278 c3 273 3 278 28 320 35 61 80 87 157
87 73 0 107 -20 138 -81 18 -36 20 -62 23 -321 l3 -283 165 0 165 0 -3 348
c-3 335 -4 349 -26 403 -48 120 -158 201 -294 219 -40 5 -77 9 -83 8 -5 0 -36
-4 -68 -9z"/>
<path d="M31800 17680 l0 -480 170 0 170 0 0 480 0 480 -170 0 -170 0 0 -480z"/>
<path d="M53690 18154 c0 -4 90 -221 201 -483 220 -519 216 -506 152 -544 -46
-27 -114 -24 -176 7 -28 14 -52 24 -53 23 -1 -1 -27 -53 -59 -116 -54 -109
-56 -115 -39 -129 85 -64 269 -90 399 -57 110 29 200 108 260 225 13 26 112
260 220 521 108 261 205 493 215 517 l19 42 -163 0 -162 0 -114 -282 c-62
-156 -116 -286 -119 -290 -3 -4 -58 123 -121 282 l-115 290 -172 0 c-95 0
-173 -3 -173 -6z"/>
<path d="M30786 16646 c-64 -24 -98 -65 -104 -127 -9 -96 48 -157 156 -166 46
-4 65 0 101 19 63 33 85 66 85 132 1 61 -20 99 -70 128 -42 25 -121 31 -168
14z"/>
<path d="M33786 16646 c-64 -24 -98 -65 -104 -127 -9 -96 48 -157 156 -166 46
-4 65 0 101 19 63 33 85 66 85 132 1 61 -20 99 -70 128 -42 25 -121 31 -168
14z"/>
<path d="M50701 16650 c-46 -11 -83 -40 -103 -81 -81 -158 150 -296 285 -170
36 34 41 44 45 94 3 45 0 62 -17 90 -35 57 -130 87 -210 67z"/>
<path d="M54695 16653 c-84 -22 -125 -71 -125 -149 0 -92 53 -142 159 -151
108 -9 186 58 184 160 -1 55 -22 91 -69 119 -31 18 -116 30 -149 21z"/>
<path d="M30240 16000 l0 -560 140 0 140 0 0 560 0 560 -140 0 -140 0 0 -560z"/>
<path d="M38820 16380 l0 -179 -35 24 c-59 39 -99 48 -208 43 -87 -3 -110 -8
-159 -33 -77 -38 -140 -102 -180 -183 -32 -65 -33 -70 -33 -197 0 -125 1 -132
32 -197 40 -86 106 -151 191 -191 61 -29 76 -31 167 -32 107 0 172 19 222 67
l23 21 0 -41 0 -42 135 0 135 0 0 560 0 560 -145 0 -145 0 0 -180z m-75 -359
c110 -64 112 -253 3 -334 -14 -11 -48 -22 -75 -24 -131 -12 -215 117 -173 267
11 41 61 93 105 108 38 14 101 6 140 -17z"/>
<path d="M47600 16380 l0 -179 -52 32 c-50 31 -53 32 -172 32 -114 0 -125 -2
-181 -29 -120 -59 -195 -167 -216 -309 -29 -196 58 -382 215 -456 127 -59 275
-54 376 14 l50 34 0 -40 0 -39 135 0 135 0 0 560 0 560 -145 0 -145 0 0 -180z
m-75 -359 c117 -68 101 -296 -24 -348 -45 -19 -124 -12 -159 14 -72 53 -98
183 -54 269 44 86 151 116 237 65z"/>
<path d="M53650 16000 l0 -560 145 0 145 0 0 560 0 560 -145 0 -145 0 0 -560z"/>
<path d="M54130 16000 l0 -560 140 0 140 0 0 560 0 560 -140 0 -140 0 0 -560z"/>
<path d="M27296 16468 c-7 -18 -111 -253 -230 -522 -119 -269 -216 -493 -216
-498 0 -5 68 -7 151 -6 l151 3 41 103 40 102 223 0 222 0 42 -105 42 -105 154
0 c85 0 154 3 154 7 0 3 -104 242 -232 530 l-231 523 -148 0 -149 0 -14 -32z
m209 -385 c26 -65 56 -139 66 -165 l19 -48 -134 0 -134 0 66 165 c36 91 67
165 68 165 1 0 23 -53 49 -117z"/>
<path d="M36690 15970 l0 -530 145 0 145 0 0 530 0 530 -145 0 -145 0 0 -530z"/>
<path d="M44321 16483 c-8 -15 -387 -873 -442 -1000 l-18 -43 153 0 154 0 42
105 42 105 222 0 221 0 42 -102 41 -103 157 -3 c98 -1 156 1 153 7 -1 6 -106
244 -233 530 l-230 521 -147 0 c-130 0 -148 -2 -157 -17z m227 -465 l60 -148
-134 0 -134 0 19 48 c102 257 115 285 122 266 4 -10 34 -85 67 -166z"/>
<path d="M52811 16478 c-5 -13 -107 -243 -226 -513 -120 -269 -220 -498 -222
-508 -5 -16 5 -17 148 -15 l153 3 41 102 40 103 221 0 221 0 43 -105 43 -105
155 0 c142 0 154 1 149 18 -2 9 -105 242 -227 517 -122 275 -224 506 -227 513
-4 9 -44 12 -154 12 -146 0 -150 -1 -158 -22z m220 -434 c33 -82 63 -155 66
-161 4 -10 -25 -13 -126 -13 -72 0 -131 3 -131 7 0 11 125 322 128 319 1 -2
30 -70 63 -152z"/>
<path d="M33070 16335 l0 -105 -60 0 -60 0 0 -105 0 -104 58 -3 57 -3 5 -190
c6 -211 12 -234 74 -303 58 -63 121 -86 246 -86 95 -1 164 11 198 32 9 6 5 28
-17 93 -44 129 -36 118 -83 102 -48 -16 -80 -11 -108 17 -18 18 -20 34 -20
180 l0 160 90 0 90 0 0 105 0 105 -90 0 -90 0 0 105 0 105 -145 0 -145 0 0
-105z"/>
<path d="M41190 16335 l0 -105 -55 0 -55 0 0 -105 0 -105 54 0 53 0 6 -182 c3
-107 10 -198 18 -218 25 -72 66 -117 136 -152 64 -31 74 -33 173 -33 108 0
200 22 200 48 0 7 -14 53 -31 103 l-32 91 -40 -14 c-47 -16 -88 -10 -113 19
-17 18 -19 38 -19 177 l0 156 93 3 92 3 0 104 0 105 -95 0 -95 0 0 105 0 105
-145 0 -145 0 0 -105z"/>
<path d="M28539 16261 c-38 -12 -71 -31 -96 -54 l-23 -20 0 36 0 37 -140 0
-140 0 0 -555 0 -555 145 0 145 0 0 180 0 179 37 -25 c128 -86 335 -65 458 47
172 158 179 466 13 632 -75 75 -141 101 -268 104 -58 1 -117 -1 -131 -6z m141
-236 c85 -44 116 -200 57 -286 -39 -57 -71 -74 -140 -74 -75 0 -120 27 -148
89 -22 49 -25 143 -5 189 17 39 61 81 101 95 35 13 96 7 135 -13z"/>
<path d="M29562 16250 c-24 -11 -57 -29 -73 -41 l-29 -20 0 35 0 36 -135 0
-135 0 0 -555 0 -555 145 0 145 0 0 182 c0 172 1 180 18 166 9 -9 37 -26 62
-39 38 -20 60 -24 145 -24 91 0 106 3 165 31 141 67 209 164 229 324 25 197
-60 371 -217 446 -50 24 -71 29 -167 31 -94 3 -116 1 -153 -17z m174 -231 c72
-44 100 -179 55 -266 -71 -140 -263 -118 -307 34 -52 178 105 323 252 232z"/>
<path d="M31428 16251 c-83 -27 -139 -63 -196 -126 -74 -81 -96 -144 -97 -275
0 -94 3 -111 27 -163 38 -80 78 -128 143 -172 95 -62 153 -78 290 -79 135 0
199 18 278 78 39 29 107 117 107 137 0 5 -49 33 -109 63 l-109 55 -32 -41
c-36 -45 -82 -68 -134 -68 -213 0 -241 345 -31 384 67 13 147 -26 183 -89 11
-19 15 -18 117 35 59 30 109 58 111 62 7 11 -13 46 -53 95 -23 29 -58 54 -110
80 -75 37 -80 38 -202 40 -101 2 -137 -1 -183 -16z"/>
<path d="M32256 16254 c-69 -17 -176 -63 -176 -76 0 -11 89 -188 94 -188 3 0
26 11 53 24 98 49 224 53 291 10 20 -13 52 -68 52 -89 0 -3 -46 -5 -102 -5
-186 -1 -298 -28 -361 -88 -47 -44 -61 -80 -61 -157 -1 -109 46 -180 149 -227
41 -18 68 -22 145 -23 114 0 159 14 211 66 l39 39 0 -50 0 -50 130 0 130 0 1
228 c1 125 1 250 0 277 -7 155 -87 261 -233 307 -74 22 -272 24 -362 2z m314
-514 c0 -48 -43 -103 -96 -120 -96 -32 -189 46 -139 118 21 29 63 40 158 41
l77 1 0 -40z"/>
<path d="M34428 16251 c-83 -27 -139 -63 -196 -126 -74 -81 -96 -144 -97 -275
0 -98 2 -110 32 -173 84 -177 284 -271 505 -239 159 23 271 100 335 230 37 74
38 79 38 186 0 104 -2 115 -32 178 -42 89 -105 150 -201 196 -74 35 -81 37
-202 39 -101 3 -136 -1 -182 -16z m213 -212 c74 -23 119 -95 119 -192 0 -122
-92 -204 -205 -183 -106 20 -167 169 -116 281 22 49 48 73 98 91 47 16 57 17
104 3z"/>
<path d="M35600 16261 c-39 -12 -93 -41 -117 -64 l-23 -20 0 41 0 42 -140 0
-140 0 0 -410 0 -410 144 0 145 0 3 238 c3 216 5 240 23 271 29 49 67 73 123
79 60 5 105 -15 129 -61 16 -28 18 -66 21 -279 l4 -248 139 0 140 0 -3 303 -3
302 -28 57 c-34 69 -101 131 -164 152 -49 17 -206 21 -253 7z"/>
<path d="M37600 16261 c-41 -13 -93 -42 -117 -64 l-23 -20 0 41 0 42 -140 0
-140 0 0 -410 0 -410 145 0 145 0 0 224 c0 233 5 272 44 314 47 53 131 68 187
35 58 -34 63 -63 67 -330 l4 -243 139 0 140 0 -3 298 -3 297 -28 60 c-35 74
-67 109 -132 143 -43 22 -64 26 -155 29 -58 1 -116 -1 -130 -6z"/>
<path d="M40519 16256 c-66 -19 -148 -66 -175 -101 -72 -94 -72 -227 -1 -303
48 -52 116 -75 310 -106 96 -16 120 -28 115 -60 -5 -37 -44 -47 -153 -43 -94
4 -138 15 -245 61 -11 4 -25 -17 -57 -92 l-42 -97 33 -17 c102 -52 311 -80
446 -59 171 27 271 111 287 239 8 72 -12 130 -62 178 -51 49 -101 68 -254 93
-150 26 -189 52 -140 97 18 16 36 19 118 18 80 0 106 -4 161 -27 35 -14 65
-25 66 -24 6 8 84 191 82 192 -18 15 -83 39 -136 51 -82 17 -290 17 -353 0z"/>
<path d="M42242 16255 c-40 -12 -108 -56 -124 -79 -4 -6 -8 10 -8 37 l0 47
-135 0 -135 0 0 -410 0 -410 140 0 140 0 0 203 c0 274 15 321 112 362 21 8 62
15 93 15 l55 0 0 125 0 125 -47 -1 c-27 0 -67 -6 -91 -14z"/>
<path d="M45427 16259 c-315 -74 -434 -466 -210 -693 168 -170 513 -180 664
-19 44 46 69 83 69 100 0 7 -49 37 -108 67 l-108 54 -33 -40 c-91 -108 -245
-82 -294 48 -34 88 -5 195 62 239 80 51 161 40 228 -31 l41 -45 106 53 c58 29
106 57 106 63 0 25 -63 107 -107 139 -72 54 -155 76 -277 75 -55 -1 -118 -5
-139 -10z"/>
<path d="M46213 16251 c-68 -19 -123 -42 -150 -63 -9 -7 0 -33 35 -104 26 -52
51 -92 57 -90 105 48 145 59 210 59 97 0 154 -32 170 -95 l7 -28 -103 0 c-237
-1 -348 -40 -401 -144 -16 -31 -19 -54 -16 -116 4 -92 33 -144 105 -190 120
-76 330 -61 406 29 l27 33 0 -51 0 -51 135 0 135 0 0 243 c0 133 -5 271 -11
307 -19 121 -88 208 -198 252 -81 32 -304 36 -408 9z m327 -508 c0 -55 -30
-98 -84 -118 -99 -38 -194 27 -153 105 17 34 66 49 160 49 l77 1 0 -37z"/>
<path d="M48307 16250 c-144 -51 -236 -147 -271 -285 -39 -148 2 -304 104
-404 166 -161 509 -176 675 -29 l36 31 -77 78 -77 77 -36 -23 c-121 -80 -298
-45 -343 67 -7 17 9 18 287 18 l294 0 7 36 c10 54 -13 171 -46 240 -37 76
-101 136 -188 177 -62 29 -76 32 -187 35 -100 2 -130 -1 -178 -18z m243 -199
c38 -20 80 -73 80 -102 0 -18 -11 -19 -160 -19 -179 0 -180 0 -138 68 40 65
147 91 218 53z"/>
<path d="M49410 16244 c-30 -14 -65 -35 -77 -46 l-23 -21 0 41 0 42 -135 0
-135 0 0 -410 0 -410 145 0 145 0 0 237 c0 218 2 240 20 279 46 94 181 100
224 10 13 -29 16 -73 16 -280 l0 -246 145 0 145 0 0 223 c0 240 6 281 49 329
22 25 37 31 77 35 60 5 91 -10 118 -57 19 -32 21 -54 24 -282 l4 -248 140 0
139 0 -3 303 c-3 290 -4 304 -26 352 -27 60 -82 118 -137 148 -35 19 -56 22
-160 22 -111 0 -124 -2 -171 -27 -28 -15 -65 -39 -83 -53 l-31 -27 -46 40
c-60 54 -117 72 -223 72 -71 0 -96 -5 -141 -26z"/>
<path d="M51265 16260 c-58 -14 -125 -40 -162 -62 l-33 -19 46 -92 c26 -51 48
-94 50 -96 1 -1 27 9 56 23 75 37 156 50 221 36 29 -6 59 -16 67 -23 24 -19
50 -60 50 -79 0 -16 -11 -18 -94 -18 -211 0 -333 -37 -390 -118 -25 -35 -31
-55 -34 -113 -4 -60 -1 -77 23 -124 48 -99 166 -153 311 -142 79 6 123 24 172
70 l32 31 0 -47 0 -47 136 0 135 0 -3 288 c-4 245 -7 294 -22 334 -26 71 -93
140 -168 174 -59 26 -72 28 -208 31 -80 1 -163 -2 -185 -7z m295 -524 c0 -33
-7 -52 -26 -75 -65 -78 -214 -54 -214 34 0 58 48 83 163 84 l77 1 0 -44z"/>
<path d="M55236 16254 c-69 -17 -176 -63 -176 -76 0 -16 91 -189 98 -186 137
70 263 82 340 32 20 -13 52 -68 52 -89 0 -3 -46 -5 -102 -5 -199 -1 -309 -30
-372 -101 -79 -87 -70 -235 21 -321 54 -51 118 -72 223 -73 114 0 159 14 211
66 l39 39 0 -50 0 -50 130 0 130 0 0 280 c0 231 -3 287 -16 327 -36 104 -111
174 -223 207 -69 20 -272 20 -355 0z m314 -514 c0 -48 -43 -103 -96 -120 -96
-32 -189 46 -139 118 21 29 63 40 158 41 l77 1 0 -40z"/>
<path d="M56407 16250 c-27 -10 -64 -30 -83 -45 l-34 -26 0 40 0 41 -135 0
-135 0 0 -410 0 -410 139 0 140 0 3 233 c3 208 5 236 23 271 27 53 63 78 123
84 60 5 105 -15 129 -61 16 -28 18 -66 21 -279 l3 -248 140 0 140 0 -3 303
c-3 294 -4 303 -27 355 -29 65 -104 134 -168 156 -66 23 -213 21 -276 -4z"/>
<path d="M57340 16256 c-171 -49 -287 -176 -308 -336 -32 -233 104 -426 335
-475 214 -46 417 26 492 173 l19 38 -112 56 -112 56 -23 -34 c-27 -39 -93 -74
-142 -74 -50 0 -120 39 -143 79 -46 81 -38 187 20 251 71 79 185 74 258 -11
l34 -40 111 56 112 56 -23 40 c-31 56 -99 116 -166 147 -50 23 -72 26 -182 29
-81 1 -141 -2 -170 -11z"/>
<path d="M58215 16253 c-203 -73 -315 -253 -285 -460 22 -160 120 -274 286
-335 49 -17 81 -21 189 -21 111 -1 138 3 187 22 59 23 149 79 155 97 2 5 -30
45 -70 88 l-72 79 -39 -27 c-99 -67 -233 -61 -308 14 -71 71 -75 70 258 70
l297 0 -5 93 c-8 132 -34 195 -117 278 -91 91 -145 111 -306 116 -96 3 -130 0
-170 -14z m252 -209 c32 -24 59 -60 68 -91 l6 -23 -166 0 c-148 0 -166 2 -161
16 3 9 6 19 6 24 0 17 55 73 85 86 41 20 129 13 162 -12z"/>
<path d="M30710 15850 l0 -410 145 0 145 0 0 410 0 410 -145 0 -145 0 0 -410z"/>
<path d="M33710 15850 l0 -410 145 0 145 0 0 410 0 410 -145 0 -145 0 0 -410z"/>
<path d="M39292 15978 c5 -314 9 -342 73 -430 46 -63 134 -107 232 -115 88 -7
154 8 228 52 l55 34 0 -40 0 -39 135 0 135 0 0 410 0 410 -139 0 -139 0 -4
-232 c-3 -256 -6 -269 -68 -322 -42 -35 -123 -37 -165 -4 -50 39 -55 66 -55
323 l0 235 -146 0 -146 0 4 -282z"/>
<path d="M42420 16256 c0 -3 77 -187 170 -408 117 -275 169 -410 165 -425 -13
-55 -111 -72 -187 -34 -23 11 -43 19 -44 18 -1 -1 -23 -44 -48 -95 -53 -106
-53 -107 27 -143 45 -20 68 -24 167 -24 106 0 119 2 168 28 64 34 119 88 155
155 28 52 387 909 387 924 0 5 -61 7 -136 6 l-136 -3 -95 -237 c-53 -131 -99
-238 -102 -238 -3 0 -49 107 -102 238 l-95 237 -147 3 c-81 1 -147 0 -147 -2z"/>
<path d="M50610 15850 l0 -410 145 0 145 0 0 410 0 410 -145 0 -145 0 0 -410z"/>
<path d="M54600 15850 l0 -410 140 0 140 0 0 410 0 410 -140 0 -140 0 0 -410z"/>
<path d="M43410 15870 l0 -110 220 0 220 0 0 110 0 110 -220 0 -220 0 0 -110z"/>
</g>
</svg>
