<?xml version="1.0" standalone="no"?>
<!DOCTYPE svg PUBLIC "-//W3C//DTD SVG 20010904//EN"
 "http://www.w3.org/TR/2001/REC-SVG-20010904/DTD/svg10.dtd">
<svg version="1.0" xmlns="http://www.w3.org/2000/svg"
 width="4334.000000pt" height="4334.000000pt" viewBox="0 0 4334.000000 4334.000000"
 preserveAspectRatio="xMidYMid meet">

<g transform="translate(0.000000,4334.000000) scale(0.100000,-0.100000)"
fill="#000000" stroke="none">
<path d="M20770 28886 l-1355 -290 -67 -100 c-349 -525 -1127 -1301 -2193
-2191 -377 -314 -944 -759 -1262 -990 -68 -49 -121 -90 -119 -92 2 -2 150 53
330 122 829 317 1322 469 1909 584 1168 231 2293 172 3362 -176 764 -249 1392
-595 2005 -1106 175 -146 585 -553 736 -731 523 -615 919 -1284 1241 -2096 47
-118 94 -231 103 -251 33 -65 105 -134 172 -165 l63 -29 1890 -3 c1359 -2
1903 0 1935 8 62 16 80 34 80 84 0 51 -33 121 -168 358 -419 734 -879 1334
-1482 1938 -893 894 -1951 1597 -3220 2140 -1054 452 -2230 714 -3515 785 -60
3 -213 15 -340 27 -416 38 -708 27 -1114 -43 -169 -29 -500 -99 -648 -138 -40
-10 -73 -16 -73 -12 0 11 269 173 650 391 976 559 1204 720 1566 1111 249 268
405 457 589 714 101 142 290 434 283 439 -2 1 -613 -128 -1358 -288z"/>
<path d="M17405 25095 c-1811 -399 -3218 -1243 -4294 -2574 -192 -238 -491
-661 -540 -766 -25 -54 -30 -117 -10 -142 40 -47 -48 -45 2047 -50 1335 -2
1981 0 2020 7 81 14 124 49 225 180 157 204 323 404 446 538 320 347 755 683
1229 948 64 36 118 67 120 68 4 5 -1078 1821 -1086 1823 -4 1 -74 -14 -157
-32z"/>
<path d="M15610 19666 c0 -7 -12 -49 -26 -92 -49 -147 -133 -291 -226 -390
l-49 -52 93 -50 c149 -81 149 -81 41 -82 l-93 0 0 -160 0 -160 210 -2 210 -3
-41 -50 c-62 -75 -163 -150 -279 -209 -58 -29 -112 -55 -120 -58 -10 -3 15
-34 81 -99 53 -52 111 -114 131 -138 l35 -45 66 37 67 37 2 -598 3 -597 203
-3 202 -2 0 45 0 45 550 0 550 0 0 -45 0 -45 213 2 212 3 3 613 2 612 -935 0
c-514 0 -935 3 -934 8 0 4 32 30 70 57 39 28 105 87 148 131 l78 82 54 -41
c30 -22 103 -78 162 -125 97 -76 110 -83 125 -70 214 184 267 232 267 241 0 5
-85 57 -190 114 l-189 103 182 0 182 0 0 160 0 160 -205 0 -205 0 0 70 0 70
170 0 170 0 0 160 0 160 -330 0 c-181 0 -330 3 -330 8 0 4 9 36 20 71 11 35
19 66 17 67 -4 4 -344 74 -359 74 -4 0 -8 -6 -8 -14z m260 -596 l0 -70 -91 0
c-50 0 -89 3 -87 8 2 4 23 35 47 70 43 60 47 62 88 62 l43 0 0 -70z m1350
-1260 l0 -50 -550 0 -550 0 0 50 0 50 550 0 550 0 0 -50z m0 -390 l0 -50 -550
0 -550 0 0 50 0 50 550 0 550 0 0 -50z"/>
<path d="M21938 19612 c-127 -40 -178 -60 -178 -70 0 -13 149 -479 157 -491 1
-2 86 27 188 64 171 63 185 70 179 89 -10 33 -164 459 -167 461 -1 2 -82 -23
-179 -53z"/>
<path d="M18900 19571 c-108 -211 -321 -485 -408 -522 -22 -9 -30 -19 -26 -29
27 -72 95 -264 105 -300 7 -25 13 -46 14 -47 0 -1 23 4 50 13 28 8 104 23 170
34 152 24 675 82 691 76 6 -2 24 -40 39 -84 l28 -81 61 24 c192 73 291 115
294 123 7 21 -298 662 -315 662 -13 0 -307 -99 -321 -109 -10 -6 -3 -30 32
-104 44 -95 44 -97 23 -101 -23 -5 -253 -26 -281 -26 -11 0 10 33 62 98 81
100 182 240 221 304 l22 36 -33 10 c-18 6 -100 29 -183 52 -82 23 -161 45
-175 49 -25 8 -28 4 -70 -78z"/>
<path d="M19933 19183 c4 -509 6 -528 63 -633 46 -85 121 -131 254 -156 134
-24 817 -16 860 11 5 3 -10 177 -26 311 l-5 41 -57 -10 c-31 -6 -186 -11 -344
-11 -353 -1 -330 -11 -336 149 l-4 105 333 2 334 3 3 173 2 172 -335 0 -335 0
0 155 0 155 -206 0 -205 0 4 -467z"/>
<path d="M25816 19624 c-230 -42 -824 -104 -1001 -104 -35 0 -66 -4 -69 -9 -4
-5 7 -49 24 -98 16 -49 34 -113 41 -141 l11 -52 91 5 c51 2 152 7 225 10 l132
6 0 -36 0 -35 -265 0 -265 0 0 -145 0 -145 265 0 265 0 0 -35 0 -35 -230 0
-230 0 0 -455 0 -455 230 0 230 0 0 -35 0 -35 -237 -2 -238 -3 -3 -142 -3
-143 241 0 240 0 0 -60 c0 -54 -2 -60 -22 -64 -13 -3 -115 -10 -228 -16 -113
-6 -228 -13 -256 -16 l-50 -5 22 -165 c12 -91 24 -167 26 -170 5 -4 397 30
888 77 l325 31 43 -48 c23 -27 63 -77 88 -111 37 -52 49 -61 63 -54 37 20 211
213 265 294 106 159 186 345 241 561 53 210 78 386 110 779 l7 77 85 0 86 0
-7 -302 c-10 -478 -28 -755 -58 -891 -7 -32 -22 -62 -43 -86 l-34 -36 -154 3
-155 3 33 -78 c29 -64 62 -183 81 -290 4 -22 8 -23 113 -23 216 0 342 32 421
106 87 81 119 170 145 390 25 226 55 974 55 1407 l0 177 -280 0 -280 0 0 290
0 290 -195 0 -195 0 0 -290 0 -289 -117 -3 -118 -3 -3 -187 -2 -188 115 0 c63
0 115 -3 115 -7 0 -5 -5 -71 -10 -148 -27 -368 -83 -626 -180 -830 -68 -142
-69 -141 -70 23 l0 142 -245 0 -245 0 0 35 0 35 235 0 235 0 0 455 0 455 -235
0 -235 0 0 35 0 35 255 0 255 0 0 145 0 145 -255 0 -255 0 0 50 c0 57 -10 52
140 70 158 19 340 52 340 63 0 18 -164 297 -175 296 -5 -1 -68 -12 -139 -25z
m-546 -1109 l0 -45 -70 0 -70 0 0 45 0 45 70 0 70 0 0 -45z m518 -2 l3 -43
-70 0 -71 0 0 45 0 46 68 -3 67 -3 3 -42z m-518 -318 l0 -45 -70 0 -70 0 0 45
0 45 70 0 70 0 0 -45z m518 -2 l3 -43 -70 0 -71 0 0 45 0 46 68 -3 67 -3 3
-42z m342 -673 c-22 -40 -50 -47 -240 -59 -102 -7 -197 -15 -212 -17 -28 -6
-28 -5 -28 45 l0 51 245 0 c243 0 246 0 235 -20z"/>
<path d="M22377 19573 c-4 -3 -7 -138 -7 -300 l0 -293 125 0 125 0 0 -60 0
-60 245 0 245 0 0 -35 0 -35 -290 0 -290 0 0 -425 0 -425 290 0 290 0 0 -35 0
-35 -350 0 -350 0 0 -145 0 -145 350 0 350 0 0 -85 0 -85 200 0 200 0 0 85 0
85 350 0 350 0 0 145 0 145 -350 0 -350 0 0 35 0 35 290 0 290 0 0 425 0 425
-290 0 -290 0 0 35 0 35 195 0 195 0 0 60 0 60 160 0 160 0 0 300 0 300 -918
0 c-505 0 -922 -3 -925 -7z m1453 -363 l0 -70 -160 0 -160 0 0 40 0 40 -200 0
-200 0 0 -40 0 -40 -180 0 -180 0 0 70 0 70 540 0 540 0 0 -70z m-720 -695 l0
-35 -115 0 -115 0 0 28 c0 16 3 32 7 35 3 4 55 7 115 7 l108 0 0 -35z m610 0
l0 -35 -105 0 -105 0 0 35 0 35 105 0 105 0 0 -35z m-610 -300 l0 -35 -115 0
-115 0 0 35 0 35 115 0 115 0 0 -35z m610 0 l0 -35 -105 0 -105 0 0 35 0 35
105 0 105 0 0 -35z"/>
<path d="M16750 18890 l0 -570 570 0 570 0 0 570 0 570 -570 0 -570 0 0 -570z
m730 5 l0 -205 -170 0 -170 0 0 205 0 205 170 0 170 0 0 -205z"/>
<path d="M21600 18820 l0 -180 116 0 116 0 -6 -27 c-16 -66 -111 -377 -146
-475 l-38 -108 174 0 c133 0 174 -3 174 -12 0 -36 -117 -412 -132 -422 -2 -2
-35 -24 -75 -50 -75 -50 -233 -191 -233 -208 0 -8 204 -315 250 -375 17 -22
18 -21 69 84 64 132 133 231 166 239 39 10 65 -1 171 -72 295 -197 476 -232
1154 -221 352 6 791 23 838 33 13 3 22 12 22 24 0 31 57 240 89 323 24 65 27
77 13 73 -28 -8 -266 -35 -462 -52 -247 -21 -910 -30 -1062 -15 -136 14 -255
41 -333 75 -65 29 -225 125 -225 135 0 4 21 65 46 136 44 124 144 497 144 537
0 15 -28 32 -116 74 -63 30 -127 54 -141 54 -19 0 -24 4 -20 18 59 205 156
544 161 565 l6 27 -360 0 -360 0 0 -180z"/>
<path d="M18610 18191 c0 -469 -9 -584 -55 -747 -15 -49 -42 -120 -61 -159
l-35 -69 43 -35 c24 -19 89 -81 146 -137 l102 -103 27 42 c59 94 114 239 165
437 l11 45 31 -97 c17 -53 34 -99 37 -103 3 -3 80 50 170 119 l164 124 3 -105
c2 -73 -1 -110 -10 -120 -10 -12 -35 -14 -133 -11 l-121 3 37 -80 c20 -44 48
-115 61 -157 l23 -78 70 0 c240 0 387 57 439 170 21 44 21 59 24 768 l3 722
-571 0 -570 0 0 -429z m750 -21 c0 -60 -4 -110 -8 -110 -4 0 -32 25 -62 56
-30 30 -76 73 -102 95 l-46 39 -70 -60 c-39 -33 -73 -60 -76 -60 -3 0 -6 34
-6 75 l0 75 185 0 185 0 0 -110z m-250 -281 c52 -57 97 -105 100 -107 3 -1 38
27 78 64 l72 66 0 -39 0 -39 -189 -97 c-103 -53 -190 -97 -192 -97 -3 0 -2 33
2 73 4 39 8 121 8 180 1 82 4 108 13 105 7 -3 55 -51 108 -109z"/>
<path d="M19930 17833 c0 -589 9 -661 87 -753 82 -95 180 -113 578 -108 328 5
349 9 430 80 72 63 112 159 140 330 9 58 9 81 1 83 -126 38 -196 65 -263 100
l-82 43 -5 -36 c-3 -21 -8 -64 -11 -97 -8 -73 -27 -120 -53 -134 -13 -7 -89
-11 -195 -11 -225 0 -211 -14 -215 201 l-3 159 340 0 341 0 0 180 0 180 -340
0 -340 0 0 130 0 130 -205 0 -205 0 0 -477z"/>
<path d="M16675 16233 c-93 -26 -172 -48 -174 -50 -3 -2 7 -28 22 -59 15 -30
27 -59 27 -64 0 -6 -191 -10 -530 -10 l-530 0 0 -562 c0 -567 -8 -788 -36
-1018 -29 -243 -87 -478 -155 -629 -16 -35 -29 -67 -29 -71 0 -4 10 -12 23
-17 31 -15 173 -122 235 -178 l51 -46 30 59 c66 131 142 390 180 617 40 233
71 558 71 743 0 50 3 92 8 92 4 0 29 -27 56 -60 28 -33 52 -60 55 -60 3 0 22
17 43 37 l38 37 0 -322 0 -322 170 0 170 0 0 365 c0 201 3 365 6 365 4 0 35
-25 70 -56 l64 -55 2 -307 3 -307 99 -3 99 -3 -42 -35 c-22 -20 -41 -39 -41
-43 0 -4 18 -16 40 -26 89 -40 76 -45 -119 -45 l-181 0 0 -172 c0 -202 11
-284 47 -350 32 -59 79 -92 163 -115 55 -15 107 -18 345 -18 248 0 286 2 334
19 107 37 164 116 196 272 9 43 18 80 19 82 4 3 43 -60 98 -158 14 -25 38 -74
53 -110 15 -36 28 -66 29 -68 2 -1 76 33 165 76 l162 77 -50 100 c-27 55 -75
138 -106 185 -54 80 -193 260 -200 260 -2 0 -62 -27 -132 -61 -70 -33 -138
-65 -151 -70 l-23 -9 34 -43 c65 -81 118 -167 103 -167 -25 0 -220 71 -263 96
-24 14 -43 21 -43 17 0 -4 -5 -37 -11 -73 -16 -101 -15 -100 -203 -100 -89 0
-168 5 -176 10 -12 7 -16 40 -18 165 -2 85 -1 155 3 155 12 0 162 -104 233
-162 l73 -60 42 38 c23 21 79 72 124 115 l83 77 -35 31 c-43 37 -136 101 -223
152 l-67 39 463 0 462 0 0 120 0 120 -212 2 -213 3 0 40 0 40 163 3 162 2 0
95 0 95 -166 0 -165 0 3 38 3 37 163 3 163 2 -3 93 -3 92 -162 3 -163 2 0 30
0 30 200 0 200 0 0 120 0 120 -207 1 c-152 0 -201 3 -180 11 15 5 27 15 27 22
0 6 -20 46 -44 89 l-44 77 254 0 254 0 0 165 0 165 -485 0 -486 0 -19 46 c-32
73 -100 184 -113 183 -7 0 -88 -21 -182 -46z m-485 -525 c0 -26 -154 -240
-233 -323 l-86 -90 -1 213 0 212 160 0 c115 0 160 -3 160 -12z m480 5 c-1 -32
-164 -292 -229 -363 l-40 -45 -1 44 c0 34 10 60 49 125 54 90 104 186 99 191
-2 2 -36 13 -75 24 -40 12 -73 24 -73 26 0 3 61 5 135 5 74 0 135 -3 135 -7z
m590 3 c0 -2 -29 -14 -65 -26 -36 -12 -65 -26 -65 -30 0 -5 16 -39 36 -75 l36
-65 -121 0 c-67 0 -121 2 -121 4 0 2 16 38 35 80 l35 77 -26 9 c-14 6 -31 10
-37 10 -7 0 -19 5 -27 10 -10 6 41 10 153 10 92 0 167 -2 167 -4z m-100 -466
l0 -30 -140 0 -140 0 0 30 0 30 140 0 140 0 0 -30z m0 -260 l0 -40 -140 0
-140 0 0 40 0 40 140 0 140 0 0 -40z m0 -275 l0 -45 -140 0 -140 0 0 45 0 45
140 0 140 0 0 -45z"/>
<path d="M11020 15405 c0 -459 -2 -835 -5 -835 -9 0 -850 -151 -866 -156 -14
-4 -12 -25 16 -194 18 -105 34 -193 38 -196 3 -3 187 27 409 68 l403 74 3
-318 2 -318 205 0 205 0 0 355 0 355 23 5 c12 2 82 16 155 29 73 13 135 25
136 27 2 2 -10 91 -27 197 l-31 193 -25 -6 c-15 -3 -72 -14 -128 -24 l-103
-18 0 798 0 799 -205 0 -205 0 0 -835z"/>
<path d="M12500 15975 l0 -265 -155 0 -155 0 0 -190 0 -190 155 0 155 0 0
-219 0 -218 -170 -34 c-93 -18 -170 -38 -170 -44 -1 -9 91 -376 95 -383 1 -1
50 9 108 23 59 14 114 25 122 25 13 0 15 -35 15 -263 0 -191 -3 -266 -12 -275
-8 -8 -57 -12 -155 -12 l-143 0 22 -52 c31 -78 87 -269 88 -302 l0 -29 128 7
c340 18 448 92 473 325 5 47 9 226 9 397 l0 311 131 34 c72 19 135 36 140 40
9 5 -31 363 -42 373 -2 2 -49 -6 -104 -20 -55 -13 -106 -24 -112 -24 -10 0
-13 41 -13 170 l0 170 130 0 130 0 0 190 0 190 -130 0 -130 0 0 265 0 265
-205 0 -205 0 0 -265z"/>
<path d="M13780 16045 l0 -195 -290 0 -290 0 0 -185 0 -185 290 0 290 0 0
-150 0 -150 -265 0 -265 0 0 -185 0 -185 83 -1 82 -1 -55 -18 c-44 -14 -54
-22 -52 -36 7 -33 150 -308 203 -390 28 -44 74 -108 102 -143 60 -77 65 -68
-98 -146 -116 -56 -313 -126 -415 -147 -59 -12 -71 -20 -49 -34 20 -12 130
-187 171 -271 22 -46 41 -83 42 -83 1 0 53 17 116 39 201 67 382 149 529 239
l64 39 91 -59 c119 -79 322 -177 470 -227 65 -23 120 -41 121 -41 2 0 32 44
67 98 36 53 94 133 130 177 l65 81 -86 23 c-121 32 -259 85 -381 146 -156 79
-150 68 -79 150 94 110 196 268 270 419 73 149 179 451 163 466 -5 4 -65 30
-134 57 -94 37 -132 47 -155 42 -16 -4 -96 -7 -178 -8 l-148 -1 3 148 3 147
308 3 307 2 0 185 0 185 -307 2 -308 3 -3 193 -2 192 -205 0 -205 0 0 -195z
m500 -1247 c0 -39 -183 -300 -263 -376 l-35 -34 -68 86 c-72 90 -204 299 -204
322 0 12 51 14 285 14 221 0 285 -3 285 -12z"/>
<path d="M21900 15975 l0 -265 -150 0 -150 0 0 -190 0 -190 150 0 150 0 0
-219 0 -218 -97 -21 c-54 -11 -129 -26 -168 -33 -38 -6 -71 -13 -73 -14 -3 -3
95 -386 101 -391 2 -2 49 8 106 21 56 14 109 25 117 25 12 0 14 -40 12 -272
l-3 -273 -148 -3 c-136 -2 -148 -4 -142 -20 33 -86 76 -221 90 -286 l18 -79
118 7 c311 17 430 84 468 264 7 34 11 184 11 411 l0 359 108 26 c59 15 123 31
143 36 l36 10 -25 187 c-13 104 -25 189 -26 190 -1 1 -49 -9 -106 -22 -58 -14
-111 -25 -117 -25 -10 0 -13 41 -13 170 l0 170 130 0 130 0 0 190 0 190 -130
0 -130 0 0 265 0 265 -205 0 -205 0 0 -265z"/>
<path d="M23190 16045 l0 -195 -290 0 -290 0 0 -185 0 -185 290 0 290 0 0
-150 0 -150 -270 0 -270 0 0 -185 0 -184 83 -3 82 -3 -48 -14 c-26 -7 -50 -18
-53 -23 -8 -13 119 -271 189 -383 31 -50 81 -121 111 -160 30 -38 53 -72 50
-76 -2 -3 -54 -31 -116 -62 -120 -59 -295 -123 -418 -152 -41 -10 -76 -19 -78
-20 -1 -1 27 -46 63 -100 55 -82 132 -221 146 -263 12 -36 484 157 662 271
l55 36 95 -63 c116 -76 287 -161 432 -213 168 -61 158 -61 191 -5 39 68 135
200 188 259 l46 51 -38 7 c-115 21 -358 114 -499 191 l-83 45 71 82 c170 197
311 460 398 742 16 55 31 108 33 119 2 15 -20 27 -132 71 -111 43 -140 51
-165 44 -16 -5 -94 -9 -172 -9 l-143 0 0 150 0 150 305 0 305 0 0 185 0 185
-305 0 -305 0 0 195 0 195 -205 0 -205 0 0 -195z m500 -1242 c0 -29 -137 -233
-226 -337 l-68 -79 -49 54 c-73 82 -237 332 -237 362 0 4 131 7 290 7 160 0
290 -3 290 -7z"/>
<path d="M25136 16184 c-65 -124 -226 -324 -352 -435 l-61 -53 56 -76 c31 -41
78 -110 104 -153 27 -42 53 -77 58 -77 18 0 276 266 359 370 77 97 244 339
238 345 -2 2 -82 31 -178 65 -96 34 -179 64 -185 66 -5 2 -23 -21 -39 -52z"/>
<path d="M25860 15910 l0 -330 -175 0 -175 0 0 -30 c0 -16 -2 -30 -4 -30 -3 0
-74 22 -158 50 -103 33 -154 46 -157 38 -2 -7 -34 -71 -70 -142 -105 -208
-228 -384 -384 -552 l-65 -70 49 -76 c26 -42 74 -125 105 -184 32 -60 59 -111
61 -113 2 -3 28 20 58 49 l55 54 0 -522 0 -522 190 0 190 0 0 330 c0 208 4
330 10 330 14 0 116 -126 150 -184 l28 -48 42 53 c88 111 153 289 180 494 6
50 14 197 17 328 l6 237 -140 0 -140 0 -6 -227 c-7 -233 -16 -323 -42 -426
-17 -65 -55 -149 -85 -187 l-20 -25 0 458 0 457 63 123 62 122 3 -82 3 -83
174 0 175 0 0 -825 0 -825 180 0 180 0 0 825 0 825 195 0 195 0 0 -120 0 -120
100 0 100 0 -2 -497 -3 -498 -137 -3 c-76 -1 -138 -4 -138 -6 0 -2 18 -57 39
-122 22 -66 45 -155 52 -198 l13 -79 121 6 c207 10 338 55 392 136 56 83 57
89 61 699 l3 562 100 0 99 0 0 185 0 185 -395 0 -395 0 0 125 0 125 -200 0
-200 0 0 330 0 330 -180 0 -180 0 0 -330z"/>
<path d="M29108 16118 c-100 -207 -219 -377 -289 -414 l-29 -15 0 41 c0 39 1
40 35 40 l35 0 0 185 0 185 -485 0 -485 0 0 -185 0 -185 40 0 40 0 0 -744 0
-745 -57 -6 c-32 -4 -63 -8 -69 -10 -8 -2 -5 -35 12 -112 13 -59 29 -137 36
-172 6 -35 18 -65 24 -68 7 -3 126 16 263 41 138 25 255 46 261 46 6 0 10 -82
10 -235 l0 -235 170 0 170 0 1 808 c0 444 4 798 8 787 5 -11 24 -86 42 -165
18 -80 33 -146 34 -147 0 -1 30 7 65 18 52 16 445 79 493 79 13 0 39 -105 29
-115 -3 -3 -45 -5 -94 -5 l-88 0 0 -195 0 -195 -35 0 -35 0 0 195 0 195 -165
0 -165 0 0 -365 0 -365 160 0 c88 0 160 -3 160 -6 0 -3 -14 -23 -32 -45 -44
-55 -122 -113 -221 -164 l-83 -43 49 -58 c27 -33 74 -96 104 -142 l56 -82 86
46 c202 107 331 249 402 444 49 135 59 223 59 516 l0 263 -62 3 c-71 4 -68 6
59 45 l92 28 -35 135 c-32 123 -92 331 -99 338 -3 3 -218 -49 -224 -55 -3 -2
3 -28 13 -59 10 -31 16 -58 13 -60 -5 -6 -179 -26 -183 -21 -2 1 24 34 57 72
86 98 244 311 322 432 l66 103 -42 23 c-51 30 -218 117 -222 117 -2 0 -22 -34
-45 -76 -23 -43 -58 -101 -76 -130 -32 -50 -37 -54 -74 -54 l-40 0 53 73 c87
117 247 380 247 405 0 8 -255 122 -272 122 -3 0 -31 -51 -60 -112z m-658 -468
l0 -120 -75 0 -75 0 0 120 0 120 75 0 75 0 0 -120z m395 -145 c20 -82 38 -155
40 -162 3 -9 15 -8 49 3 25 9 55 14 67 12 19 -3 14 -11 -42 -72 -57 -62 -139
-126 -161 -126 -4 0 -8 118 -8 263 0 169 4 257 10 247 5 -8 25 -82 45 -165z
m-395 -435 l0 -120 -75 0 -75 0 0 120 0 120 75 0 75 0 0 -120z m0 -584 l0
-134 -47 -6 c-27 -4 -60 -9 -75 -12 l-28 -6 0 146 0 146 75 0 75 0 0 -134z"/>
<path d="M9825 16169 c-163 -56 -458 -130 -644 -162 -78 -13 -129 -26 -127
-32 35 -78 71 -173 85 -230 22 -84 19 -83 166 -61 58 9 112 16 120 16 12 0 15
-22 15 -130 l0 -130 -205 0 -205 0 2 -192 3 -193 173 -3 c94 -1 172 -4 172 -6
0 -13 -79 -184 -135 -296 -64 -125 -156 -275 -216 -351 l-29 -37 69 -133 c38
-74 79 -162 92 -196 13 -35 26 -63 29 -63 13 0 100 145 172 285 l77 150 1
-437 0 -438 200 0 200 0 1 528 0 527 57 -112 c31 -62 60 -113 63 -113 9 0 223
296 227 313 1 6 -77 94 -174 195 l-176 182 176 0 c169 0 176 1 176 20 0 11 4
20 10 20 17 0 333 -322 375 -382 22 -31 43 -56 47 -55 16 5 278 253 278 264 0
27 -411 413 -440 413 -3 0 -64 -52 -135 -116 l-130 -115 -3 170 -2 171 -175 0
-175 0 0 170 0 169 43 11 c87 22 292 82 304 88 9 5 -19 56 -97 172 -61 91
-113 165 -117 166 -5 1 -71 -20 -148 -47z"/>
<path d="M29933 16092 c-91 -187 -216 -360 -296 -407 -16 -9 -14 -23 24 -172
l42 -161 36 13 c20 7 56 16 81 19 25 4 58 10 74 13 l28 5 -43 -63 c-52 -78
-171 -199 -194 -199 -11 0 -15 -5 -12 -14 12 -31 77 -299 77 -317 0 -14 -7
-19 -25 -19 l-25 0 0 -630 0 -630 175 0 175 0 0 265 0 265 40 0 40 0 0 -45 0
-45 165 0 165 0 0 405 0 405 -165 0 -165 0 0 -185 0 -185 -40 0 -40 0 0 190 0
190 -146 0 c-86 0 -143 4 -139 9 10 18 130 51 325 91 107 22 202 40 211 40 11
0 20 -17 29 -57 7 -32 16 -61 19 -65 5 -5 217 75 230 88 12 11 -148 464 -164
464 -9 0 -145 -44 -202 -65 -9 -3 -7 -18 7 -60 14 -41 16 -57 7 -60 -18 -6
-142 -23 -145 -20 -2 1 27 45 64 96 68 97 190 297 262 431 l41 77 -124 66
c-67 36 -125 65 -128 65 -3 0 -30 -51 -60 -114 l-54 -113 -53 -7 c-29 -4 -54
-5 -57 -2 -2 2 16 30 40 63 56 74 123 178 176 275 l42 77 -23 14 c-26 16 -217
117 -221 117 -1 0 -25 -49 -54 -108z"/>
<path d="M32327 15768 c-5 -352 -7 -403 -27 -492 -24 -115 -57 -197 -108 -275
l-37 -56 -3 583 -2 582 -505 0 -505 0 0 -680 0 -680 185 0 185 0 0 70 0 70
298 0 297 -1 -35 -28 c-19 -16 -33 -31 -30 -33 112 -83 270 -228 270 -247 0
-8 -140 -11 -500 -11 l-500 0 0 -305 0 -305 -165 0 -165 0 0 -175 0 -175 1345
0 1345 0 0 175 0 175 -155 0 -155 0 0 305 0 305 -510 0 c-280 0 -510 2 -510 5
0 3 19 22 42 43 91 82 178 222 231 372 l23 65 222 3 222 2 0 -54 c0 -40 -4
-55 -16 -60 -9 -3 -74 -6 -145 -6 -71 0 -129 -2 -129 -4 0 -2 20 -44 45 -93
24 -50 55 -122 67 -162 l23 -71 85 0 c238 0 392 59 453 174 22 41 22 41 25
709 l3 667 -579 0 -580 0 -5 -392z m753 17 l0 -55 -190 0 -190 0 0 55 0 55
190 0 190 0 0 -55z m-1310 -60 l0 -75 -130 0 -130 0 0 75 0 75 130 0 130 0 0
-75z m1310 -330 l0 -55 -195 0 -195 0 0 39 c0 74 -9 71 201 71 l189 0 0 -55z
m-1310 -120 l0 -75 -130 0 -130 0 0 75 0 75 130 0 130 0 0 -75z m90 -1165 l0
-150 -80 0 -80 0 0 150 0 150 80 0 80 0 0 -150z m550 0 l0 -150 -85 0 -85 0 0
150 0 150 85 0 85 0 0 -150z m540 0 l0 -150 -80 0 -80 0 0 150 0 150 80 0 80
0 0 -150z"/>
<path d="M26352 16052 l-123 -63 17 -27 c38 -57 138 -239 157 -284 11 -27 24
-48 28 -48 5 0 61 29 125 65 64 36 118 65 120 65 2 0 4 -20 4 -45 l0 -45 340
0 340 0 0 180 0 180 -340 0 -340 0 0 -117 0 -118 -80 135 c-45 74 -91 146
-103 160 l-22 25 -123 -63z"/>
<path d="M10443 15982 c-62 -53 -120 -104 -128 -113 -15 -15 -4 -28 127 -160
79 -80 168 -179 198 -221 30 -42 58 -77 61 -77 4 -1 70 56 148 125 l142 125
-21 28 c-57 81 -383 393 -408 390 -4 0 -57 -44 -119 -97z"/>
<path d="M18750 15523 c-1 -577 -10 -849 -35 -1018 -42 -287 -128 -508 -261
-670 -44 -54 -44 -54 -21 -66 42 -23 172 -124 241 -189 l68 -65 30 35 c142
166 257 431 318 733 l11 57 255 0 254 0 0 -385 0 -385 210 0 210 0 0 385 0
385 255 0 255 0 0 -181 c0 -105 -4 -188 -10 -200 -10 -18 -23 -19 -221 -19
-165 0 -210 -3 -206 -12 68 -160 117 -311 117 -361 0 -19 7 -20 178 -15 181 6
282 22 368 59 51 21 120 81 141 123 43 83 43 80 43 1224 l0 1092 -1100 0
-1100 0 0 -527z m860 7 l0 -130 -225 0 -225 0 0 130 0 130 225 0 225 0 0 -130z
m930 0 l0 -130 -255 0 -255 0 0 130 0 130 255 0 255 0 0 -130z m-930 -655 l0
-145 -230 0 -230 0 0 68 c0 38 3 103 6 145 l7 77 223 0 224 0 0 -145z m930 0
l0 -145 -252 2 -253 3 -3 129 c-1 72 0 136 2 143 4 10 59 13 256 13 l250 0 0
-145z"/>
<path d="M26280 14681 c0 -405 5 -465 43 -541 18 -37 34 -51 82 -75 57 -29 66
-30 187 -30 71 0 131 4 137 10 6 7 6 55 -2 142 l-11 132 -73 -6 -73 -6 0 382
0 381 -145 0 -145 0 0 -389z"/>
<path d="M15984 14167 c-45 -137 -111 -255 -196 -351 -23 -27 -37 -51 -32 -56
5 -4 74 -49 154 -100 l145 -92 47 51 c58 64 115 158 161 271 37 88 83 238 76
244 -2 1 -77 28 -166 59 l-162 56 -27 -82z"/>
<path d="M12871 12723 c-43 -22 -71 -67 -71 -118 0 -85 56 -135 152 -135 102
0 158 50 158 141 0 81 -59 129 -157 129 -26 0 -63 -8 -82 -17z"/>
<path d="M11970 12150 l0 -510 130 0 130 0 0 510 0 510 -130 0 -130 0 0 -510z"/>
<path d="M12400 12150 l0 -510 130 0 130 0 -2 508 -3 507 -127 3 -128 3 0
-511z"/>
<path d="M24690 12150 l0 -510 130 0 130 0 0 213 c0 231 6 259 61 299 32 24
107 28 143 8 55 -29 60 -54 64 -297 l4 -223 129 0 129 0 0 208 c0 114 -5 240
-10 279 -22 173 -128 267 -300 266 -78 0 -135 -15 -183 -48 l-37 -24 -2 167
-3 167 -127 3 -128 3 0 -511z"/>
<path d="M27517 12653 c-4 -3 -7 -233 -7 -510 l0 -503 130 0 130 0 0 510 0
510 -123 0 c-68 0 -127 -3 -130 -7z"/>
<path d="M33417 12653 c-4 -3 -7 -77 -7 -164 l0 -158 -44 25 c-98 55 -226 51
-339 -8 -98 -53 -158 -143 -178 -269 -20 -122 25 -269 104 -347 113 -111 321
-135 437 -51 l40 29 0 -35 0 -35 120 0 120 0 0 510 0 510 -123 0 c-68 0 -127
-3 -130 -7z m-68 -490 c14 -11 36 -39 49 -64 43 -80 16 -196 -54 -240 -42 -25
-119 -25 -161 1 -102 62 -95 262 11 311 50 24 116 20 155 -8z"/>
<path d="M17323 12609 c-187 -31 -303 -148 -303 -304 0 -68 27 -130 76 -175
57 -52 104 -72 272 -114 146 -37 185 -58 190 -100 5 -40 -22 -63 -86 -77 -89
-18 -253 14 -347 70 l-33 19 -41 -93 c-23 -51 -41 -98 -41 -105 0 -16 93 -56
186 -81 97 -25 282 -31 364 -10 173 43 270 152 270 300 0 71 -25 125 -79 174
-55 50 -101 69 -258 107 -151 37 -191 54 -199 85 -17 68 34 100 156 99 67 0
101 -6 160 -28 41 -15 81 -28 89 -29 11 -2 65 106 86 174 12 38 -210 100 -349
98 -33 -1 -84 -5 -113 -10z"/>
<path d="M9100 12120 l0 -480 135 0 135 0 0 480 0 480 -135 0 -135 0 0 -480z"/>
<path d="M22112 12493 l3 -108 148 -3 147 -3 0 -369 0 -370 135 0 135 0 0 370
0 370 145 0 145 0 0 110 0 110 -430 0 -431 0 3 -107z"/>
<path d="M10530 12455 l0 -95 -55 0 -55 0 0 -100 0 -100 55 0 55 0 0 -142 c0
-177 5 -205 44 -270 42 -70 111 -107 217 -115 77 -6 174 9 203 30 16 12 15 19
-15 100 -25 71 -34 87 -48 82 -9 -4 -33 -9 -53 -12 -30 -4 -41 -1 -62 20 -25
26 -26 29 -26 167 l0 140 85 0 85 0 0 100 0 100 -85 0 -85 0 0 95 0 95 -130 0
-130 0 0 -95z"/>
<path d="M16080 12455 l0 -95 -55 0 -55 0 0 -100 0 -100 55 0 55 0 0 -153 c0
-169 11 -225 54 -282 57 -74 208 -113 337 -86 94 20 94 22 58 124 -26 70 -35
87 -48 81 -9 -3 -33 -8 -53 -11 -30 -4 -41 -1 -62 20 -25 26 -26 29 -26 167
l0 140 85 0 85 0 0 100 0 100 -85 0 -85 0 0 95 0 95 -130 0 -130 0 0 -95z"/>
<path d="M20460 12456 l0 -95 -52 -3 -53 -3 -3 -97 -3 -98 54 0 55 0 4 -167
c5 -186 14 -221 71 -282 47 -49 107 -73 202 -78 86 -6 191 16 201 41 8 20 -52
171 -68 169 -7 -1 -25 -5 -40 -9 -42 -10 -76 3 -93 36 -11 22 -15 62 -15 160
l0 130 85 0 85 0 0 100 0 100 -85 0 -85 0 0 95 0 95 -130 0 -130 0 0 -94z"/>
<path d="M9965 12390 c-57 -12 -95 -28 -132 -56 l-33 -25 0 35 0 36 -125 0
-125 0 0 -370 0 -370 130 0 130 0 0 211 c0 174 3 217 16 245 44 93 180 107
228 24 19 -32 21 -55 24 -257 l3 -223 131 0 130 0 -4 263 c-5 293 -11 321 -75
396 -43 51 -90 76 -168 90 -65 12 -73 12 -130 1z"/>
<path d="M11371 12389 c-217 -36 -359 -231 -321 -440 36 -196 202 -319 431
-319 112 0 239 42 289 95 l24 26 -67 67 -68 68 -56 -28 c-92 -46 -191 -38
-254 22 -73 69 -73 69 229 72 l267 3 -2 75 c-4 193 -125 327 -323 359 -73 12
-74 12 -149 0z m155 -195 c34 -17 74 -69 74 -98 0 -14 -18 -16 -151 -16 l-150
0 7 23 c28 90 131 133 220 91z"/>
<path d="M13490 12386 c-112 -25 -198 -89 -246 -183 -27 -53 -29 -67 -29 -163
0 -87 4 -113 22 -152 32 -71 103 -141 176 -174 53 -24 75 -28 152 -29 96 0
137 11 194 53 l34 25 -6 -52 c-10 -88 -57 -131 -158 -145 -59 -9 -170 14 -238
48 l-51 26 -42 -82 c-24 -46 -44 -86 -46 -90 -6 -12 59 -47 127 -68 203 -64
439 -37 557 63 39 33 89 127 103 195 7 33 11 181 11 387 l0 335 -125 0 -125 0
0 -40 0 -39 -27 25 c-39 37 -70 51 -138 63 -69 13 -74 13 -145 -3z m240 -226
c45 -32 63 -74 58 -137 -8 -89 -70 -138 -168 -131 -67 5 -116 35 -136 84 -47
113 38 223 163 211 31 -3 65 -14 83 -27z"/>
<path d="M14500 12389 c-130 -22 -239 -101 -291 -213 -77 -163 -27 -366 114
-462 142 -98 360 -111 509 -32 31 17 65 39 74 49 17 19 15 22 -50 88 l-68 69
-55 -29 c-95 -50 -209 -37 -266 30 -52 62 -55 61 237 61 l264 0 6 31 c3 17 1
61 -4 97 -28 171 -143 283 -320 311 -73 12 -74 12 -150 0z m158 -199 c32 -20
72 -74 72 -97 0 -10 -37 -13 -150 -13 -164 0 -165 0 -130 58 28 45 76 72 130
72 27 0 58 -8 78 -20z"/>
<path d="M15513 12390 c-56 -12 -124 -42 -142 -63 -21 -26 -31 -20 -31 18 l0
35 -120 0 -120 0 0 -370 0 -370 130 0 130 0 0 210 c0 234 5 261 60 300 36 25
111 31 147 11 51 -27 58 -59 61 -298 l4 -223 129 0 129 0 0 218 c0 246 -10
325 -48 396 -31 57 -95 111 -150 125 -60 16 -134 20 -179 11z"/>
<path d="M18339 12390 c-51 -9 -99 -31 -118 -54 -20 -24 -31 -19 -31 14 l0 30
-125 0 -125 0 0 -500 0 -500 130 0 130 0 0 160 c0 88 2 160 5 160 2 0 20 -11
39 -24 79 -54 218 -59 319 -13 77 35 131 88 169 165 32 64 33 71 33 187 0 111
-2 124 -28 177 -53 107 -143 175 -262 197 -65 12 -69 12 -136 1z m99 -227 c47
-35 65 -70 70 -131 8 -116 -52 -192 -152 -192 -63 0 -108 28 -135 84 -47 96
-13 212 74 252 39 18 110 12 143 -13z"/>
<path d="M19186 12389 c-132 -20 -252 -106 -304 -217 -24 -50 -27 -70 -27
-157 0 -87 3 -107 27 -157 71 -153 230 -238 418 -225 234 16 383 164 382 382
0 58 -6 96 -21 137 -25 66 -95 148 -155 182 -83 49 -215 71 -320 55z m154
-218 c51 -27 80 -83 80 -156 0 -108 -58 -175 -153 -175 -88 0 -142 53 -154
148 -17 144 109 246 227 183z"/>
<path d="M20230 12390 c-60 -10 -108 -31 -147 -64 l-33 -28 0 41 0 41 -120 0
-120 0 0 -370 0 -370 129 0 130 0 3 214 c3 200 4 217 24 243 34 45 79 66 145
67 l59 1 0 117 c0 88 -3 118 -12 117 -7 -1 -33 -5 -58 -9z"/>
<path d="M21273 12390 c-83 -12 -175 -54 -217 -101 -57 -62 -71 -150 -37 -224
37 -81 102 -115 266 -140 149 -23 190 -52 130 -91 -40 -26 -200 -15 -285 19
-35 15 -65 25 -67 24 -6 -6 -73 -159 -73 -166 0 -15 101 -52 184 -68 148 -28
313 -7 408 53 84 53 120 164 83 259 -30 81 -93 114 -270 144 -87 15 -124 26
-139 41 l-20 20 22 22 c34 34 139 37 234 7 40 -13 77 -23 81 -24 8 0 77 149
77 166 0 10 -68 35 -130 47 -85 17 -179 21 -247 12z"/>
<path d="M23290 12393 c-112 -12 -229 -80 -288 -167 -100 -150 -75 -371 55
-485 160 -142 449 -150 607 -17 l30 25 -71 73 c-68 69 -72 72 -90 56 -56 -51
-175 -63 -249 -27 -36 17 -84 70 -84 93 0 3 122 6 271 6 l271 0 -4 88 c-9 192
-126 320 -320 352 -35 5 -70 9 -78 8 -8 -1 -31 -3 -50 -5z m129 -201 c36 -18
65 -52 76 -89 l6 -23 -150 0 c-138 0 -151 2 -151 18 0 32 45 84 90 104 29 13
95 8 129 -10z"/>
<path d="M24156 12389 c-73 -11 -167 -54 -223 -103 -25 -22 -56 -64 -75 -104
-31 -62 -33 -73 -33 -172 0 -96 2 -110 29 -163 74 -146 236 -227 426 -214 124
8 223 59 279 143 17 26 31 50 31 54 0 3 -44 28 -98 54 l-99 49 -40 -43 c-37
-40 -45 -44 -99 -47 -76 -5 -119 17 -152 78 -33 61 -27 153 13 205 65 85 186
84 251 -2 l26 -33 99 50 99 49 -19 38 c-43 85 -140 145 -260 162 -74 11 -74
11 -155 -1z"/>
<path d="M26055 12390 c-57 -12 -95 -28 -132 -56 l-33 -25 0 35 0 36 -125 0
-125 0 0 -370 0 -370 130 0 130 0 0 208 c0 181 3 212 19 249 41 89 169 106
223 30 22 -31 23 -41 26 -259 l4 -228 130 0 130 0 -4 263 c-5 293 -10 321 -75
396 -43 51 -90 76 -168 90 -65 12 -73 12 -130 1z"/>
<path d="M26897 12390 c-212 -36 -338 -178 -338 -380 0 -103 27 -173 93 -246
196 -213 587 -164 704 89 26 55 29 73 29 162 0 93 -2 105 -33 167 -18 36 -51
82 -73 103 -54 49 -148 92 -229 104 -73 12 -85 12 -153 1z m161 -227 c46 -34
63 -67 69 -131 7 -74 -21 -140 -71 -172 -44 -26 -120 -27 -163 0 -69 42 -94
160 -52 246 37 78 149 107 217 57z"/>
<path d="M28255 12393 c-111 -15 -203 -60 -269 -134 -61 -68 -88 -142 -88
-244 0 -108 28 -182 96 -253 199 -211 586 -161 702 91 26 55 29 73 29 162 0
93 -2 105 -33 167 -18 36 -51 82 -73 103 -54 49 -148 92 -229 104 -65 11 -80
11 -135 4z m143 -230 c54 -40 67 -69 67 -146 0 -82 -20 -126 -71 -158 -44 -27
-121 -26 -164 4 -100 68 -93 251 11 309 43 23 120 19 157 -9z"/>
<path d="M29090 12387 c-117 -27 -209 -98 -253 -195 -32 -73 -36 -209 -6 -287
30 -80 100 -154 182 -191 54 -25 74 -29 157 -29 97 1 151 17 203 63 16 14 17
13 17 -16 0 -47 -29 -110 -61 -133 -15 -11 -54 -24 -86 -30 -71 -13 -181 7
-254 46 l-48 24 -46 -85 c-25 -47 -43 -89 -40 -95 12 -18 86 -50 163 -70 93
-24 261 -29 342 -10 112 27 198 89 240 171 45 89 50 135 50 492 l0 338 -125 0
-125 0 0 -41 0 -41 -39 35 c-60 54 -172 76 -271 54z m217 -217 c106 -48 112
-198 11 -260 -42 -25 -120 -26 -168 -2 -107 53 -107 205 0 260 54 27 101 28
157 2z"/>
<path d="M31320 12394 c-134 -21 -260 -63 -260 -87 0 -19 73 -167 82 -167 5 0
19 7 31 15 12 8 51 22 87 31 103 26 194 4 225 -56 8 -16 15 -33 15 -38 0 -5
-64 -12 -142 -15 -165 -5 -220 -20 -278 -76 -64 -61 -76 -161 -30 -251 66
-130 327 -162 435 -54 l35 35 0 -46 0 -45 121 0 120 0 -3 258 c-5 286 -10 316
-73 389 -65 76 -236 126 -365 107z m180 -488 c0 -96 -152 -152 -210 -78 -27
33 -25 58 5 87 22 23 32 25 115 25 l90 0 0 -34z"/>
<path d="M32339 12390 c-48 -8 -94 -29 -141 -62 l-28 -19 0 35 0 36 -125 0
-125 0 0 -370 0 -370 129 0 130 0 3 213 c3 191 5 215 23 246 31 53 65 73 124
74 45 1 56 -3 84 -31 l32 -32 3 -235 3 -235 130 0 130 0 -3 273 c-3 254 -4
275 -25 319 -55 120 -195 184 -344 158z"/>
<path d="M12820 12010 l0 -370 130 0 130 0 0 370 0 370 -130 0 -130 0 0 -370z"/>
<path d="M29729 12358 c5 -13 75 -178 155 -367 80 -189 146 -352 146 -362 0
-53 -103 -76 -173 -39 l-37 20 -45 -89 c-49 -98 -49 -98 20 -127 94 -39 232
-37 314 6 42 21 111 93 136 140 23 45 345 821 345 832 0 5 -55 7 -122 6 l-121
-3 -83 -205 c-45 -113 -86 -211 -91 -218 -5 -9 -38 59 -97 207 l-89 221 -133
0 -134 0 9 -22z"/>
<path d="M12013 11200 c-40 -24 -53 -48 -53 -97 0 -135 214 -157 259 -27 12
35 12 44 -3 75 -9 19 -29 43 -45 52 -40 23 -118 22 -158 -3z"/>
<path d="M14328 11202 c-64 -39 -72 -125 -18 -177 38 -36 119 -46 168 -21 56
29 81 115 46 164 -35 51 -140 69 -196 34z"/>
<path d="M27378 11202 c-64 -39 -72 -125 -18 -177 38 -36 119 -46 168 -21 56
29 81 115 46 164 -35 51 -140 69 -196 34z"/>
<path d="M30453 11200 c-51 -31 -67 -83 -43 -144 26 -70 159 -89 220 -31 16
16 32 43 36 60 8 44 -18 100 -55 119 -42 22 -119 20 -158 -4z"/>
<path d="M11620 10720 l0 -430 110 0 110 0 0 430 0 430 -110 0 -110 0 0 -430z"/>
<path d="M18250 11010 c0 -77 -4 -140 -9 -140 -5 0 -14 7 -21 15 -21 25 -117
48 -177 42 -113 -12 -205 -77 -252 -177 -21 -46 -26 -70 -26 -145 0 -76 4 -98
26 -145 35 -74 67 -111 129 -144 88 -48 225 -48 295 0 44 30 45 30 45 -1 l0
-25 105 0 105 0 0 430 0 430 -110 0 -110 0 0 -140z m-55 -282 c72 -57 73 -189
0 -246 -60 -47 -146 -33 -185 30 -25 42 -27 137 -4 177 37 62 134 82 189 39z"/>
<path d="M25020 11011 l0 -140 -47 27 c-41 23 -60 27 -128 27 -67 0 -89 -5
-137 -28 -69 -34 -121 -91 -149 -166 -17 -46 -20 -72 -17 -146 5 -109 33 -171
104 -234 95 -83 259 -96 357 -29 l27 19 0 -25 0 -26 105 0 105 0 0 430 0 430
-110 0 -110 0 0 -139z m-62 -275 c42 -23 62 -66 62 -131 0 -74 -25 -120 -77
-141 -117 -49 -222 83 -169 211 27 64 123 96 184 61z"/>
<path d="M29690 10720 l0 -430 115 0 115 0 0 430 0 430 -115 0 -115 0 0 -430z"/>
<path d="M30060 10720 l0 -430 110 0 110 0 0 430 0 430 -110 0 -110 0 0 -430z"/>
<path d="M9185 10713 c-93 -212 -173 -395 -177 -405 -7 -17 0 -18 110 -18
l117 0 30 78 31 77 173 0 174 0 30 -77 30 -78 120 0 c103 0 118 2 113 15 -3 9
-83 191 -178 405 l-172 390 -115 0 -116 0 -170 -387z m335 37 c23 -58 44 -111
47 -117 4 -10 -19 -13 -97 -13 -93 0 -102 2 -96 18 43 117 92 230 98 224 3 -4
25 -54 48 -112z"/>
<path d="M16590 10695 l0 -405 115 0 115 0 0 405 0 405 -115 0 -115 0 0 -405z"/>
<path d="M22321 10708 c-96 -216 -176 -399 -178 -406 -4 -10 20 -12 112 -10
l118 3 31 75 32 75 171 3 171 2 32 -80 32 -80 119 0 c66 0 119 1 119 3 0 1
-80 182 -178 402 l-177 400 -116 3 -115 3 -173 -393z m340 34 l47 -117 -95 -3
c-53 -1 -98 -1 -100 2 -3 3 16 59 43 125 26 67 50 118 53 115 3 -3 27 -58 52
-122z"/>
<path d="M29041 11078 c-5 -13 -84 -192 -175 -398 -91 -206 -166 -378 -166
-382 0 -5 51 -8 114 -8 l114 0 32 80 32 80 171 -2 171 -3 32 -75 31 -75 121
-3 121 -3 -41 93 c-23 51 -103 233 -179 403 l-137 310 -116 3 c-113 3 -117 2
-125 -20z m174 -331 c26 -65 45 -120 43 -123 -3 -3 -48 -3 -101 -2 l-95 3 42
105 c23 58 45 114 49 124 4 10 9 17 11 15 2 -2 25 -57 51 -122z"/>
<path d="M13800 10980 l0 -80 -45 0 -45 0 0 -85 0 -85 45 0 45 0 0 -123 c0
-239 54 -314 233 -325 72 -4 161 10 172 28 2 4 -7 42 -21 84 -23 67 -28 75
-44 66 -22 -12 -70 -13 -86 -2 -26 17 -34 56 -34 161 l0 111 75 0 75 0 0 85 0
85 -75 0 -75 0 0 80 0 80 -110 0 -110 0 0 -80z"/>
<path d="M20080 10981 l0 -80 -47 -3 -48 -3 -3 -82 -3 -83 51 0 50 0 0 -142
c0 -118 4 -150 19 -184 24 -53 65 -90 120 -109 53 -18 172 -19 221 -2 42 15
43 32 10 119 -19 51 -24 57 -40 48 -29 -16 -75 -12 -93 8 -14 15 -17 41 -17
140 l0 122 70 0 70 0 0 85 0 85 -70 0 -70 0 0 80 0 80 -110 0 -110 0 0 -79z"/>
<path d="M10310 10919 c-19 -6 -50 -22 -67 -35 l-33 -25 0 30 0 31 -105 0
-105 0 0 -430 0 -430 110 0 110 0 0 142 c0 139 0 141 19 124 53 -48 183 -60
274 -26 71 27 140 96 168 169 32 85 30 198 -5 278 -50 111 -142 173 -266 179
-36 2 -81 -1 -100 -7z m114 -190 c37 -29 56 -71 56 -124 0 -93 -49 -149 -130
-149 -81 0 -130 56 -130 149 0 88 51 145 130 145 33 0 55 -6 74 -21z"/>
<path d="M11111 10916 c-24 -8 -54 -25 -67 -37 l-24 -22 0 31 0 32 -105 0
-105 0 0 -430 0 -430 110 0 110 0 0 142 c0 139 0 141 19 124 50 -46 178 -59
267 -29 70 24 154 110 177 182 38 120 14 264 -58 349 -71 83 -217 122 -324 88z
m124 -188 c34 -27 55 -75 55 -128 0 -105 -97 -176 -185 -134 -58 27 -77 66
-73 148 4 64 6 70 41 102 31 29 44 34 86 34 34 0 56 -6 76 -22z"/>
<path d="M12572 10920 c-63 -13 -159 -68 -191 -109 -52 -66 -64 -101 -69 -192
-4 -78 -2 -92 23 -148 53 -116 158 -182 306 -189 139 -7 246 38 300 124 26 42
25 43 -71 93 l-73 39 -36 -38 c-46 -49 -95 -60 -148 -34 -75 37 -104 125 -69
209 37 89 177 101 230 21 l16 -26 83 41 c45 23 83 43 85 44 8 7 -29 62 -60 92
-50 49 -119 75 -207 79 -42 1 -95 -1 -119 -6z"/>
<path d="M13193 10916 c-63 -15 -153 -50 -153 -61 0 -14 72 -146 78 -143 89
47 187 60 241 31 21 -11 40 -31 48 -50 l13 -33 -98 0 c-201 0 -298 -53 -310
-168 -8 -90 47 -170 137 -201 88 -29 227 -3 265 50 l16 23 0 -37 0 -37 106 0
106 0 -4 218 c-3 215 -3 218 -31 275 -48 96 -121 135 -267 143 -53 2 -109 -2
-147 -10z m227 -396 c0 -58 -49 -100 -119 -100 -68 0 -102 69 -53 108 10 7 47
12 94 12 71 0 78 -2 78 -20z"/>
<path d="M14870 10914 c-105 -28 -181 -91 -224 -183 -30 -67 -29 -187 3 -258
28 -62 102 -135 168 -165 40 -18 67 -22 158 -22 98 -1 116 2 165 25 122 57
181 143 188 274 3 65 0 91 -18 137 -59 159 -252 242 -440 192z m185 -186 c72
-57 73 -189 0 -246 -61 -49 -150 -32 -189 36 -40 70 -15 190 46 220 40 19 112
14 143 -10z"/>
<path d="M15774 10920 c-18 -4 -52 -19 -78 -33 l-46 -26 0 30 0 29 -105 0
-105 0 0 -315 0 -315 110 0 110 0 0 180 c0 200 6 227 60 255 71 36 143 5 160
-70 5 -22 10 -113 10 -202 l0 -163 111 0 111 0 -4 223 c-3 215 -4 224 -29 278
-16 33 -42 68 -62 83 -63 48 -159 67 -243 46z"/>
<path d="M17313 10921 c-17 -4 -52 -20 -77 -35 l-46 -27 0 31 0 30 -105 0
-105 0 0 -315 0 -315 110 0 110 0 0 176 c0 195 9 232 61 259 45 24 102 19 131
-10 34 -34 38 -60 38 -256 l0 -169 110 0 110 0 0 200 c0 109 -5 222 -11 250
-23 107 -113 179 -232 186 -34 2 -76 -1 -94 -5z"/>
<path d="M19583 10920 c-106 -22 -185 -85 -199 -155 -12 -63 1 -124 32 -157
44 -45 78 -59 197 -79 109 -18 137 -30 137 -55 0 -52 -173 -46 -302 10 -15 7
-24 -5 -51 -65 l-34 -74 33 -18 c91 -48 284 -62 393 -28 113 35 161 93 161
193 0 113 -58 156 -258 188 -42 7 -81 20 -95 31 l-22 19 24 20 c32 27 131 27
208 0 31 -11 58 -18 60 -17 1 2 16 34 34 72 24 54 28 70 17 76 -53 35 -250 57
-335 39z"/>
<path d="M20898 10916 c-26 -7 -63 -25 -82 -40 l-36 -27 0 35 0 36 -105 0
-105 0 0 -315 0 -315 109 0 109 0 4 178 c3 154 5 181 22 205 26 39 66 57 126
57 l50 0 0 100 c0 114 2 111 -92 86z"/>
<path d="M23340 10915 c-106 -30 -182 -93 -224 -184 -30 -67 -28 -187 3 -259
34 -76 114 -146 198 -172 169 -52 357 3 419 122 l14 28 -84 42 -85 42 -29 -32
c-37 -40 -77 -55 -121 -47 -78 15 -111 61 -111 156 0 58 2 63 39 100 35 35 44
39 91 39 48 0 56 -4 92 -40 l40 -39 83 42 84 42 -16 33 c-22 45 -85 97 -142
117 -67 24 -185 28 -251 10z"/>
<path d="M23975 10916 c-33 -8 -81 -24 -107 -37 l-47 -22 36 -71 c19 -39 36
-72 37 -73 1 -1 29 9 62 22 61 26 135 32 177 16 33 -13 67 -50 67 -73 0 -16
-10 -18 -95 -18 -159 0 -233 -26 -282 -99 -27 -40 -31 -126 -9 -170 22 -41 80
-88 123 -100 50 -14 141 -14 184 0 19 7 49 25 67 42 l32 31 0 -37 0 -37 101 0
100 0 -3 228 c-3 210 -5 230 -25 267 -50 93 -128 135 -266 141 -57 2 -115 -2
-152 -10z m225 -410 c0 -26 -7 -41 -31 -60 -59 -50 -159 -26 -159 38 0 40 35
56 117 56 l73 0 0 -34z"/>
<path d="M25588 10916 c-151 -44 -239 -157 -240 -310 0 -135 65 -236 191 -295
51 -24 67 -26 176 -26 111 0 124 2 176 27 31 16 64 37 74 48 18 20 18 22 -39
79 l-58 59 -44 -25 c-39 -22 -54 -25 -116 -21 -66 4 -72 6 -104 41 -19 20 -34
41 -34 47 0 6 81 10 230 10 l230 0 0 49 c0 72 -34 170 -75 218 -54 64 -144
104 -241 109 -49 2 -97 -2 -126 -10z m172 -162 c27 -17 60 -62 60 -83 0 -7
-41 -11 -125 -11 -107 0 -125 2 -125 16 0 71 118 120 190 78z"/>
<path d="M26449 10916 c-20 -7 -53 -23 -73 -35 l-36 -23 0 31 0 31 -105 0
-105 0 0 -315 0 -315 110 0 110 0 0 168 c0 92 5 184 10 204 13 47 52 78 97 78
89 0 103 -35 103 -270 l0 -180 110 0 110 0 0 175 c0 189 8 228 51 259 33 22
90 21 117 -4 34 -32 42 -83 42 -262 l0 -168 111 0 111 0 -5 223 c-5 240 -10
272 -60 332 -84 102 -274 112 -376 20 l-38 -34 -34 35 c-55 57 -168 80 -250
50z"/>
<path d="M27855 10915 c-33 -7 -81 -23 -107 -36 l-47 -22 36 -71 c19 -39 37
-72 38 -74 2 -2 22 7 46 19 59 30 155 37 201 15 31 -15 58 -50 58 -75 0 -5
-55 -10 -122 -13 -106 -3 -131 -8 -179 -30 -71 -33 -100 -76 -101 -151 -1
-116 73 -186 207 -195 85 -5 133 8 181 50 l34 30 0 -36 0 -36 100 0 100 0 0
203 c0 229 -10 283 -62 343 -73 83 -224 114 -383 79z m225 -406 c0 -48 -47
-89 -102 -89 -54 0 -88 22 -88 57 0 49 24 63 112 63 l78 0 0 -31z"/>
<path d="M30933 10916 c-63 -15 -153 -50 -153 -61 0 -14 72 -146 78 -143 89
47 187 60 241 31 21 -11 40 -31 48 -50 l13 -33 -98 0 c-201 0 -298 -53 -310
-168 -8 -90 47 -170 137 -201 88 -29 227 -3 265 50 l16 23 0 -37 0 -37 106 0
106 0 -4 218 c-3 215 -3 218 -31 275 -48 96 -121 135 -267 143 -53 2 -109 -2
-147 -10z m227 -396 c0 -58 -49 -100 -119 -100 -68 0 -102 69 -53 108 10 7 47
12 94 12 71 0 78 -2 78 -20z"/>
<path d="M31854 10920 c-18 -4 -52 -19 -78 -33 l-46 -26 0 30 0 29 -105 0
-105 0 0 -315 0 -315 110 0 110 0 0 176 c0 142 3 183 16 210 27 56 98 80 157
53 45 -20 51 -51 55 -251 l4 -188 110 0 110 0 -4 223 c-3 208 -5 225 -27 275
-13 28 -39 65 -57 82 -57 49 -164 71 -250 50z"/>
<path d="M32555 10917 c-104 -28 -183 -86 -227 -170 -20 -36 -23 -57 -23 -142
0 -92 2 -104 29 -153 36 -65 82 -107 156 -141 49 -23 67 -26 166 -26 103 0
114 2 169 30 56 29 125 100 125 129 0 6 -37 30 -82 52 l-83 41 -35 -38 c-61
-65 -151 -59 -203 13 -27 36 -33 114 -14 161 39 91 174 104 234 22 l19 -26 79
42 c44 23 81 43 83 45 8 5 -29 62 -60 91 -72 69 -218 100 -333 70z"/>
<path d="M33247 10920 c-101 -26 -188 -96 -229 -185 -32 -70 -32 -190 0 -260
31 -68 92 -128 166 -162 56 -26 71 -28 176 -28 99 0 122 3 165 23 49 22 95 58
95 73 0 4 -23 32 -51 63 l-50 55 -46 -25 c-81 -43 -197 -29 -237 28 -33 47
-31 48 209 48 l225 0 0 65 c0 177 -125 300 -315 311 -38 2 -87 -1 -108 -6z
m185 -189 c15 -17 28 -40 28 -51 0 -19 -7 -20 -125 -20 -84 0 -125 4 -125 11
0 20 32 66 59 83 19 12 41 16 80 13 46 -3 59 -9 83 -36z"/>
<path d="M11980 10605 l0 -315 110 0 110 0 0 315 0 315 -110 0 -110 0 0 -315z"/>
<path d="M14300 10605 l0 -315 110 0 110 0 0 315 0 315 -110 0 -110 0 0 -315z"/>
<path d="M18610 10708 c0 -117 5 -229 10 -248 30 -110 110 -171 232 -178 73
-5 119 7 173 43 l35 24 0 -29 0 -30 105 0 105 0 0 315 0 315 -110 0 -110 0 0
-175 c0 -189 -8 -228 -51 -259 -14 -9 -43 -16 -69 -16 -37 0 -52 5 -71 26 -23
25 -24 30 -27 225 l-3 199 -110 0 -109 0 0 -212z"/>
<path d="M21023 10908 c3 -7 64 -152 136 -322 l131 -309 -22 -24 c-26 -28
-101 -32 -136 -7 -13 9 -25 14 -26 13 -5 -6 -76 -148 -76 -153 0 -2 22 -13 48
-24 147 -63 300 -23 374 98 15 25 92 201 171 393 l145 347 -107 0 -106 0 -75
-189 c-41 -104 -77 -188 -80 -186 -3 2 -39 87 -80 189 l-73 186 -115 0 c-87 0
-113 -3 -109 -12z"/>
<path d="M27350 10605 l0 -315 110 0 110 0 0 315 0 315 -110 0 -110 0 0 -315z"/>
<path d="M30420 10605 l0 -315 110 0 110 0 0 315 0 315 -110 0 -110 0 0 -315z"/>
<path d="M21790 10615 l0 -85 168 2 167 3 3 83 3 82 -171 0 -170 0 0 -85z"/>
</g>
</svg>
