<svg id="圖層_1" data-name="圖層 1" xmlns="http://www.w3.org/2000/svg" viewBox="0 0 198.9 271.1"><defs><style>.cls-1{fill:#102e50;}.cls-2{fill:#fff;}</style></defs><title>工作區域 1</title><g id="_群組_" data-name="&lt;群組&gt;"><g id="_群組_2" data-name="&lt;群組&gt;"><path id="_路徑_" data-name="&lt;路徑&gt;" class="cls-1" d="M57.3,107.7H67.9c5.6,0,10.2-4.1,10.2-9.2V89.7c0-5-4.6-9.2-10.2-9.2H42.1c-5.6,0-10.2,4.1-10.2,9.2v8.8c0,5,4.6,9.2,10.2,9.2H52.6S54.8,100.2,57.3,107.7Z"/><g id="_群組_3" data-name="&lt;群組&gt;"><ellipse id="_路徑_2" data-name="&lt;路徑&gt;" class="cls-2" cx="44.41" cy="94.11" rx="7.9" ry="7.6" transform="translate(-56.49 119.55) rotate(-78.89)"/><ellipse id="_路徑_3" data-name="&lt;路徑&gt;" class="cls-2" cx="66.41" cy="94.18" rx="7.6" ry="7.9" transform="translate(-16.9 14.56) rotate(-11.11)"/></g></g><g id="_群組_4" data-name="&lt;群組&gt;"><path id="_路徑_4" data-name="&lt;路徑&gt;" class="cls-1" d="M18.2,230.9v4.3h5.2V237H18.2v4.4H24v1.9H15.9V229H24v1.8H18.2Z"/><path id="_路徑_5" data-name="&lt;路徑&gt;" class="cls-1" d="M32.7,243.1,30,239.2l-2.4,3.9H25.1l3.6-5.7L25,232.1h2.6l2.6,3.8,2.3-3.8H35l-3.6,5.6,3.8,5.5H32.7Z"/><path id="_路徑_6" data-name="&lt;路徑&gt;" class="cls-1" d="M42.4,241.2v2H41a4.14,4.14,0,0,1-2.7-.8,3.77,3.77,0,0,1-.9-2.8v-5.4H35.8v-1.9h1.6v-2.7h2.3v2.7h2.7v1.9H39.7v5.4a2.06,2.06,0,0,0,.3,1.3,1.69,1.69,0,0,0,1.2.4h1.2Z"/><path id="_複合路徑_" data-name="&lt;複合路徑&gt;" class="cls-1" d="M54.7,238.1H46.2a3.58,3.58,0,0,0,.9,2.5,3.11,3.11,0,0,0,2.2.8,2.88,2.88,0,0,0,1.9-.6,3.07,3.07,0,0,0,1-1.5h2.4a5,5,0,0,1-.9,2.1,4.89,4.89,0,0,1-1.8,1.4,6.55,6.55,0,0,1-2.5.5,5.07,5.07,0,0,1-2.8-.7,4.59,4.59,0,0,1-1.9-2,7.35,7.35,0,0,1-.7-3,6,6,0,0,1,.7-3,5.24,5.24,0,0,1,1.9-2,5.3,5.3,0,0,1,2.8-.7,5.07,5.07,0,0,1,2.8.7,5.46,5.46,0,0,1,1.9,1.8,5.94,5.94,0,0,1,.7,2.6A3.42,3.42,0,0,1,54.7,238.1Zm-2.6-2.9a2.91,2.91,0,0,0-1.1-1.1,4,4,0,0,0-1.5-.3,3.29,3.29,0,0,0-2.2.8,3.55,3.55,0,0,0-1,2.4h6.3A4.76,4.76,0,0,0,52.1,235.2Z"/><path id="_路徑_7" data-name="&lt;路徑&gt;" class="cls-1" d="M66.3,233.2a4.79,4.79,0,0,1,1.2,3.5v6.4H65.2V237a3.2,3.2,0,0,0-.8-2.3,2.86,2.86,0,0,0-2.1-.8,2.94,2.94,0,0,0-2.2.9,3.74,3.74,0,0,0-.8,2.5v5.9H57v-11h2.3v2.4a3.58,3.58,0,0,1,1.5-1.9,4.81,4.81,0,0,1,2.4-.7A3.8,3.8,0,0,1,66.3,233.2Z"/><path id="_複合路徑_2" data-name="&lt;複合路徑&gt;" class="cls-1" d="M77.1,232.7a3.82,3.82,0,0,1,1.5,2v-6.3h2.3v14.8H78.6v-2.6a4.26,4.26,0,0,1-1.5,2,4.41,4.41,0,0,1-2.6.7,4.62,4.62,0,0,1-2.6-.7,5,5,0,0,1-1.8-2,6,6,0,0,1-.6-3,7.31,7.31,0,0,1,.6-3,4.38,4.38,0,0,1,1.8-2,4.62,4.62,0,0,1,2.6-.7A5.32,5.32,0,0,1,77.1,232.7ZM72.8,235a3.67,3.67,0,0,0-.9,2.7,4,4,0,0,0,.9,2.7,3.31,3.31,0,0,0,2.4,1,3.37,3.37,0,0,0,1.7-.5,3,3,0,0,0,1.2-1.3,4.06,4.06,0,0,0,.4-1.9,3.81,3.81,0,0,0-.4-1.9,3,3,0,0,0-1.2-1.3,3.37,3.37,0,0,0-1.7-.5A3,3,0,0,0,72.8,235Z"/><path id="_複合路徑_3" data-name="&lt;複合路徑&gt;" class="cls-1" d="M93.7,238.1H85.2a3.58,3.58,0,0,0,.9,2.5,3.11,3.11,0,0,0,2.2.8,2.88,2.88,0,0,0,1.9-.6,3.07,3.07,0,0,0,1-1.5h2.4a5,5,0,0,1-.9,2.1,4.89,4.89,0,0,1-1.8,1.4,6.55,6.55,0,0,1-2.5.5,5.07,5.07,0,0,1-2.8-.7,4.59,4.59,0,0,1-1.9-2,7.35,7.35,0,0,1-.7-3,6,6,0,0,1,.7-3,5.24,5.24,0,0,1,1.9-2,5.3,5.3,0,0,1,2.8-.7,5.07,5.07,0,0,1,2.8.7,5.46,5.46,0,0,1,1.9,1.8,5.94,5.94,0,0,1,.7,2.6A3.42,3.42,0,0,1,93.7,238.1Zm-2.6-2.9a2.91,2.91,0,0,0-1.1-1.1,4,4,0,0,0-1.5-.3,3.29,3.29,0,0,0-2.2.8,3.55,3.55,0,0,0-1,2.4h6.3A4.76,4.76,0,0,0,91.1,235.2Z"/><path id="_複合路徑_4" data-name="&lt;複合路徑&gt;" class="cls-1" d="M103,232.7a3.82,3.82,0,0,1,1.5,2v-6.3h2.3v14.8h-2.3v-2.6a4.26,4.26,0,0,1-1.5,2,4.41,4.41,0,0,1-2.6.7,4.62,4.62,0,0,1-2.6-.7,5,5,0,0,1-1.8-2,6,6,0,0,1-.6-3,7.31,7.31,0,0,1,.6-3,4.38,4.38,0,0,1,1.8-2,4.62,4.62,0,0,1,2.6-.7A5.32,5.32,0,0,1,103,232.7ZM98.7,235a3.67,3.67,0,0,0-.9,2.7,4,4,0,0,0,.9,2.7,3.31,3.31,0,0,0,2.4,1,3.37,3.37,0,0,0,1.7-.5,3,3,0,0,0,1.2-1.3,4.06,4.06,0,0,0,.4-1.9,3.81,3.81,0,0,0-.4-1.9,3,3,0,0,0-1.2-1.3,3.37,3.37,0,0,0-1.7-.5A3,3,0,0,0,98.7,235Z"/><path id="_複合路徑_5" data-name="&lt;複合路徑&gt;" class="cls-1" d="M121.6,243.1l-3.5-5.6h-1.6v5.6h-2.3V229h5a5.31,5.31,0,0,1,3.7,1.2,4.22,4.22,0,0,1,1.3,3.1,4,4,0,0,1-.9,2.7,4.39,4.39,0,0,1-2.7,1.4l3.7,5.7h-2.7Zm-5.1-7.2H119c1.8,0,2.8-.8,2.8-2.4a2.14,2.14,0,0,0-.7-1.8,2.92,2.92,0,0,0-2.1-.7h-2.5Z"/><path id="_複合路徑_6" data-name="&lt;複合路徑&gt;" class="cls-1" d="M136.3,238.1h-8.5a3.58,3.58,0,0,0,.9,2.5,3.11,3.11,0,0,0,2.2.8,2.88,2.88,0,0,0,1.9-.6,3.07,3.07,0,0,0,1-1.5h2.4a5,5,0,0,1-.9,2.1,4.89,4.89,0,0,1-1.8,1.4,6.55,6.55,0,0,1-2.5.5,5.07,5.07,0,0,1-2.8-.7,4.59,4.59,0,0,1-1.9-2,7.35,7.35,0,0,1-.7-3,6,6,0,0,1,.7-3,5.24,5.24,0,0,1,1.9-2,5.3,5.3,0,0,1,2.8-.7,5.07,5.07,0,0,1,2.8.7,5.46,5.46,0,0,1,1.9,1.8,5.94,5.94,0,0,1,.7,2.6A3.42,3.42,0,0,1,136.3,238.1Zm-2.6-2.9a2.91,2.91,0,0,0-1.1-1.1,4,4,0,0,0-1.5-.3,3.29,3.29,0,0,0-2.2.8,3.55,3.55,0,0,0-1,2.4h6.3A4.76,4.76,0,0,0,133.7,235.2Z"/><path id="_複合路徑_7" data-name="&lt;複合路徑&gt;" class="cls-1" d="M145.6,232.7a3.82,3.82,0,0,1,1.5,2v-2.6h2.3v11h-2.3v-2.6a4.26,4.26,0,0,1-1.5,2,4.41,4.41,0,0,1-2.6.7,4.62,4.62,0,0,1-2.6-.7,5,5,0,0,1-1.8-2,6,6,0,0,1-.6-3,7.31,7.31,0,0,1,.6-3,4.38,4.38,0,0,1,1.8-2,4.62,4.62,0,0,1,2.6-.7A6.67,6.67,0,0,1,145.6,232.7Zm-4.3,2.3a3.67,3.67,0,0,0-.9,2.7,4,4,0,0,0,.9,2.7,3.31,3.31,0,0,0,2.4,1,3.37,3.37,0,0,0,1.7-.5,3,3,0,0,0,1.2-1.3,4.06,4.06,0,0,0,.4-1.9,3.81,3.81,0,0,0-.4-1.9,3,3,0,0,0-1.2-1.3,3.37,3.37,0,0,0-1.7-.5A3,3,0,0,0,141.3,235Z"/><path id="_路徑_8" data-name="&lt;路徑&gt;" class="cls-1" d="M154.4,228.3v14.8h-2.3V228.3Z"/><path id="_複合路徑_8" data-name="&lt;複合路徑&gt;" class="cls-1" d="M157.2,228a1.37,1.37,0,0,1,1.1-.4,1.5,1.5,0,0,1,1.1.4,1.28,1.28,0,0,1,.4,1,1,1,0,0,1-.4.9,1.82,1.82,0,0,1-1.1.4,1.5,1.5,0,0,1-1.1-.4,1.09,1.09,0,0,1-.4-.9A1.78,1.78,0,0,1,157.2,228Zm2.2,4.1v11h-2.3v-11Z"/><path id="_路徑_9" data-name="&lt;路徑&gt;" class="cls-1" d="M167.7,241.2v2h-1.4a4.14,4.14,0,0,1-2.7-.8,3.77,3.77,0,0,1-.9-2.8v-5.4h-1.6v-1.9h1.6v-2.7H165v2.7h2.7v1.9H165v5.4a2.06,2.06,0,0,0,.3,1.3,1.69,1.69,0,0,0,1.2.4h1.2Z"/><path id="_路徑_10" data-name="&lt;路徑&gt;" class="cls-1" d="M171.2,232.1l3.3,8.1,3.1-8.1h2.5l-6.7,16.3h-2.5l2.4-5.5-4.6-10.8Z"/><path id="_複合路徑_9" data-name="&lt;複合路徑&gt;" class="cls-1" d="M9.5,264.1h-6l-1.1,3.1H0l5.2-13.9H7.8L13,267.2H10.6Zm-.7-1.8-2.3-6.6-2.3,6.6Z"/><path id="_複合路徑_10" data-name="&lt;複合路徑&gt;" class="cls-1" d="M23.6,256.7a5,5,0,0,1,1.8,2,7.31,7.31,0,0,1,.6,3,6.68,6.68,0,0,1-.6,3,4.94,4.94,0,0,1-1.8,2,4.62,4.62,0,0,1-2.6.7,4.41,4.41,0,0,1-2.6-.7,3.82,3.82,0,0,1-1.5-2v7.8H14.6V256.2H17v2.6a4.26,4.26,0,0,1,1.5-2,4.41,4.41,0,0,1,2.6-.7A3.74,3.74,0,0,1,23.6,256.7Zm-5,1.7a3,3,0,0,0-1.2,1.3,4.06,4.06,0,0,0-.4,1.9,3.81,3.81,0,0,0,.4,1.9,3.74,3.74,0,0,0,1.2,1.3,3.37,3.37,0,0,0,1.7.5,3,3,0,0,0,2.4-1,3.67,3.67,0,0,0,.9-2.7,4,4,0,0,0-.9-2.7,3,3,0,0,0-2.4-1A4.8,4.8,0,0,0,18.6,258.4Z"/><path id="_複合路徑_11" data-name="&lt;複合路徑&gt;" class="cls-1" d="M37.1,256.7a5,5,0,0,1,1.8,2,7.31,7.31,0,0,1,.6,3,6.68,6.68,0,0,1-.6,3,4.94,4.94,0,0,1-1.8,2,4.62,4.62,0,0,1-2.6.7,4.41,4.41,0,0,1-2.6-.7,3.82,3.82,0,0,1-1.5-2v7.8H28.1V256.2h2.3v2.6a4.26,4.26,0,0,1,1.5-2,4.41,4.41,0,0,1,2.6-.7A3.89,3.89,0,0,1,37.1,256.7Zm-5,1.7a3,3,0,0,0-1.2,1.3,4.06,4.06,0,0,0-.4,1.9,3.81,3.81,0,0,0,.4,1.9,3.74,3.74,0,0,0,1.2,1.3,3.37,3.37,0,0,0,1.7.5,3,3,0,0,0,2.4-1,3.67,3.67,0,0,0,.9-2.7,4,4,0,0,0-.9-2.7,3,3,0,0,0-2.4-1A4.8,4.8,0,0,0,32.1,258.4Z"/><path id="_路徑_11" data-name="&lt;路徑&gt;" class="cls-1" d="M44,252.3v14.8H41.7V252.3Z"/><path id="_複合路徑_12" data-name="&lt;複合路徑&gt;" class="cls-1" d="M46.8,252a1.37,1.37,0,0,1,1.1-.4,1.5,1.5,0,0,1,1.1.4,1.28,1.28,0,0,1,.4,1,1,1,0,0,1-.4.9,1.82,1.82,0,0,1-1.1.4,1.5,1.5,0,0,1-1.1-.4,1.09,1.09,0,0,1-.4-.9A1.78,1.78,0,0,1,46.8,252Zm2.2,4.1v11H46.7v-11Z"/><path id="_路徑_12" data-name="&lt;路徑&gt;" class="cls-1" d="M60.2,257.1a5,5,0,0,1,1.7,3.1H59.5a2.47,2.47,0,0,0-1-1.6,3.08,3.08,0,0,0-1.9-.6,2.94,2.94,0,0,0-2.2.9,4.5,4.5,0,0,0,0,5.4,2.94,2.94,0,0,0,2.2.9,2.88,2.88,0,0,0,1.9-.6,2.94,2.94,0,0,0,1-1.6H62a5.47,5.47,0,0,1-8,3.5,4.59,4.59,0,0,1-1.9-2,7.35,7.35,0,0,1-.7-3,6,6,0,0,1,.7-3,5.24,5.24,0,0,1,1.9-2,5.3,5.3,0,0,1,2.8-.7A7.34,7.34,0,0,1,60.2,257.1Z"/><path id="_複合路徑_13" data-name="&lt;複合路徑&gt;" class="cls-1" d="M71.1,256.7a3.82,3.82,0,0,1,1.5,2v-2.6h2.3v11H72.6v-2.6a4.26,4.26,0,0,1-1.5,2,4.41,4.41,0,0,1-2.6.7,4.62,4.62,0,0,1-2.6-.7,5,5,0,0,1-1.8-2,6,6,0,0,1-.6-3,7.31,7.31,0,0,1,.6-3,4.38,4.38,0,0,1,1.8-2,4.62,4.62,0,0,1,2.6-.7A6.13,6.13,0,0,1,71.1,256.7ZM66.8,259a3.67,3.67,0,0,0-.9,2.7,4,4,0,0,0,.9,2.7,3.31,3.31,0,0,0,2.4,1,3.37,3.37,0,0,0,1.7-.5,3,3,0,0,0,1.2-1.3,4.06,4.06,0,0,0,.4-1.9,3.81,3.81,0,0,0-.4-1.9,3,3,0,0,0-1.2-1.3,3.37,3.37,0,0,0-1.7-.5A3.25,3.25,0,0,0,66.8,259Z"/><path id="_路徑_13" data-name="&lt;路徑&gt;" class="cls-1" d="M83.2,265.2v2H81.8a4.14,4.14,0,0,1-2.7-.8,3.77,3.77,0,0,1-.9-2.8v-5.4H76.6v-1.9h1.6v-2.7h2.3v2.7h2.7v1.9H80.5v5.4a2.06,2.06,0,0,0,.3,1.3,1.69,1.69,0,0,0,1.2.4h1.2Z"/><path id="_複合路徑_14" data-name="&lt;複合路徑&gt;" class="cls-1" d="M85.4,252a1.37,1.37,0,0,1,1.1-.4,1.5,1.5,0,0,1,1.1.4,1.28,1.28,0,0,1,.4,1,1,1,0,0,1-.4.9,1.82,1.82,0,0,1-1.1.4,1.5,1.5,0,0,1-1.1-.4,1.09,1.09,0,0,1-.4-.9A1.78,1.78,0,0,1,85.4,252Zm2.2,4.1v11H85.3v-11Z"/><path id="_複合路徑_15" data-name="&lt;複合路徑&gt;" class="cls-1" d="M98.3,256.7a4.82,4.82,0,0,1,2,2,6,6,0,0,1,.7,3,5.56,5.56,0,0,1-.7,3,4.82,4.82,0,0,1-2,2,6.36,6.36,0,0,1-5.8,0,4.82,4.82,0,0,1-2-2,6.78,6.78,0,0,1,0-6,5.36,5.36,0,0,1,4.9-2.7A5.66,5.66,0,0,1,98.3,256.7Zm-4.5,1.7a3.45,3.45,0,0,0-1.2,1.2,4.23,4.23,0,0,0-.5,2,3.15,3.15,0,0,0,.5,2,2.78,2.78,0,0,0,1.2,1.2,4.19,4.19,0,0,0,1.6.4,2.93,2.93,0,0,0,1.6-.4,3.45,3.45,0,0,0,1.2-1.2,5.2,5.2,0,0,0,0-4,2.33,2.33,0,0,0-1.2-1.2,3.4,3.4,0,0,0-3.2,0Z"/><path id="_路徑_14" data-name="&lt;路徑&gt;" class="cls-1" d="M112.5,257.2a4.79,4.79,0,0,1,1.2,3.5v6.4h-2.3V261a3.2,3.2,0,0,0-.8-2.3,2.86,2.86,0,0,0-2.1-.8,2.94,2.94,0,0,0-2.2.9,3.74,3.74,0,0,0-.8,2.5v5.9h-2.3v-11h2.3v2.4a3.58,3.58,0,0,1,1.5-1.9,4.81,4.81,0,0,1,2.4-.7A3.8,3.8,0,0,1,112.5,257.2Z"/><path id="_複合路徑_16" data-name="&lt;複合路徑&gt;" class="cls-1" d="M129.4,264.1h-6l-1.1,3.1h-2.4l5.2-13.9h2.6l5.2,13.9h-2.4Zm-.7-1.8-2.3-6.6-2.3,6.6Z"/><path id="_路徑_15" data-name="&lt;路徑&gt;" class="cls-1" d="M136.9,252.3v14.8h-2.3V252.3Z"/><path id="_路徑_16" data-name="&lt;路徑&gt;" class="cls-1" d="M141.9,252.3v14.8h-2.3V252.3Z"/><path id="_複合路徑_17" data-name="&lt;複合路徑&gt;" class="cls-1" d="M144.8,252a1.37,1.37,0,0,1,1.1-.4,1.5,1.5,0,0,1,1.1.4,1.28,1.28,0,0,1,.4,1,1,1,0,0,1-.4.9,1.82,1.82,0,0,1-1.1.4,1.5,1.5,0,0,1-1.1-.4,1.09,1.09,0,0,1-.4-.9A1.28,1.28,0,0,1,144.8,252Zm2.2,4.1v11h-2.3v-11Z"/><path id="_複合路徑_18" data-name="&lt;複合路徑&gt;" class="cls-1" d="M156.7,256.7a3.82,3.82,0,0,1,1.5,2v-2.6h2.3v11h-2.3v-2.6a4.26,4.26,0,0,1-1.5,2,4.41,4.41,0,0,1-2.6.7,4.62,4.62,0,0,1-2.6-.7,5,5,0,0,1-1.8-2,6,6,0,0,1-.6-3,7.31,7.31,0,0,1,.6-3,4.38,4.38,0,0,1,1.8-2,4.62,4.62,0,0,1,2.6-.7A6.67,6.67,0,0,1,156.7,256.7Zm-4.3,2.3a3.67,3.67,0,0,0-.9,2.7,4,4,0,0,0,.9,2.7,3.31,3.31,0,0,0,2.4,1,3.37,3.37,0,0,0,1.7-.5,3,3,0,0,0,1.2-1.3,4.06,4.06,0,0,0,.4-1.9,3.81,3.81,0,0,0-.4-1.9,3,3,0,0,0-1.2-1.3,3.37,3.37,0,0,0-1.7-.5A3,3,0,0,0,152.4,259Z"/><path id="_路徑_17" data-name="&lt;路徑&gt;" class="cls-1" d="M172.5,257.2a4.79,4.79,0,0,1,1.2,3.5v6.4h-2.3V261a3.2,3.2,0,0,0-.8-2.3,2.86,2.86,0,0,0-2.1-.8,2.94,2.94,0,0,0-2.2.9,3.74,3.74,0,0,0-.8,2.5v5.9h-2.3v-11h2.3v2.4a3.58,3.58,0,0,1,1.5-1.9,4.81,4.81,0,0,1,2.4-.7A3.8,3.8,0,0,1,172.5,257.2Z"/><path id="_路徑_18" data-name="&lt;路徑&gt;" class="cls-1" d="M184.7,257.1a5,5,0,0,1,1.7,3.1H184a2.47,2.47,0,0,0-1-1.6,3.08,3.08,0,0,0-1.9-.6,2.94,2.94,0,0,0-2.2.9,4.5,4.5,0,0,0,0,5.4,2.94,2.94,0,0,0,2.2.9,2.88,2.88,0,0,0,1.9-.6,2.94,2.94,0,0,0,1-1.6h2.4a5.47,5.47,0,0,1-8,3.5,4.59,4.59,0,0,1-1.9-2,7.35,7.35,0,0,1-.7-3,6,6,0,0,1,.7-3,5.24,5.24,0,0,1,1.9-2,5.3,5.3,0,0,1,2.8-.7A7.32,7.32,0,0,1,184.7,257.1Z"/><path id="_複合路徑_19" data-name="&lt;複合路徑&gt;" class="cls-1" d="M198.8,262.1h-8.5a3.58,3.58,0,0,0,.9,2.5,3.11,3.11,0,0,0,2.2.8,2.88,2.88,0,0,0,1.9-.6,3.07,3.07,0,0,0,1-1.5h2.4a5,5,0,0,1-.9,2.1,4.89,4.89,0,0,1-1.8,1.4,6.55,6.55,0,0,1-2.5.5,5.07,5.07,0,0,1-2.8-.7,4.59,4.59,0,0,1-1.9-2,7.35,7.35,0,0,1-.7-3,6,6,0,0,1,.7-3,5.24,5.24,0,0,1,1.9-2,5.3,5.3,0,0,1,2.8-.7,5.07,5.07,0,0,1,2.8.7,5.46,5.46,0,0,1,1.9,1.8,5.94,5.94,0,0,1,.7,2.6A3.42,3.42,0,0,1,198.8,262.1Zm-2.6-2.9a2.91,2.91,0,0,0-1.1-1.1,4,4,0,0,0-1.5-.3,3.29,3.29,0,0,0-2.2.8,3.55,3.55,0,0,0-1,2.4h6.3A4.76,4.76,0,0,0,196.2,259.2Z"/></g><g id="_群組_5" data-name="&lt;群組&gt;"><path id="_複合路徑_20" data-name="&lt;複合路徑&gt;" class="cls-1" d="M94.4,53.5l-66-27.9a.69.69,0,0,1,0-1.3L64.8,8.8v9.1a1.43,1.43,0,0,0,2,1.3L71,17.4a1.42,1.42,0,0,0,.9-1.3V3.3a2,2,0,0,0-.1-.8A3.54,3.54,0,0,0,67.1.3S16.4,21.8,16.1,22a3.36,3.36,0,0,0-1.6,2.9V135.1a3.39,3.39,0,0,0,2.1,3.2l75.3,31.9a3.19,3.19,0,0,0,1.4.3,3.35,3.35,0,0,0,2.7-1.3,3.78,3.78,0,0,0,.8-2.3V56.8A4.58,4.58,0,0,0,94.4,53.5ZM89.5,160.7a.74.74,0,0,1-1,.7L23,133.6a2.87,2.87,0,0,1-1.7-2.6V31.3a.74.74,0,0,1,1-.7L87.8,58.3a2.87,2.87,0,0,1,1.7,2.6Z"/><path id="_路徑_19" data-name="&lt;路徑&gt;" class="cls-1" d="M104.6,112.6a30.58,30.58,0,0,0,11.7,2.4,29.75,29.75,0,1,0-11.7-57.1,1.34,1.34,0,0,0-.8,1.3v52.1A1.11,1.11,0,0,0,104.6,112.6Z"/><path id="_路徑_20" data-name="&lt;路徑&gt;" class="cls-1" d="M183,35.7,115.7,7.3a3.19,3.19,0,0,0-2.7,0L71.7,24.7l-7,3-4.7,2a.87.87,0,0,0,0,1.6l43,18.2a3.38,3.38,0,0,0,2,.2c2.5-.5,7.9-1.7,11.2-1.7a37.4,37.4,0,0,1,3.8,74.6,36.65,36.65,0,0,1-14.5-1.4,1.39,1.39,0,0,0-1.8,1.4v36a1.29,1.29,0,0,0,.9,1.3l8.3,3.5a3.19,3.19,0,0,0,1.4.3,3.53,3.53,0,0,0,1.4-.3L182.9,135a3.39,3.39,0,0,0,2.1-3.2l.1-92.7A3.57,3.57,0,0,0,183,35.7Z"/><polygon id="_路徑_21" data-name="&lt;路徑&gt;" class="cls-1" points="58.1 203 51 192.1 46.7 192.1 46.7 209.8 51 209.8 51 198.9 58.1 209.8 62.4 209.8 62.4 192.1 58.1 192.1 58.1 203"/><polygon id="_路徑_22" data-name="&lt;路徑&gt;" class="cls-1" points="64.2 195.5 68.9 195.5 68.9 209.8 73.2 209.8 73.2 195.5 78 195.5 78 192.1 64.2 192.1 64.2 195.5"/><path id="_路徑_23" data-name="&lt;路徑&gt;" class="cls-1" d="M90.1,202.3a4.14,4.14,0,0,1-.8,2.7,3.39,3.39,0,0,1-4.6,0,4.14,4.14,0,0,1-.8-2.7V192.1H79.7v10.2a8.71,8.71,0,0,0,.9,4.2,7,7,0,0,0,2.5,2.6,7.46,7.46,0,0,0,3.7.8,7.9,7.9,0,0,0,3.8-.9,6.73,6.73,0,0,0,2.7-2.6,8.68,8.68,0,0,0,1-4.2V192H90v10.3Z"/><path id="_路徑_24" data-name="&lt;路徑&gt;" class="cls-1" d="M107.3,200.4a10.86,10.86,0,0,0-2.8-1.1c-.8-.3-1.4-.5-1.8-.7a2.55,2.55,0,0,1-1-.7,1.82,1.82,0,0,1-.4-1.1,1.66,1.66,0,0,1,.5-1.2,1.59,1.59,0,0,1,1.2-.4,2.17,2.17,0,0,1,1.4.5,2,2,0,0,1,.6,1.4h4.6a5.3,5.3,0,0,0-2-3.8,7.51,7.51,0,0,0-4.7-1.4,7.94,7.94,0,0,0-3.2.6,4.89,4.89,0,0,0-2.2,1.8,5,5,0,0,0-.8,2.7,4.88,4.88,0,0,0,.8,2.8,5.48,5.48,0,0,0,1.8,1.6,18.63,18.63,0,0,0,2.7,1.1c.8.3,1.4.5,1.8.7a4.13,4.13,0,0,1,1.1.7,1.5,1.5,0,0,1,.4,1.1,1.66,1.66,0,0,1-.5,1.2,1.73,1.73,0,0,1-1.3.5,2.27,2.27,0,0,1-1.6-.6,2.64,2.64,0,0,1-.7-1.6H96.7a5,5,0,0,0,2.1,4,7.69,7.69,0,0,0,4.9,1.4,7.39,7.39,0,0,0,3.4-.7,5.54,5.54,0,0,0,2.1-1.9,4.62,4.62,0,0,0,.7-2.6,4.88,4.88,0,0,0-.8-2.8A5.17,5.17,0,0,0,107.3,200.4Z"/><polygon id="_路徑_25" data-name="&lt;路徑&gt;" class="cls-1" points="111.1 195.5 115.8 195.5 115.8 209.8 120.1 209.8 120.1 195.5 124.9 195.5 124.9 192.1 111.1 192.1 111.1 195.5"/><rect id="_路徑_26" data-name="&lt;路徑&gt;" class="cls-1" x="131.7" y="192.1" width="4.3" height="17.7"/><path id="_複合路徑_21" data-name="&lt;複合路徑&gt;" class="cls-1" d="M144.1,192.2l-6.5,17.5h4.5l1.1-3.2h6.6l1.1,3.2h4.5l-6.5-17.5Zm.3,11.1,2.2-6.5,2.2,6.5Z"/></g></g></svg>