<svg id="圖層_1" data-name="圖層 1" xmlns="http://www.w3.org/2000/svg" viewBox="0 0 499.3 170.6"><defs><style>.cls-1{fill:#102e50;}</style></defs><title>工作區域 1</title><g id="圖層_1-2" data-name="圖層 1"><g id="_群組_" data-name="&lt;群組&gt;"><g id="_群組_2" data-name="&lt;群組&gt;"><polygon id="_路徑_" data-name="&lt;路徑&gt;" class="cls-1" points="215.7 44.6 205.4 28.8 199.3 28.8 199.3 54.2 205.4 54.2 205.4 38.6 215.7 54.2 221.9 54.2 221.9 28.8 215.7 28.8 215.7 44.6"/><polygon id="_路徑_2" data-name="&lt;路徑&gt;" class="cls-1" points="224.5 33.7 231.3 33.7 231.3 54.2 237.5 54.2 237.5 33.7 244.4 33.7 244.4 28.8 224.5 28.8 224.5 33.7"/><path id="_路徑_3" data-name="&lt;路徑&gt;" class="cls-1" d="M261.8,43.5a6.24,6.24,0,0,1-1.1,3.9,4.84,4.84,0,0,1-6.6,0,5.68,5.68,0,0,1-1.1-3.9V28.8h-6.1V43.5a12.78,12.78,0,0,0,1.3,6.1,8.28,8.28,0,0,0,3.7,3.7,11.91,11.91,0,0,0,5.4,1.2,12.34,12.34,0,0,0,5.5-1.2,9,9,0,0,0,3.8-3.7,12.5,12.5,0,0,0,1.4-6.1V28.8h-6.2V43.5Z"/><path id="_路徑_4" data-name="&lt;路徑&gt;" class="cls-1" d="M286.6,40.7a27.54,27.54,0,0,0-4-1.6c-1.1-.4-2-.7-2.6-1a5.6,5.6,0,0,1-1.5-1,2,2,0,0,1-.6-1.5,2.06,2.06,0,0,1,.7-1.7,2.35,2.35,0,0,1,1.7-.6,2.72,2.72,0,0,1,2,.7,3.37,3.37,0,0,1,.9,2h6.7a7.58,7.58,0,0,0-2.8-5.5,10.79,10.79,0,0,0-6.8-2,11.59,11.59,0,0,0-4.7.9,7.34,7.34,0,0,0-3.2,2.5,6.45,6.45,0,0,0-1.2,3.9,7,7,0,0,0,1.1,4,7.11,7.11,0,0,0,2.6,2.3c1,.5,2.3,1,3.9,1.6,1.1.4,2,.7,2.6,1a5.72,5.72,0,0,1,1.6,1.1,2.27,2.27,0,0,1,.6,1.6,2.06,2.06,0,0,1-.7,1.7,2.88,2.88,0,0,1-1.9.6,3.57,3.57,0,0,1-2.3-.8,3.5,3.5,0,0,1-1-2.3h-6.6a7.73,7.73,0,0,0,3,5.8,11.31,11.31,0,0,0,7.1,2.1,10,10,0,0,0,4.8-1,7.89,7.89,0,0,0,3-2.7,6.86,6.86,0,0,0,1-3.7,6.78,6.78,0,0,0-1.1-4A4.5,4.5,0,0,0,286.6,40.7Z"/><polygon id="_路徑_5" data-name="&lt;路徑&gt;" class="cls-1" points="292.1 33.7 299 33.7 299 54.2 305.2 54.2 305.2 33.7 312.1 33.7 312.1 28.8 292.1 28.8 292.1 33.7"/><rect id="_路徑_6" data-name="&lt;路徑&gt;" class="cls-1" x="321.9" y="28.8" width="6.2" height="25.5"/><path id="_複合路徑_" data-name="&lt;複合路徑&gt;" class="cls-1" d="M346.9,29h-7.1l-9.3,25.3H337l1.6-4.6h9.5l1.6,4.6h6.6Zm-6.8,15.9,3.2-9.4,3.2,9.4Z"/><path id="_複合路徑_2" data-name="&lt;複合路徑&gt;" class="cls-1" d="M80.1,53.8l-66-27.9a.69.69,0,0,1,0-1.3L50.4,9v9.1a1.43,1.43,0,0,0,2,1.3l4.2-1.8a1.42,1.42,0,0,0,.9-1.3V3.5a2,2,0,0,0-.1-.8A3.54,3.54,0,0,0,52.7.5S2,22,1.7,22.2A3.48,3.48,0,0,0,0,25.1V135.3a3.39,3.39,0,0,0,2.1,3.2l75.3,31.9a3.19,3.19,0,0,0,1.4.3,3.35,3.35,0,0,0,2.7-1.3,3.78,3.78,0,0,0,.8-2.3V56.9A3.61,3.61,0,0,0,80.1,53.8ZM75.2,160.9a.74.74,0,0,1-1,.7L8.7,133.8A2.87,2.87,0,0,1,7,131.2V31.5a.74.74,0,0,1,1-.7L73.5,58.5a2.87,2.87,0,0,1,1.7,2.6Z"/><path id="_路徑_7" data-name="&lt;路徑&gt;" class="cls-1" d="M90.2,112.8a30.58,30.58,0,0,0,11.7,2.4A29.75,29.75,0,1,0,90.3,58.1a1.34,1.34,0,0,0-.8,1.3v52.1A1.15,1.15,0,0,0,90.2,112.8Z"/><path id="_路徑_8" data-name="&lt;路徑&gt;" class="cls-1" d="M168.6,35.9,101.3,7.5a3.19,3.19,0,0,0-2.7,0L57.4,24.9l-7,3L45.7,30a.87.87,0,0,0,0,1.6l43,18.2a3.38,3.38,0,0,0,2,.2c2.5-.5,7.9-1.7,11.2-1.7a37.4,37.4,0,0,1,3.8,74.6,36.65,36.65,0,0,1-14.5-1.4,1.39,1.39,0,0,0-1.8,1.4v36a1.29,1.29,0,0,0,.9,1.3l8.3,3.5a3.19,3.19,0,0,0,1.4.3,3.53,3.53,0,0,0,1.4-.3l67.2-28.4a3.39,3.39,0,0,0,2.1-3.2l.1-92.7A3.79,3.79,0,0,0,168.6,35.9Z"/></g></g><path id="_複合路徑_3" data-name="&lt;複合路徑&gt;" class="cls-1" d="M54,79.9H28.2c-5.6,0-10.6,4-10.6,9v8.8c0,5,5,9.2,10.6,9.2H38.7s2.1-7,4.7,0H54c5.6,0,10.7-4.1,10.7-9.2V88.9C64.6,83.9,59.6,79.9,54,79.9ZM37.9,94.7a7.64,7.64,0,1,1-6-9.2A7.76,7.76,0,0,1,37.9,94.7ZM54,101a7.9,7.9,0,1,1,6-9.2A7.76,7.76,0,0,1,54,101Z"/><g id="_群組_3" data-name="&lt;群組&gt;"><path id="_路徑_9" data-name="&lt;路徑&gt;" class="cls-1" d="M202,83.2v6.4h7.8v2.6H202v6.6h8.7v2.8H198.6V80.4h12.1v2.8Z"/><path id="_路徑_10" data-name="&lt;路徑&gt;" class="cls-1" d="M223.8,101.6l-4.1-5.8-3.5,5.8h-3.8l5.5-8.6-5.5-8h3.9l4,5.7,3.5-5.7h3.8l-5.5,8.3,5.7,8.2-4,.1Z"/><path id="_路徑_11" data-name="&lt;路徑&gt;" class="cls-1" d="M238.4,98.6v3h-2.1a5.36,5.36,0,0,1-4-1.3,5.58,5.58,0,0,1-1.4-4.2V88h-2.4V85.1h2.4V81h3.4v4.1h4V88h-4v8.2a3.44,3.44,0,0,0,.5,2,2.29,2.29,0,0,0,1.8.5l1.8-.1Z"/><path id="_複合路徑_4" data-name="&lt;複合路徑&gt;" class="cls-1" d="M256.8,94H244.1a5.29,5.29,0,0,0,1.4,3.8,5.13,5.13,0,0,0,6.2.3,3.62,3.62,0,0,0,1.5-2.3h3.7a6.77,6.77,0,0,1-1.4,3.1,7.05,7.05,0,0,1-2.7,2.1,9.21,9.21,0,0,1-3.8.8,8.16,8.16,0,0,1-4.2-1,8.06,8.06,0,0,1-2.9-2.9,10.62,10.62,0,0,1,0-9,6.76,6.76,0,0,1,2.9-2.9,9.32,9.32,0,0,1,8.4,0,7.52,7.52,0,0,1,2.8,2.8,8.68,8.68,0,0,1,1,3.9A5.85,5.85,0,0,1,256.8,94Zm-3.9-4.3a3.75,3.75,0,0,0-1.7-1.6,5.93,5.93,0,0,0-2.3-.5,4.62,4.62,0,0,0-4.9,4.8h9.4A4.13,4.13,0,0,0,252.9,89.7Z"/><path id="_路徑_12" data-name="&lt;路徑&gt;" class="cls-1" d="M274.1,86.7c1.2,1.2,1.7,3,1.7,5.3v9.6h-3.4V92.3a5,5,0,0,0-1.1-3.4,4.72,4.72,0,0,0-6.4.1,5.41,5.41,0,0,0-1.2,3.8v8.8h-3.4V85.1h3.4v3.6a5.81,5.81,0,0,1,2.2-2.9,6.09,6.09,0,0,1,3.6-1A5.76,5.76,0,0,1,274.1,86.7Z"/><path id="_複合路徑_5" data-name="&lt;複合路徑&gt;" class="cls-1" d="M290.3,86a5.3,5.3,0,0,1,2.2,2.9V79.4h3.4v22.2h-3.4V97.8a5.81,5.81,0,0,1-2.2,2.9,6.8,6.8,0,0,1-3.8,1.1,7.56,7.56,0,0,1-3.9-1,8.38,8.38,0,0,1-2.7-2.9,10.64,10.64,0,0,1-1-4.5,9.33,9.33,0,0,1,1-4.5,5.88,5.88,0,0,1,2.7-2.9,7.09,7.09,0,0,1,3.9-1A5.47,5.47,0,0,1,290.3,86Zm-6.4,3.3a6.41,6.41,0,0,0,0,8,5.11,5.11,0,0,0,6.2.8,4.69,4.69,0,0,0,1.8-1.9,6.53,6.53,0,0,0,.7-2.9,5.66,5.66,0,0,0-.7-2.9,4.16,4.16,0,0,0-1.8-1.9,5.59,5.59,0,0,0-2.6-.7A5,5,0,0,0,283.9,89.3Z"/><path id="_複合路徑_6" data-name="&lt;複合路徑&gt;" class="cls-1" d="M315.3,94H302.6a5.29,5.29,0,0,0,1.4,3.8,5.13,5.13,0,0,0,6.2.3,3.62,3.62,0,0,0,1.5-2.3h3.7a6.77,6.77,0,0,1-1.4,3.1,7.05,7.05,0,0,1-2.7,2.1,9.21,9.21,0,0,1-3.8.8,8.16,8.16,0,0,1-4.2-1,8.06,8.06,0,0,1-2.9-2.9,10.62,10.62,0,0,1,0-9,6.76,6.76,0,0,1,2.9-2.9,9.32,9.32,0,0,1,8.4,0,7.52,7.52,0,0,1,2.8,2.8,8.68,8.68,0,0,1,1,3.9A5.85,5.85,0,0,1,315.3,94Zm-3.9-4.3a3.75,3.75,0,0,0-1.7-1.6,5.93,5.93,0,0,0-2.3-.5,4.62,4.62,0,0,0-4.9,4.8h9.4A4.13,4.13,0,0,0,311.4,89.7Z"/><path id="_複合路徑_7" data-name="&lt;複合路徑&gt;" class="cls-1" d="M329.2,86a5.3,5.3,0,0,1,2.2,2.9V79.4h3.5v22.2h-3.5V97.8a5.81,5.81,0,0,1-2.2,2.9,6.8,6.8,0,0,1-3.8,1.1,7.56,7.56,0,0,1-3.9-1,8.38,8.38,0,0,1-2.7-2.9,10.64,10.64,0,0,1-1-4.5,9.33,9.33,0,0,1,1-4.5,5.88,5.88,0,0,1,2.7-2.9,7.09,7.09,0,0,1,3.9-1A5.33,5.33,0,0,1,329.2,86Zm-6.4,3.3a6.41,6.41,0,0,0,0,8,5.11,5.11,0,0,0,6.2.8,4.69,4.69,0,0,0,1.8-1.9,6.53,6.53,0,0,0,.7-2.9,5.66,5.66,0,0,0-.7-2.9,4.14,4.14,0,0,0-1.8-1.9,5.59,5.59,0,0,0-2.6-.7A5,5,0,0,0,322.8,89.3Z"/><path id="_複合路徑_8" data-name="&lt;複合路徑&gt;" class="cls-1" d="M357.1,101.6l-5.3-8.5h-2.4v8.5H346V80.4h7.5a7.59,7.59,0,0,1,5.5,1.8,6,6,0,0,1,1.9,4.7,6.17,6.17,0,0,1-1.4,4.1,6.39,6.39,0,0,1-4,2l5.6,8.6Zm-7.7-10.9h3.8c2.8,0,4.1-1.2,4.1-3.7a3.34,3.34,0,0,0-1-2.7,4.14,4.14,0,0,0-3.1-1h-3.8Z"/><path id="_複合路徑_9" data-name="&lt;複合路徑&gt;" class="cls-1" d="M379.2,94H366.5a5.29,5.29,0,0,0,1.4,3.8,5.13,5.13,0,0,0,6.2.3,3.62,3.62,0,0,0,1.5-2.3h3.7a6.77,6.77,0,0,1-1.4,3.1,7.05,7.05,0,0,1-2.7,2.1,9.21,9.21,0,0,1-3.8.8,8.16,8.16,0,0,1-4.2-1,8.06,8.06,0,0,1-2.9-2.9,10.62,10.62,0,0,1,0-9,6.76,6.76,0,0,1,2.9-2.9,9.32,9.32,0,0,1,8.4,0,7.52,7.52,0,0,1,2.8,2.8,8.68,8.68,0,0,1,1,3.9C379.3,93.1,379.3,93.6,379.2,94Zm-3.9-4.3a3.75,3.75,0,0,0-1.7-1.6,5.93,5.93,0,0,0-2.3-.5,4.62,4.62,0,0,0-4.9,4.8h9.4A4.85,4.85,0,0,0,375.3,89.7Z"/><path id="_複合路徑_10" data-name="&lt;複合路徑&gt;" class="cls-1" d="M393.1,86a6,6,0,0,1,2.3,2.9V85.1h3.4v16.5h-3.4V97.8a5.48,5.48,0,0,1-2.3,2.9,6.8,6.8,0,0,1-3.8,1.1,7.56,7.56,0,0,1-3.9-1,8.38,8.38,0,0,1-2.7-2.9,10.64,10.64,0,0,1-1-4.5,9.33,9.33,0,0,1,1-4.5,5.88,5.88,0,0,1,2.7-2.9,7.09,7.09,0,0,1,3.9-1A5.61,5.61,0,0,1,393.1,86Zm-6.4,3.3a6.41,6.41,0,0,0,0,8,5.11,5.11,0,0,0,6.2.8,4.69,4.69,0,0,0,1.8-1.9,6.53,6.53,0,0,0,.7-2.9,5.66,5.66,0,0,0-.7-2.9,4.14,4.14,0,0,0-1.8-1.9,5.59,5.59,0,0,0-2.6-.7A5,5,0,0,0,386.7,89.3Z"/><path id="_路徑_13" data-name="&lt;路徑&gt;" class="cls-1" d="M406.3,79.4v22.2h-3.4V79.4Z"/><path id="_複合路徑_11" data-name="&lt;複合路徑&gt;" class="cls-1" d="M410.5,78.8a2.43,2.43,0,0,1,3.2,0,1.93,1.93,0,0,1,0,2.8,2.07,2.07,0,0,1-1.6.5,2.54,2.54,0,0,1-1.6-.5,1.68,1.68,0,0,1-.6-1.4A1.82,1.82,0,0,1,410.5,78.8Zm3.3,6.3v16.5h-3.4V85.1Z"/><path id="_路徑_14" data-name="&lt;路徑&gt;" class="cls-1" d="M426.3,98.6v3h-2.1a5.36,5.36,0,0,1-4-1.3,5.58,5.58,0,0,1-1.4-4.2V88h-2.4V85.1h2.4V81h3.4v4.1h4V88h-4v8.2a3.44,3.44,0,0,0,.5,2,2.29,2.29,0,0,0,1.8.5l1.8-.1Z"/><path id="_路徑_15" data-name="&lt;路徑&gt;" class="cls-1" d="M431.5,85.1l4.9,12.2L441,85.1h3.8l-10,24.4H431l3.6-8.3-7-16.1Z"/></g><g id="_群組_4" data-name="&lt;群組&gt;"><path id="_複合路徑_12" data-name="&lt;複合路徑&gt;" class="cls-1" d="M210.3,139.9h-8.9l-1.6,4.6h-3.7l7.8-20.8h3.9l7.8,20.8h-3.7Zm-.9-2.7-3.5-9.9-3.5,9.9Z"/><path id="_複合路徑_13" data-name="&lt;複合路徑&gt;" class="cls-1" d="M231.5,128.8a8.38,8.38,0,0,1,2.7,2.9,10.64,10.64,0,0,1,1,4.5,9.07,9.07,0,0,1-1,4.5,5.88,5.88,0,0,1-2.7,2.9,8.36,8.36,0,0,1-3.9,1,6.56,6.56,0,0,1-3.8-1.1,5.3,5.3,0,0,1-2.2-2.9v11.7h-3.4V127.9h3.4v3.8a5.81,5.81,0,0,1,2.2-2.9,6.56,6.56,0,0,1,3.8-1.1A7.13,7.13,0,0,1,231.5,128.8Zm-7.5,2.6a4.69,4.69,0,0,0-1.8,1.9,6.53,6.53,0,0,0-.7,2.9,5.43,5.43,0,0,0,.7,2.9A4.14,4.14,0,0,0,224,141a5.59,5.59,0,0,0,2.6.7,5,5,0,0,0,3.7-1.5,6.41,6.41,0,0,0,0-8,4.68,4.68,0,0,0-3.7-1.5A5.59,5.59,0,0,0,224,131.4Z"/><path id="_複合路徑_14" data-name="&lt;複合路徑&gt;" class="cls-1" d="M251.8,128.8a8.38,8.38,0,0,1,2.7,2.9,10.64,10.64,0,0,1,1,4.5,9.07,9.07,0,0,1-1,4.5,5.88,5.88,0,0,1-2.7,2.9,7.09,7.09,0,0,1-3.9,1,6.56,6.56,0,0,1-3.8-1.1,5.3,5.3,0,0,1-2.2-2.9v11.7h-3.4V127.9h3.4v3.8a5.81,5.81,0,0,1,2.2-2.9,6.8,6.8,0,0,1,3.8-1.1A7.65,7.65,0,0,1,251.8,128.8Zm-7.5,2.6a4.69,4.69,0,0,0-1.8,1.9,6.53,6.53,0,0,0-.7,2.9,5.43,5.43,0,0,0,.7,2.9,4.14,4.14,0,0,0,1.8,1.9,5.59,5.59,0,0,0,2.6.7,5,5,0,0,0,3.7-1.5,6.41,6.41,0,0,0,0-8,4.68,4.68,0,0,0-3.7-1.5A5.28,5.28,0,0,0,244.3,131.4Z"/><path id="_路徑_16" data-name="&lt;路徑&gt;" class="cls-1" d="M262.1,122.3v22.2h-3.4V122.3Z"/><path id="_複合路徑_15" data-name="&lt;複合路徑&gt;" class="cls-1" d="M266.3,121.7a2.43,2.43,0,0,1,3.2,0,1.93,1.93,0,0,1,0,2.8,2.07,2.07,0,0,1-1.6.5,2.54,2.54,0,0,1-1.6-.5,1.68,1.68,0,0,1-.6-1.4A1.82,1.82,0,0,1,266.3,121.7Zm3.3,6.2v16.5h-3.4V127.9Z"/><path id="_路徑_17" data-name="&lt;路徑&gt;" class="cls-1" d="M286.4,129.4A7.14,7.14,0,0,1,289,134h-3.6a3.59,3.59,0,0,0-1.5-2.4,5.25,5.25,0,0,0-2.9-.9,4.53,4.53,0,0,0-3.3,1.4,7.12,7.12,0,0,0,0,8.2,4.82,4.82,0,0,0,6.2.5,3.81,3.81,0,0,0,1.5-2.5H289a7.14,7.14,0,0,1-2.6,4.6,8.41,8.41,0,0,1-5.3,1.7,8.16,8.16,0,0,1-4.2-1,8.06,8.06,0,0,1-2.9-2.9,10.62,10.62,0,0,1,0-9,6.76,6.76,0,0,1,2.9-2.9,8.16,8.16,0,0,1,4.2-1A7.64,7.64,0,0,1,286.4,129.4Z"/><path id="_複合路徑_16" data-name="&lt;複合路徑&gt;" class="cls-1" d="M302.8,128.8a6,6,0,0,1,2.3,2.9v-3.8h3.4v16.5h-3.4v-3.8a5.48,5.48,0,0,1-2.3,2.9,6.8,6.8,0,0,1-3.8,1.1,7.56,7.56,0,0,1-3.9-1,8.38,8.38,0,0,1-2.7-2.9,10.64,10.64,0,0,1-1-4.5,9.33,9.33,0,0,1,1-4.5,5.88,5.88,0,0,1,2.7-2.9,7.09,7.09,0,0,1,3.9-1A5.87,5.87,0,0,1,302.8,128.8Zm-6.4,3.4a6.41,6.41,0,0,0,0,8,5.11,5.11,0,0,0,6.2.8,4.69,4.69,0,0,0,1.8-1.9,6.53,6.53,0,0,0,.7-2.9,5.66,5.66,0,0,0-.7-2.9,4.14,4.14,0,0,0-1.8-1.9,5.59,5.59,0,0,0-2.6-.7A4.61,4.61,0,0,0,296.4,132.2Z"/><path id="_路徑_18" data-name="&lt;路徑&gt;" class="cls-1" d="M320.9,141.5v3h-2.1a5.36,5.36,0,0,1-4-1.3,5.58,5.58,0,0,1-1.4-4.2v-8.1H311V128h2.4v-4.1h3.5V128h4v2.9h-4v8.2a3.44,3.44,0,0,0,.5,2,2.29,2.29,0,0,0,1.8.5l1.7-.1Z"/><path id="_複合路徑_17" data-name="&lt;複合路徑&gt;" class="cls-1" d="M324.2,121.7a2.43,2.43,0,0,1,3.2,0,1.93,1.93,0,0,1,0,2.8,2.07,2.07,0,0,1-1.6.5,2.54,2.54,0,0,1-1.6-.5,1.93,1.93,0,0,1,0-2.8Zm3.3,6.2v16.5h-3.4V127.9Z"/><path id="_複合路徑_18" data-name="&lt;複合路徑&gt;" class="cls-1" d="M343.6,128.8a7.62,7.62,0,0,1,3,2.9,9.36,9.36,0,0,1,1.1,4.5,9.08,9.08,0,0,1-1.1,4.5,6.48,6.48,0,0,1-3,2.9,10.07,10.07,0,0,1-4.3,1,8.8,8.8,0,0,1-4.3-1,7.23,7.23,0,0,1-3-3,9.75,9.75,0,0,1,0-9,6.48,6.48,0,0,1,3-2.9,10.07,10.07,0,0,1,4.3-1A8.86,8.86,0,0,1,343.6,128.8Zm-6.8,2.5a5.16,5.16,0,0,0-1.8,1.8,6.64,6.64,0,0,0-.7,3,6.17,6.17,0,0,0,.7,3.1,4.45,4.45,0,0,0,1.8,1.8,5.33,5.33,0,0,0,2.4.6,4.75,4.75,0,0,0,2.4-.6,5.16,5.16,0,0,0,1.8-1.8,5.7,5.7,0,0,0,.7-3.1,5.56,5.56,0,0,0-.7-3,3.92,3.92,0,0,0-1.8-1.8,4.75,4.75,0,0,0-2.4-.6A5.33,5.33,0,0,0,336.8,131.3Z"/><path id="_路徑_19" data-name="&lt;路徑&gt;" class="cls-1" d="M364.8,129.5c1.2,1.2,1.7,3,1.7,5.3v9.6h-3.4v-9.2a5,5,0,0,0-1.1-3.4,4.72,4.72,0,0,0-6.4.1,5.41,5.41,0,0,0-1.2,3.8v8.8H351V128h3.4v3.6a5.81,5.81,0,0,1,2.2-2.9,6.09,6.09,0,0,1,3.6-1A6.18,6.18,0,0,1,364.8,129.5Z"/><path id="_複合路徑_19" data-name="&lt;複合路徑&gt;" class="cls-1" d="M390.2,139.9h-8.9l-1.6,4.6H376l7.8-20.8h3.9l7.8,20.8h-3.7Zm-1-2.7-3.5-9.9-3.5,9.9Z"/><path id="_路徑_20" data-name="&lt;路徑&gt;" class="cls-1" d="M401.4,122.3v22.2H398V122.3Z"/><path id="_路徑_21" data-name="&lt;路徑&gt;" class="cls-1" d="M409,122.3v22.2h-3.4V122.3Z"/><path id="_複合路徑_20" data-name="&lt;複合路徑&gt;" class="cls-1" d="M413.3,121.7a2.43,2.43,0,0,1,3.2,0,1.93,1.93,0,0,1,0,2.8,2.07,2.07,0,0,1-1.6.5,2.54,2.54,0,0,1-1.6-.5,1.93,1.93,0,0,1,0-2.8Zm3.3,6.2v16.5h-3.4V127.9Z"/><path id="_複合路徑_21" data-name="&lt;複合路徑&gt;" class="cls-1" d="M431.2,128.8a6,6,0,0,1,2.3,2.9v-3.8h3.4v16.5h-3.4v-3.8a5.48,5.48,0,0,1-2.3,2.9,6.8,6.8,0,0,1-3.8,1.1,7.56,7.56,0,0,1-3.9-1,8.38,8.38,0,0,1-2.7-2.9,10.64,10.64,0,0,1-1-4.5,9.33,9.33,0,0,1,1-4.5,5.88,5.88,0,0,1,2.7-2.9,7.09,7.09,0,0,1,3.9-1A6.21,6.21,0,0,1,431.2,128.8Zm-6.5,3.4a6.41,6.41,0,0,0,0,8,5.11,5.11,0,0,0,6.2.8,4.69,4.69,0,0,0,1.8-1.9,6.53,6.53,0,0,0,.7-2.9,5.66,5.66,0,0,0-.7-2.9,4.16,4.16,0,0,0-1.8-1.9,5.59,5.59,0,0,0-2.6-.7A4.75,4.75,0,0,0,424.7,132.2Z"/><path id="_路徑_22" data-name="&lt;路徑&gt;" class="cls-1" d="M454.8,129.5c1.2,1.2,1.7,3,1.7,5.3v9.6h-3.4v-9.2a5,5,0,0,0-1.1-3.4,4.72,4.72,0,0,0-6.4.1,5.41,5.41,0,0,0-1.2,3.8v8.8H441V128h3.4v3.6a5.81,5.81,0,0,1,2.2-2.9,6.09,6.09,0,0,1,3.6-1A6.18,6.18,0,0,1,454.8,129.5Z"/><path id="_路徑_23" data-name="&lt;路徑&gt;" class="cls-1" d="M473.2,129.4a7.14,7.14,0,0,1,2.6,4.6h-3.6a3.59,3.59,0,0,0-1.5-2.4,5.25,5.25,0,0,0-2.9-.9,4.53,4.53,0,0,0-3.3,1.4,7.12,7.12,0,0,0,0,8.2,4.82,4.82,0,0,0,6.2.5,3.81,3.81,0,0,0,1.5-2.5h3.6a7.14,7.14,0,0,1-2.6,4.6,8.41,8.41,0,0,1-5.3,1.7,8.16,8.16,0,0,1-4.2-1,8.06,8.06,0,0,1-2.9-2.9,10.62,10.62,0,0,1,0-9,6.76,6.76,0,0,1,2.9-2.9,8.16,8.16,0,0,1,4.2-1A7.8,7.8,0,0,1,473.2,129.4Z"/><path id="_複合路徑_22" data-name="&lt;複合路徑&gt;" class="cls-1" d="M494.3,136.9H481.6a5.29,5.29,0,0,0,1.4,3.8,5.13,5.13,0,0,0,6.2.3,3.62,3.62,0,0,0,1.5-2.3h3.7a6.77,6.77,0,0,1-1.4,3.1,7.05,7.05,0,0,1-2.7,2.1,9.21,9.21,0,0,1-3.8.8,8.16,8.16,0,0,1-4.2-1,8.06,8.06,0,0,1-2.9-2.9,9.36,9.36,0,0,1-1.1-4.5,8.36,8.36,0,0,1,1.1-4.5,6.76,6.76,0,0,1,2.9-2.9,9.3,9.3,0,0,1,4.2-1,8.16,8.16,0,0,1,4.2,1,7.56,7.56,0,0,1,3.8,6.7A5.85,5.85,0,0,1,494.3,136.9Zm-3.8-4.3a3.75,3.75,0,0,0-1.7-1.6,5.93,5.93,0,0,0-2.3-.5,4.62,4.62,0,0,0-4.9,4.8H491A4.53,4.53,0,0,0,490.5,132.6Z"/></g></g></svg>