<svg id="圖層_1" data-name="圖層 1" xmlns="http://www.w3.org/2000/svg" viewBox="0 0 496 170.6"><defs><style>.cls-1{fill:#fff;}</style></defs><title>工作區域 1</title><g id="圖層_1-2" data-name="圖層 1"><g id="_群組_" data-name="&lt;群組&gt;"><polygon id="_路徑_" data-name="&lt;路徑&gt;" class="cls-1" points="215.5 44.2 205.2 28.4 199.1 28.4 199.1 53.8 205.2 53.8 205.2 38.2 215.5 53.8 221.7 53.8 221.7 28.4 215.5 28.4 215.5 44.2"/><polygon id="_路徑_2" data-name="&lt;路徑&gt;" class="cls-1" points="224.3 33.3 231.1 33.3 231.1 53.8 237.3 53.8 237.3 33.3 244.2 33.3 244.2 28.4 224.3 28.4 224.3 33.3"/><path id="_路徑_3" data-name="&lt;路徑&gt;" class="cls-1" d="M261.6,43.1a6.24,6.24,0,0,1-1.1,3.9,4.84,4.84,0,0,1-6.6,0,5.68,5.68,0,0,1-1.1-3.9V28.4h-6.1V43.1a12.78,12.78,0,0,0,1.3,6.1,8.28,8.28,0,0,0,3.7,3.7,11.91,11.91,0,0,0,5.4,1.2,12.34,12.34,0,0,0,5.5-1.2,9,9,0,0,0,3.8-3.7,12.5,12.5,0,0,0,1.4-6.1V28.4h-6.2V43.1Z"/><path id="_路徑_4" data-name="&lt;路徑&gt;" class="cls-1" d="M286.4,40.3a27.54,27.54,0,0,0-4-1.6c-1.1-.4-2-.7-2.6-1a5.6,5.6,0,0,1-1.5-1,2,2,0,0,1-.6-1.5,2.06,2.06,0,0,1,.7-1.7,2.35,2.35,0,0,1,1.7-.6,2.72,2.72,0,0,1,2,.7,3.37,3.37,0,0,1,.9,2h6.7a7.58,7.58,0,0,0-2.8-5.5,10.79,10.79,0,0,0-6.8-2,11.59,11.59,0,0,0-4.7.9,7.34,7.34,0,0,0-3.2,2.5,6.45,6.45,0,0,0-1.2,3.9,7,7,0,0,0,1.1,4,7.11,7.11,0,0,0,2.6,2.3c1,.5,2.3,1,3.9,1.6,1.1.4,2,.7,2.6,1a5.72,5.72,0,0,1,1.6,1.1,2.27,2.27,0,0,1,.6,1.6,2.06,2.06,0,0,1-.7,1.7,2.88,2.88,0,0,1-1.9.6,3.57,3.57,0,0,1-2.3-.8,3.5,3.5,0,0,1-1-2.3h-6.6a7.73,7.73,0,0,0,3,5.8,11.31,11.31,0,0,0,7.1,2.1,10,10,0,0,0,4.8-1,7.89,7.89,0,0,0,3-2.7,6.86,6.86,0,0,0,1-3.7,6.78,6.78,0,0,0-1.1-4A4.5,4.5,0,0,0,286.4,40.3Z"/><polygon id="_路徑_5" data-name="&lt;路徑&gt;" class="cls-1" points="291.9 33.3 298.8 33.3 298.8 53.8 305 53.8 305 33.3 311.9 33.3 311.9 28.4 291.9 28.4 291.9 33.3"/><rect id="_路徑_6" data-name="&lt;路徑&gt;" class="cls-1" x="321.7" y="28.4" width="6.2" height="25.5"/><path id="_複合路徑_" data-name="&lt;複合路徑&gt;" class="cls-1" d="M346.7,28.6h-7.1l-9.3,25.3h6.5l1.6-4.6h9.5l1.6,4.6h6.6Zm-6.8,15.9,3.2-9.4,3.2,9.4Z"/><path id="_路徑_7" data-name="&lt;路徑&gt;" class="cls-1" d="M100,110.4a24.89,24.89,0,0,1-8.7-1.6,1.41,1.41,0,0,0-1.9,1.3v4.4a1.5,1.5,0,0,0,1,1.4,30.62,30.62,0,0,0,9.6,1.5,32,32,0,0,0,4.4-63.8,31.53,31.53,0,0,0-14.1,1.2,1.41,1.41,0,0,0-1,1.4v4.4a1.37,1.37,0,0,0,1.9,1.3A25.66,25.66,0,0,1,103,60.5a25.05,25.05,0,0,1-3,49.9Z"/><path id="_路徑_8" data-name="&lt;路徑&gt;" class="cls-1" d="M168.8,35.9,101.5,7.5a3.19,3.19,0,0,0-2.7,0L57.6,24.9l-6.1,2.6a1.42,1.42,0,0,0-.9,1.3v4.5a1.43,1.43,0,0,0,2,1.3l.4-.2,4.6-1.9L98.8,15.1a3,3,0,0,1,2.6,0l60.8,25.7a2.71,2.71,0,0,1,1.7,2.6l-.1,84.3a2.87,2.87,0,0,1-1.7,2.6l-60.7,25.6a3,3,0,0,1-2.6,0l-7.2-3a1.45,1.45,0,0,0-2,1.3v4.5a1.29,1.29,0,0,0,.9,1.3l8.3,3.5a3.19,3.19,0,0,0,1.4.3,3.53,3.53,0,0,0,1.4-.3l67.2-28.4a3.39,3.39,0,0,0,2.1-3.2l.1-92.7A3.61,3.61,0,0,0,168.8,35.9Z"/><path id="_複合路徑_2" data-name="&lt;複合路徑&gt;" class="cls-1" d="M80.1,53.5l-66-27.9a.69.69,0,0,1,0-1.3L50.5,8.8v9.1a1.43,1.43,0,0,0,2,1.3l4.2-1.8a1.42,1.42,0,0,0,.9-1.3V3.3a2,2,0,0,0-.1-.8A3.54,3.54,0,0,0,52.8.3S2.1,21.8,1.8,22A3.36,3.36,0,0,0,.2,24.9V135.1a3.39,3.39,0,0,0,2.1,3.2l75.3,31.9a3.19,3.19,0,0,0,1.4.3,3.35,3.35,0,0,0,2.7-1.3,3.78,3.78,0,0,0,.8-2.3V56.7A4.35,4.35,0,0,0,80.1,53.5ZM75.3,160.7a.74.74,0,0,1-1,.7L8.7,133.6A2.87,2.87,0,0,1,7,131V31.3a.74.74,0,0,1,1-.7L73.5,58.3a2.87,2.87,0,0,1,1.7,2.6v99.8Z"/></g><g id="_群組_2" data-name="&lt;群組&gt;"><path id="_路徑_9" data-name="&lt;路徑&gt;" class="cls-1" d="M203.3,81v6.4h7.8V90h-7.8v6.6H212v2.8H199.9V78.2H212V81Z"/><path id="_路徑_10" data-name="&lt;路徑&gt;" class="cls-1" d="M225.1,99.4,221,93.6l-3.5,5.8h-3.8l5.5-8.6-5.5-8h3.9l4,5.7,3.5-5.7h3.8l-5.5,8.3,5.7,8.2h-4Z"/><path id="_路徑_11" data-name="&lt;路徑&gt;" class="cls-1" d="M239.7,96.4v3h-2.1a5.36,5.36,0,0,1-4-1.3,5.58,5.58,0,0,1-1.4-4.2V85.8h-2.4V82.9h2.4V78.8h3.4v4.1h4v2.9h-4V94a3.44,3.44,0,0,0,.5,2,2.29,2.29,0,0,0,1.8.5h1.8Z"/><path id="_複合路徑_3" data-name="&lt;複合路徑&gt;" class="cls-1" d="M258.1,91.8H245.4a5.29,5.29,0,0,0,1.4,3.8,5.13,5.13,0,0,0,6.2.3,3.62,3.62,0,0,0,1.5-2.3h3.7a6.77,6.77,0,0,1-1.4,3.1,7.05,7.05,0,0,1-2.7,2.1,9.21,9.21,0,0,1-3.8.8,8.16,8.16,0,0,1-4.2-1,8.06,8.06,0,0,1-2.9-2.9,10.62,10.62,0,0,1,0-9,6.76,6.76,0,0,1,2.9-2.9,9.32,9.32,0,0,1,8.4,0,7.52,7.52,0,0,1,2.8,2.8,8.68,8.68,0,0,1,1,3.9A5.85,5.85,0,0,1,258.1,91.8Zm-3.9-4.3a3.75,3.75,0,0,0-1.7-1.6,5.93,5.93,0,0,0-2.3-.5,4.62,4.62,0,0,0-4.9,4.8h9.4A4.13,4.13,0,0,0,254.2,87.5Z"/><path id="_路徑_12" data-name="&lt;路徑&gt;" class="cls-1" d="M275.4,84.5c1.2,1.2,1.7,3,1.7,5.3v9.6h-3.4V90.1a5,5,0,0,0-1.1-3.4,4.72,4.72,0,0,0-6.4.1,5.41,5.41,0,0,0-1.2,3.8v8.8h-3.4V82.9H265v3.6a5.81,5.81,0,0,1,2.2-2.9,6.09,6.09,0,0,1,3.6-1A5.75,5.75,0,0,1,275.4,84.5Z"/><path id="_複合路徑_4" data-name="&lt;複合路徑&gt;" class="cls-1" d="M291.6,83.8a5.3,5.3,0,0,1,2.2,2.9V77.2h3.4V99.4h-3.4V95.6a5.81,5.81,0,0,1-2.2,2.9,6.8,6.8,0,0,1-3.8,1.1,7.56,7.56,0,0,1-3.9-1,8.38,8.38,0,0,1-2.7-2.9,10.64,10.64,0,0,1-1-4.5,9.33,9.33,0,0,1,1-4.5,5.88,5.88,0,0,1,2.7-2.9,7.09,7.09,0,0,1,3.9-1A5.47,5.47,0,0,1,291.6,83.8Zm-6.4,3.3a6.41,6.41,0,0,0,0,8,5.11,5.11,0,0,0,6.2.8,4.69,4.69,0,0,0,1.8-1.9,6.53,6.53,0,0,0,.7-2.9,5.66,5.66,0,0,0-.7-2.9,4.16,4.16,0,0,0-1.8-1.9,5.59,5.59,0,0,0-2.6-.7A5,5,0,0,0,285.2,87.1Z"/><path id="_複合路徑_5" data-name="&lt;複合路徑&gt;" class="cls-1" d="M316.6,91.8H303.9a5.29,5.29,0,0,0,1.4,3.8,5.13,5.13,0,0,0,6.2.3,3.62,3.62,0,0,0,1.5-2.3h3.7a6.77,6.77,0,0,1-1.4,3.1,7.05,7.05,0,0,1-2.7,2.1,9.21,9.21,0,0,1-3.8.8,8.16,8.16,0,0,1-4.2-1,8.06,8.06,0,0,1-2.9-2.9,10.62,10.62,0,0,1,0-9,6.76,6.76,0,0,1,2.9-2.9,9.32,9.32,0,0,1,8.4,0,7.52,7.52,0,0,1,2.8,2.8,8.68,8.68,0,0,1,1,3.9A5.85,5.85,0,0,1,316.6,91.8Zm-3.9-4.3a3.75,3.75,0,0,0-1.7-1.6,5.93,5.93,0,0,0-2.3-.5,4.62,4.62,0,0,0-4.9,4.8h9.4A4.13,4.13,0,0,0,312.7,87.5Z"/><path id="_複合路徑_6" data-name="&lt;複合路徑&gt;" class="cls-1" d="M330.5,83.8a5.3,5.3,0,0,1,2.2,2.9V77.2h3.5V99.4h-3.5V95.6a5.81,5.81,0,0,1-2.2,2.9,6.8,6.8,0,0,1-3.8,1.1,7.56,7.56,0,0,1-3.9-1,8.38,8.38,0,0,1-2.7-2.9,10.64,10.64,0,0,1-1-4.5,9.33,9.33,0,0,1,1-4.5,5.88,5.88,0,0,1,2.7-2.9,7.09,7.09,0,0,1,3.9-1A5.33,5.33,0,0,1,330.5,83.8Zm-6.4,3.3a6.41,6.41,0,0,0,0,8,5.11,5.11,0,0,0,6.2.8,4.69,4.69,0,0,0,1.8-1.9,6.53,6.53,0,0,0,.7-2.9,5.66,5.66,0,0,0-.7-2.9,4.14,4.14,0,0,0-1.8-1.9,5.59,5.59,0,0,0-2.6-.7A5,5,0,0,0,324.1,87.1Z"/><path id="_複合路徑_7" data-name="&lt;複合路徑&gt;" class="cls-1" d="M358.4,99.4l-5.3-8.5h-2.4v8.5h-3.4V78.2h7.5a7.59,7.59,0,0,1,5.5,1.8,6,6,0,0,1,1.9,4.7,6.17,6.17,0,0,1-1.4,4.1,6.39,6.39,0,0,1-4,2l5.6,8.6Zm-7.7-10.9h3.8c2.8,0,4.1-1.2,4.1-3.7a3.34,3.34,0,0,0-1-2.7,4.14,4.14,0,0,0-3.1-1h-3.8Z"/><path id="_複合路徑_8" data-name="&lt;複合路徑&gt;" class="cls-1" d="M380.5,91.8H367.8a5.29,5.29,0,0,0,1.4,3.8,5.13,5.13,0,0,0,6.2.3,3.62,3.62,0,0,0,1.5-2.3h3.7a6.77,6.77,0,0,1-1.4,3.1,7.05,7.05,0,0,1-2.7,2.1,9.21,9.21,0,0,1-3.8.8,8.16,8.16,0,0,1-4.2-1,8.06,8.06,0,0,1-2.9-2.9,10.62,10.62,0,0,1,0-9,6.76,6.76,0,0,1,2.9-2.9,9.32,9.32,0,0,1,8.4,0,7.52,7.52,0,0,1,2.8,2.8,8.68,8.68,0,0,1,1,3.9C380.6,90.9,380.6,91.4,380.5,91.8Zm-3.9-4.3a3.75,3.75,0,0,0-1.7-1.6,5.93,5.93,0,0,0-2.3-.5,4.62,4.62,0,0,0-4.9,4.8h9.4A4.85,4.85,0,0,0,376.6,87.5Z"/><path id="_複合路徑_9" data-name="&lt;複合路徑&gt;" class="cls-1" d="M394.4,83.8a6,6,0,0,1,2.3,2.9V82.9h3.4V99.4h-3.4V95.6a5.48,5.48,0,0,1-2.3,2.9,6.8,6.8,0,0,1-3.8,1.1,7.56,7.56,0,0,1-3.9-1,8.38,8.38,0,0,1-2.7-2.9,10.64,10.64,0,0,1-1-4.5,9.33,9.33,0,0,1,1-4.5,5.88,5.88,0,0,1,2.7-2.9,7.09,7.09,0,0,1,3.9-1A5.61,5.61,0,0,1,394.4,83.8ZM388,87.1a6.41,6.41,0,0,0,0,8,5.11,5.11,0,0,0,6.2.8A4.69,4.69,0,0,0,396,94a6.53,6.53,0,0,0,.7-2.9,5.66,5.66,0,0,0-.7-2.9,4.14,4.14,0,0,0-1.8-1.9,5.59,5.59,0,0,0-2.6-.7A5,5,0,0,0,388,87.1Z"/><path id="_路徑_13" data-name="&lt;路徑&gt;" class="cls-1" d="M407.6,77.2V99.4h-3.4V77.2Z"/><path id="_複合路徑_10" data-name="&lt;複合路徑&gt;" class="cls-1" d="M411.8,76.6a2.43,2.43,0,0,1,3.2,0,1.93,1.93,0,0,1,0,2.8,2.07,2.07,0,0,1-1.6.5,2.54,2.54,0,0,1-1.6-.5,1.68,1.68,0,0,1-.6-1.4A1.82,1.82,0,0,1,411.8,76.6Zm3.3,6.3V99.4h-3.4V82.9Z"/><path id="_路徑_14" data-name="&lt;路徑&gt;" class="cls-1" d="M427.6,96.4v3h-2.1a5.36,5.36,0,0,1-4-1.3,5.58,5.58,0,0,1-1.4-4.2V85.8h-2.4V82.9h2.4V78.8h3.4v4.1h4v2.9h-4V94a3.44,3.44,0,0,0,.5,2,2.29,2.29,0,0,0,1.8.5h1.8Z"/><path id="_路徑_15" data-name="&lt;路徑&gt;" class="cls-1" d="M432.8,82.9l4.9,12.2,4.6-12.2h3.8l-10,24.4h-3.8l3.6-8.3-7-16.1Z"/></g><g id="_群組_3" data-name="&lt;群組&gt;"><path id="_複合路徑_11" data-name="&lt;複合路徑&gt;" class="cls-1" d="M211.6,137.7h-8.9l-1.6,4.6h-3.7l7.8-20.8h3.9l7.8,20.8h-3.7Zm-.9-2.7-3.5-9.9-3.5,9.9Z"/><path id="_複合路徑_12" data-name="&lt;複合路徑&gt;" class="cls-1" d="M232.8,126.6a8.38,8.38,0,0,1,2.7,2.9,10.64,10.64,0,0,1,1,4.5,9.07,9.07,0,0,1-1,4.5,5.88,5.88,0,0,1-2.7,2.9,8.36,8.36,0,0,1-3.9,1,6.56,6.56,0,0,1-3.8-1.1,5.3,5.3,0,0,1-2.2-2.9v11.7h-3.4V125.7h3.4v3.8a5.81,5.81,0,0,1,2.2-2.9,6.56,6.56,0,0,1,3.8-1.1A7.13,7.13,0,0,1,232.8,126.6Zm-7.5,2.6a4.69,4.69,0,0,0-1.8,1.9,6.53,6.53,0,0,0-.7,2.9,5.43,5.43,0,0,0,.7,2.9,4.14,4.14,0,0,0,1.8,1.9,5.59,5.59,0,0,0,2.6.7,5,5,0,0,0,3.7-1.5,6.41,6.41,0,0,0,0-8,4.68,4.68,0,0,0-3.7-1.5A5.59,5.59,0,0,0,225.3,129.2Z"/><path id="_複合路徑_13" data-name="&lt;複合路徑&gt;" class="cls-1" d="M253.1,126.6a8.38,8.38,0,0,1,2.7,2.9,10.64,10.64,0,0,1,1,4.5,9.07,9.07,0,0,1-1,4.5,5.88,5.88,0,0,1-2.7,2.9,7.09,7.09,0,0,1-3.9,1,6.56,6.56,0,0,1-3.8-1.1,5.3,5.3,0,0,1-2.2-2.9v11.7h-3.4V125.7h3.4v3.8a5.81,5.81,0,0,1,2.2-2.9,6.8,6.8,0,0,1,3.8-1.1A7.65,7.65,0,0,1,253.1,126.6Zm-7.5,2.6a4.69,4.69,0,0,0-1.8,1.9,6.53,6.53,0,0,0-.7,2.9,5.43,5.43,0,0,0,.7,2.9,4.14,4.14,0,0,0,1.8,1.9,5.59,5.59,0,0,0,2.6.7,5,5,0,0,0,3.7-1.5,6.41,6.41,0,0,0,0-8,4.68,4.68,0,0,0-3.7-1.5A5.28,5.28,0,0,0,245.6,129.2Z"/><path id="_路徑_16" data-name="&lt;路徑&gt;" class="cls-1" d="M263.4,120.1v22.2H260V120.1Z"/><path id="_複合路徑_14" data-name="&lt;複合路徑&gt;" class="cls-1" d="M267.6,119.5a2.43,2.43,0,0,1,3.2,0,1.93,1.93,0,0,1,0,2.8,2.07,2.07,0,0,1-1.6.5,2.54,2.54,0,0,1-1.6-.5,1.68,1.68,0,0,1-.6-1.4A1.82,1.82,0,0,1,267.6,119.5Zm3.3,6.2v16.5h-3.4V125.7Z"/><path id="_路徑_17" data-name="&lt;路徑&gt;" class="cls-1" d="M287.7,127.2a7.14,7.14,0,0,1,2.6,4.6h-3.6a3.59,3.59,0,0,0-1.5-2.4,5.25,5.25,0,0,0-2.9-.9,4.53,4.53,0,0,0-3.3,1.4,7.12,7.12,0,0,0,0,8.2,4.82,4.82,0,0,0,6.2.5,3.81,3.81,0,0,0,1.5-2.5h3.6a7.14,7.14,0,0,1-2.6,4.6,8.41,8.41,0,0,1-5.3,1.7,8.16,8.16,0,0,1-4.2-1,8.06,8.06,0,0,1-2.9-2.9,10.62,10.62,0,0,1,0-9,6.76,6.76,0,0,1,2.9-2.9,8.16,8.16,0,0,1,4.2-1A7.64,7.64,0,0,1,287.7,127.2Z"/><path id="_複合路徑_15" data-name="&lt;複合路徑&gt;" class="cls-1" d="M304.1,126.6a6,6,0,0,1,2.3,2.9v-3.8h3.4v16.5h-3.4v-3.8a5.48,5.48,0,0,1-2.3,2.9,6.8,6.8,0,0,1-3.8,1.1,7.56,7.56,0,0,1-3.9-1,8.38,8.38,0,0,1-2.7-2.9,10.64,10.64,0,0,1-1-4.5,9.33,9.33,0,0,1,1-4.5,5.88,5.88,0,0,1,2.7-2.9,7.09,7.09,0,0,1,3.9-1A5.87,5.87,0,0,1,304.1,126.6Zm-6.4,3.4a6.41,6.41,0,0,0,0,8,5.11,5.11,0,0,0,6.2.8,4.69,4.69,0,0,0,1.8-1.9,6.53,6.53,0,0,0,.7-2.9,5.66,5.66,0,0,0-.7-2.9,4.14,4.14,0,0,0-1.8-1.9,5.59,5.59,0,0,0-2.6-.7A4.61,4.61,0,0,0,297.7,130Z"/><path id="_路徑_18" data-name="&lt;路徑&gt;" class="cls-1" d="M322.2,139.3v3h-2.1a5.36,5.36,0,0,1-4-1.3,5.58,5.58,0,0,1-1.4-4.2v-8.1h-2.4v-2.9h2.4v-4.1h3.5v4.1h4v2.9h-4v8.2a3.44,3.44,0,0,0,.5,2,2.29,2.29,0,0,0,1.8.5h1.7Z"/><path id="_複合路徑_16" data-name="&lt;複合路徑&gt;" class="cls-1" d="M325.5,119.5a2.43,2.43,0,0,1,3.2,0,1.93,1.93,0,0,1,0,2.8,2.07,2.07,0,0,1-1.6.5,2.54,2.54,0,0,1-1.6-.5,1.93,1.93,0,0,1,0-2.8Zm3.3,6.2v16.5h-3.4V125.7Z"/><path id="_複合路徑_17" data-name="&lt;複合路徑&gt;" class="cls-1" d="M344.9,126.6a7.62,7.62,0,0,1,3,2.9A9.36,9.36,0,0,1,349,134a9.08,9.08,0,0,1-1.1,4.5,6.48,6.48,0,0,1-3,2.9,10.07,10.07,0,0,1-4.3,1,8.8,8.8,0,0,1-4.3-1,7.23,7.23,0,0,1-3-3,9.75,9.75,0,0,1,0-9,6.48,6.48,0,0,1,3-2.9,10.07,10.07,0,0,1,4.3-1A8.86,8.86,0,0,1,344.9,126.6Zm-6.8,2.5a5.16,5.16,0,0,0-1.8,1.8,6.64,6.64,0,0,0-.7,3,6.17,6.17,0,0,0,.7,3.1,4.45,4.45,0,0,0,1.8,1.8,5.33,5.33,0,0,0,2.4.6,4.75,4.75,0,0,0,2.4-.6,5.16,5.16,0,0,0,1.8-1.8,5.7,5.7,0,0,0,.7-3.1,5.56,5.56,0,0,0-.7-3,3.92,3.92,0,0,0-1.8-1.8,4.75,4.75,0,0,0-2.4-.6A5.33,5.33,0,0,0,338.1,129.1Z"/><path id="_路徑_19" data-name="&lt;路徑&gt;" class="cls-1" d="M366.1,127.3c1.2,1.2,1.7,3,1.7,5.3v9.6h-3.4V133a5,5,0,0,0-1.1-3.4,4.72,4.72,0,0,0-6.4.1,5.41,5.41,0,0,0-1.2,3.8v8.8h-3.4V125.8h3.4v3.6a5.81,5.81,0,0,1,2.2-2.9,6.09,6.09,0,0,1,3.6-1A6.18,6.18,0,0,1,366.1,127.3Z"/><path id="_複合路徑_18" data-name="&lt;複合路徑&gt;" class="cls-1" d="M391.5,137.7h-8.9l-1.6,4.6h-3.7l7.8-20.8H389l7.8,20.8h-3.7Zm-1-2.7-3.5-9.9-3.5,9.9Z"/><path id="_路徑_20" data-name="&lt;路徑&gt;" class="cls-1" d="M402.7,120.1v22.2h-3.4V120.1Z"/><path id="_路徑_21" data-name="&lt;路徑&gt;" class="cls-1" d="M410.3,120.1v22.2h-3.4V120.1Z"/><path id="_複合路徑_19" data-name="&lt;複合路徑&gt;" class="cls-1" d="M414.6,119.5a2.43,2.43,0,0,1,3.2,0,1.93,1.93,0,0,1,0,2.8,2.07,2.07,0,0,1-1.6.5,2.54,2.54,0,0,1-1.6-.5,1.93,1.93,0,0,1,0-2.8Zm3.3,6.2v16.5h-3.4V125.7Z"/><path id="_複合路徑_20" data-name="&lt;複合路徑&gt;" class="cls-1" d="M432.5,126.6a6,6,0,0,1,2.3,2.9v-3.8h3.4v16.5h-3.4v-3.8a5.48,5.48,0,0,1-2.3,2.9,6.8,6.8,0,0,1-3.8,1.1,7.56,7.56,0,0,1-3.9-1,8.38,8.38,0,0,1-2.7-2.9,10.64,10.64,0,0,1-1-4.5,9.33,9.33,0,0,1,1-4.5,5.88,5.88,0,0,1,2.7-2.9,7.09,7.09,0,0,1,3.9-1A6.21,6.21,0,0,1,432.5,126.6ZM426,130a6.41,6.41,0,0,0,0,8,5.11,5.11,0,0,0,6.2.8,4.69,4.69,0,0,0,1.8-1.9,6.53,6.53,0,0,0,.7-2.9,5.66,5.66,0,0,0-.7-2.9,4.16,4.16,0,0,0-1.8-1.9,5.59,5.59,0,0,0-2.6-.7A4.75,4.75,0,0,0,426,130Z"/><path id="_路徑_22" data-name="&lt;路徑&gt;" class="cls-1" d="M456.1,127.3c1.2,1.2,1.7,3,1.7,5.3v9.6h-3.4V133a5,5,0,0,0-1.1-3.4,4.72,4.72,0,0,0-6.4.1,5.41,5.41,0,0,0-1.2,3.8v8.8h-3.4V125.8h3.4v3.6a5.81,5.81,0,0,1,2.2-2.9,6.09,6.09,0,0,1,3.6-1A6.18,6.18,0,0,1,456.1,127.3Z"/><path id="_路徑_23" data-name="&lt;路徑&gt;" class="cls-1" d="M474.5,127.2a7.14,7.14,0,0,1,2.6,4.6h-3.6a3.59,3.59,0,0,0-1.5-2.4,5.25,5.25,0,0,0-2.9-.9,4.53,4.53,0,0,0-3.3,1.4,7.12,7.12,0,0,0,0,8.2,4.82,4.82,0,0,0,6.2.5,3.81,3.81,0,0,0,1.5-2.5h3.6a7.14,7.14,0,0,1-2.6,4.6,8.41,8.41,0,0,1-5.3,1.7,8.16,8.16,0,0,1-4.2-1,8.06,8.06,0,0,1-2.9-2.9,10.62,10.62,0,0,1,0-9,6.76,6.76,0,0,1,2.9-2.9,8.16,8.16,0,0,1,4.2-1A7.8,7.8,0,0,1,474.5,127.2Z"/><path id="_複合路徑_21" data-name="&lt;複合路徑&gt;" class="cls-1" d="M495.6,134.7H482.9a5.29,5.29,0,0,0,1.4,3.8,5.13,5.13,0,0,0,6.2.3,3.62,3.62,0,0,0,1.5-2.3h3.7a6.77,6.77,0,0,1-1.4,3.1,7.05,7.05,0,0,1-2.7,2.1,9.21,9.21,0,0,1-3.8.8,8.16,8.16,0,0,1-4.2-1,8.06,8.06,0,0,1-2.9-2.9,9.36,9.36,0,0,1-1.1-4.5,8.36,8.36,0,0,1,1.1-4.5,6.76,6.76,0,0,1,2.9-2.9,9.3,9.3,0,0,1,4.2-1,8.16,8.16,0,0,1,4.2,1,7.56,7.56,0,0,1,3.8,6.7A5.85,5.85,0,0,1,495.6,134.7Zm-3.8-4.3a3.75,3.75,0,0,0-1.7-1.6,5.93,5.93,0,0,0-2.3-.5,4.62,4.62,0,0,0-4.9,4.8h9.4A4.53,4.53,0,0,0,491.8,130.4Z"/></g><path id="_複合路徑_22" data-name="&lt;複合路徑&gt;" class="cls-1" d="M54,78.9H28.2c-5.6,0-10.6,4.4-10.6,9.4v8.8c0,5,5,8.8,10.6,8.8H38.7s2.1-7,4.7,0H54c5.6,0,10.6-3.8,10.6-8.8V88.3C64.6,83.3,59.6,78.9,54,78.9ZM38,94.1a7.64,7.64,0,1,1-6-9.2A7.76,7.76,0,0,1,38,94.1Zm16.1,6.3a7.9,7.9,0,1,1,6-9.2A7.76,7.76,0,0,1,54.1,100.4Z"/></g></svg>