<svg id="圖層_1" data-name="圖層 1" xmlns="http://www.w3.org/2000/svg" viewBox="0 0 499.3 170.6"><defs><style>.cls-1{fill:#fff;}.cls-2{fill:none;stroke:#fff;stroke-miterlimit:10;stroke-width:4px;}</style></defs><title>工作區域 1</title><g id="圖層_1-2" data-name="圖層 1"><g id="_群組_" data-name="&lt;群組&gt;"><polygon id="_路徑_" data-name="&lt;路徑&gt;" class="cls-1" points="215.5 44.2 205.2 28.4 199.1 28.4 199.1 53.8 205.2 53.8 205.2 38.2 215.5 53.8 221.7 53.8 221.7 28.4 215.5 28.4 215.5 44.2"/><polygon id="_路徑_2" data-name="&lt;路徑&gt;" class="cls-1" points="224.3 33.3 231.1 33.3 231.1 53.8 237.3 53.8 237.3 33.3 244.2 33.3 244.2 28.4 224.3 28.4 224.3 33.3"/><path id="_路徑_3" data-name="&lt;路徑&gt;" class="cls-1" d="M261.6,43.1a6.24,6.24,0,0,1-1.1,3.9,4.84,4.84,0,0,1-6.6,0,5.68,5.68,0,0,1-1.1-3.9V28.4h-6.1V43.1a12.78,12.78,0,0,0,1.3,6.1,8.28,8.28,0,0,0,3.7,3.7,11.91,11.91,0,0,0,5.4,1.2,12.34,12.34,0,0,0,5.5-1.2,9,9,0,0,0,3.8-3.7,12.5,12.5,0,0,0,1.4-6.1V28.4h-6.2V43.1Z"/><path id="_路徑_4" data-name="&lt;路徑&gt;" class="cls-1" d="M286.4,40.3a27.54,27.54,0,0,0-4-1.6c-1.1-.4-2-.7-2.6-1a5.6,5.6,0,0,1-1.5-1,2,2,0,0,1-.6-1.5,2.06,2.06,0,0,1,.7-1.7,2.35,2.35,0,0,1,1.7-.6,2.72,2.72,0,0,1,2,.7,3.37,3.37,0,0,1,.9,2h6.7a7.58,7.58,0,0,0-2.8-5.5,10.79,10.79,0,0,0-6.8-2,11.59,11.59,0,0,0-4.7.9,7.34,7.34,0,0,0-3.2,2.5,6.45,6.45,0,0,0-1.2,3.9,7,7,0,0,0,1.1,4,7.11,7.11,0,0,0,2.6,2.3c1,.5,2.3,1,3.9,1.6,1.1.4,2,.7,2.6,1a5.72,5.72,0,0,1,1.6,1.1,2.27,2.27,0,0,1,.6,1.6,2.06,2.06,0,0,1-.7,1.7,2.88,2.88,0,0,1-1.9.6,3.57,3.57,0,0,1-2.3-.8,3.5,3.5,0,0,1-1-2.3h-6.6a7.73,7.73,0,0,0,3,5.8,11.31,11.31,0,0,0,7.1,2.1,10,10,0,0,0,4.8-1,7.89,7.89,0,0,0,3-2.7,6.86,6.86,0,0,0,1-3.7,6.78,6.78,0,0,0-1.1-4A4.5,4.5,0,0,0,286.4,40.3Z"/><polygon id="_路徑_5" data-name="&lt;路徑&gt;" class="cls-1" points="291.9 33.3 298.8 33.3 298.8 53.8 305 53.8 305 33.3 311.9 33.3 311.9 28.4 291.9 28.4 291.9 33.3"/><rect id="_路徑_6" data-name="&lt;路徑&gt;" class="cls-1" x="321.7" y="28.4" width="6.2" height="25.5"/><path id="_複合路徑_" data-name="&lt;複合路徑&gt;" class="cls-1" d="M346.7,28.6h-7.1l-9.3,25.3h6.5l1.6-4.6h9.5l1.6,4.6h6.6Zm-6.8,15.9,3.2-9.4,3.2,9.4Z"/><path id="_路徑_7" data-name="&lt;路徑&gt;" class="cls-1" d="M100,110.4a24.89,24.89,0,0,1-8.7-1.6,1.41,1.41,0,0,0-1.9,1.3v4.4a1.5,1.5,0,0,0,1,1.4,30.62,30.62,0,0,0,9.6,1.5,32,32,0,0,0,4.4-63.8,31.53,31.53,0,0,0-14.1,1.2,1.41,1.41,0,0,0-1,1.4v4.4a1.37,1.37,0,0,0,1.9,1.3A25.66,25.66,0,0,1,103,60.5a25.05,25.05,0,0,1-3,49.9Z"/><path id="_路徑_8" data-name="&lt;路徑&gt;" class="cls-1" d="M168.8,35.9,101.5,7.5a3.19,3.19,0,0,0-2.7,0L57.6,24.9l-6.1,2.6a1.42,1.42,0,0,0-.9,1.3v4.5a1.43,1.43,0,0,0,2,1.3l.4-.2,4.6-1.9L98.8,15.1a3,3,0,0,1,2.6,0l60.8,25.7a2.71,2.71,0,0,1,1.7,2.6l-.1,84.3a2.87,2.87,0,0,1-1.7,2.6l-60.7,25.6a3,3,0,0,1-2.6,0l-7.2-3a1.45,1.45,0,0,0-2,1.3v4.5a1.29,1.29,0,0,0,.9,1.3l8.3,3.5a3.19,3.19,0,0,0,1.4.3,3.53,3.53,0,0,0,1.4-.3l67.2-28.4a3.39,3.39,0,0,0,2.1-3.2l.1-92.7A3.61,3.61,0,0,0,168.8,35.9Z"/><path id="_複合路徑_2" data-name="&lt;複合路徑&gt;" class="cls-1" d="M80.1,53.5l-66-27.9a.69.69,0,0,1,0-1.3L50.5,8.8v9.1a1.43,1.43,0,0,0,2,1.3l4.2-1.8a1.42,1.42,0,0,0,.9-1.3V3.3a2,2,0,0,0-.1-.8A3.54,3.54,0,0,0,52.8.3S2.1,21.8,1.8,22A3.36,3.36,0,0,0,.2,24.9V135.1a3.39,3.39,0,0,0,2.1,3.2l75.3,31.9a3.19,3.19,0,0,0,1.4.3,3.35,3.35,0,0,0,2.7-1.3,3.78,3.78,0,0,0,.8-2.3V56.7A4.35,4.35,0,0,0,80.1,53.5ZM75.3,160.7a.74.74,0,0,1-1,.7L8.7,133.6A2.87,2.87,0,0,1,7,131V31.3a.74.74,0,0,1,1-.7L73.5,58.3a2.87,2.87,0,0,1,1.7,2.6v99.8Z"/></g><g id="_群組_2" data-name="&lt;群組&gt;"><path id="_複合路徑_3" data-name="&lt;複合路徑&gt;" class="cls-1" d="M207.6,96.3h-6l-1.1,3.1h-2.4l5.2-13.9h2.6l5.2,13.9h-2.4Zm-.6-1.7L204.7,88l-2.3,6.6Z"/><path id="_路徑_9" data-name="&lt;路徑&gt;" class="cls-1" d="M215.1,84.6V99.4h-2.3V84.6Z"/><path id="_路徑_10" data-name="&lt;路徑&gt;" class="cls-1" d="M220.2,84.6V99.4h-2.3V84.6Z"/><path id="_複合路徑_4" data-name="&lt;複合路徑&gt;" class="cls-1" d="M223,84.2a1.71,1.71,0,0,1,2.2,0,1.28,1.28,0,0,1,.4,1,1,1,0,0,1-.4.9,1.82,1.82,0,0,1-1.1.4,1.37,1.37,0,0,1-1.1-.4,1.09,1.09,0,0,1-.4-.9A1.43,1.43,0,0,1,223,84.2Zm2.2,4.2v11h-2.3v-11Z"/><path id="_複合路徑_5" data-name="&lt;複合路徑&gt;" class="cls-1" d="M235,89a3.82,3.82,0,0,1,1.5,2V88.4h2.3v11h-2.3V96.8a4.26,4.26,0,0,1-1.5,2,4.41,4.41,0,0,1-2.6.7,4.62,4.62,0,0,1-2.6-.7,5,5,0,0,1-1.8-2,7.8,7.8,0,0,1,0-6,4.38,4.38,0,0,1,1.8-2,4.62,4.62,0,0,1,2.6-.7A5.77,5.77,0,0,1,235,89Zm-4.3,2.2a3.67,3.67,0,0,0-.9,2.7,4,4,0,0,0,.9,2.7,3,3,0,0,0,2.4,1,3.37,3.37,0,0,0,1.7-.5,3,3,0,0,0,1.2-1.3,4.06,4.06,0,0,0,.4-1.9A3.81,3.81,0,0,0,236,92a3,3,0,0,0-1.2-1.3,3.37,3.37,0,0,0-1.7-.5A3.31,3.31,0,0,0,230.7,91.2Z"/><path id="_路徑_11" data-name="&lt;路徑&gt;" class="cls-1" d="M250.7,89.4a4.79,4.79,0,0,1,1.2,3.5v6.4h-2.3V93.1a3.2,3.2,0,0,0-.8-2.3,2.86,2.86,0,0,0-2.1-.8,2.94,2.94,0,0,0-2.2.9,3.29,3.29,0,0,0-.8,2.5v5.9h-2.3v-11h2.3v2.4a3.58,3.58,0,0,1,1.5-1.9,4.81,4.81,0,0,1,2.4-.7A4.64,4.64,0,0,1,250.7,89.4Z"/><path id="_路徑_12" data-name="&lt;路徑&gt;" class="cls-1" d="M263,89.4a5,5,0,0,1,1.7,3.1h-2.4a2.47,2.47,0,0,0-1-1.6,3.08,3.08,0,0,0-1.9-.6,2.94,2.94,0,0,0-2.2.9,4.5,4.5,0,0,0,0,5.4,2.94,2.94,0,0,0,2.2.9,2.88,2.88,0,0,0,1.9-.6,2.94,2.94,0,0,0,1-1.6h2.4a5.47,5.47,0,0,1-8,3.5,4.59,4.59,0,0,1-1.9-2,7.35,7.35,0,0,1-.7-3,6,6,0,0,1,.7-3,5.24,5.24,0,0,1,1.9-2,5.3,5.3,0,0,1,2.8-.7A6,6,0,0,1,263,89.4Z"/><path id="_複合路徑_6" data-name="&lt;複合路徑&gt;" class="cls-1" d="M277.1,94.3h-8.5a3.58,3.58,0,0,0,.9,2.5,3.29,3.29,0,0,0,2.2.8,2.88,2.88,0,0,0,1.9-.6,3.07,3.07,0,0,0,1-1.5H277a5,5,0,0,1-.9,2.1,4.89,4.89,0,0,1-1.8,1.4,6.55,6.55,0,0,1-2.5.5,5.07,5.07,0,0,1-2.8-.7,4.59,4.59,0,0,1-1.9-2,7.35,7.35,0,0,1-.7-3,6,6,0,0,1,.7-3,5.24,5.24,0,0,1,1.9-2,5.3,5.3,0,0,1,2.8-.7,5.07,5.07,0,0,1,2.8.7,5.46,5.46,0,0,1,1.9,1.8,5.94,5.94,0,0,1,.7,2.6C277.2,93.7,277.1,94.1,277.1,94.3Zm-2.6-2.8a2.9,2.9,0,0,0-1.1-1.1,4,4,0,0,0-1.5-.3,3.29,3.29,0,0,0-2.2.8,3.55,3.55,0,0,0-1,2.4H275A4.76,4.76,0,0,0,274.5,91.5Z"/><path id="_複合路徑_7" data-name="&lt;複合路徑&gt;" class="cls-1" d="M291.9,88.9a4.82,4.82,0,0,1,2,2,6,6,0,0,1,.7,3,5.56,5.56,0,0,1-.7,3,4.82,4.82,0,0,1-2,2,6.36,6.36,0,0,1-5.8,0,5.48,5.48,0,0,1-2-2,6.78,6.78,0,0,1,0-6,5.36,5.36,0,0,1,4.9-2.7A6.53,6.53,0,0,1,291.9,88.9Zm-4.5,1.7a3.45,3.45,0,0,0-1.2,1.2,5.2,5.2,0,0,0,0,4,2.78,2.78,0,0,0,1.2,1.2,3.4,3.4,0,0,0,3.2,0,3.45,3.45,0,0,0,1.2-1.2,4,4,0,0,0,.4-2,5.44,5.44,0,0,0-.4-2,2.33,2.33,0,0,0-1.2-1.2,2.93,2.93,0,0,0-1.6-.4A3.17,3.17,0,0,0,287.4,90.6Z"/><path id="_路徑_13" data-name="&lt;路徑&gt;" class="cls-1" d="M300.1,86.5c-.4.3-.5.9-.5,1.7v.2H302v2h-2.4v9.1h-2.3V90.4h-1.5v-2h1.5V88a3.64,3.64,0,0,1,1.2-3,4.72,4.72,0,0,1,3.5-.9v2A3.16,3.16,0,0,0,300.1,86.5Z"/><path id="_複合路徑_8" data-name="&lt;複合路徑&gt;" class="cls-1" d="M315.9,99.4l-3.5-5.6h-1.6v5.6h-2.3V85.3h5a5.31,5.31,0,0,1,3.7,1.2,4.22,4.22,0,0,1,1.3,3.1,4,4,0,0,1-.9,2.7,4.39,4.39,0,0,1-2.7,1.4l3.7,5.7Zm-5.1-7.3h2.5c1.8,0,2.8-.8,2.8-2.4a2.14,2.14,0,0,0-.7-1.8,2.92,2.92,0,0,0-2.1-.7h-2.5v4.9Z"/><path id="_複合路徑_9" data-name="&lt;複合路徑&gt;" class="cls-1" d="M330.6,94.3h-8.5a3.58,3.58,0,0,0,.9,2.5,3.29,3.29,0,0,0,2.2.8,2.88,2.88,0,0,0,1.9-.6,3.07,3.07,0,0,0,1-1.5h2.4a5,5,0,0,1-.9,2.1,4.89,4.89,0,0,1-1.8,1.4,6.55,6.55,0,0,1-2.5.5,5.07,5.07,0,0,1-2.8-.7,4.59,4.59,0,0,1-1.9-2,7.35,7.35,0,0,1-.7-3,6,6,0,0,1,.7-3,5.24,5.24,0,0,1,1.9-2,5.3,5.3,0,0,1,2.8-.7,5.07,5.07,0,0,1,2.8.7,5.46,5.46,0,0,1,1.9,1.8,5.94,5.94,0,0,1,.7,2.6A3.11,3.11,0,0,1,330.6,94.3Zm-2.5-2.8a2.9,2.9,0,0,0-1.1-1.1,4.15,4.15,0,0,0-1.6-.3,3.29,3.29,0,0,0-2.2.8,3.55,3.55,0,0,0-1,2.4h6.3A4.78,4.78,0,0,0,328.1,91.5Z"/><path id="_路徑_14" data-name="&lt;路徑&gt;" class="cls-1" d="M339.7,89.2a3.78,3.78,0,0,1,1.4,2.7h-2.2a2.24,2.24,0,0,0-.8-1.5,2.31,2.31,0,0,0-1.7-.5,1.7,1.7,0,0,0-1.3.4,1.43,1.43,0,0,0-.5,1.1,1.14,1.14,0,0,0,.3.8,2.18,2.18,0,0,0,.8.5,7.54,7.54,0,0,0,1.5.4,16.7,16.7,0,0,1,2,.6,3,3,0,0,1,1.3.9,2.43,2.43,0,0,1,.5,1.8,2.57,2.57,0,0,1-1,2.2,4.1,4.1,0,0,1-2.8.9,4.83,4.83,0,0,1-3.3-1,3.68,3.68,0,0,1-1.5-2.7h2.2a2.24,2.24,0,0,0,.8,1.5,2.79,2.79,0,0,0,1.8.6,1.84,1.84,0,0,0,1.3-.4,1.43,1.43,0,0,0,.5-1.1,1,1,0,0,0-.4-.9,1.93,1.93,0,0,0-.9-.5,15.46,15.46,0,0,0-1.5-.4,16.7,16.7,0,0,1-2-.6,3.81,3.81,0,0,1-1.3-.9,2.31,2.31,0,0,1-.5-1.7,2.9,2.9,0,0,1,1-2.3,4.37,4.37,0,0,1,2.9-.9A5.5,5.5,0,0,1,339.7,89.2Z"/><path id="_複合路徑_10" data-name="&lt;複合路徑&gt;" class="cls-1" d="M351.4,88.9a4.82,4.82,0,0,1,2,2,6,6,0,0,1,.7,3,5.56,5.56,0,0,1-.7,3,4.82,4.82,0,0,1-2,2,6.36,6.36,0,0,1-5.8,0,5.48,5.48,0,0,1-2-2,6.78,6.78,0,0,1,0-6,5.36,5.36,0,0,1,4.9-2.7A6.53,6.53,0,0,1,351.4,88.9Zm-4.5,1.7a3.45,3.45,0,0,0-1.2,1.2,5.2,5.2,0,0,0,0,4,2.78,2.78,0,0,0,1.2,1.2,3.4,3.4,0,0,0,3.2,0,3.45,3.45,0,0,0,1.2-1.2,4,4,0,0,0,.4-2,5.44,5.44,0,0,0-.4-2,2.33,2.33,0,0,0-1.2-1.2,3.4,3.4,0,0,0-3.2,0Z"/><path id="_路徑_15" data-name="&lt;路徑&gt;" class="cls-1" d="M366.5,88.4v11h-2.3V97a4,4,0,0,1-1.5,1.9,4.81,4.81,0,0,1-2.4.7,4.14,4.14,0,0,1-3.1-1.2,4.79,4.79,0,0,1-1.2-3.5V88.5h2.3v6.2a3.2,3.2,0,0,0,.8,2.3,2.86,2.86,0,0,0,2.1.8,2.94,2.94,0,0,0,2.2-.9,3.39,3.39,0,0,0,.8-2.6V88.5h2.3Z"/><path id="_路徑_16" data-name="&lt;路徑&gt;" class="cls-1" d="M373.1,88.8a4.75,4.75,0,0,1,2.4-.6v2.5h-.7a3.61,3.61,0,0,0-2.4.7,3,3,0,0,0-.9,2.4v5.6h-2.3v-11h2.3v2.2A4,4,0,0,1,373.1,88.8Z"/><path id="_路徑_17" data-name="&lt;路徑&gt;" class="cls-1" d="M385.6,89.4a5,5,0,0,1,1.7,3.1H385a2.47,2.47,0,0,0-1-1.6,3.08,3.08,0,0,0-1.9-.6,2.94,2.94,0,0,0-2.2.9,4.5,4.5,0,0,0,0,5.4,2.94,2.94,0,0,0,2.2.9,2.88,2.88,0,0,0,1.9-.6,2.94,2.94,0,0,0,1-1.6h2.4a5.47,5.47,0,0,1-8,3.5,4.59,4.59,0,0,1-1.9-2,7.35,7.35,0,0,1-.7-3,6,6,0,0,1,.7-3,5.24,5.24,0,0,1,1.9-2,5.3,5.3,0,0,1,2.8-.7A5.69,5.69,0,0,1,385.6,89.4Z"/><path id="_複合路徑_11" data-name="&lt;複合路徑&gt;" class="cls-1" d="M399.7,94.3h-8.5a3.58,3.58,0,0,0,.9,2.5,3.29,3.29,0,0,0,2.2.8,2.88,2.88,0,0,0,1.9-.6,3.07,3.07,0,0,0,1-1.5h2.4a5,5,0,0,1-.9,2.1,4.89,4.89,0,0,1-1.8,1.4,6.55,6.55,0,0,1-2.5.5,5.07,5.07,0,0,1-2.8-.7,4.59,4.59,0,0,1-1.9-2,7.35,7.35,0,0,1-.7-3,6,6,0,0,1,.7-3,5.24,5.24,0,0,1,1.9-2,5.3,5.3,0,0,1,2.8-.7,5.07,5.07,0,0,1,2.8.7,5.46,5.46,0,0,1,1.9,1.8,5.94,5.94,0,0,1,.7,2.6A3.11,3.11,0,0,1,399.7,94.3Zm-2.5-2.8a2.9,2.9,0,0,0-1.1-1.1,4.15,4.15,0,0,0-1.6-.3,3.29,3.29,0,0,0-2.2.8,3.55,3.55,0,0,0-1,2.4h6.3A4.78,4.78,0,0,0,397.2,91.5Z"/><path id="_複合路徑_12" data-name="&lt;複合路徑&gt;" class="cls-1" d="M414.1,99.4l-3.5-5.6H409v5.6h-2.3V85.3h5a5.31,5.31,0,0,1,3.7,1.2,4.22,4.22,0,0,1,1.3,3.1,4,4,0,0,1-.9,2.7,4.39,4.39,0,0,1-2.7,1.4l3.7,5.7ZM409,92.1h2.5c1.8,0,2.8-.8,2.8-2.4a2.14,2.14,0,0,0-.7-1.8,2.92,2.92,0,0,0-2.1-.7H409Z"/><path id="_複合路徑_13" data-name="&lt;複合路徑&gt;" class="cls-1" d="M428.8,94.3h-8.5a3.58,3.58,0,0,0,.9,2.5,3.29,3.29,0,0,0,2.2.8,2.88,2.88,0,0,0,1.9-.6,3.07,3.07,0,0,0,1-1.5h2.4a5,5,0,0,1-.9,2.1A4.89,4.89,0,0,1,426,99a6.55,6.55,0,0,1-2.5.5,5.07,5.07,0,0,1-2.8-.7,4.59,4.59,0,0,1-1.9-2,7.35,7.35,0,0,1-.7-3,6,6,0,0,1,.7-3,5.24,5.24,0,0,1,1.9-2,5.3,5.3,0,0,1,2.8-.7,5.07,5.07,0,0,1,2.8.7,5.46,5.46,0,0,1,1.9,1.8,5.94,5.94,0,0,1,.7,2.6A3.11,3.11,0,0,1,428.8,94.3Zm-2.6-2.8a2.9,2.9,0,0,0-1.1-1.1,4,4,0,0,0-1.5-.3,3.29,3.29,0,0,0-2.2.8,3.55,3.55,0,0,0-1,2.4h6.3A4.76,4.76,0,0,0,426.2,91.5Z"/><path id="_路徑_18" data-name="&lt;路徑&gt;" class="cls-1" d="M439.5,89.4a5,5,0,0,1,1.7,3.1h-2.4a2.47,2.47,0,0,0-1-1.6,3.08,3.08,0,0,0-1.9-.6,2.94,2.94,0,0,0-2.2.9,4.5,4.5,0,0,0,0,5.4,2.94,2.94,0,0,0,2.2.9,2.88,2.88,0,0,0,1.9-.6,2.94,2.94,0,0,0,1-1.6h2.4a5.47,5.47,0,0,1-8,3.5,4.59,4.59,0,0,1-1.9-2,7.35,7.35,0,0,1-.7-3,6,6,0,0,1,.7-3,5.24,5.24,0,0,1,1.9-2,5.3,5.3,0,0,1,2.8-.7A5.74,5.74,0,0,1,439.5,89.4Z"/><path id="_複合路徑_14" data-name="&lt;複合路徑&gt;" class="cls-1" d="M451.4,88.9a4.82,4.82,0,0,1,2,2,6,6,0,0,1,.7,3,5.56,5.56,0,0,1-.7,3,5.48,5.48,0,0,1-2,2,6.36,6.36,0,0,1-5.8,0,5.48,5.48,0,0,1-2-2,6.78,6.78,0,0,1,0-6,5.36,5.36,0,0,1,4.9-2.7A6.53,6.53,0,0,1,451.4,88.9Zm-4.5,1.7a3.45,3.45,0,0,0-1.2,1.2,4.23,4.23,0,0,0-.5,2,3.94,3.94,0,0,0,.5,2,2.78,2.78,0,0,0,1.2,1.2,3.4,3.4,0,0,0,3.2,0,3.45,3.45,0,0,0,1.2-1.2,5.2,5.2,0,0,0,0-4,2.78,2.78,0,0,0-1.2-1.2,3.4,3.4,0,0,0-3.2,0Z"/><path id="_路徑_19" data-name="&lt;路徑&gt;" class="cls-1" d="M460.8,97l3.1-8.7h2.4l-4.2,11h-2.8l-4.2-11h2.4Z"/><path id="_複合路徑_15" data-name="&lt;複合路徑&gt;" class="cls-1" d="M478.2,94.3h-8.5a3.58,3.58,0,0,0,.9,2.5,3.29,3.29,0,0,0,2.2.8,2.88,2.88,0,0,0,1.9-.6,3.07,3.07,0,0,0,1-1.5h2.4a5,5,0,0,1-.9,2.1,4.89,4.89,0,0,1-1.8,1.4,6.55,6.55,0,0,1-2.5.5,5.07,5.07,0,0,1-2.8-.7,4.59,4.59,0,0,1-1.9-2,7.35,7.35,0,0,1-.7-3,6,6,0,0,1,.7-3,5.24,5.24,0,0,1,1.9-2,5.3,5.3,0,0,1,2.8-.7,5.07,5.07,0,0,1,2.8.7,5.46,5.46,0,0,1,1.9,1.8,5.94,5.94,0,0,1,.7,2.6A3.11,3.11,0,0,1,478.2,94.3Zm-2.5-2.8a2.9,2.9,0,0,0-1.1-1.1,4,4,0,0,0-1.5-.3,3.29,3.29,0,0,0-2.2.8,3.55,3.55,0,0,0-1,2.4h6.3A7.76,7.76,0,0,0,475.7,91.5Z"/><path id="_路徑_20" data-name="&lt;路徑&gt;" class="cls-1" d="M484.4,88.8a4.75,4.75,0,0,1,2.4-.6v2.5h-.7a3.61,3.61,0,0,0-2.4.7,3,3,0,0,0-.9,2.4v5.6h-2.3v-11h2.3v2.2A4,4,0,0,1,484.4,88.8Z"/><path id="_路徑_21" data-name="&lt;路徑&gt;" class="cls-1" d="M489.8,88.4l3.3,8.1,3.1-8.1h2.5L492,104.7h-2.5l2.4-5.5-4.6-10.8Z"/></g><g id="_群組_3" data-name="&lt;群組&gt;"><path id="_複合路徑_16" data-name="&lt;複合路徑&gt;" class="cls-1" d="M207.2,131.8a5,5,0,0,1,1.8,2,7.31,7.31,0,0,1,.6,3,6.68,6.68,0,0,1-.6,3,4.38,4.38,0,0,1-1.8,2,4.62,4.62,0,0,1-2.6.7,4.41,4.41,0,0,1-2.6-.7,3.82,3.82,0,0,1-1.5-2v2.6h-2.3V127.6h2.3v6.3a4.26,4.26,0,0,1,1.5-2,4.41,4.41,0,0,1,2.6-.7A3.76,3.76,0,0,1,207.2,131.8Zm-5,1.8a3,3,0,0,0-1.2,1.3,4.06,4.06,0,0,0-.4,1.9,3.81,3.81,0,0,0,.4,1.9,3.74,3.74,0,0,0,1.2,1.3,3.37,3.37,0,0,0,1.7.5,3,3,0,0,0,2.4-1,3.67,3.67,0,0,0,.9-2.7,4,4,0,0,0-.9-2.7,3,3,0,0,0-2.4-1A3.37,3.37,0,0,0,202.2,133.6Z"/><path id="_路徑_22" data-name="&lt;路徑&gt;" class="cls-1" d="M213.1,131.3l3.3,8.1,3.1-8.1H222l-6.7,16.3h-2.5l2.4-5.5-4.6-10.8Z"/><path id="_路徑_23" data-name="&lt;路徑&gt;" class="cls-1" d="M238.8,129.3a6.83,6.83,0,0,1,2.3,3.6h-2.4a4,4,0,0,0-1.6-2,4.55,4.55,0,0,0-2.7-.8,4.65,4.65,0,0,0-2.3.6,4,4,0,0,0-1.6,1.8,6.37,6.37,0,0,0,0,5.4,4,4,0,0,0,1.6,1.8,4.38,4.38,0,0,0,2.3.6,4.78,4.78,0,0,0,2.7-.8,3.89,3.89,0,0,0,1.6-2h2.4a6.83,6.83,0,0,1-2.3,3.6,6.68,6.68,0,0,1-4.3,1.3,6.76,6.76,0,0,1-3.5-.9,6.65,6.65,0,0,1-3.2-6.2,8.74,8.74,0,0,1,.8-3.7,5.8,5.8,0,0,1,2.4-2.5,6.76,6.76,0,0,1,3.5-.9A6.07,6.07,0,0,1,238.8,129.3Z"/><path id="_路徑_24" data-name="&lt;路徑&gt;" class="cls-1" d="M252.7,132.3a4.79,4.79,0,0,1,1.2,3.5v6.4h-2.3V136a3.2,3.2,0,0,0-.8-2.3,2.86,2.86,0,0,0-2.1-.8,2.94,2.94,0,0,0-2.2.9,3.29,3.29,0,0,0-.8,2.5v5.9h-2.3V127.4h2.3v6.2a3.58,3.58,0,0,1,1.5-1.9,4.81,4.81,0,0,1,2.4-.7A4.64,4.64,0,0,1,252.7,132.3Z"/><path id="_複合路徑_17" data-name="&lt;複合路徑&gt;" class="cls-1" d="M266.6,137.2h-8.5a3.58,3.58,0,0,0,.9,2.5,3.29,3.29,0,0,0,2.2.8,2.88,2.88,0,0,0,1.9-.6,3.07,3.07,0,0,0,1-1.5h2.4a5,5,0,0,1-.9,2.1,4.89,4.89,0,0,1-1.8,1.4,6.55,6.55,0,0,1-2.5.5,5.07,5.07,0,0,1-2.8-.7,4.59,4.59,0,0,1-1.9-2,7.35,7.35,0,0,1-.7-3,6,6,0,0,1,.7-3,5.24,5.24,0,0,1,1.9-2,5.3,5.3,0,0,1,2.8-.7,5.07,5.07,0,0,1,2.8.7,5.46,5.46,0,0,1,1.9,1.8,5.94,5.94,0,0,1,.7,2.6A3.42,3.42,0,0,1,266.6,137.2Zm-2.6-2.8a2.9,2.9,0,0,0-1.1-1.1,4.15,4.15,0,0,0-1.6-.3,3.29,3.29,0,0,0-2.2.8,3.55,3.55,0,0,0-1,2.4h6.3A3.42,3.42,0,0,0,264,134.4Z"/><path id="_路徑_25" data-name="&lt;路徑&gt;" class="cls-1" d="M285.8,132.3a4.79,4.79,0,0,1,1.2,3.5v6.4h-2.3V136a2.92,2.92,0,0,0-.7-2.2,2.63,2.63,0,0,0-2-.8,2.58,2.58,0,0,0-2.1.9,3.74,3.74,0,0,0-.8,2.5v5.9h-2.3v-6.2a2.92,2.92,0,0,0-.7-2.2,2.63,2.63,0,0,0-2-.8,2.58,2.58,0,0,0-2.1.9,3.74,3.74,0,0,0-.8,2.5v5.9h-2.3v-11h2.3v2.3a3.19,3.19,0,0,1,1.4-1.8,4.38,4.38,0,0,1,2.3-.6,4,4,0,0,1,2.4.7,3.82,3.82,0,0,1,1.5,2,3.58,3.58,0,0,1,1.5-1.9,4.81,4.81,0,0,1,2.4-.7A3.12,3.12,0,0,1,285.8,132.3Z"/><path id="_複合路徑_18" data-name="&lt;複合路徑&gt;" class="cls-1" d="M289.7,127.1a1.71,1.71,0,0,1,2.2,0,1.28,1.28,0,0,1,.4,1,1,1,0,0,1-.4.9,1.82,1.82,0,0,1-1.1.4,1.37,1.37,0,0,1-1.1-.4,1.09,1.09,0,0,1-.4-.9A1.53,1.53,0,0,1,289.7,127.1Zm2.2,4.2v11h-2.3v-11Z"/><path id="_路徑_26" data-name="&lt;路徑&gt;" class="cls-1" d="M303.1,132.2a5,5,0,0,1,1.7,3.1h-2.4a2.47,2.47,0,0,0-1-1.6,3.08,3.08,0,0,0-1.9-.6,2.94,2.94,0,0,0-2.2.9,4.5,4.5,0,0,0,0,5.4,2.94,2.94,0,0,0,2.2.9,2.88,2.88,0,0,0,1.9-.6,2.94,2.94,0,0,0,1-1.6h2.4a5.47,5.47,0,0,1-8,3.5,4.59,4.59,0,0,1-1.9-2,7.35,7.35,0,0,1-.7-3,6,6,0,0,1,.7-3,5.24,5.24,0,0,1,1.9-2,5.3,5.3,0,0,1,2.8-.7A7.33,7.33,0,0,1,303.1,132.2Z"/><path id="_複合路徑_19" data-name="&lt;複合路徑&gt;" class="cls-1" d="M314.1,131.9a3.82,3.82,0,0,1,1.5,2v-2.6h2.3v11h-2.3v-2.6a4.26,4.26,0,0,1-1.5,2,4.41,4.41,0,0,1-2.6.7,4.62,4.62,0,0,1-2.6-.7,5,5,0,0,1-1.8-2,7.8,7.8,0,0,1,0-6,4.38,4.38,0,0,1,1.8-2,4.62,4.62,0,0,1,2.6-.7A5.77,5.77,0,0,1,314.1,131.9Zm-4.3,2.2a3.67,3.67,0,0,0-.9,2.7,4,4,0,0,0,.9,2.7,3.31,3.31,0,0,0,2.4,1,3.37,3.37,0,0,0,1.7-.5,3,3,0,0,0,1.2-1.3,4.06,4.06,0,0,0,.4-1.9,3.81,3.81,0,0,0-.4-1.9,3,3,0,0,0-1.2-1.3,3.37,3.37,0,0,0-1.7-.5A3,3,0,0,0,309.8,134.1Z"/><path id="_路徑_27" data-name="&lt;路徑&gt;" class="cls-1" d="M322.9,127.5v14.8h-2.3V127.5Z"/><path id="_路徑_28" data-name="&lt;路徑&gt;" class="cls-1" d="M332.6,140.5h4.9v1.8h-7.2V128.2h2.3v12.3Z"/><path id="_複合路徑_20" data-name="&lt;複合路徑&gt;" class="cls-1" d="M347.2,131.8a4.82,4.82,0,0,1,2,2,6,6,0,0,1,.7,3,5.56,5.56,0,0,1-.7,3,5.48,5.48,0,0,1-2,2,6.36,6.36,0,0,1-5.8,0,5.48,5.48,0,0,1-2-2,6.78,6.78,0,0,1,0-6,5.36,5.36,0,0,1,4.9-2.7A5.66,5.66,0,0,1,347.2,131.8Zm-4.5,1.7a3.45,3.45,0,0,0-1.2,1.2,4.23,4.23,0,0,0-.5,2,3.94,3.94,0,0,0,.5,2,2.78,2.78,0,0,0,1.2,1.2,3.4,3.4,0,0,0,3.2,0,3.45,3.45,0,0,0,1.2-1.2,5.2,5.2,0,0,0,0-4,2.78,2.78,0,0,0-1.2-1.2,2.93,2.93,0,0,0-1.6-.4A2.73,2.73,0,0,0,342.7,133.5Z"/><path id="_複合路徑_21" data-name="&lt;複合路徑&gt;" class="cls-1" d="M360,131.8a4.82,4.82,0,0,1,2,2,6,6,0,0,1,.7,3,5.56,5.56,0,0,1-.7,3,5.48,5.48,0,0,1-2,2,6.36,6.36,0,0,1-5.8,0,5.48,5.48,0,0,1-2-2,6.78,6.78,0,0,1,0-6,5.36,5.36,0,0,1,4.9-2.7A5.66,5.66,0,0,1,360,131.8Zm-4.5,1.7a3.45,3.45,0,0,0-1.2,1.2,4.23,4.23,0,0,0-.5,2,3.94,3.94,0,0,0,.5,2,2.78,2.78,0,0,0,1.2,1.2,3.4,3.4,0,0,0,3.2,0,3.45,3.45,0,0,0,1.2-1.2,5.2,5.2,0,0,0,0-4,2.78,2.78,0,0,0-1.2-1.2,3.4,3.4,0,0,0-3.2,0Z"/><path id="_複合路徑_22" data-name="&lt;複合路徑&gt;" class="cls-1" d="M373.8,131.8a5,5,0,0,1,1.8,2,7.31,7.31,0,0,1,.6,3,6.68,6.68,0,0,1-.6,3,4.38,4.38,0,0,1-1.8,2,4.62,4.62,0,0,1-2.6.7,4.41,4.41,0,0,1-2.6-.7,3.82,3.82,0,0,1-1.5-2v7.8h-2.3V131.3h2.3v2.6a4.26,4.26,0,0,1,1.5-2,4.41,4.41,0,0,1,2.6-.7A3.76,3.76,0,0,1,373.8,131.8Zm-5,1.8a3,3,0,0,0-1.2,1.3,4.06,4.06,0,0,0-.4,1.9,3.81,3.81,0,0,0,.4,1.9,3.74,3.74,0,0,0,1.2,1.3,3.37,3.37,0,0,0,1.7.5,3,3,0,0,0,2.4-1,3.67,3.67,0,0,0,.9-2.7,4,4,0,0,0-.9-2.7,3,3,0,0,0-2.4-1A3.37,3.37,0,0,0,368.8,133.6Z"/><path id="_複合路徑_23" data-name="&lt;複合路徑&gt;" class="cls-1" d="M378.5,127.1a1.37,1.37,0,0,1,1.1-.4,1.5,1.5,0,0,1,1.1.4,1.28,1.28,0,0,1,.4,1,1,1,0,0,1-.4.9,1.82,1.82,0,0,1-1.1.4,1.5,1.5,0,0,1-1.1-.4,1.09,1.09,0,0,1-.4-.9A1.16,1.16,0,0,1,378.5,127.1Zm2.2,4.2v11h-2.3v-11Z"/><path id="_路徑_29" data-name="&lt;路徑&gt;" class="cls-1" d="M392.7,132.3a4.79,4.79,0,0,1,1.2,3.5v6.4h-2.3V136a3.2,3.2,0,0,0-.8-2.3,2.86,2.86,0,0,0-2.1-.8,2.94,2.94,0,0,0-2.2.9,3.74,3.74,0,0,0-.8,2.5v5.9h-2.3v-11h2.3v2.4a3.58,3.58,0,0,1,1.5-1.9,4.81,4.81,0,0,1,2.4-.7A4.64,4.64,0,0,1,392.7,132.3Z"/><path id="_複合路徑_24" data-name="&lt;複合路徑&gt;" class="cls-1" d="M403.5,131.9a3.82,3.82,0,0,1,1.5,2v-2.6h2.3v11.1a6,6,0,0,1-.6,2.7,4.69,4.69,0,0,1-1.8,1.9,5.07,5.07,0,0,1-2.8.7,6.56,6.56,0,0,1-3.8-1.1,4.29,4.29,0,0,1-1.8-3h2.3a2.17,2.17,0,0,0,1.1,1.5,3.17,3.17,0,0,0,2,.6,3.11,3.11,0,0,0,2.2-.8,3.24,3.24,0,0,0,.9-2.4v-2.7a4.26,4.26,0,0,1-1.5,2,4.41,4.41,0,0,1-2.6.7,4.62,4.62,0,0,1-2.6-.7,5,5,0,0,1-1.8-2,7.8,7.8,0,0,1,0-6,4.38,4.38,0,0,1,1.8-2,4.62,4.62,0,0,1,2.6-.7A4.46,4.46,0,0,1,403.5,131.9Zm-4.3,2.2a3.67,3.67,0,0,0-.9,2.7,4,4,0,0,0,.9,2.7,3,3,0,0,0,2.4,1,3.37,3.37,0,0,0,1.7-.5,3,3,0,0,0,1.2-1.3,4.06,4.06,0,0,0,.4-1.9,3.81,3.81,0,0,0-.4-1.9,3,3,0,0,0-1.2-1.3,3.37,3.37,0,0,0-1.7-.5A3,3,0,0,0,399.2,134.1Z"/><path id="_複合路徑_25" data-name="&lt;複合路徑&gt;" class="cls-1" d="M417,136.8v5.5h-2.3V128.2h4.8a5.15,5.15,0,0,1,3.7,1.2,4.22,4.22,0,0,1,1.2,3.2,4.08,4.08,0,0,1-1.3,3.2,5.18,5.18,0,0,1-3.6,1.1H417Zm5.1-4.3a2.14,2.14,0,0,0-.7-1.8,3.1,3.1,0,0,0-2.1-.6H417V135h2.3C421.1,134.9,422.1,134.1,422.1,132.5Z"/><path id="_路徑_30" data-name="&lt;路徑&gt;" class="cls-1" d="M430.3,131.7a4.75,4.75,0,0,1,2.4-.6v2.5H432a3.61,3.61,0,0,0-2.4.7,3,3,0,0,0-.9,2.4v5.6h-2.3v-11h2.3v2.2A3.53,3.53,0,0,1,430.3,131.7Z"/><path id="_複合路徑_26" data-name="&lt;複合路徑&gt;" class="cls-1" d="M442.3,131.8a4.82,4.82,0,0,1,2,2,6,6,0,0,1,.7,3,5.56,5.56,0,0,1-.7,3,5.48,5.48,0,0,1-2,2,6.36,6.36,0,0,1-5.8,0,5.48,5.48,0,0,1-2-2,6.78,6.78,0,0,1,0-6,5.36,5.36,0,0,1,4.9-2.7A5.66,5.66,0,0,1,442.3,131.8Zm-4.5,1.7a3.45,3.45,0,0,0-1.2,1.2,4.23,4.23,0,0,0-.5,2,3.94,3.94,0,0,0,.5,2,2.78,2.78,0,0,0,1.2,1.2,3.4,3.4,0,0,0,3.2,0,3.45,3.45,0,0,0,1.2-1.2,5.2,5.2,0,0,0,0-4,2.78,2.78,0,0,0-1.2-1.2,3.4,3.4,0,0,0-3.2,0Z"/><path id="_路徑_31" data-name="&lt;路徑&gt;" class="cls-1" d="M455.7,132.2a5,5,0,0,1,1.7,3.1H455a2.47,2.47,0,0,0-1-1.6,3.08,3.08,0,0,0-1.9-.6,2.94,2.94,0,0,0-2.2.9,4.5,4.5,0,0,0,0,5.4,2.94,2.94,0,0,0,2.2.9,2.88,2.88,0,0,0,1.9-.6,2.94,2.94,0,0,0,1-1.6h2.4a5.47,5.47,0,0,1-8,3.5,4.59,4.59,0,0,1-1.9-2,7.35,7.35,0,0,1-.7-3,6,6,0,0,1,.7-3,5.24,5.24,0,0,1,1.9-2,5.3,5.3,0,0,1,2.8-.7A8.21,8.21,0,0,1,455.7,132.2Z"/><path id="_複合路徑_27" data-name="&lt;複合路徑&gt;" class="cls-1" d="M469.8,137.2h-8.5a3.58,3.58,0,0,0,.9,2.5,3.29,3.29,0,0,0,2.2.8,2.88,2.88,0,0,0,1.9-.6,3.07,3.07,0,0,0,1-1.5h2.4a5,5,0,0,1-.9,2.1,4.89,4.89,0,0,1-1.8,1.4,6.55,6.55,0,0,1-2.5.5,5.07,5.07,0,0,1-2.8-.7,4.59,4.59,0,0,1-1.9-2,7.35,7.35,0,0,1-.7-3,6,6,0,0,1,.7-3,5.24,5.24,0,0,1,1.9-2,5.3,5.3,0,0,1,2.8-.7,5.07,5.07,0,0,1,2.8.7,5.46,5.46,0,0,1,1.9,1.8,5.94,5.94,0,0,1,.7,2.6A4.91,4.91,0,0,0,469.8,137.2Zm-2.6-2.8a2.9,2.9,0,0,0-1.1-1.1,4.15,4.15,0,0,0-1.6-.3,3.29,3.29,0,0,0-2.2.8,3.55,3.55,0,0,0-1,2.4h6.3A4.78,4.78,0,0,0,467.2,134.4Z"/><path id="_路徑_32" data-name="&lt;路徑&gt;" class="cls-1" d="M478.8,132.1a3.78,3.78,0,0,1,1.4,2.7H478a2.24,2.24,0,0,0-.8-1.5,2.31,2.31,0,0,0-1.7-.5,1.7,1.7,0,0,0-1.3.4,1.43,1.43,0,0,0-.5,1.1,1.14,1.14,0,0,0,.3.8,2.18,2.18,0,0,0,.8.5,7.54,7.54,0,0,0,1.5.4,16.69,16.69,0,0,1,2,.6,3,3,0,0,1,1.3.9,2.43,2.43,0,0,1,.5,1.8,2.57,2.57,0,0,1-1,2.2,4.1,4.1,0,0,1-2.8.9,4.83,4.83,0,0,1-3.3-1,3.68,3.68,0,0,1-1.5-2.7h2.2a2.24,2.24,0,0,0,.8,1.5,2.79,2.79,0,0,0,1.8.6,1.84,1.84,0,0,0,1.3-.4,1.43,1.43,0,0,0,.5-1.1,1,1,0,0,0-.4-.9,1.93,1.93,0,0,0-.9-.5,15.46,15.46,0,0,0-1.5-.4,16.69,16.69,0,0,1-2-.6,3.81,3.81,0,0,1-1.3-.9,2.31,2.31,0,0,1-.5-1.7,2.9,2.9,0,0,1,1-2.3,4.37,4.37,0,0,1,2.9-.9A4.93,4.93,0,0,1,478.8,132.1Z"/><path id="_路徑_33" data-name="&lt;路徑&gt;" class="cls-1" d="M489.3,132.1a3.78,3.78,0,0,1,1.4,2.7h-2.2a2.24,2.24,0,0,0-.8-1.5,2.31,2.31,0,0,0-1.7-.5,1.7,1.7,0,0,0-1.3.4,1.43,1.43,0,0,0-.5,1.1,1.14,1.14,0,0,0,.3.8,2.18,2.18,0,0,0,.8.5,8.4,8.4,0,0,0,1.4.4,16.69,16.69,0,0,1,2,.6,3,3,0,0,1,1.3.9,2.44,2.44,0,0,1,.6,1.8,2.66,2.66,0,0,1-1.1,2.2,4.67,4.67,0,0,1-2.8.9,4.83,4.83,0,0,1-3.3-1,3.68,3.68,0,0,1-1.5-2.7h2.2a2.24,2.24,0,0,0,.8,1.5,2.79,2.79,0,0,0,1.8.6,1.84,1.84,0,0,0,1.3-.4,1.43,1.43,0,0,0,.5-1.1,1,1,0,0,0-.4-.9,2.62,2.62,0,0,0-.9-.5,15.46,15.46,0,0,0-1.5-.4,14.49,14.49,0,0,1-1.9-.6,3.81,3.81,0,0,1-1.3-.9,2.31,2.31,0,0,1-.5-1.7,2.7,2.7,0,0,1,1.1-2.3,4.37,4.37,0,0,1,2.9-.9A4.66,4.66,0,0,1,489.3,132.1Z"/></g><g id="_群組_4" data-name="&lt;群組&gt;"><circle id="_路徑_34" data-name="&lt;路徑&gt;" class="cls-2" cx="26.9" cy="89.3" r="3.8"/><circle id="_路徑_35" data-name="&lt;路徑&gt;" class="cls-2" cx="37.9" cy="99.6" r="6.6"/><circle id="_路徑_36" data-name="&lt;路徑&gt;" class="cls-2" cx="26.4" cy="111" r="4.2"/><circle id="_路徑_37" data-name="&lt;路徑&gt;" class="cls-2" cx="54.4" cy="112.8" r="5.9"/><circle id="_路徑_38" data-name="&lt;路徑&gt;" class="cls-2" cx="50.9" cy="84.9" r="4.8"/><line id="_路徑_39" data-name="&lt;路徑&gt;" class="cls-2" x1="29.1" y1="91.1" x2="34.4" y2="94.3"/><line id="_路徑_40" data-name="&lt;路徑&gt;" class="cls-2" x1="47.3" y1="89.4" x2="42.9" y2="94.7"/><line id="_路徑_41" data-name="&lt;路徑&gt;" class="cls-2" x1="43.4" y1="103.6" x2="48.9" y2="108.2"/><line id="_路徑_42" data-name="&lt;路徑&gt;" class="cls-2" x1="33.8" y1="105.2" x2="29.7" y2="108.5"/></g></g></svg>