<svg id="圖層_1" data-name="圖層 1" xmlns="http://www.w3.org/2000/svg" viewBox="0 0 198.9 271.1"><defs><style>.cls-1{fill:#102e50;}.cls-2{fill:none;stroke:#102e50;stroke-miterlimit:10;stroke-width:4px;}</style></defs><title>工作區域 1</title><g id="_群組_" data-name="&lt;群組&gt;"><g id="_群組_2" data-name="&lt;群組&gt;"><path id="_複合路徑_" data-name="&lt;複合路徑&gt;" class="cls-1" d="M8.6,236.5H4.7l-.7,2H2.4l3.4-9H7.5l3.4,9H9.3Zm-.4-1.2L6.7,231l-1.5,4.3Z"/><path id="_路徑_" data-name="&lt;路徑&gt;" class="cls-1" d="M13.5,228.9v9.6H12v-9.6Z"/><path id="_路徑_2" data-name="&lt;路徑&gt;" class="cls-1" d="M16.7,228.9v9.6H15.2v-9.6Z"/><path id="_複合路徑_2" data-name="&lt;複合路徑&gt;" class="cls-1" d="M18.6,228.6a.84.84,0,0,1,.7-.2,1.45,1.45,0,0,1,.7.2.71.71,0,0,1,.3.6.6.6,0,0,1-.3.6.84.84,0,0,1-.7.2,1.45,1.45,0,0,1-.7-.2.75.75,0,0,1,0-1.2Zm1.4,2.7v7.2H18.5v-7.2Z"/><path id="_複合路徑_3" data-name="&lt;複合路徑&gt;" class="cls-1" d="M26.4,231.7a2.21,2.21,0,0,1,1,1.3v-1.7h1.5v7.2H27.4v-1.7a2.56,2.56,0,0,1-1,1.3,3.1,3.1,0,0,1-1.7.5,3.29,3.29,0,0,1-1.7-.4,3,3,0,0,1-1.2-1.3,4.21,4.21,0,0,1-.4-2,4.48,4.48,0,0,1,.4-2,3,3,0,0,1,2.9-1.7A3.37,3.37,0,0,1,26.4,231.7Zm-2.8,1.5a2.71,2.71,0,0,0,0,3.4,2.11,2.11,0,0,0,1.6.6,2,2,0,0,0,1.1-.3,3,3,0,0,0,.8-.8,2.66,2.66,0,0,0,.3-1.2,2.13,2.13,0,0,0-.3-1.2,2,2,0,0,0-.8-.8,2,2,0,0,0-1.1-.3A1.58,1.58,0,0,0,23.6,233.2Z"/><path id="_路徑_3" data-name="&lt;路徑&gt;" class="cls-1" d="M36.6,232a3.2,3.2,0,0,1,.8,2.3v4.2H35.9v-4a2.46,2.46,0,0,0-.5-1.5,1.62,1.62,0,0,0-1.4-.5,1.68,1.68,0,0,0-1.4.6,2.65,2.65,0,0,0-.5,1.7v3.8H30.6v-7.2h1.5V233a2,2,0,0,1,1-1.2,4.19,4.19,0,0,1,1.6-.4A2,2,0,0,1,36.6,232Z"/><path id="_路徑_4" data-name="&lt;路徑&gt;" class="cls-1" d="M44.6,232a3.09,3.09,0,0,1,1.1,2H44.1a2,2,0,0,0-.6-1.1,1.84,1.84,0,0,0-1.3-.4,1.82,1.82,0,0,0-1.4.6,3,3,0,0,0,0,3.6,2,2,0,0,0,1.4.6,2,2,0,0,0,1.3-.4,2,2,0,0,0,.6-1.1h1.6a3.09,3.09,0,0,1-1.1,2,3.51,3.51,0,0,1-2.3.7,3.42,3.42,0,0,1-1.8-.4,3.25,3.25,0,0,1-1.3-1.3,4.23,4.23,0,0,1-.5-2,4.55,4.55,0,0,1,.5-2,2.74,2.74,0,0,1,1.3-1.3,3.42,3.42,0,0,1,1.8-.4A4.3,4.3,0,0,1,44.6,232Z"/><path id="_複合路徑_4" data-name="&lt;複合路徑&gt;" class="cls-1" d="M53.7,235.2H48.2a2,2,0,0,0,.6,1.6,1.87,1.87,0,0,0,1.4.5,2,2,0,0,0,1.3-.4,1.52,1.52,0,0,0,.6-1h1.6a2.62,2.62,0,0,1-.6,1.3,2.73,2.73,0,0,1-1.2.9,4.15,4.15,0,0,1-1.6.3,3.42,3.42,0,0,1-1.8-.4,3.25,3.25,0,0,1-1.3-1.3,4.23,4.23,0,0,1-.5-2,4.55,4.55,0,0,1,.5-2,2.74,2.74,0,0,1,1.3-1.3,3.5,3.5,0,0,1,4.8,1.2,3.29,3.29,0,0,1,.4,1.7C53.8,234.8,53.8,235,53.7,235.2Zm-1.6-1.9a1.58,1.58,0,0,0-.7-.7,1.64,1.64,0,0,0-1-.2,2.46,2.46,0,0,0-1.5.5,2.11,2.11,0,0,0-.6,1.6h4.1C52.3,234,52.2,233.7,52.1,233.3Z"/><path id="_複合路徑_5" data-name="&lt;複合路徑&gt;" class="cls-1" d="M63.4,231.7a2.74,2.74,0,0,1,1.3,1.3,4.25,4.25,0,0,1,0,4,2.74,2.74,0,0,1-1.3,1.3,4.71,4.71,0,0,1-3.8,0,3.25,3.25,0,0,1-1.3-1.3,4.23,4.23,0,0,1-.5-2,4.55,4.55,0,0,1,.5-2,3.25,3.25,0,0,1,1.3-1.3,4.06,4.06,0,0,1,1.9-.4A3,3,0,0,1,63.4,231.7Zm-2.9,1.1a2,2,0,0,0-.8.8,2.77,2.77,0,0,0-.3,1.3,2.5,2.5,0,0,0,.3,1.3,2,2,0,0,0,.8.8,2,2,0,0,0,1.1.3,2.28,2.28,0,0,0,1.1-.3,2,2,0,0,0,.8-.8,2.77,2.77,0,0,0,.3-1.3,2.5,2.5,0,0,0-.3-1.3,2,2,0,0,0-.8-.8,2.17,2.17,0,0,0-2.2,0Z"/><path id="_路徑_5" data-name="&lt;路徑&gt;" class="cls-1" d="M68.7,230.1a1.6,1.6,0,0,0-.4,1.1v.1H70v1.3H68.4v5.9H66.9v-5.9h-1v-1.3h1v-.2a2.63,2.63,0,0,1,.8-2,3.71,3.71,0,0,1,2.3-.6v1.3A2.27,2.27,0,0,0,68.7,230.1Z"/><path id="_複合路徑_6" data-name="&lt;複合路徑&gt;" class="cls-1" d="M79,238.5l-2.3-3.7H75.6v3.7H74.1v-9.2h3.2a3.65,3.65,0,0,1,2.4.8,2.95,2.95,0,0,1,.2,3.8,2.59,2.59,0,0,1-1.7.9l2.4,3.7Zm-3.3-4.7h1.6c1.2,0,1.8-.5,1.8-1.6a1.59,1.59,0,0,0-.4-1.2,1.81,1.81,0,0,0-1.4-.4H75.7Z"/><path id="_複合路徑_7" data-name="&lt;複合路徑&gt;" class="cls-1" d="M88.6,235.2H83.1a2,2,0,0,0,.6,1.6,1.87,1.87,0,0,0,1.4.5,2,2,0,0,0,1.3-.4,1.52,1.52,0,0,0,.6-1h1.6a2.62,2.62,0,0,1-.6,1.3,2.73,2.73,0,0,1-1.2.9,4.15,4.15,0,0,1-1.6.3,3.42,3.42,0,0,1-1.8-.4,3.25,3.25,0,0,1-1.3-1.3,4.23,4.23,0,0,1-.5-2,4.55,4.55,0,0,1,.5-2,2.74,2.74,0,0,1,1.3-1.3,3.5,3.5,0,0,1,4.8,1.2,3.29,3.29,0,0,1,.4,1.7Zm-1.7-1.9a1.58,1.58,0,0,0-.7-.7,3,3,0,0,0-1-.2,2.46,2.46,0,0,0-1.5.5,2.11,2.11,0,0,0-.6,1.6h4.1A2.38,2.38,0,0,0,86.9,233.3Z"/><path id="_路徑_6" data-name="&lt;路徑&gt;" class="cls-1" d="M94.5,231.9a2.59,2.59,0,0,1,.9,1.7H94a1.35,1.35,0,0,0-.5-.9,1.82,1.82,0,0,0-1.1-.4,1.22,1.22,0,0,0-.9.3.91.91,0,0,0-.3.7.76.76,0,0,0,.2.5,1.63,1.63,0,0,0,.6.3,4.65,4.65,0,0,0,.9.3,4,4,0,0,1,1.3.4,2.36,2.36,0,0,1,.9.6,2.14,2.14,0,0,1,.4,1.2,1.8,1.8,0,0,1-.7,1.5,2.79,2.79,0,0,1-1.8.6,3.8,3.8,0,0,1-2.2-.6,2.33,2.33,0,0,1-1-1.7h1.4a1.05,1.05,0,0,0,.5.9,2.14,2.14,0,0,0,1.2.4,1,1,0,0,0,.8-.3.91.91,0,0,0,.3-.7.85.85,0,0,0-.2-.6c-.2-.1-.4-.3-.6-.3a6.21,6.21,0,0,0-1-.3,5,5,0,0,1-1.3-.4,1.56,1.56,0,0,1-.8-.6,2,2,0,0,1,.4-2.6,2.88,2.88,0,0,1,1.9-.6A2.53,2.53,0,0,1,94.5,231.9Z"/><path id="_複合路徑_8" data-name="&lt;複合路徑&gt;" class="cls-1" d="M102.1,231.7a2.74,2.74,0,0,1,1.3,1.3,4.25,4.25,0,0,1,0,4,2.74,2.74,0,0,1-1.3,1.3,4.71,4.71,0,0,1-3.8,0A3.25,3.25,0,0,1,97,237a4.23,4.23,0,0,1-.5-2,4.55,4.55,0,0,1,.5-2,3.25,3.25,0,0,1,1.3-1.3,4.06,4.06,0,0,1,1.9-.4A3.13,3.13,0,0,1,102.1,231.7Zm-2.9,1.1a2,2,0,0,0-.8.8,2.77,2.77,0,0,0-.3,1.3,2.5,2.5,0,0,0,.3,1.3,2,2,0,0,0,.8.8,2,2,0,0,0,1.1.3,2.28,2.28,0,0,0,1.1-.3,2,2,0,0,0,.8-.8,2.77,2.77,0,0,0,.3-1.3,2.5,2.5,0,0,0-.3-1.3,2,2,0,0,0-.8-.8,2,2,0,0,0-1.1-.3A1.8,1.8,0,0,0,99.2,232.8Z"/><path id="_路徑_7" data-name="&lt;路徑&gt;" class="cls-1" d="M111.9,231.3v7.2h-1.5v-1.6a2.34,2.34,0,0,1-1,1.2,2.93,2.93,0,0,1-1.6.4,2.79,2.79,0,0,1-2-.8,3.2,3.2,0,0,1-.8-2.3v-4.2h1.5v4a2.07,2.07,0,0,0,.5,1.5,1.62,1.62,0,0,0,1.4.5,1.68,1.68,0,0,0,1.4-.6,2.18,2.18,0,0,0,.5-1.7v-3.8h1.6Z"/><path id="_路徑_8" data-name="&lt;路徑&gt;" class="cls-1" d="M116.2,231.6a2.93,2.93,0,0,1,1.6-.4v1.6h-.4a2.54,2.54,0,0,0-1.6.5,1.84,1.84,0,0,0-.6,1.6v3.6h-1.5v-7.2h1.5v1.4A2.66,2.66,0,0,1,116.2,231.6Z"/><path id="_路徑_9" data-name="&lt;路徑&gt;" class="cls-1" d="M124.4,232a3.09,3.09,0,0,1,1.1,2h-1.6a2,2,0,0,0-.6-1.1,1.84,1.84,0,0,0-1.3-.4,1.82,1.82,0,0,0-1.4.6,3,3,0,0,0,0,3.6,2,2,0,0,0,1.4.6,2,2,0,0,0,1.3-.4,2,2,0,0,0,.6-1.1h1.6a3.09,3.09,0,0,1-1.1,2,3.51,3.51,0,0,1-2.3.7,3.42,3.42,0,0,1-1.8-.4,3.25,3.25,0,0,1-1.3-1.3,4.23,4.23,0,0,1-.5-2,4.55,4.55,0,0,1,.5-2,2.74,2.74,0,0,1,1.3-1.3,3.42,3.42,0,0,1,1.8-.4A4.3,4.3,0,0,1,124.4,232Z"/><path id="_複合路徑_9" data-name="&lt;複合路徑&gt;" class="cls-1" d="M133.5,235.2H128a2,2,0,0,0,.6,1.6,1.87,1.87,0,0,0,1.4.5,2,2,0,0,0,1.3-.4,1.52,1.52,0,0,0,.6-1h1.6a2.62,2.62,0,0,1-.6,1.3,2.73,2.73,0,0,1-1.2.9,4.15,4.15,0,0,1-1.6.3,3.42,3.42,0,0,1-1.8-.4,3.25,3.25,0,0,1-1.3-1.3,4.23,4.23,0,0,1-.5-2,4.55,4.55,0,0,1,.5-2,2.74,2.74,0,0,1,1.3-1.3,3.5,3.5,0,0,1,4.8,1.2,3.29,3.29,0,0,1,.4,1.7C133.6,234.8,133.6,235,133.5,235.2Zm-1.6-1.9a1.58,1.58,0,0,0-.7-.7,3,3,0,0,0-1-.2,2.46,2.46,0,0,0-1.5.5,2.11,2.11,0,0,0-.6,1.6h4.1C132.1,234,132,233.7,131.9,233.3Z"/><path id="_複合路徑_10" data-name="&lt;複合路徑&gt;" class="cls-1" d="M142.9,238.5l-2.3-3.7h-1.1v3.7H138v-9.2h3.2a3.65,3.65,0,0,1,2.4.8,2.95,2.95,0,0,1,.2,3.8,2.59,2.59,0,0,1-1.7.9l2.4,3.7Zm-3.4-4.7h1.6c1.2,0,1.8-.5,1.8-1.6a1.59,1.59,0,0,0-.4-1.2,1.81,1.81,0,0,0-1.4-.4h-1.6v3.2Z"/><path id="_複合路徑_11" data-name="&lt;複合路徑&gt;" class="cls-1" d="M152.4,235.2h-5.5a2,2,0,0,0,.6,1.6,1.87,1.87,0,0,0,1.4.5,2,2,0,0,0,1.3-.4,1.52,1.52,0,0,0,.6-1h1.6a2.62,2.62,0,0,1-.6,1.3,2.73,2.73,0,0,1-1.2.9,4.15,4.15,0,0,1-1.6.3,3.42,3.42,0,0,1-1.8-.4,3.25,3.25,0,0,1-1.3-1.3,4.23,4.23,0,0,1-.5-2,4.55,4.55,0,0,1,.5-2,2.74,2.74,0,0,1,1.3-1.3,3.5,3.5,0,0,1,4.8,1.2,3.29,3.29,0,0,1,.4,1.7C152.5,234.8,152.5,235,152.4,235.2Zm-1.6-1.9a1.58,1.58,0,0,0-.7-.7,3,3,0,0,0-1-.2,2.46,2.46,0,0,0-1.5.5,2.11,2.11,0,0,0-.6,1.6h4.1C151,234,150.9,233.7,150.8,233.3Z"/><path id="_路徑_10" data-name="&lt;路徑&gt;" class="cls-1" d="M159.4,232a3.09,3.09,0,0,1,1.1,2H159a2,2,0,0,0-.6-1.1,1.84,1.84,0,0,0-1.3-.4,1.82,1.82,0,0,0-1.4.6,3,3,0,0,0,0,3.6,2,2,0,0,0,1.4.6,2,2,0,0,0,1.3-.4,2,2,0,0,0,.6-1.1h1.6a3.09,3.09,0,0,1-1.1,2,3.51,3.51,0,0,1-2.3.7,3.42,3.42,0,0,1-1.8-.4,3.25,3.25,0,0,1-1.3-1.3,4.23,4.23,0,0,1-.5-2,4.55,4.55,0,0,1,.5-2,2.74,2.74,0,0,1,1.3-1.3,3.42,3.42,0,0,1,1.8-.4A4.31,4.31,0,0,1,159.4,232Z"/><path id="_複合路徑_12" data-name="&lt;複合路徑&gt;" class="cls-1" d="M167.1,231.7a2.74,2.74,0,0,1,1.3,1.3,4.25,4.25,0,0,1,0,4,2.74,2.74,0,0,1-1.3,1.3,4.71,4.71,0,0,1-3.8,0A2.74,2.74,0,0,1,162,237a4.23,4.23,0,0,1-.5-2,4.55,4.55,0,0,1,.5-2,3.25,3.25,0,0,1,1.3-1.3,4.06,4.06,0,0,1,1.9-.4A2.84,2.84,0,0,1,167.1,231.7Zm-2.9,1.1a2,2,0,0,0-.8.8,2.77,2.77,0,0,0-.3,1.3,2.5,2.5,0,0,0,.3,1.3,2,2,0,0,0,.8.8,2,2,0,0,0,1.1.3,2.28,2.28,0,0,0,1.1-.3,2,2,0,0,0,.8-.8,2.77,2.77,0,0,0,.3-1.3,2.5,2.5,0,0,0-.3-1.3,2,2,0,0,0-.8-.8,2.17,2.17,0,0,0-2.2,0Z"/><path id="_路徑_11" data-name="&lt;路徑&gt;" class="cls-1" d="M173.3,236.9l2-5.6h1.6l-2.7,7.2h-1.8l-2.7-7.2h1.6Z"/><path id="_複合路徑_13" data-name="&lt;複合路徑&gt;" class="cls-1" d="M184.6,235.2h-5.5a2,2,0,0,0,.6,1.6,1.87,1.87,0,0,0,1.4.5,2,2,0,0,0,1.3-.4,1.52,1.52,0,0,0,.6-1h1.6a2.62,2.62,0,0,1-.6,1.3,2.73,2.73,0,0,1-1.2.9,4.15,4.15,0,0,1-1.6.3,3.42,3.42,0,0,1-1.8-.4,3.25,3.25,0,0,1-1.3-1.3,4.23,4.23,0,0,1-.5-2,4.55,4.55,0,0,1,.5-2,2.74,2.74,0,0,1,1.3-1.3,3.5,3.5,0,0,1,4.8,1.2,3.29,3.29,0,0,1,.4,1.7Zm-1.7-1.9a1.58,1.58,0,0,0-.7-.7,1.64,1.64,0,0,0-1-.2,2.46,2.46,0,0,0-1.5.5,2.11,2.11,0,0,0-.6,1.6h4.1A2.38,2.38,0,0,0,182.9,233.3Z"/><path id="_路徑_12" data-name="&lt;路徑&gt;" class="cls-1" d="M188.6,231.6a2.93,2.93,0,0,1,1.6-.4v1.6h-.4a2.77,2.77,0,0,0-1.6.5,1.84,1.84,0,0,0-.6,1.6v3.6h-1.5v-7.2h1.5v1.4A2.13,2.13,0,0,1,188.6,231.6Z"/><path id="_路徑_13" data-name="&lt;路徑&gt;" class="cls-1" d="M192.1,231.3l2.1,5.3,2-5.3h1.7l-4.3,10.6h-1.7l1.5-3.6-3-7Z"/><path id="_複合路徑_14" data-name="&lt;複合路徑&gt;" class="cls-1" d="M12.4,247.3a3,3,0,0,1,1.2,1.3,5.2,5.2,0,0,1,0,4,3,3,0,0,1-2.9,1.7,3.1,3.1,0,0,1-1.7-.5,2.21,2.21,0,0,1-1-1.3v1.7H6.6v-9.6H8.1v4.1a2.56,2.56,0,0,1,1-1.3,3.1,3.1,0,0,1,1.7-.5A2.28,2.28,0,0,1,12.4,247.3Zm-3.2,1.1a3,3,0,0,0-.8.8,2.38,2.38,0,0,0-.3,1.2,2.13,2.13,0,0,0,.3,1.2,3,3,0,0,0,.8.8,2,2,0,0,0,1.1.3,2.11,2.11,0,0,0,1.6-.6,2.71,2.71,0,0,0,0-3.4,2.11,2.11,0,0,0-1.6-.6A2,2,0,0,0,9.2,248.4Z"/><path id="_路徑_14" data-name="&lt;路徑&gt;" class="cls-1" d="M16.3,246.9l2.1,5.3,2-5.3H22l-4.3,10.6H16l1.5-3.6-3-7Z"/><path id="_路徑_15" data-name="&lt;路徑&gt;" class="cls-1" d="M33,245.7a4.64,4.64,0,0,1,1.5,2.3H32.9a2.68,2.68,0,0,0-1-1.3,3.37,3.37,0,0,0-1.7-.5,2.82,2.82,0,0,0-1.5.4,2.94,2.94,0,0,0-1,1.2,4.71,4.71,0,0,0-.4,1.7,3.06,3.06,0,0,0,.4,1.7,2.94,2.94,0,0,0,1,1.2,2.41,2.41,0,0,0,1.5.4,2.86,2.86,0,0,0,1.7-.5,2.56,2.56,0,0,0,1-1.3h1.6a4.25,4.25,0,0,1-4.3,3.2,4.38,4.38,0,0,1-2.3-.6,3.14,3.14,0,0,1-1.5-1.7,4.71,4.71,0,0,1-.5-2.4,6,6,0,0,1,.5-2.4,5,5,0,0,1,1.5-1.7,4.38,4.38,0,0,1,2.3-.6A4.47,4.47,0,0,1,33,245.7Z"/><path id="_路徑_16" data-name="&lt;路徑&gt;" class="cls-1" d="M42,247.6a3.2,3.2,0,0,1,.8,2.3v4.2H41.3v-4a2.46,2.46,0,0,0-.5-1.5,1.62,1.62,0,0,0-1.4-.5,1.68,1.68,0,0,0-1.4.6,2.18,2.18,0,0,0-.5,1.7v3.8H36v-9.6h1.5v4a2,2,0,0,1,1-1.2,2.93,2.93,0,0,1,1.6-.4A2,2,0,0,1,42,247.6Z"/><path id="_複合路徑_15" data-name="&lt;複合路徑&gt;" class="cls-1" d="M51.1,250.8H45.6a2,2,0,0,0,.6,1.6,1.87,1.87,0,0,0,1.4.5,2,2,0,0,0,1.3-.4,1.52,1.52,0,0,0,.6-1h1.6a2.62,2.62,0,0,1-.6,1.3,2.73,2.73,0,0,1-1.2.9,4.15,4.15,0,0,1-1.6.3,3.42,3.42,0,0,1-1.8-.4,3.25,3.25,0,0,1-1.3-1.3,4.23,4.23,0,0,1-.5-2,4.55,4.55,0,0,1,.5-2,2.74,2.74,0,0,1,1.3-1.3,3.5,3.5,0,0,1,4.8,1.2,3.29,3.29,0,0,1,.4,1.7Zm-1.7-1.9a1.58,1.58,0,0,0-.7-.7,3,3,0,0,0-1-.2,2.46,2.46,0,0,0-1.5.5,2.11,2.11,0,0,0-.6,1.6h4.1A5.27,5.27,0,0,0,49.4,248.9Z"/><path id="_路徑_17" data-name="&lt;路徑&gt;" class="cls-1" d="M63.5,247.6a3.2,3.2,0,0,1,.8,2.3v4.2H62.8v-4a2.46,2.46,0,0,0-.5-1.5,1.73,1.73,0,0,0-1.3-.5,1.82,1.82,0,0,0-1.4.6,2.54,2.54,0,0,0-.5,1.6v3.8H57.6v-4a2.46,2.46,0,0,0-.5-1.5,1.73,1.73,0,0,0-1.3-.5,1.82,1.82,0,0,0-1.4.6,2.54,2.54,0,0,0-.5,1.6v3.8H52.4v-7.2H54v1.5a2.73,2.73,0,0,1,.9-1.2,2.41,2.41,0,0,1,1.5-.4,2.93,2.93,0,0,1,1.6.4,2.68,2.68,0,0,1,1,1.3,2.56,2.56,0,0,1,1-1.3,3,3,0,0,1,1.6-.5A3.1,3.1,0,0,1,63.5,247.6Z"/><path id="_複合路徑_16" data-name="&lt;複合路徑&gt;" class="cls-1" d="M66.1,244.2a.84.84,0,0,1,.7-.2,1.45,1.45,0,0,1,.7.2.86.86,0,0,1,.3.6.6.6,0,0,1-.3.6.84.84,0,0,1-.7.2,1.45,1.45,0,0,1-.7-.2.75.75,0,0,1,0-1.2Zm1.4,2.7v7.2H66v-7.2Z"/><path id="_路徑_18" data-name="&lt;路徑&gt;" class="cls-1" d="M74.8,247.6a3.09,3.09,0,0,1,1.1,2H74.3a2,2,0,0,0-.6-1.1,1.84,1.84,0,0,0-1.3-.4,1.82,1.82,0,0,0-1.4.6,3,3,0,0,0,0,3.6,2,2,0,0,0,1.4.6,2,2,0,0,0,1.3-.4,2,2,0,0,0,.6-1.1h1.6a3.09,3.09,0,0,1-1.1,2,3.51,3.51,0,0,1-2.3.7,3.42,3.42,0,0,1-1.8-.4,3.25,3.25,0,0,1-1.3-1.3,4.23,4.23,0,0,1-.5-2,4.55,4.55,0,0,1,.5-2,2.74,2.74,0,0,1,1.3-1.3,3.42,3.42,0,0,1,1.8-.4A4.3,4.3,0,0,1,74.8,247.6Z"/><path id="_複合路徑_17" data-name="&lt;複合路徑&gt;" class="cls-1" d="M81.9,247.3a2.21,2.21,0,0,1,1,1.3v-1.7h1.5v7.2H82.9v-1.7a2.56,2.56,0,0,1-1,1.3,3.1,3.1,0,0,1-1.7.5,3.29,3.29,0,0,1-1.7-.4,3,3,0,0,1-1.2-1.3,4.21,4.21,0,0,1-.4-2,4.48,4.48,0,0,1,.4-2,3,3,0,0,1,2.9-1.7A2.86,2.86,0,0,1,81.9,247.3Zm-2.8,1.5a2.71,2.71,0,0,0,0,3.4,2.11,2.11,0,0,0,1.6.6,2,2,0,0,0,1.1-.3,3,3,0,0,0,.8-.8,2.66,2.66,0,0,0,.3-1.2,2.13,2.13,0,0,0-.3-1.2,2,2,0,0,0-.8-.8,2,2,0,0,0-1.1-.3A1.58,1.58,0,0,0,79.1,248.8Z"/><path id="_路徑_19" data-name="&lt;路徑&gt;" class="cls-1" d="M87.6,244.5v9.6H86.1v-9.6Z"/><path id="_路徑_20" data-name="&lt;路徑&gt;" class="cls-1" d="M94,252.9h3.2v1.2H92.5v-9.2H94Z"/><path id="_複合路徑_18" data-name="&lt;複合路徑&gt;" class="cls-1" d="M103.4,247.3a2.74,2.74,0,0,1,1.3,1.3,4.25,4.25,0,0,1,0,4,2.74,2.74,0,0,1-1.3,1.3,4.71,4.71,0,0,1-3.8,0,3.25,3.25,0,0,1-1.3-1.3,4.23,4.23,0,0,1-.5-2,4.55,4.55,0,0,1,.5-2,3.25,3.25,0,0,1,1.3-1.3,4.06,4.06,0,0,1,1.9-.4A2.84,2.84,0,0,1,103.4,247.3Zm-2.9,1.1a2,2,0,0,0-.8.8,2.77,2.77,0,0,0-.3,1.3,2.5,2.5,0,0,0,.3,1.3,2,2,0,0,0,.8.8,2,2,0,0,0,1.1.3,2.28,2.28,0,0,0,1.1-.3,2,2,0,0,0,.8-.8,2.77,2.77,0,0,0,.3-1.3,2.5,2.5,0,0,0-.3-1.3,2,2,0,0,0-.8-.8,2.17,2.17,0,0,0-2.2,0Z"/><path id="_複合路徑_19" data-name="&lt;複合路徑&gt;" class="cls-1" d="M111.8,247.3a2.74,2.74,0,0,1,1.3,1.3,4.25,4.25,0,0,1,0,4,2.74,2.74,0,0,1-1.3,1.3,4.71,4.71,0,0,1-3.8,0,2.74,2.74,0,0,1-1.3-1.3,4.23,4.23,0,0,1-.5-2,4.55,4.55,0,0,1,.5-2,3.25,3.25,0,0,1,1.3-1.3,4.71,4.71,0,0,1,3.8,0Zm-2.9,1.1a2,2,0,0,0-.8.8,2.77,2.77,0,0,0-.3,1.3,2.5,2.5,0,0,0,.3,1.3,2,2,0,0,0,.8.8,2,2,0,0,0,1.1.3,2.28,2.28,0,0,0,1.1-.3,2,2,0,0,0,.8-.8,2.77,2.77,0,0,0,.3-1.3,2.5,2.5,0,0,0-.3-1.3,2,2,0,0,0-.8-.8,2,2,0,0,0-1.1-.3A1.8,1.8,0,0,0,108.9,248.4Z"/><path id="_複合路徑_20" data-name="&lt;複合路徑&gt;" class="cls-1" d="M120.8,247.3a3,3,0,0,1,1.2,1.3,5.2,5.2,0,0,1,0,4,3,3,0,0,1-2.9,1.7,3.1,3.1,0,0,1-1.7-.5,2.21,2.21,0,0,1-1-1.3v5.1H115V247h1.5v1.7a2.56,2.56,0,0,1,1-1.3,3.1,3.1,0,0,1,1.7-.5A2.4,2.4,0,0,1,120.8,247.3Zm-3.3,1.1a3,3,0,0,0-.8.8,2.66,2.66,0,0,0-.3,1.2,2.13,2.13,0,0,0,.3,1.2,2,2,0,0,0,.8.8,2,2,0,0,0,1.1.3,2.11,2.11,0,0,0,1.6-.6,2.71,2.71,0,0,0,0-3.4,2.11,2.11,0,0,0-1.6-.6A2.28,2.28,0,0,0,117.5,248.4Z"/><path id="_複合路徑_21" data-name="&lt;複合路徑&gt;" class="cls-1" d="M123.8,244.2a.84.84,0,0,1,.7-.2,1.45,1.45,0,0,1,.7.2.71.71,0,0,1,.3.6.6.6,0,0,1-.3.6.84.84,0,0,1-.7.2,1.45,1.45,0,0,1-.7-.2.86.86,0,0,1-.3-.6C123.6,244.6,123.6,244.4,123.8,244.2Zm1.5,2.7v7.2h-1.5v-7.2Z"/><path id="_路徑_21" data-name="&lt;路徑&gt;" class="cls-1" d="M133.1,247.6a3.2,3.2,0,0,1,.8,2.3v4.2h-1.5v-4a2.46,2.46,0,0,0-.5-1.5,1.62,1.62,0,0,0-1.4-.5,1.68,1.68,0,0,0-1.4.6,2.18,2.18,0,0,0-.5,1.7v3.8H127V247h1.5v1.6a2,2,0,0,1,1-1.2,2.93,2.93,0,0,1,1.6-.4A2.06,2.06,0,0,1,133.1,247.6Z"/><path id="_複合路徑_22" data-name="&lt;複合路徑&gt;" class="cls-1" d="M140.1,247.3a2.21,2.21,0,0,1,1,1.3v-1.7h1.5v7.2a3.17,3.17,0,0,1-3.4,3.4,3.61,3.61,0,0,1-2.4-.7,3.47,3.47,0,0,1-1.2-1.9h1.5a1.83,1.83,0,0,0,.7,1,2.5,2.5,0,0,0,1.3.4,2.46,2.46,0,0,0,1.5-.5,2.11,2.11,0,0,0,.6-1.6v-1.7a2.56,2.56,0,0,1-1,1.3,3.1,3.1,0,0,1-1.7.5,3.29,3.29,0,0,1-1.7-.4,3,3,0,0,1-1.2-1.3,4.21,4.21,0,0,1-.4-2,4.48,4.48,0,0,1,.4-2,3,3,0,0,1,2.9-1.7A2.28,2.28,0,0,1,140.1,247.3Zm-2.8,1.5a2.71,2.71,0,0,0,0,3.4,2.11,2.11,0,0,0,1.6.6,2,2,0,0,0,1.1-.3,3,3,0,0,0,.8-.8,2.66,2.66,0,0,0,.3-1.2,2.13,2.13,0,0,0-.3-1.2,2,2,0,0,0-.8-.8,2,2,0,0,0-1.1-.3A1.58,1.58,0,0,0,137.3,248.8Z"/><path id="_複合路徑_23" data-name="&lt;複合路徑&gt;" class="cls-1" d="M148.8,250.5v3.6h-1.5v-9.2h3.1a3.29,3.29,0,0,1,2.4.8,2.86,2.86,0,0,1,.8,2.1,2.48,2.48,0,0,1-.8,2,3.29,3.29,0,0,1-2.4.7h-1.6Zm3.4-2.8a1.59,1.59,0,0,0-.4-1.2,2,2,0,0,0-1.4-.4h-1.5v3.2h1.5C151.6,249.3,152.2,248.8,152.2,247.7Z"/><path id="_路徑_22" data-name="&lt;路徑&gt;" class="cls-1" d="M157.5,247.2a2.93,2.93,0,0,1,1.6-.4v1.6h-.4a2.54,2.54,0,0,0-1.6.5,1.84,1.84,0,0,0-.6,1.6v3.6H155v-7.2h1.5v1.4A2.59,2.59,0,0,1,157.5,247.2Z"/><path id="_複合路徑_24" data-name="&lt;複合路徑&gt;" class="cls-1" d="M165.3,247.3a2.74,2.74,0,0,1,1.3,1.3,4.25,4.25,0,0,1,0,4,2.74,2.74,0,0,1-1.3,1.3,4.71,4.71,0,0,1-3.8,0,2.74,2.74,0,0,1-1.3-1.3,4.23,4.23,0,0,1-.5-2,4.55,4.55,0,0,1,.5-2,3.25,3.25,0,0,1,1.3-1.3,4.06,4.06,0,0,1,1.9-.4A3,3,0,0,1,165.3,247.3Zm-2.9,1.1a2,2,0,0,0-.8.8,2.77,2.77,0,0,0-.3,1.3,2.5,2.5,0,0,0,.3,1.3,2,2,0,0,0,.8.8,2,2,0,0,0,1.1.3,2.28,2.28,0,0,0,1.1-.3,2,2,0,0,0,.8-.8,2.77,2.77,0,0,0,.3-1.3,2.5,2.5,0,0,0-.3-1.3,2,2,0,0,0-.8-.8,2.17,2.17,0,0,0-2.2,0Z"/><path id="_路徑_23" data-name="&lt;路徑&gt;" class="cls-1" d="M174,247.6a3.09,3.09,0,0,1,1.1,2h-1.6a2,2,0,0,0-.6-1.1,1.84,1.84,0,0,0-1.3-.4,1.82,1.82,0,0,0-1.4.6,3,3,0,0,0,0,3.6,2,2,0,0,0,1.4.6,2,2,0,0,0,1.3-.4,2,2,0,0,0,.6-1.1h1.6a3.09,3.09,0,0,1-1.1,2,3.51,3.51,0,0,1-2.3.7,3.42,3.42,0,0,1-1.8-.4,3.25,3.25,0,0,1-1.3-1.3,4.23,4.23,0,0,1-.5-2,4.55,4.55,0,0,1,.5-2,2.74,2.74,0,0,1,1.3-1.3,3.42,3.42,0,0,1,1.8-.4A4.3,4.3,0,0,1,174,247.6Z"/><path id="_複合路徑_25" data-name="&lt;複合路徑&gt;" class="cls-1" d="M183.2,250.8h-5.5a2,2,0,0,0,.6,1.6,1.87,1.87,0,0,0,1.4.5,2,2,0,0,0,1.3-.4,1.52,1.52,0,0,0,.6-1h1.6a2.62,2.62,0,0,1-.6,1.3,2.73,2.73,0,0,1-1.2.9,4.15,4.15,0,0,1-1.6.3,3.42,3.42,0,0,1-1.8-.4,3.25,3.25,0,0,1-1.3-1.3,4.23,4.23,0,0,1-.5-2,4.55,4.55,0,0,1,.5-2A2.74,2.74,0,0,1,178,247a3.5,3.5,0,0,1,4.8,1.2,3.29,3.29,0,0,1,.4,1.7Zm-1.7-1.9a1.58,1.58,0,0,0-.7-.7,1.64,1.64,0,0,0-1-.2,2.46,2.46,0,0,0-1.5.5,2.11,2.11,0,0,0-.6,1.6h4.1A5.27,5.27,0,0,0,181.5,248.9Z"/><path id="_路徑_24" data-name="&lt;路徑&gt;" class="cls-1" d="M189,247.5a2.59,2.59,0,0,1,.9,1.7h-1.4a1.35,1.35,0,0,0-.5-.9,1.82,1.82,0,0,0-1.1-.4,1.22,1.22,0,0,0-.9.3.91.91,0,0,0-.3.7.76.76,0,0,0,.2.5,1.63,1.63,0,0,0,.6.3,4.65,4.65,0,0,0,.9.3,4,4,0,0,1,1.3.4,2.36,2.36,0,0,1,.9.6,2.14,2.14,0,0,1,.4,1.2,1.8,1.8,0,0,1-.7,1.5,2.79,2.79,0,0,1-1.8.6,3.8,3.8,0,0,1-2.2-.6,2.7,2.7,0,0,1-1-1.7h1.4a1.05,1.05,0,0,0,.5.9,2.14,2.14,0,0,0,1.2.4,1,1,0,0,0,.8-.3.91.91,0,0,0,.3-.7.85.85,0,0,0-.2-.6c-.2-.1-.4-.3-.6-.3a6.21,6.21,0,0,0-1-.3,5,5,0,0,1-1.3-.4,1.56,1.56,0,0,1-.8-.6,2,2,0,0,1,.4-2.6,2.88,2.88,0,0,1,1.9-.6A2.34,2.34,0,0,1,189,247.5Z"/><path id="_路徑_25" data-name="&lt;路徑&gt;" class="cls-1" d="M195.9,247.5a2.59,2.59,0,0,1,.9,1.7h-1.4a1.35,1.35,0,0,0-.5-.9,1.82,1.82,0,0,0-1.1-.4,1.22,1.22,0,0,0-.9.3.91.91,0,0,0-.3.7.76.76,0,0,0,.2.5,1.63,1.63,0,0,0,.6.3,4.65,4.65,0,0,0,.9.3,4,4,0,0,1,1.3.4,2.36,2.36,0,0,1,.9.6,2.14,2.14,0,0,1,.4,1.2,1.8,1.8,0,0,1-.7,1.5,2.79,2.79,0,0,1-1.8.6,3.8,3.8,0,0,1-2.2-.6,2.33,2.33,0,0,1-1-1.7h1.4a1.05,1.05,0,0,0,.5.9,2.14,2.14,0,0,0,1.2.4,1,1,0,0,0,.8-.3.91.91,0,0,0,.3-.7.85.85,0,0,0-.2-.6c-.2-.1-.4-.3-.6-.3a6.21,6.21,0,0,0-1-.3,5,5,0,0,1-1.3-.4,1.56,1.56,0,0,1-.8-.6,2,2,0,0,1,.4-2.6,2.88,2.88,0,0,1,1.9-.6A2.43,2.43,0,0,1,195.9,247.5Z"/></g><g id="_群組_3" data-name="&lt;群組&gt;"><path id="_複合路徑_26" data-name="&lt;複合路徑&gt;" class="cls-1" d="M94.1,53.5l-66-27.9a.69.69,0,0,1,0-1.3L64.4,8.8v9.1a1.43,1.43,0,0,0,2,1.3l4.2-1.8a1.42,1.42,0,0,0,.9-1.3V3.3a2,2,0,0,0-.1-.8A3.54,3.54,0,0,0,66.7.3S16,21.8,15.7,22a3.36,3.36,0,0,0-1.6,2.9V135.1a3.39,3.39,0,0,0,2.1,3.2l75.3,31.9a3.19,3.19,0,0,0,1.4.3,3.35,3.35,0,0,0,2.7-1.3,3.78,3.78,0,0,0,.8-2.3V56.8A4.22,4.22,0,0,0,94.1,53.5ZM89.2,160.7a.74.74,0,0,1-1,.7L22.6,133.6a2.87,2.87,0,0,1-1.7-2.6V31.3a.74.74,0,0,1,1-.7L87.4,58.3a2.87,2.87,0,0,1,1.7,2.6v99.8Z"/><path id="_路徑_26" data-name="&lt;路徑&gt;" class="cls-1" d="M104.2,112.6a30.58,30.58,0,0,0,11.7,2.4,29.75,29.75,0,1,0-11.7-57.1,1.34,1.34,0,0,0-.8,1.3v52.1A1.34,1.34,0,0,0,104.2,112.6Z"/><path id="_路徑_27" data-name="&lt;路徑&gt;" class="cls-1" d="M182.7,35.7,115.3,7.3a3.19,3.19,0,0,0-2.7,0L71.4,24.7l-7,3-4.7,2.1a.8.8,0,0,0,0,1.5l43,18.2a3.38,3.38,0,0,0,2,.2c2.5-.5,7.9-1.7,11.2-1.7a37.4,37.4,0,0,1,3.8,74.6,36.65,36.65,0,0,1-14.5-1.4,1.39,1.39,0,0,0-1.8,1.4v36a1.29,1.29,0,0,0,.9,1.3l8.3,3.5a3.19,3.19,0,0,0,1.4.3,3.53,3.53,0,0,0,1.4-.3L182.6,135a3.39,3.39,0,0,0,2.1-3.2l.1-92.7A3.57,3.57,0,0,0,182.7,35.7Z"/><polygon id="_路徑_28" data-name="&lt;路徑&gt;" class="cls-1" points="57.8 203 50.6 192.1 46.4 192.1 46.4 209.8 50.6 209.8 50.6 198.9 57.8 209.8 62 209.8 62 192.1 57.8 192.1 57.8 203"/><polygon id="_路徑_29" data-name="&lt;路徑&gt;" class="cls-1" points="63.8 195.5 68.6 195.5 68.6 209.8 72.9 209.8 72.9 195.5 77.7 195.5 77.7 192.1 63.8 192.1 63.8 195.5"/><path id="_路徑_30" data-name="&lt;路徑&gt;" class="cls-1" d="M89.7,202.3a4.14,4.14,0,0,1-.8,2.7,3.39,3.39,0,0,1-4.6,0,4.14,4.14,0,0,1-.8-2.7V192.1H79.3v10.2a8.71,8.71,0,0,0,.9,4.2,7,7,0,0,0,2.5,2.6,7.46,7.46,0,0,0,3.7.8,7.9,7.9,0,0,0,3.8-.9,6.73,6.73,0,0,0,2.7-2.6,8.68,8.68,0,0,0,1-4.2V192H89.6v10.3Z"/><path id="_路徑_31" data-name="&lt;路徑&gt;" class="cls-1" d="M106.9,200.4a10.86,10.86,0,0,0-2.8-1.1c-.8-.3-1.4-.5-1.8-.7a2.55,2.55,0,0,1-1-.7,1.82,1.82,0,0,1-.4-1.1,1.66,1.66,0,0,1,.5-1.2,1.59,1.59,0,0,1,1.2-.4,2.17,2.17,0,0,1,1.4.5,2,2,0,0,1,.6,1.4h4.6a5.3,5.3,0,0,0-2-3.8,7.51,7.51,0,0,0-4.7-1.4,7.94,7.94,0,0,0-3.2.6,4.89,4.89,0,0,0-2.2,1.8,5,5,0,0,0-.8,2.7,4.88,4.88,0,0,0,.8,2.8,5.48,5.48,0,0,0,1.8,1.6,18.63,18.63,0,0,0,2.7,1.1c.8.3,1.4.5,1.8.7a4.13,4.13,0,0,1,1.1.7,1.5,1.5,0,0,1,.4,1.1,1.66,1.66,0,0,1-.5,1.2,1.73,1.73,0,0,1-1.3.5,2.27,2.27,0,0,1-1.6-.6,2.64,2.64,0,0,1-.7-1.6H96.3a5,5,0,0,0,2.1,4,7.69,7.69,0,0,0,4.9,1.4,7.39,7.39,0,0,0,3.4-.7,5.54,5.54,0,0,0,2.1-1.9,4.62,4.62,0,0,0,.7-2.6,4.88,4.88,0,0,0-.8-2.8A4.41,4.41,0,0,0,106.9,200.4Z"/><polygon id="_路徑_32" data-name="&lt;路徑&gt;" class="cls-1" points="110.8 195.5 115.5 195.5 115.5 209.8 119.8 209.8 119.8 195.5 124.6 195.5 124.6 192.1 110.8 192.1 110.8 195.5"/><rect id="_路徑_33" data-name="&lt;路徑&gt;" class="cls-1" x="131.4" y="192.1" width="4.3" height="17.7"/><path id="_複合路徑_27" data-name="&lt;複合路徑&gt;" class="cls-1" d="M143.8,192.2l-6.5,17.5h4.5l1.1-3.2h6.6l1.1,3.2h4.5l-6.5-17.5Zm.2,11.1,2.2-6.5,2.2,6.5Z"/></g><g id="_群組_4" data-name="&lt;群組&gt;"><circle id="_路徑_34" data-name="&lt;路徑&gt;" class="cls-2" cx="40.8" cy="88.8" r="3.8"/><circle id="_路徑_35" data-name="&lt;路徑&gt;" class="cls-2" cx="51.8" cy="99.1" r="6.6"/><circle id="_路徑_36" data-name="&lt;路徑&gt;" class="cls-2" cx="40.3" cy="110.5" r="4.2"/><circle id="_路徑_37" data-name="&lt;路徑&gt;" class="cls-2" cx="68.3" cy="112.3" r="5.9"/><circle id="_路徑_38" data-name="&lt;路徑&gt;" class="cls-2" cx="64.8" cy="84.4" r="4.8"/><line id="_路徑_39" data-name="&lt;路徑&gt;" class="cls-2" x1="43" y1="90.6" x2="48.3" y2="93.8"/><line id="_路徑_40" data-name="&lt;路徑&gt;" class="cls-2" x1="61.2" y1="88.9" x2="56.8" y2="94.2"/><line id="_路徑_41" data-name="&lt;路徑&gt;" class="cls-2" x1="57.3" y1="103.1" x2="62.8" y2="107.7"/><line id="_路徑_42" data-name="&lt;路徑&gt;" class="cls-2" x1="47.7" y1="104.7" x2="43.5" y2="108"/></g></g></svg>